<?xml version="1.0" encoding="UTF-8" standalone="no"?>
<svg
   width="30.808298pt"
   height="25.335241pt"
   version="1.1"
   viewBox="0 0 30.808298 25.335241"
   id="svg4"
   sodipodi:docname="back.svg"
   inkscape:version="1.2.1 (1:1.2.1+202210291244+9c6d41e410)"
   xmlns:inkscape="http://www.inkscape.org/namespaces/inkscape"
   xmlns:sodipodi="http://sodipodi.sourceforge.net/DTD/sodipodi-0.dtd"
   xmlns="http://www.w3.org/2000/svg"
   xmlns:svg="http://www.w3.org/2000/svg">
  <defs
     id="defs8" />
  <sodipodi:namedview
     id="namedview6"
     pagecolor="#ffffff"
     bordercolor="#666666"
     borderopacity="1.0"
     inkscape:showpageshadow="2"
     inkscape:pageopacity="0.0"
     inkscape:pagecheckerboard="0"
     inkscape:deskcolor="#d1d1d1"
     inkscape:document-units="pt"
     showgrid="false"
     inkscape:zoom="1.430376"
     inkscape:cx="-58.376259"
     inkscape:cy="54.531116"
     inkscape:window-width="1920"
     inkscape:window-height="1009"
     inkscape:window-x="0"
     inkscape:window-y="34"
     inkscape:window-maximized="1"
     inkscape:current-layer="svg4" />
  <path
     d="m 1.8829776e-4,12.66656 c -4.7e-4,0.22712 0.0450000022,0.45211 0.13358000224,0.66133 0.0726,0.15055 0.16751,0.28908 0.28155,0.41112 0.0351,0.0436 0.0521,0.0971 0.0914,0.14065 L 11.460758,24.8337 h 2.3e-4 c 0.43232,0.43256 1.06253,0.60148 1.65318,0.44316 0.59064,-0.15832 1.05192,-0.61959 1.21024,-1.21024 0.15832,-0.59064 -0.0106,-1.22085 -0.44293,-1.65342 L 5.8429683,14.37771 H 29.097238 c 0.61139,0 1.1761,-0.32631 1.48189,-0.85572 0.30556,-0.52962 0.30556,-1.18177 0,-1.71138 -0.30581,-0.52939 -0.87056,-0.85572 -1.48189,-0.85572 H 5.8429783 L 13.876058,2.9218005 v 2.4e-4 c 0.43233,-0.43256 0.60125,-1.06277 0.44293,-1.65342 -0.15832,-0.59064002 -0.61959,-1.05192002 -1.21024,-1.21024002 -0.59064,-0.15832 -1.22085,0.0106 -1.65318,0.44316 L 0.5009283,11.45558 c -0.0393,0.0408 -0.0563,0.0942 -0.0914,0.14065 -0.11403,0.12204 -0.20897,0.26057 -0.28154,0.41088 -0.0862,0.20898 -0.12981,0.4328 -0.127930002239,0.65874 z"
     id="path2"
     style="stroke-width:0.060313;fill:#ffffff" />
</svg>
