<?xml version="1.0" encoding="UTF-8" standalone="no"?>
<svg
   width="535.34998pt"
   height="459.702pt"
   version="1.1"
   viewBox="0 0 535.34998 459.70199"
   id="svg169"
   sodipodi:docname="control-panel.svg"
   inkscape:version="1.1.2 (1:1.1+202202050950+0a00cf5339)"
   xmlns:inkscape="http://www.inkscape.org/namespaces/inkscape"
   xmlns:sodipodi="http://sodipodi.sourceforge.net/DTD/sodipodi-0.dtd"
   xmlns="http://www.w3.org/2000/svg"
   xmlns:svg="http://www.w3.org/2000/svg">
  <sodipodi:namedview
     id="namedview171"
     pagecolor="#ffffff"
     bordercolor="#666666"
     borderopacity="1.0"
     inkscape:pageshadow="2"
     inkscape:pageopacity="0.0"
     inkscape:pagecheckerboard="0"
     inkscape:document-units="pt"
     showgrid="false"
     fit-margin-top="0"
     fit-margin-left="0"
     fit-margin-right="0"
     fit-margin-bottom="0"
     inkscape:zoom="0.77035714"
     inkscape:cx="356.32823"
     inkscape:cy="399.81456"
     inkscape:window-width="1920"
     inkscape:window-height="1009"
     inkscape:window-x="0"
     inkscape:window-y="34"
     inkscape:window-maximized="1"
     inkscape:current-layer="g167" />
  <defs
     id="defs71">
    <symbol
       id="w"
       overflow="visible">
      <path
         d="M 14,-0.84375 C 13.26953,-0.46875 12.5156,-0.1875 11.7344,0 10.95315,0.19531 10.1406,0.29688 9.2969,0.29688 c -2.543,0 -4.5547,-0.70703 -6.0312,-2.125 -1.4805,-1.4141 -2.2188,-3.3359 -2.2188,-5.7656 0,-2.4375 0.73828,-4.3633 2.2188,-5.7812 1.4766,-1.4141 3.4883,-2.125 6.0312,-2.125 0.84375,0 1.6562,0.09375 2.4375,0.28125 0.7813,0.1875 1.5352,0.46875 2.2656,0.84375 v 3.1562 c -0.73047,-0.5 -1.4492,-0.86328 -2.1562,-1.0938 -0.71094,-0.22656 -1.4531,-0.34375 -2.2344,-0.34375 -1.4062,0 -2.5117,0.44922 -3.3125,1.3438 -0.80469,0.89844 -1.2031,2.1367 -1.2031,3.7188 0,1.5625 0.39844,2.7969 1.2031,3.7031 0.80078,0.89844 1.9062,1.3438 3.3125,1.3438 0.78125,0 1.5234,-0.11328 2.2344,-0.34375 0.70703,-0.23828 1.4258,-0.60156 2.1562,-1.0938 z"
         id="path2" />
    </symbol>
    <symbol
       id="d"
       overflow="visible">
      <path
         d="M 10.234,-8.3125 C 9.9215,-8.45703 9.60119,-8.56641 9.28088,-8.64062 8.96838,-8.710933 8.64807,-8.75 8.32776,-8.75 c -0.9375,0 -1.6641,0.30469 -2.1719,0.90625 -0.5,0.59375 -0.75,1.4531 -0.75,2.5781 V -5e-5 h -3.6562 v -11.422 h 3.6562 v 1.875 c 0.46875,-0.75 1.0039,-1.2969 1.6094,-1.6406 0.61328,-0.34375 1.3477,-0.51562 2.2031,-0.51562 0.11328,0 0.24219,0.0078 0.39062,0.01563 0.14453,0.01172 0.35156,0.03125 0.625,0.0625 z"
         id="path5" />
    </symbol>
    <symbol
       id="a"
       overflow="visible">
      <path
         d="m 13.156,-5.75 v 1.0469 H 4.6248 c 0.082031,0.85547 0.39062,1.5 0.92188,1.9375 0.53125,0.42969 1.2695,0.64062 2.2188,0.64062 0.76953,0 1.5547,-0.11328 2.3594,-0.34375 0.8125,-0.22656 1.6445,-0.57812 2.5,-1.0469 v 2.8281 c -0.86719,0.32422 -1.7305,0.57031 -2.5938,0.73438 -0.86719,0.16406 -1.7305,0.25 -2.5938,0.25 -2.0742,0 -3.6836,-0.52344 -4.8281,-1.5781 -1.1484,-1.0508 -1.7188,-2.5234 -1.7188,-4.4219 0,-1.8633 0.5625,-3.3281 1.6875,-4.3906 1.1328,-1.0703 2.6875,-1.6094 4.6562,-1.6094 1.7891,0 3.2227,0.54297 4.2969,1.625 1.082,1.0859 1.625,2.5273 1.625,4.3281 z m -3.75,-1.2031 c 0,-0.69531 -0.20312,-1.2539 -0.60938,-1.6719 -0.40625,-0.42578 -0.93359,-0.64062 -1.5781,-0.64062 -0.71094,0 -1.2891,0.19922 -1.7344,0.59375 -0.4375,0.39844 -0.71484,0.96875 -0.82812,1.7188 z"
         id="path8" />
    </symbol>
    <symbol
       id="c"
       overflow="visible">
      <path
         d="m 6.875,-5.1406 c -0.76172,0 -1.3359,0.13281 -1.7188,0.39062 -0.38672,0.26172 -0.57812,0.64062 -0.57812,1.1406 0,0.46094 0.15625,0.82422 0.46875,1.0938 0.3125,0.26172 0.73828,0.39062 1.2812,0.39062 0.6875,0 1.2656,-0.24219 1.7344,-0.73438 0.46875,-0.5 0.70312,-1.1172 0.70312,-1.8594 v -0.42188 z m 5.5781,-1.375 V 0 H 8.7656 V -1.6875 C 8.27341,-1 7.7226,-0.4922 7.1094,-0.1719 6.50393,0.1406 5.7656,0.29685 4.8906,0.29685 3.7031,0.29685 2.7383,-0.0469 2,-0.73435 1.25781,-1.42966 0.8906,-2.32815 0.8906,-3.42185 c 0,-1.3438 0.45703,-2.3281 1.375,-2.9531 0.92578,-0.625 2.3789,-0.9375 4.3594,-0.9375 H 8.7656 V -7.5937 c 0,-0.58203 -0.23047,-1.0039 -0.6875,-1.2656 -0.44922,-0.26953 -1.1562,-0.40625 -2.125,-0.40625 -0.78125,0 -1.5117,0.078125 -2.1875,0.23438 -0.66797,0.15625 -1.293,0.39062 -1.875,0.70312 v -2.7969 c 0.78906,-0.1875 1.5781,-0.32812 2.3594,-0.42188 0.78906,-0.10156 1.582,-0.15625 2.375,-0.15625 2.0508,0 3.5352,0.40625 4.4531,1.2188 0.91406,0.8125 1.375,2.1367 1.375,3.9688 z"
         id="path11" />
    </symbol>
    <symbol
       id="b"
       overflow="visible">
      <path
         d="m 5.75,-14.672 v 3.25 H 9.5 v 2.6094 H 5.75 v 4.8438 c 0,0.53125 0.10156,0.89062 0.3125,1.0781 0.20703,0.1875 0.625,0.28125 1.25,0.28125 h 1.875 V -5e-5 H 6.0625 C 4.6133,-5e-5 3.5859,-0.30083 2.9844,-0.9063 2.39065,-1.50786 2.09378,-2.5313 2.09378,-3.9688 v -4.8438 h -1.8125 v -2.6094 h 1.8125 v -3.25 z"
         id="path14" />
    </symbol>
    <symbol
       id="k"
       overflow="visible">
      <path
         d="m 9.5312,-9.75 v -6.125 h 3.6719 V 0 H 9.5312 V -1.6562 C 9.01948,-0.97651 8.4609,-0.4843 7.8593,-0.1718 7.25383,0.1407 6.5546,0.29695 5.7655,0.29695 c -1.4062,0 -2.5625,-0.55469 -3.4688,-1.6719 -0.90625,-1.125 -1.3594,-2.5664 -1.3594,-4.3281 0,-1.7578 0.45312,-3.1953 1.3594,-4.3125 0.90625,-1.125 2.0625,-1.6875 3.4688,-1.6875 0.78906,0 1.4883,0.16406 2.0938,0.48438 0.60156,0.3125 1.1602,0.80469 1.6719,1.4688 z M 7.125,-2.3594 c 0.78125,0 1.375,-0.28125 1.7812,-0.84375 0.41406,-0.57031 0.625,-1.4062 0.625,-2.5 0,-1.082 -0.21094,-1.9102 -0.625,-2.4844 -0.40625,-0.57031 -1,-0.85938 -1.7812,-0.85938 -0.7812,0 -1.3828,0.28906 -1.7969,0.85938 -0.40625,0.57422 -0.60938,1.4023 -0.60938,2.4844 0,1.0938 0.20312,1.9297 0.60938,2.5 0.41406,0.5625 1.0156,0.84375 1.7969,0.84375 z"
         id="path17" />
    </symbol>
    <symbol
       id="j"
       overflow="visible">
      <path
         d="m 7.8281,-2.3594 c 0.78125,0 1.375,-0.28125 1.7812,-0.84375 0.41406,-0.57031 0.625,-1.4062 0.625,-2.5 0,-1.082 -0.21094,-1.9102 -0.625,-2.4844 -0.40625,-0.57031 -1,-0.85938 -1.7812,-0.85938 -0.7812,0 -1.3828,0.28906 -1.7969,0.85938 -0.41797,0.57422 -0.625,1.4023 -0.625,2.4844 0,1.0859 0.20703,1.9141 0.625,2.4844 0.41406,0.57422 1.0156,0.85938 1.7969,0.85938 z M 5.4062,-9.75 c 0.5,-0.66406 1.0547,-1.1562 1.6719,-1.4688 0.61328,-0.32031 1.3164,-0.48438 2.1094,-0.48438 1.4062,0 2.5625,0.5625 3.4688,1.6875 0.90625,1.1172 1.3594,2.5547 1.3594,4.3125 0,1.7617 -0.45312,3.2031 -1.3594,4.3281 -0.90625,1.1172 -2.0625,1.6719 -3.4688,1.6719 -0.79297,0 -1.4961,-0.15625 -2.1094,-0.46875 -0.61719,-0.32031 -1.1719,-0.81641 -1.6719,-1.4844 v 1.6562 H 1.75 v -15.875 h 3.6562 z"
         id="path20" />
    </symbol>
    <symbol
       id="i"
       overflow="visible">
      <path
         d="m 0.25,-11.422 h 3.6562 l 3.0781,7.75 2.6094,-7.75 h 3.6406 L 8.4374,1.078 C 7.95693,2.3475 7.3944,3.2382 6.7499,3.7499 6.10146,4.25771 5.2538,4.51552 4.203,4.51552 H 2.0936 v -2.4062 h 1.1406 c 0.61328,0 1.0625,-0.10156 1.3438,-0.29688 0.28906,-0.19922 0.51562,-0.55469 0.67188,-1.0625 l 0.09375,-0.3125 z"
         id="path23" />
    </symbol>
    <symbol
       id="h"
       overflow="visible">
      <path
         d="M 11.156,-2.7812 H 5.0154 L 4.04665,0 h -3.9375 l 5.6406,-15.234 h 4.6719 L 16.06225,0 h -3.9375 z M 5.9998,-5.5937 h 4.1719 l -2.0781,-6.0625 z"
         id="path26" />
    </symbol>
    <symbol
       id="v"
       overflow="visible">
      <path
         d="m 1.1875,-11.422 h 9.9688 v 2.5469 l -6.0156,6.2656 h 6.0156 V -1e-4 H 0.9373 V -2.547 L 6.9529,-8.8126 H 1.1873 Z"
         id="path29" />
    </symbol>
    <symbol
       id="g"
       overflow="visible">
      <path
         d="m 12.344,-9.5312 c 0.45703,-0.70703 1.0039,-1.2422 1.6406,-1.6094 0.63281,-0.375 1.3359,-0.5625 2.1094,-0.5625 1.3125,0 2.3047,0.40625 2.9844,1.2188 0.6875,0.8125 1.0312,1.9922 1.0312,3.5312 V 0 h -3.6719 v -5.9531 c 0.0078,-0.09375 0.01563,-0.1875 0.01563,-0.28125 0.0078,-0.09375 0.01563,-0.22656 0.01563,-0.40625 0,-0.8125 -0.12109,-1.3984 -0.35938,-1.7656 -0.24219,-0.36328 -0.625,-0.54688 -1.1562,-0.54688 -0.69922,0 -1.2344,0.28906 -1.6094,0.85938 -0.375,0.57422 -0.57031,1.4023 -0.57812,2.4844 V 1e-4 H 9.09395 V -5.953 c 0,-1.2695 -0.10938,-2.0859 -0.32812,-2.4531 -0.21875,-0.36328 -0.60938,-0.54688 -1.1719,-0.54688 -0.69922,0 -1.2422,0.29297 -1.625,0.875 -0.375,0.57422 -0.5625,1.3906 -0.5625,2.4531 v 5.625 h -3.6719 v -11.422 h 3.6719 v 1.6719 c 0.44531,-0.64453 0.96094,-1.1289 1.5469,-1.4531 0.58203,-0.33203 1.2227,-0.5 1.9219,-0.5 0.78906,0 1.4883,0.19531 2.0938,0.57812 0.60156,0.375 1.0625,0.90625 1.375,1.5938 z"
         id="path32" />
    </symbol>
    <symbol
       id="u"
       overflow="visible">
      <path
         d="M 1.9219,-15.234 H 5.8438 V 0 H 1.9219 Z"
         id="path35" />
    </symbol>
    <symbol
       id="t"
       overflow="visible">
      <path
         d="m 10.688,-11.062 v 2.7656 C 9.89503,-8.61671 9.1333,-8.8589 8.4068,-9.01515 c -0.71875,-0.16406 -1.4023,-0.25 -2.0469,-0.25 -0.69922,0 -1.2188,0.089844 -1.5625,0.26562 -0.33594,0.16797 -0.5,0.42969 -0.5,0.78125 0,0.30469 0.125,0.53125 0.375,0.6875 0.25781,0.15625 0.72266,0.27344 1.3906,0.34375 l 0.64062,0.09375 c 1.8633,0.23047 3.1172,0.62109 3.7656,1.1719 0.64453,0.54297 0.96875,1.3984 0.96875,2.5625 0,1.2109 -0.44922,2.1211 -1.3438,2.7344 -0.89844,0.61719 -2.2344,0.92188 -4.0156,0.92188 -0.75,0 -1.5312,-0.0625 -2.3438,-0.1875 -0.80469,-0.11328 -1.6328,-0.28906 -2.4844,-0.53125 v -2.7656 c 0.72656,0.35547 1.4727,0.62109 2.2344,0.79688 0.76953,0.17969 1.5508,0.26562 2.3438,0.26562 0.70703,0 1.2422,-0.097656 1.6094,-0.29688 0.36328,-0.19531 0.54688,-0.49219 0.54688,-0.89062 0,-0.32031 -0.125,-0.5625 -0.375,-0.71875 -0.25,-0.16406 -0.74609,-0.28906 -1.4844,-0.375 L 5.48483,-4.483825 c -1.625,-0.20703 -2.7656,-0.58594 -3.4219,-1.1406 -0.65625,-0.55078 -0.98438,-1.3828 -0.98438,-2.5 0,-1.2188 0.41016,-2.1172 1.2344,-2.7031 0.83203,-0.58203 2.1094,-0.875 3.8281,-0.875 0.67578,0 1.3828,0.05469 2.125,0.15625 0.73828,0.10547 1.5469,0.26562 2.4219,0.48438 z"
         id="path38" />
    </symbol>
    <symbol
       id="f"
       overflow="visible">
      <path
         d="M 13.234,-6.9531 V 0 H 9.5621 v -5.2969 c 0,-1 -0.023438,-1.6875 -0.0625,-2.0625 C 9.456631,-7.7344 9.37851,-8.00784 9.26522,-8.18752 9.1285,-8.4258 8.9371,-8.6133 8.6871,-8.75002 8.44491,-8.88283 8.17148,-8.95314 7.85898,-8.95314 c -0.76172,0 -1.3594,0.29688 -1.7969,0.89062 -0.4375,0.58594 -0.65625,1.3984 -0.65625,2.4375 v 5.625 h -3.6562 v -15.875 h 3.6562 v 6.125 c 0.55078,-0.66406 1.1328,-1.1562 1.75,-1.4688 0.625,-0.32031 1.3125,-0.48438 2.0625,-0.48438 1.3125,0 2.3047,0.40625 2.9844,1.2188 0.6875,0.8125 1.0312,1.9922 1.0312,3.5312 z"
         id="path41" />
    </symbol>
    <symbol
       id="s"
       overflow="visible">
      <path
         d="m 7.125,-9.0469 c -0.78125,0 -1.3828,0.28906 -1.7969,0.85938 -0.40625,0.57422 -0.60938,1.4023 -0.60938,2.4844 0,1.0938 0.20312,1.9297 0.60938,2.5 0.41406,0.5625 1.0156,0.84375 1.7969,0.84375 0.7813,0 1.375,-0.28125 1.7812,-0.84375 0.41406,-0.57031 0.625,-1.4062 0.625,-2.5 0,-1.082 -0.21094,-1.9102 -0.625,-2.4844 -0.40625,-0.57031 -1,-0.85938 -1.7812,-0.85938 z m 2.4062,7.3906 C 9.01948,-0.97661 8.4609,-0.4844 7.8593,-0.1719 7.25383,0.1406 6.5546,0.29685 5.7655,0.29685 c -1.4062,0 -2.5625,-0.55469 -3.4688,-1.6719 -0.90625,-1.125 -1.3594,-2.5664 -1.3594,-4.3281 0,-1.7578 0.45312,-3.1914 1.3594,-4.2969 0.90625,-1.1133 2.0625,-1.6719 3.4688,-1.6719 0.78906,0 1.4883,0.15625 2.0938,0.46875 0.60156,0.3125 1.1602,0.80469 1.6719,1.4688 v -1.6875 h 3.6719 V 4.3441 H 9.5312 Z"
         id="path44" />
    </symbol>
    <symbol
       id="r"
       overflow="visible">
      <path
         d="m 9.2656,-15.875 v 2.4062 H 7.25 c -0.51172,0 -0.87109,0.09375 -1.0781,0.28125 -0.21094,0.1875 -0.3125,0.51172 -0.3125,0.96875 v 0.79688 h 3.125 v 2.6094 H 5.8594 V -2e-5 H 2.2188 v -8.8125 H 0.3907 v -2.6094 h 1.8281 v -0.79688 c 0,-1.25 0.34375,-2.1719 1.0312,-2.7656 0.69531,-0.59375 1.7734,-0.89062 3.2344,-0.89062 z"
         id="path47" />
    </symbol>
    <symbol
       id="e"
       overflow="visible">
      <path
         d="m 7.1875,-9.0938 c -0.80469,0 -1.418,0.29297 -1.8438,0.875 -0.42969,0.58594 -0.64062,1.4219 -0.64062,2.5156 0,1.0937 0.21094,1.9336 0.64062,2.5156 0.42578,0.58594 1.0391,0.875 1.8438,0.875 0.80078,0 1.4102,-0.28906 1.8281,-0.875 0.42578,-0.58203 0.64062,-1.4219 0.64062,-2.5156 0,-1.0937 -0.21484,-1.9297 -0.64062,-2.5156 -0.41797,-0.58203 -1.0273,-0.875 -1.8281,-0.875 z m 0,-2.6094 c 1.9688,0 3.5039,0.53125 4.6094,1.5938 1.1016,1.0625 1.6562,2.5312 1.6562,4.4062 0,1.875 -0.55469,3.3438 -1.6562,4.4062 -1.1055,1.0625 -2.6406,1.5938 -4.6094,1.5938 -1.9688,0 -3.5117,-0.53125 -4.625,-1.5938 -1.1172,-1.0625 -1.6719,-2.5312 -1.6719,-4.4062 0,-1.875 0.55469,-3.3438 1.6719,-4.4062 1.1133,-1.0625 2.6562,-1.5938 4.625,-1.5938 z"
         id="path50" />
    </symbol>
    <symbol
       id="q"
       overflow="visible">
      <path
         d="m 1.9219,-15.234 h 4.375 l 5.5469,10.453 v -10.453 h 3.7188 V 0 h -4.375 L 5.6407,-10.453 V 0 H 1.9219 Z"
         id="path53" />
    </symbol>
    <symbol
       id="p"
       overflow="visible">
      <path
         d="m 1.625,-4.4531 v -6.9688 h 3.6719 v 1.1406 c 0,0.61719 -0.00781,1.3906 -0.015625,2.3281 v 1.875 c 0,0.91797 0.019531,1.5781 0.0625,1.9844 0.050781,0.40625 0.13281,0.69922 0.25,0.875 0.15625,0.24219 0.35156,0.42969 0.59375,0.5625 0.23828,0.125 0.51562,0.1875 0.82812,0.1875 0.75781,0 1.3594,-0.28906 1.7969,-0.875 0.4375,-0.58203 0.65625,-1.3945 0.65625,-2.4375 v -5.6406 h 3.6562 V 1e-4 h -3.6562 v -1.6562 c -0.55469,0.66797 -1.1367,1.1641 -1.75,1.4844 -0.61719,0.3125 -1.293,0.46875 -2.0312,0.46875 -1.3242,0 -2.3359,-0.39844 -3.0312,-1.2031 -0.6875,-0.8125 -1.0312,-1.9922 -1.0312,-3.5469 z"
         id="path56" />
    </symbol>
    <symbol
       id="o"
       overflow="visible">
      <path
         d="M 13.234,-6.9531 V 0 H 9.5621 v -5.3281 c 0,-0.97656 -0.023438,-1.6562 -0.0625,-2.0312 C 9.456631,-7.7343 9.37851,-8.00774 9.26522,-8.18742 9.1285,-8.4257 8.9371,-8.6132 8.6871,-8.74992 8.44491,-8.88273 8.17148,-8.95304 7.85898,-8.95304 c -0.76172,0 -1.3594,0.29688 -1.7969,0.89062 -0.4375,0.58594 -0.65625,1.3984 -0.65625,2.4375 V 8e-5 h -3.6562 v -11.422 h 3.6562 v 1.6719 c 0.55078,-0.66406 1.1328,-1.1562 1.75,-1.4688 0.625,-0.32031 1.3125,-0.48438 2.0625,-0.48438 1.3125,0 2.3047,0.40625 2.9844,1.2188 0.6875,0.8125 1.0312,1.9922 1.0312,3.5312 z"
         id="path59" />
    </symbol>
    <symbol
       id="n"
       overflow="visible">
      <path
         d="m 1.9219,-15.234 h 6.5156 c 1.9375,0 3.4219,0.43359 4.4531,1.2969 1.0391,0.85547 1.5625,2.0781 1.5625,3.6719 0,1.6055 -0.52344,2.8398 -1.5625,3.7031 -1.0312,0.85547 -2.5156,1.2812 -4.4531,1.2812 H 5.8437 V 3e-4 H 1.9218 Z m 3.9219,2.8438 v 4.2656 h 2.1719 c 0.75781,0 1.3477,-0.17969 1.7656,-0.54688 0.41406,-0.375 0.625,-0.90625 0.625,-1.5938 0,-0.67578 -0.21094,-1.1953 -0.625,-1.5625 -0.41797,-0.375 -1.0078,-0.5625 -1.7656,-0.5625 z"
         id="path62" />
    </symbol>
    <symbol
       id="m"
       overflow="visible">
      <path
         d="m 1.75,-11.422 h 3.6562 v 11.219 c 0,1.5312 -0.37109,2.6953 -1.1094,3.5 C 3.56633,4.1095 2.5038,4.5158 1.1093,4.5158 H -0.6876 V 2.1096 h 0.625 c 0.69531,0 1.1719,-0.15625 1.4219,-0.46875 0.25781,-0.3125 0.39062,-0.92969 0.39062,-1.8438 z m 0,-4.4531 h 3.6562 v 2.9844 H 1.75 Z"
         id="path65" />
    </symbol>
    <symbol
       id="l"
       overflow="visible">
      <path
         d="m 10.984,-11.062 v 2.9688 c -0.5,-0.33203 -1,-0.58203 -1.5,-0.75 -0.5,-0.16406 -1.0156,-0.25 -1.5469,-0.25 -1.0234,0 -1.8203,0.30469 -2.3906,0.90625 -0.5625,0.59375 -0.84375,1.4219 -0.84375,2.4844 0,1.0742 0.28125,1.9062 0.84375,2.5 0.57031,0.59375 1.3672,0.89062 2.3906,0.89062 0.57031,0 1.1133,-0.082031 1.625,-0.25 0.50781,-0.17578 0.98438,-0.42969 1.4219,-0.76562 v 2.9844 C 10.40978,-0.1244 9.8278,0.03576 9.234,0.14123 8.64806,0.24279 8.066,0.29748 7.484,0.29748 c -2.0625,0 -3.6797,-0.52344 -4.8438,-1.5781 -1.168,-1.0625 -1.75,-2.5352 -1.75,-4.4219 0,-1.8828 0.58203,-3.3516 1.75,-4.4062 1.1641,-1.0625 2.7812,-1.5938 4.8438,-1.5938 0.59375,0 1.1797,0.05469 1.7656,0.15625 0.58203,0.10547 1.1602,0.26562 1.7344,0.48438 z"
         id="path68" />
    </symbol>
  </defs>
  <g
     id="g167"
     transform="translate(-82.535,-50.148)">
    <path
       d="M 580.27,404.12 H 119.73 c -20.477,0 -37.195,-16.715 -37.195,-37.195 v -280 C 82.5389,66.866 99.254,50.148 119.73,50.148 h 460.96 c 20.477,0 37.195,16.715 37.195,37.195 v 280 c -0.42187,20.059 -17.137,36.777 -37.613,36.777 z M 119.73,58.51 c -15.879,0 -28.836,12.953 -28.836,28.836 v 280 c 0,15.879 12.957,28.836 28.836,28.836 h 460.96 c 15.879,0 28.836,-12.957 28.836,-28.836 v -280 c 0,-15.879 -12.957,-28.836 -28.836,-28.836 z"
       id="path73" />
    <path
       d="M 461.16,467.22 H 238.83 l 11.703,-71.461 h 198.93 z m -212.71,-8.3555 h 203.11 l -8.7773,-54.746 h -185.14 z"
       id="path75" />
    <path
       d="M 466.6,509.85 H 233.4 c -13.793,0 -25.492,-11.285 -25.492,-25.492 0,-14.207 11.285,-25.492 25.492,-25.492 h 233.2 c 13.793,0 25.492,11.285 25.492,25.492 0,14.207 -11.703,25.492 -25.492,25.492 z M 233.4,467.221 c -9.6133,0 -17.133,7.5234 -17.133,17.133 0,9.6133 7.5234,17.133 17.133,17.133 h 233.2 c 9.6133,0 17.133,-7.5234 17.133,-17.133 0,-9.6133 -7.5234,-17.133 -17.133,-17.133 z"
       id="path77" />
    <path
       d="m 213.76,313.02 c -47.223,0 -85.672,-38.449 -85.672,-85.672 0,-2.0898 1.6719,-4.1797 4.1797,-4.1797 2.5078,0 4.1797,1.6719 4.1797,4.1797 0,42.625 34.688,77.312 77.312,77.312 42.624,0 77.312,-34.688 77.312,-77.312 0,-42.624 -34.688,-77.312 -77.312,-77.312 -2.0898,0 -4.1797,-1.6719 -4.1797,-4.1797 0,-2.0898 1.6719,-4.1797 4.1797,-4.1797 47.223,0 85.672,38.449 85.672,85.672 0,47.223 -38.449,85.672 -85.672,85.672 z"
       id="path79" />
    <path
       d="m 213.34,231.11 h -95.285 c -2.0898,0 -4.1797,-1.6719 -4.1797,-4.1797 0,-54.746 44.715,-99.461 99.461,-99.461 2.0898,0 4.1797,1.6719 4.1797,4.1797 v 95.703 c 0.004,2.0859 -1.668,3.7578 -4.1758,3.7578 z m -91.105,-7.9414 h 87.344 v -87.344 c -47.223,2.0898 -85.254,40.121 -87.344,87.344 z"
       id="path81" />
    <path
       d="m 577.76,253.25 h -233.2 c -2.0898,0 -4.1797,-1.6719 -4.1797,-4.1797 v -43.879 c 0,-2.0898 1.6719,-4.1797 4.1797,-4.1797 h 233.2 c 2.0898,0 4.1797,1.6719 4.1797,4.1797 v 43.879 c 0,2.5078 -2.0898,4.1797 -4.1797,4.1797 z m -229.02,-8.3594 h 224.84 v -35.523 l -224.84,0.004 z"
       id="path83" />
    <path
       d="m 577.76,176.36 h -233.2 c -2.0898,0 -4.1797,-1.6719 -4.1797,-4.1797 v -43.883 c 0,-2.0898 1.6719,-4.1797 4.1797,-4.1797 h 233.2 c 2.0898,0 4.1797,1.6719 4.1797,4.1797 v 43.879 c 0,2.5117 -2.0898,4.1836 -4.1797,4.1836 z m -229.02,-7.9414 h 224.84 v -35.523 H 348.74 Z"
       id="path85" />
    <path
       d="m 577.76,330.15 h -233.2 c -2.0898,0 -4.1797,-1.6719 -4.1797,-4.1797 v -43.879 c 0,-2.0898 1.6719,-4.1797 4.1797,-4.1797 h 233.2 c 2.0898,0 4.1797,1.6719 4.1797,4.1797 v 43.879 c 0,2.0898 -2.0898,4.1797 -4.1797,4.1797 z m -229.02,-8.3555 h 224.84 v -35.523 H 348.74 Z"
       id="path87" />
    <path
       d="m 431.07,176.36 c -1.6719,0 -3.3438,-1.2539 -3.7617,-2.9258 l -15.043,-43.879 c -0.83594,-2.0898 0.41797,-4.5977 2.5078,-5.4336 2.0898,-0.83594 4.5977,0.41797 5.4336,2.5078 l 15.043,43.879 c 0.83594,2.0898 -0.41797,4.5977 -2.5078,5.4336 -0.83594,0.41797 -1.2539,0.41797 -1.6719,0.41797 z"
       id="path89" />
    <path
       d="m 524.27,253.25 c -1.6719,0 -3.3438,-1.2539 -3.7617,-2.9258 l -15.043,-43.879 c -0.83594,-2.0898 0.41797,-4.5977 2.5078,-5.4336 2.08983,-0.8359 4.5977,0.41797 5.0156,2.5078 l 15.043,43.879 c 0.83594,2.0898 -0.41797,4.5977 -2.5078,5.4336 -0.41797,0.41797 -0.83594,0.41797 -1.2539,0.41797 z"
       id="path91" />
    <path
       d="m 498.78,330.15 c -1.6719,0 -3.3438,-1.2539 -3.7617,-2.9258 l -15.465,-43.879 c -0.83594,-2.0898 0.41797,-4.5977 2.5078,-5.4336 2.0898,-0.83594 4.5977,0.41797 5.4336,2.5078 l 15.043,43.879 c 0.83594,2.0898 -0.41797,4.5977 -2.5078,5.4336 -0.41406,0.41797 -0.83203,0.41797 -1.25,0.41797 z"
       id="path93" />
  </g>
</svg>
