<?xml version="1.0" encoding="UTF-8"?>
<svg width="1200pt" height="1200pt" version="1.1" viewBox="0 0 1200 1200" xmlns="http://www.w3.org/2000/svg">
 <path d="m450.23 1199.8c-19.883 0-38.953-7.9023-53.016-21.961-14.059-14.062-21.961-33.133-21.961-53.016v-338.53l75.48-0.09375v293.3l0.003906-0.003906c0 12.027 4.7773 23.562 13.277 32.07 8.5039 8.5039 20.035 13.285 32.062 13.293h583.09c12.027 0 23.562-4.7812 32.066-13.289 8.5039-8.5078 13.277-20.043 13.273-32.074l-1.1641-958.6c-0.003907-12.027-4.7852-23.559-13.289-32.062-8.5078-8.5-20.043-13.277-32.07-13.277h-581.88c-12.023 0.003906-23.555 4.7812-32.055 13.285-8.5039 8.5039-13.281 20.031-13.285 32.055v291.66h-75.504v-337.39c0-19.883 7.9023-38.953 21.961-53.016 14.062-14.059 33.133-21.961 53.016-21.961h674.78c19.887 0 38.957 7.9023 53.016 21.961 14.062 14.062 21.961 33.133 21.961 53.016v1049.7c0 19.883-7.8984 38.953-21.961 53.016-14.059 14.059-33.129 21.961-53.016 21.961zm173.81-371.75v-0.003906c-7.0352-7.0273-10.984-16.566-10.984-26.512 0-9.9453 3.9492-19.48 10.984-26.512l137.95-137.94h-724.5c-13.395 0-25.77-7.1445-32.465-18.742-6.6992-11.602-6.6992-25.891 0-37.488 6.6953-11.598 19.07-18.746 32.465-18.746h722.18l-135.63-135.61-0.003907 0.003906c-7.0312-7.0312-10.984-16.566-10.984-26.508-0.003907-9.9414 3.9453-19.477 10.977-26.512 7.0273-7.0312 16.562-10.98 26.504-10.984 9.9453 0 19.48 3.9492 26.512 10.977l221.42 227.29-221.44 227.27c-7.0312 7.0273-16.562 10.973-26.504 10.973-9.9414 0-19.473-3.9453-26.504-10.973z"/>
</svg>
