<?xml version="1.0" encoding="UTF-8" standalone="no"?>
<svg
   width="50pt"
   height="50pt"
   version="1.1"
   viewBox="0 0 50 50"
   id="svg145"
   sodipodi:docname="login.svg"
   inkscape:version="1.1.2 (1:1.1+202202050950+0a00cf5339)"
   xmlns:inkscape="http://www.inkscape.org/namespaces/inkscape"
   xmlns:sodipodi="http://sodipodi.sourceforge.net/DTD/sodipodi-0.dtd"
   xmlns="http://www.w3.org/2000/svg"
   xmlns:svg="http://www.w3.org/2000/svg">
  <sodipodi:namedview
     id="namedview147"
     pagecolor="#ffffff"
     bordercolor="#666666"
     borderopacity="1.0"
     inkscape:pageshadow="2"
     inkscape:pageopacity="0.0"
     inkscape:pagecheckerboard="0"
     inkscape:document-units="pt"
     showgrid="false"
     inkscape:zoom="6.1628571"
     inkscape:cx="55.088085"
     inkscape:cy="43.973111"
     inkscape:window-width="1920"
     inkscape:window-height="1009"
     inkscape:window-x="0"
     inkscape:window-y="34"
     inkscape:window-maximized="1"
     inkscape:current-layer="g143" />
  <defs
     id="defs65">
    <symbol
       id="u"
       overflow="visible">
      <path
         d="M 3.75,-0.21875 C 3.55078,-0.125 3.34766,-0.05078 3.14062,0 2.92968,0.050781 2.71093,0.078125 2.48437,0.078125 c -0.67969,0 -1.2148,-0.1875 -1.6094,-0.5625 -0.39844,-0.38281 -0.59375,-0.89844 -0.59375,-1.5469 0,-0.65625 0.19531,-1.1719 0.59375,-1.5469 0.39453,-0.38281 0.92969,-0.57812 1.6094,-0.57812 0.22656,0 0.44531,0.027344 0.65625,0.078125 0.20703,0.054687 0.41016,0.13281 0.60938,0.23438 v 0.84375 C 3.55078,-3.13285 3.35938,-3.23442 3.17188,-3.29692 2.98438,-3.35942 2.78516,-3.39067 2.57813,-3.39067 c -0.375,0 -0.67188,0.12109 -0.89062,0.35938 -0.21875,0.24219 -0.32812,0.57422 -0.32812,1 0,0.41797 0.10938,0.74609 0.32812,0.98438 0.21875,0.24219 0.51562,0.35938 0.89062,0.35938 0.20703,0 0.40625,-0.03125 0.59375,-0.09375 0.1875,-0.0625 0.37891,-0.15625 0.57812,-0.28125 z"
         id="path2" />
    </symbol>
    <symbol
       id="d"
       overflow="visible">
      <path
         d="M 2.75,-2.2188 C 2.65625,-2.257862 2.56641,-2.289112 2.48438,-2.31255 2.398443,-2.332081 2.31641,-2.3438 2.23438,-2.3438 c -0.25,0 -0.44531,0.085938 -0.57812,0.25 -0.13672,0.15625 -0.20312,0.38672 -0.20312,0.6875 V -1e-4 H 0.46876 v -3.0625 h 0.98438 v 0.5 c 0.125,-0.19531 0.26562,-0.34375 0.42188,-0.4375 0.16406,-0.09375 0.36328,-0.14062 0.59375,-0.14062 0.03125,0 0.0625,0.00781 0.09375,0.015625 0.039062,0 0.097656,0.00781 0.17188,0.015625 z"
         id="path5" />
    </symbol>
    <symbol
       id="a"
       overflow="visible">
      <path
         d="m 3.5156,-1.5312 v 0.26562 H 1.2344 c 0.019531,0.23047 0.10156,0.40234 0.25,0.51562 0.14453,0.11719 0.34375,0.17188 0.59375,0.17188 0.20703,0 0.41406,-0.023437 0.625,-0.078125 0.21875,-0.0625 0.44141,-0.15625 0.67188,-0.28125 v 0.75 c -0.23047,0.09375 -0.46094,0.16406 -0.6875,0.20312 -0.23047,0.039062 -0.46484,0.0625 -0.70312,0.0625 -0.55469,0 -0.98438,-0.14062 -1.2969,-0.42188 -0.30469,-0.28125 -0.45312,-0.67578 -0.45312,-1.1875 0,-0.5 0.14844,-0.89062 0.45312,-1.1719 0.30078,-0.28906 0.71875,-0.4375 1.25,-0.4375 0.47656,0 0.85938,0.14844 1.1406,0.4375 0.28906,0.29297 0.4375,0.68359 0.4375,1.1719 z m -1,-0.32812 c 0,-0.1875 -0.058594,-0.33594 -0.17188,-0.45312 -0.10547,-0.11328 -0.24219,-0.17188 -0.40625,-0.17188 -0.19922,0 -0.35547,0.058594 -0.46875,0.17188 -0.11719,0.10547 -0.1875,0.25781 -0.21875,0.45312 z"
         id="path8" />
    </symbol>
    <symbol
       id="c"
       overflow="visible">
      <path
         d="m 1.8438,-1.375 c -0.21094,0 -0.36719,0.039062 -0.46875,0.10938 -0.10547,0.0625 -0.15625,0.16406 -0.15625,0.29688 0,0.125 0.039062,0.22656 0.125,0.29688 0.082031,0.0625 0.20312,0.09375 0.35938,0.09375 0.17578,0 0.32812,-0.0625 0.45312,-0.1875 0.125,-0.13281 0.1875,-0.30078 0.1875,-0.5 V -1.37499 Z M 3.3282,-1.75 V 0 H 2.34382 v -0.45312 c -0.125,0.1875 -0.27344,0.32422 -0.4375,0.40625 -0.16797,0.082031 -0.36719,0.125 -0.59375,0.125 -0.32422,0 -0.58594,-0.085938 -0.78125,-0.26562 -0.19922,-0.1875 -0.29688,-0.42969 -0.29688,-0.73438 0,-0.35156 0.125,-0.61328 0.375,-0.78125 0.25,-0.16406 0.63281,-0.25 1.1562,-0.25 h 0.57812 v -0.078125 c 0,-0.15625 -0.0625,-0.26953 -0.1875,-0.34375 -0.11719,-0.070312 -0.30469,-0.10938 -0.5625,-0.10938 -0.21094,0 -0.40625,0.023437 -0.59375,0.0625 -0.17969,0.042969 -0.33984,0.10547 -0.48438,0.1875 v -0.75 c 0.20703,-0.039063 0.41406,-0.078125 0.625,-0.10938 0.20703,-0.03125 0.41406,-0.046875 0.625,-0.046875 0.55078,0 0.94531,0.10938 1.1875,0.32812 0.25,0.21875 0.375,0.57422 0.375,1.0625 z"
         id="path11" />
    </symbol>
    <symbol
       id="b"
       overflow="visible">
      <path
         d="m 1.5312,-3.9219 v 0.85938 H 2.5468 V -2.3594 H 1.5312 v 1.2969 c 0,0.14844 0.023438,0.24609 0.078125,0.29688 0.0625,0.042969 0.17578,0.0625 0.34375,0.0625 h 0.5 V 0 H 1.624955 C 1.238235,0 0.960895,-0.078125 0.796835,-0.23438 0.640585,-0.39844 0.562455,-0.67579 0.562455,-1.0625 v -1.2969 h -0.48438 v -0.70312 h 0.48438 V -3.9219 Z"
         id="path14" />
    </symbol>
    <symbol
       id="j"
       overflow="visible">
      <path
         d="M 2.5469,-2.6094 V -4.25 H 3.53128 V 0 H 2.5469 v -0.4375 c -0.13672,0.17969 -0.28906,0.30859 -0.45312,0.39062 -0.15625,0.082031 -0.33984,0.125 -0.54688,0.125 -0.375,0 -0.6875,-0.14453 -0.9375,-0.4375 -0.24219,-0.30078 -0.35938,-0.69141 -0.35938,-1.1719 0,-0.46875 0.11719,-0.85156 0.35938,-1.1562 0.25,-0.30078 0.5625,-0.45312 0.9375,-0.45312 0.20703,0 0.39062,0.046875 0.54688,0.14062 0.16406,0.085938 0.31641,0.21484 0.45312,0.39062 z M 1.90628,-0.625 c 0.20703,0 0.36328,-0.078125 0.46875,-0.23438 0.11328,-0.15625 0.17188,-0.37891 0.17188,-0.67188 0,-0.28906 -0.058594,-0.50781 -0.17188,-0.65625 -0.10547,-0.15625 -0.26172,-0.23438 -0.46875,-0.23438 -0.21094,0 -0.37109,0.078125 -0.48438,0.23438 -0.10547,0.14844 -0.15625,0.36719 -0.15625,0.65625 0,0.29297 0.050781,0.51562 0.15625,0.67188 0.11328,0.15625 0.27344,0.23438 0.48438,0.23438 z"
         id="path17" />
    </symbol>
    <symbol
       id="i"
       overflow="visible">
      <path
         d="m 2.0938,-0.625 c 0.20703,0 0.36719,-0.078125 0.48438,-0.23438 0.11328,-0.15625 0.17188,-0.37891 0.17188,-0.67188 0,-0.28906 -0.058594,-0.50781 -0.17188,-0.65625 -0.11719,-0.15625 -0.27734,-0.23438 -0.48438,-0.23438 -0.21094,0 -0.37109,0.078125 -0.48438,0.23438 -0.10547,0.14844 -0.15625,0.36719 -0.15625,0.65625 0,0.29297 0.050781,0.51562 0.15625,0.67188 C 1.7227,-0.70313 1.88286,-0.625 2.0938,-0.625 Z M 1.45318,-2.6094 c 0.13281,-0.17578 0.28125,-0.30469 0.4375,-0.39062 0.16406,-0.09375 0.35156,-0.14062 0.5625,-0.14062 0.38281,0 0.69531,0.15234 0.9375,0.45312 0.23828,0.30469 0.35938,0.6875 0.35938,1.1562 0,0.48047 -0.12109,0.87109 -0.35938,1.1719 -0.24219,0.29297 -0.55469,0.4375 -0.9375,0.4375 -0.21094,0 -0.39844,-0.042969 -0.5625,-0.125 C 1.73443,-0.128951 1.58599,-0.25786 1.45318,-0.43754 V -4e-5 H 0.4688 v -4.25 h 0.98438 z"
         id="path20" />
    </symbol>
    <symbol
       id="g"
       overflow="visible">
      <path
         d="M 0.0625,-3.0625 H 1.04688 L 1.875,-0.9844 2.5625,-3.0625 H 3.54688 L 2.26568,0.2969 C 2.12896,0.62893 1.97271,0.86331 1.79693,1.00002 1.62896,1.13283 1.40631,1.20314 1.12505,1.20314 H 0.56255 V 0.56252 h 0.29688 c 0.16406,0 0.28516,-0.027344 0.35938,-0.078125 0.082031,-0.054687 0.14453,-0.14844 0.1875,-0.28125 L 1.43756,0.12502 Z"
         id="path23" />
    </symbol>
    <symbol
       id="f"
       overflow="visible">
      <path
         d="m 0.51562,-4.0781 h 1.1719 l 1.4844,2.7969 v -2.7969 h 1 V 0 H 3.00002 L 1.51562,-2.7969 V 0 h -1 z"
         id="path26" />
    </symbol>
    <symbol
       id="h"
       overflow="visible">
      <path
         d="M 3.5469,-1.8594 V 0 H 2.56252 v -1.4219 c 0,-0.26953 -0.00781,-0.45312 -0.015625,-0.54688 -0.011719,-0.10156 -0.03125,-0.17578 -0.0625,-0.21875 -0.042969,-0.0625 -0.09375,-0.10938 -0.15625,-0.14062 -0.0625,-0.039063 -0.13672,-0.0625 -0.21875,-0.0625 -0.21094,0 -0.37109,0.078125 -0.48438,0.23438 -0.11719,0.15625 -0.17188,0.375 -0.17188,0.65625 v 1.5 h -0.98438 v -4.25 h 0.98438 v 1.6406 c 0.14453,-0.17578 0.30078,-0.30469 0.46875,-0.39062 0.16406,-0.09375 0.34766,-0.14062 0.54688,-0.14062 0.35156,0 0.61719,0.10938 0.79688,0.32812 0.1875,0.21875 0.28125,0.53906 0.28125,0.95312 z"
         id="path29" />
    </symbol>
    <symbol
       id="t"
       overflow="visible">
      <path
         d="m 0.03125,-4.0781 h 3.75 v 0.79688 H 2.43745 V -2e-5 h -1.0625 v -3.2812 h -1.3438 z"
         id="path32" />
    </symbol>
    <symbol
       id="s"
       overflow="visible">
      <path
         d="M 2.5469,-0.51562 C 2.41018,-0.33593 2.25784,-0.20703 2.09378,-0.125 1.93753,-0.039062 1.75394,0 1.5469,0 1.1719,0 0.8594,-0.14453 0.6094,-0.4375 0.36721,-0.72656 0.25002,-1.10156 0.25002,-1.5625 c 0,-0.45703 0.11719,-0.83203 0.35938,-1.125 0.25,-0.28906 0.5625,-0.4375 0.9375,-0.4375 0.20703,0 0.39062,0.042969 0.54688,0.125 0.16406,0.085938 0.31641,0.21484 0.45312,0.39062 V -3.0625 h 0.98438 v 2.75 c 0,0.48828 -0.15625,0.86328 -0.46875,1.125 -0.30469,0.25781 -0.75,0.39062 -1.3438,0.39062 -0.1875,0 -0.375,-0.015625 -0.5625,-0.046875 -0.17969,-0.023438 -0.35547,-0.0625 -0.53125,-0.125 v -0.76562 c 0.16406,0.10156 0.33203,0.17578 0.5,0.21875 0.16406,0.050781 0.33203,0.078125 0.5,0.078125 0.32031,0 0.55469,-0.074219 0.70312,-0.21875 0.14453,-0.13672 0.21875,-0.35156 0.21875,-0.65625 z m -0.64062,-1.9062 c -0.19922,0 -0.35547,0.078125 -0.46875,0.23438 -0.11719,0.14844 -0.17188,0.35547 -0.17188,0.625 0,0.28125 0.050781,0.49609 0.15625,0.64062 0.11328,0.14844 0.27344,0.21875 0.48438,0.21875 0.20703,0 0.36328,-0.070313 0.46875,-0.21875 0.11328,-0.15625 0.17188,-0.36719 0.17188,-0.64062 0,-0.26953 -0.058594,-0.47656 -0.17188,-0.625 C 2.26956,-2.34369 2.11331,-2.42182 1.90628,-2.42182 Z"
         id="path35" />
    </symbol>
    <symbol
       id="r"
       overflow="visible">
      <path
         d="M 0.46875,-3.0625 H 1.45313 V 0 H 0.46875 Z m 0,-1.1875 h 0.98438 v 0.79688 H 0.46875 Z"
         id="path38" />
    </symbol>
    <symbol
       id="q"
       overflow="visible">
      <path
         d="m 2.4844,-4.25 v 0.64062 H 1.93752 c -0.13672,0 -0.23047,0.027344 -0.28125,0.078125 -0.054688,0.054688 -0.078125,0.14062 -0.078125,0.26562 v 0.20312 h 0.82812 v 0.70312 H 1.578145 V 5e-6 h -0.98438 v -2.3594 h -0.48438 v -0.70312 h 0.48438 v -0.20312 c 0,-0.33203 0.09375,-0.57812 0.28125,-0.73438 0.1875,-0.16406 0.47266,-0.25 0.85938,-0.25 z"
         id="path41" />
    </symbol>
    <symbol
       id="e"
       overflow="visible">
      <path
         d="m 1.9219,-2.4375 c -0.21875,0 -0.38672,0.078125 -0.5,0.23438 -0.10547,0.15625 -0.15625,0.38281 -0.15625,0.67188 0,0.29297 0.050781,0.51562 0.15625,0.67188 0.11328,0.15625 0.28125,0.23438 0.5,0.23438 0.21875,0 0.37891,-0.078125 0.48438,-0.23438 0.11328,-0.15625 0.17188,-0.37891 0.17188,-0.67188 0,-0.28906 -0.058594,-0.51562 -0.17188,-0.67188 C 2.30081,-2.35937 2.14066,-2.4375 1.9219,-2.4375 Z m 0,-0.70312 c 0.53125,0 0.94141,0.14844 1.2344,0.4375 0.30078,0.28125 0.45312,0.67188 0.45312,1.1719 0,0.51172 -0.15234,0.90625 -0.45312,1.1875 -0.29297,0.28125 -0.70312,0.42188 -1.2344,0.42188 -0.52344,0 -0.93359,-0.14062 -1.2344,-0.42188 -0.30469,-0.28125 -0.45312,-0.67578 -0.45312,-1.1875 0,-0.5 0.14844,-0.89062 0.45312,-1.1719 0.30078,-0.28906 0.71094,-0.4375 1.2344,-0.4375 z"
         id="path44" />
    </symbol>
    <symbol
       id="p"
       overflow="visible">
      <path
         d="m 3.3125,-2.5469 c 0.11328,-0.1875 0.25391,-0.33203 0.42188,-0.4375 0.17578,-0.10156 0.36719,-0.15625 0.57812,-0.15625 0.34375,0 0.60938,0.10938 0.79688,0.32812 0.1875,0.21874 0.28125,0.53906 0.28125,0.95312 V -1e-5 H 4.40625 v -1.5938 -0.0625 -0.125 c 0,-0.21875 -0.03125,-0.375 -0.09375,-0.46875 C 4.25,-2.34381 4.14453,-2.39068 4,-2.39068 c -0.1875,0 -0.33594,0.078125 -0.4375,0.23438 -0.09375,0.14844 -0.14062,0.36719 -0.14062,0.65625 v 1.5 H 2.4375 v -1.5938 c 0,-0.34375 -0.03125,-0.5625 -0.09375,-0.65625 -0.054688,-0.09375 -0.15625,-0.14062 -0.3125,-0.14062 -0.1875,0 -0.33594,0.078125 -0.4375,0.23438 C 1.5,-2.0079 1.45313,-1.78915 1.45313,-1.50009 v 1.5 H 0.46875 v -3.0625 h 0.98438 v 0.45312 c 0.11328,-0.17578 0.25,-0.30469 0.40625,-0.39062 0.15625,-0.09375 0.32812,-0.14062 0.51562,-0.14062 0.20703,0 0.39062,0.054687 0.54688,0.15625 0.16406,0.10547 0.29688,0.25 0.39062,0.4375 z"
         id="path47" />
    </symbol>
    <symbol
       id="o"
       overflow="visible">
      <path
         d="m 0.4375,-1.1875 v -1.875 h 0.98438 v 0.3125 0.625 0.5 c 0,0.24219 0.00391,0.41797 0.015625,0.53125 0.00781,0.10547 0.03125,0.18359 0.0625,0.23438 0.039062,0.0625 0.09375,0.11719 0.15625,0.15625 0.0625,0.03125 0.13281,0.046875 0.21875,0.046875 0.20703,0 0.36719,-0.078125 0.48438,-0.23438 0.11328,-0.15625 0.17188,-0.375 0.17188,-0.65625 v -1.5156 h 0.98438 v 3.0625 h -0.98438 v -0.4375 c -0.14844,0.17969 -0.30469,0.30859 -0.46875,0.39062 -0.16797,0.082031 -0.35156,0.125 -0.54688,0.125 -0.35547,0 -0.625,-0.10938 -0.8125,-0.32812 -0.17969,-0.21875 -0.26562,-0.53125 -0.26562,-0.9375 z"
         id="path50" />
    </symbol>
    <symbol
       id="n"
       overflow="visible">
      <path
         d="M 3.5469,-1.8594 V 0 H 2.56252 v -1.4219 c 0,-0.26953 -0.00781,-0.45312 -0.015625,-0.54688 -0.011719,-0.10156 -0.03125,-0.17578 -0.0625,-0.21875 -0.042969,-0.0625 -0.09375,-0.10938 -0.15625,-0.14062 -0.0625,-0.039063 -0.13672,-0.0625 -0.21875,-0.0625 -0.21094,0 -0.37109,0.078125 -0.48438,0.23438 -0.11719,0.15625 -0.17188,0.375 -0.17188,0.65625 v 1.5 h -0.98438 v -3.0625 h 0.98438 v 0.45312 c 0.14453,-0.17578 0.30078,-0.30469 0.46875,-0.39062 0.16406,-0.09375 0.34766,-0.14062 0.54688,-0.14062 0.35156,0 0.61719,0.10938 0.79688,0.32812 0.1875,0.21875 0.28125,0.53906 0.28125,0.95312 z"
         id="path53" />
    </symbol>
    <symbol
       id="m"
       overflow="visible">
      <path
         d="m 0.51562,-4.0781 h 1.75 c 0.50781,0 0.90625,0.11719 1.1875,0.34375 0.28125,0.23047 0.42188,0.55859 0.42188,0.98438 0,0.42969 -0.14062,0.75781 -0.42188,0.98438 -0.28125,0.23047 -0.67969,0.34375 -1.1875,0.34375 H 1.5625 V 6e-5 H 0.5156 Z m 1.0469,0.76562 v 1.1406 h 0.57812 c 0.20703,0 0.36328,-0.046875 0.46875,-0.14062 0.11328,-0.10156 0.17188,-0.25 0.17188,-0.4375 0,-0.17578 -0.058594,-0.3125 -0.17188,-0.40625 C 2.50392,-3.25781 2.34767,-3.3125 2.14064,-3.3125 Z"
         id="path56" />
    </symbol>
    <symbol
       id="l"
       overflow="visible">
      <path
         d="m 0.46875,-3.0625 h 0.98438 v 3.0156 c 0,0.40625 -0.10156,0.71094 -0.29688,0.92188 C 0.95703,1.09373 0.67187,1.2031 0.29687,1.2031 H -0.18751 V 0.56248 h 0.17188 c 0.1875,0 0.3125,-0.042969 0.375,-0.125 C 0.429683,0.351542 0.46875,0.19139 0.46875,-0.0469 Z m 0,-1.1875 h 0.98438 v 0.79688 H 0.46875 Z"
         id="path59" />
    </symbol>
    <symbol
       id="k"
       overflow="visible">
      <path
         d="m 2.9375,-2.9688 v 0.79688 C 2.8125,-2.253951 2.67969,-2.31645 2.54688,-2.35942 2.41016,-2.410201 2.26954,-2.437545 2.125,-2.437545 c -0.27344,0 -0.48438,0.085938 -0.64062,0.25 -0.14844,0.15625 -0.21875,0.375 -0.21875,0.65625 0,0.29297 0.070313,0.51562 0.21875,0.67188 0.15625,0.15625 0.36719,0.23438 0.64062,0.23438 0.15625,0 0.30078,-0.019531 0.4375,-0.0625 0.13281,-0.039062 0.25781,-0.10938 0.375,-0.20312 v 0.79688 c -0.14844,0.0625 -0.30469,0.10156 -0.46875,0.125 C 2.3125,0.062475 2.15625,0.0781 2,0.0781 c -0.55469,0 -0.98438,-0.14062 -1.2969,-0.42188 -0.31252,-0.28126 -0.46875,-0.67578 -0.46875,-1.1875 0,-0.5 0.15625,-0.89062 0.46875,-1.1719 0.3125,-0.28906 0.74219,-0.4375 1.2969,-0.4375 0.16406,0 0.32031,0.015625 0.46875,0.046875 0.15625,0.03125 0.3125,0.074219 0.46875,0.125 z"
         id="path62" />
    </symbol>
  </defs>
  <g
     id="g143">
    <path
       d="m 2.681858,28.604254 v -6.761383 c 0,-0.743227 0.020795,-1.695678 0.8896134,-1.74782 0.6278806,-0.04194 1.2663607,0 1.8839744,0 h 8.2266152 c 1.978182,0 3.966917,0.06274 5.945086,0 0.97321,-0.03137 1.779228,-0.586255 2.124532,-1.507274 0.209164,-0.554873 0.156962,-1.172166 0.156962,-1.758385 V 13.01939 c -0.523478,0.303346 -1.046562,0.607062 -1.570076,0.900189 2.030419,1.245518 4.05056,2.480484 6.080885,3.726003 3.108745,1.904816 6.206474,3.810002 9.315219,5.704172 0.429293,0.261732 0.847631,0.523477 1.276925,0.784841 0.156961,0.09424 0.408118,0.240558 0.481483,0.313935 0.251157,0.28254 0.146386,0.69067 -0.16756,0.910421 -0.293128,0.198955 -0.596475,0.366516 -0.889602,0.554872 -2.93055,1.821185 -5.850891,3.642453 -8.781535,5.463627 -1.53867,0.952366 -3.07735,1.915381 -4.615652,2.867832 -0.847631,0.523477 -1.737624,1.015168 -2.564389,1.590823 -0.04195,0.03137 -0.08366,0.05217 -0.125579,0.07344 0.523478,0.303358 1.046551,0.607074 1.570076,0.900201 0,-1.559512 0.05217,-3.129506 0,-4.689018 -0.04194,-1.329162 -0.963025,-2.365434 -2.313304,-2.386276 -0.460676,-0.01069 -0.921008,0 -1.391951,0 H 5.9779963 3.8636719 c -0.1150265,0 -0.2303382,0.01069 -0.3351097,0 -0.5117965,-0.04159 -0.8257308,-0.554504 -0.8469062,-1.130195 -0.041947,-1.339726 -2.13517904,-1.350278 -2.09312548,0 0.052166,1.685019 1.20355958,3.160888 2.95176018,3.213125 0.3665042,0.01069 0.7220526,0 1.0885212,0 h 5.5785701 6.478795 2.22928 c 0.167561,0 0.680439,-0.05217 0.774623,-0.01069 0.188367,0.09424 0.125578,0.481485 0.125578,0.680439 v 1.653615 2.658597 c 0,0.774622 0.889614,1.329162 1.570076,0.900201 2.114336,-1.318883 4.228304,-2.627203 6.353193,-3.945802 3.11894,-1.936212 6.238249,-3.872708 9.357285,-5.819484 0.806018,-0.502302 1.883974,-0.994421 2.313291,-1.873423 0.607075,-1.256082 0.209176,-2.742229 -0.952366,-3.506287 -0.219751,-0.146386 -0.450101,-0.28254 -0.680439,-0.418719 -2.909789,-1.779214 -5.819484,-3.568993 -8.739564,-5.348208 -2.501683,-1.538681 -4.971509,-3.140151 -7.514794,-4.605373 -0.04195,-0.03137 -0.09424,-0.05217 -0.136155,-0.08366 -0.680438,-0.418718 -1.570076,0.125579 -1.570076,0.900189 v 3.317896 c 0,0.450101 0.04195,0.921008 0,1.37112 -0.0208,0.251145 -0.04194,0.28254 -0.219762,0.303347 -0.669851,0.104807 -1.444474,0 -2.114336,0 H 13.58846 5.3932506 c -0.6070734,0 -1.2246753,-0.0208 -1.8420158,0 -1.8420279,0.05217 -2.95176007,1.632877 -2.96194374,3.37005 -0.020795,2.417672 0,4.825171 0,7.242842 -7.2483e-4,1.350278 2.09247184,1.350278 2.09247184,0 z"
       id="path67"
       style="stroke-width:0.0934512" />
    <path
       d="m 20.192762,4.2273028 h 7.117252 12.245863 3.841314 0.607075 c 1.214111,0.010694 2.344686,0.6278806 2.97259,1.6642714 0.51289,0.8476312 0.51289,1.7164257 0.51289,2.6585976 v 3.3700372 11.418814 12.214091 c 0,2.155915 0.01069,4.312305 0,6.468232 -0.01069,1.957339 -1.507275,3.548246 -3.485457,3.568993 -0.732641,0.01069 -1.454669,0 -2.187321,0 h -11.481425 -9.618947 -0.51289 c -1.350278,0 -1.350278,2.093126 0,2.093126 h 7.316207 12.455193 3.631795 c 2.072378,0 3.956353,-0.806018 5.118334,-2.585244 0.73264,-1.140759 0.868806,-2.407488 0.868806,-3.715807 V 38.064518 26.519541 14.085856 c 0,-2.114336 0.0208,-4.2283045 0,-6.3426406 -0.03137,-2.867831 -2.145731,-5.2541077 -5.002915,-5.5892292 -0.806017,-0.094113 -1.653625,-0.041947 -2.459641,-0.041947 h -11.481426 -9.901166 -0.55486 c -1.350657,0.021508 -1.350657,2.1147167 -3.8e-4,2.1147167 z"
       id="path69"
       style="stroke-width:0.0934512" />
  </g>
</svg>
