<?xml version="1.0" encoding="UTF-8" standalone="no"?>
<svg
   width="195pt"
   height="195pt"
   version="1.1"
   viewBox="0 0 195 195"
   id="svg112"
   sodipodi:docname="observation.svg"
   inkscape:version="1.1.2 (1:1.1+202202050950+0a00cf5339)"
   xmlns:inkscape="http://www.inkscape.org/namespaces/inkscape"
   xmlns:sodipodi="http://sodipodi.sourceforge.net/DTD/sodipodi-0.dtd"
   xmlns="http://www.w3.org/2000/svg"
   xmlns:svg="http://www.w3.org/2000/svg">
  <sodipodi:namedview
     id="namedview114"
     pagecolor="#ffffff"
     bordercolor="#666666"
     borderopacity="1.0"
     inkscape:pageshadow="2"
     inkscape:pageopacity="0.0"
     inkscape:pagecheckerboard="0"
     inkscape:document-units="pt"
     showgrid="false"
     inkscape:zoom="2.178899"
     inkscape:cx="57.597897"
     inkscape:cy="160.63159"
     inkscape:window-width="1920"
     inkscape:window-height="1009"
     inkscape:window-x="0"
     inkscape:window-y="34"
     inkscape:window-maximized="1"
     inkscape:current-layer="g110" />
  <defs
     id="defs38">
    <symbol
       id="l"
       overflow="visible">
      <path
         d="m 29.312,-1.75 c -1.5117,0.78125 -3.0898,1.3711 -4.7344,1.7656 -1.6367,0.40625 -3.3398,0.60938 -5.1094,0.60938 -5.3125,0 -9.5273,-1.4844 -12.641,-4.4531 -3.1055,-2.9688 -4.6562,-7 -4.6562,-12.094 0,-5.094 1.5508,-9.125 4.6562,-12.094 3.1133,-2.9688 7.3281,-4.4531 12.641,-4.4531 1.7695,0 3.4727,0.19922 5.1094,0.59375 1.6445,0.39844 3.2227,0.99219 4.7344,1.7812 v 6.5938 c -1.5312,-1.0391 -3.0391,-1.8008 -4.5156,-2.2812 -1.4805,-0.48828 -3.0391,-0.73438 -4.6719,-0.73438 -2.9375,0 -5.2461,0.94531 -6.9219,2.8281 -1.6797,1.875 -2.5156,4.4648 -2.5156,7.7656 0,3.293 0.83594,5.8828 2.5156,7.7656 1.6758,1.875 3.9844,2.8125 6.9219,2.8125 1.6328,0 3.1914,-0.23828 4.6719,-0.71875 1.4766,-0.48828 2.9844,-1.2539 4.5156,-2.2969 z"
         id="path2" />
    </symbol>
    <symbol
       id="c"
       overflow="visible">
      <path
         d="m 21.453,-17.406 c -0.67969,-0.3125 -1.3516,-0.53906 -2.0156,-0.6875 -0.65625,-0.15625 -1.3203,-0.23438 -1.9844,-0.23438 -1.9688,0 -3.4844,0.63281 -4.5469,1.8906 -1.0547,1.2617 -1.5781,3.0703 -1.5781,5.4219 V 6.2e-4 H 3.6718 v -23.922 h 7.6562 v 3.9219 c 0.97656,-1.5625 2.1016,-2.7031 3.375,-3.4219 1.2812,-0.71875 2.8125,-1.0781 4.5938,-1.0781 0.25,0 0.52344,0.01172 0.82812,0.03125 0.30078,0.02344 0.73438,0.07031 1.2969,0.14062 z"
         id="path5" />
    </symbol>
    <symbol
       id="b"
       overflow="visible">
      <path
         d="m 27.562,-12.031 v 2.1875 H 9.671 c 0.1875,1.793 0.83203,3.1367 1.9375,4.0312 1.1133,0.89844 2.6719,1.3438 4.6719,1.3438 1.6016,0 3.25,-0.23438 4.9375,-0.70312 1.6875,-0.47656 3.4219,-1.2031 5.2031,-2.1719 v 5.8906 c -1.8047,0.6875 -3.6094,1.2031 -5.4219,1.5469 -1.8125,0.35156 -3.6211,0.53125 -5.4219,0.53125 -4.3359,0 -7.7031,-1.0977 -10.109,-3.2969 -2.3984,-2.207 -3.5938,-5.2969 -3.5938,-9.2656 0,-3.9062 1.1758,-6.9727 3.5312,-9.2031 2.3633,-2.2383 5.6094,-3.3594 9.7344,-3.3594 3.7578,0 6.7695,1.1367 9.0312,3.4062 2.2578,2.2617 3.3906,5.2812 3.3906,9.0625 z m -7.8594,-2.5312 c 0,-1.457 -0.42969,-2.6289 -1.2812,-3.5156 -0.84375,-0.89453 -1.9492,-1.3438 -3.3125,-1.3438 -1.4922,0 -2.6992,0.41797 -3.625,1.25 -0.91797,0.83594 -1.4922,2.0391 -1.7188,3.6094 z"
         id="path8" />
    </symbol>
    <symbol
       id="a"
       overflow="visible">
      <path
         d="m 14.391,-10.766 c -1.5938,0 -2.793,0.27344 -3.5938,0.8125 -0.80469,0.54297 -1.2031,1.3398 -1.2031,2.3906 0,0.96875 0.32031,1.7305 0.96875,2.2812 0.64453,0.54297 1.5469,0.8125 2.7031,0.8125 1.4375,0 2.6445,-0.51562 3.625,-1.5469 0.98828,-1.0312 1.4844,-2.3203 1.4844,-3.875 v -0.875 z m 11.688,-2.8906 V -6e-4 h -7.7031 v -3.5469 c -1.0312,1.4492 -2.1875,2.5078 -3.4688,3.1719 -1.2813,0.6641 -2.8398,1 -4.6719,1 -2.4805,0 -4.4961,-0.72266 -6.0469,-2.1719 -1.543,-1.4453 -2.3125,-3.3203 -2.3125,-5.625 0,-2.8125 0.96094,-4.8672 2.8906,-6.1719 1.9375,-1.3125 4.9688,-1.9688 9.0938,-1.9688 h 4.5156 v -0.60938 c 0,-1.207 -0.48047,-2.0938 -1.4375,-2.6562 -0.94922,-0.5625 -2.4375,-0.84375 -4.4688,-0.84375 -1.6367,0 -3.1562,0.16797 -4.5625,0.5 -1.4062,0.32422 -2.7188,0.8125 -3.9375,1.4688 v -5.8281 c 1.6445,-0.40625 3.2891,-0.70703 4.9375,-0.90625 1.6562,-0.20703 3.3047,-0.3125 4.9531,-0.3125 4.3203,0 7.4375,0.85547 9.3438,2.5625 1.9141,1.6992 2.875,4.4609 2.875,8.2812 z"
         id="path11" />
    </symbol>
    <symbol
       id="d"
       overflow="visible">
      <path
         d="m 12.031,-30.719 v 6.7969 h 7.875 v 5.4688 h -7.875 v 10.141 c 0,1.1172 0.21875,1.8711 0.65625,2.2656 0.4375,0.38672 1.3125,0.57812 2.625,0.57812 h 3.9375 v 5.4688 h -6.5625 c -3.0234,0 -5.1641,-0.62891 -6.4219,-1.8906 -1.2617,-1.2578 -1.8906,-3.3984 -1.8906,-6.4219 v -10.141 h -3.7969 v -5.4688 h 3.7969 v -6.7969 z"
         id="path14" />
    </symbol>
    <symbol
       id="h"
       overflow="visible">
      <path
         d="m 19.953,-20.422 v -12.812 h 7.6875 V 0 H 19.953 v -3.4531 c -1.0547,1.4062 -2.2148,2.4375 -3.4844,3.0938 -1.2734,0.65625 -2.7422,0.98438 -4.4062,0.98438 -2.9492,0 -5.3711,-1.1719 -7.2656,-3.5156 -1.8867,-2.3438 -2.8281,-5.3594 -2.8281,-9.0469 0,-3.6875 0.94141,-6.7031 2.8281,-9.0469 1.8945,-2.3438 4.3164,-3.5156 7.2656,-3.5156 1.6562,0 3.1172,0.33594 4.3906,1 1.2812,0.65625 2.4453,1.6836 3.5,3.0781 z m -5.0469,15.484 c 1.6445,0 2.8945,-0.59766 3.75,-1.7969 0.86328,-1.1953 1.2969,-2.9297 1.2969,-5.2031 0,-2.2812 -0.43359,-4.0195 -1.2969,-5.2188 -0.85547,-1.1953 -2.1055,-1.7969 -3.75,-1.7969 -1.625,0 -2.8711,0.60156 -3.7344,1.7969 -0.85547,1.1992 -1.2812,2.9375 -1.2812,5.2188 0,2.2734 0.42578,4.0078 1.2812,5.2031 0.86328,1.1992 2.1094,1.7969 3.7344,1.7969 z"
         id="path17" />
    </symbol>
    <symbol
       id="g"
       overflow="visible">
      <path
         d="m 16.406,-4.9375 c 1.6328,0 2.8828,-0.59766 3.75,-1.7969 0.86328,-1.1953 1.2969,-2.9297 1.2969,-5.2031 0,-2.2812 -0.43359,-4.0195 -1.2969,-5.2188 -0.86719,-1.1953 -2.1172,-1.7969 -3.75,-1.7969 -1.6367,0 -2.8906,0.60547 -3.7656,1.8125 -0.875,1.1992 -1.3125,2.9336 -1.3125,5.2031 0,2.2617 0.4375,3.9961 1.3125,5.2031 0.875,1.1992 2.1289,1.7969 3.7656,1.7969 z m -5.0781,-15.484 c 1.0508,-1.3945 2.2188,-2.4219 3.5,-3.0781 1.2812,-0.66406 2.7539,-1 4.4219,-1 2.9453,0 5.3672,1.1719 7.2656,3.5156 1.8945,2.3438 2.8438,5.3594 2.8438,9.0469 0,3.6875 -0.94922,6.7031 -2.8438,9.0469 -1.8984,2.3438 -4.3203,3.5156 -7.2656,3.5156 -1.668,0 -3.1406,-0.33594 -4.4219,-1 -1.2813,-0.66406 -2.4492,-1.6914 -3.5,-3.0781 V 4e-4 H 3.6717 v -33.234 h 7.6562 z"
         id="path20" />
    </symbol>
    <symbol
       id="f"
       overflow="visible">
      <path
         d="m 0.53125,-23.922 h 7.6562 l 6.4219,16.234 5.4688,-16.234 h 7.6562 l -10.062,26.188 c -1.0117,2.6641 -2.1953,4.5234 -3.5469,5.5781 -1.3438,1.0625 -3.1211,1.5938 -5.3281,1.5938 H 4.37545 V 4.4223 h 2.3906 c 1.3008,0 2.2422,-0.21094 2.8281,-0.625 0.59375,-0.40625 1.0547,-1.1484 1.3906,-2.2188 l 0.20312,-0.65625 z"
         id="path23" />
    </symbol>
    <symbol
       id="e"
       overflow="visible">
      <path
         d="M 27.734,-14.562 V 0 h -7.7031 v -11.156 c 0,-2.0625 -0.04687,-3.4844 -0.14062,-4.2656 -0.08594,-0.78125 -0.24219,-1.3594 -0.46875,-1.7344 -0.30469,-0.5 -0.71094,-0.88281 -1.2188,-1.1562 -0.51172,-0.28125 -1.0938,-0.42188 -1.75,-0.42188 -1.5938,0 -2.8516,0.61719 -3.7656,1.8438 -0.90625,1.2305 -1.3594,2.9375 -1.3594,5.125 v 11.766 h -7.6562 v -23.922 h 7.6562 v 3.5 c 1.1445,-1.3945 2.3633,-2.4219 3.6562,-3.0781 1.3008,-0.66406 2.7383,-1 4.3125,-1 2.7578,0 4.8516,0.85156 6.2812,2.5469 1.4375,1.6875 2.1562,4.1523 2.1562,7.3906 z"
         id="path26" />
    </symbol>
    <symbol
       id="k"
       overflow="visible">
      <path
         d="m 3.6719,-23.922 h 7.6562 v 23.5 c 0,3.1953 -0.77344,5.6406 -2.3125,7.3281 C 7.4726,8.5936 5.2422,9.4373 2.3281,9.4373 H -1.4531 V 4.4217 h 1.3281 c 1.4453,0 2.4414,-0.32812 2.9844,-0.98438 0.53906,-0.65625 0.8125,-1.9453 0.8125,-3.8594 z m 0,-9.3125 h 7.6562 v 6.2344 H 3.6719 Z"
         id="path29" />
    </symbol>
    <symbol
       id="j"
       overflow="visible">
      <path
         d="m 3.6719,-23.922 h 7.6562 V 0 H 3.6719 Z m 0,-9.3125 h 7.6562 v 6.2344 H 3.6719 Z"
         id="path32" />
    </symbol>
    <symbol
       id="i"
       overflow="visible">
      <path
         d="m 3.6719,-33.234 h 7.6562 v 18.094 l 8.7969,-8.7812 h 8.8906 l -11.688,10.969 12.594,12.953 H 20.656 L 11.3279,-9.968 V 8e-4 H 3.6717 Z"
         id="path35" />
    </symbol>
  </defs>
  <g
     id="g110">
    <path
       d="m 30.49359,120.05108 c 19.446041,15.10577 43.367439,23.30498 67.992518,23.30498 24.625052,0 48.546472,-8.19955 67.988982,-23.30498 l 26.26007,-20.410774 c 0.75177,-0.584117 1.19157,-1.481547 1.19157,-2.432642 0,-0.951085 -0.4398,-1.848517 -1.19157,-2.432628 L 166.47509,74.364258 C 147.0266,59.272205 123.11821,51.064559 98.500185,51.02902 73.872997,51.064773 49.953707,59.27256 30.49359,74.364258 L 4.2335358,94.775036 c -0.7517709,0.584111 -1.1901944,1.481543 -1.1901944,2.432628 0,0.951095 0.4384235,1.848525 1.1901944,2.432642 z M 185.8402,97.207695 162.72064,115.18729 h -0.001 c -8.52253,6.54346 -18.00278,11.73447 -28.10719,15.39287 8.47434,-9.11329 13.18438,-21.0979 13.18438,-33.541338 0,-12.444828 -4.71004,-24.428045 -13.18438,-33.541329 10.11531,3.715051 19.59556,8.969029 28.10719,15.576885 z M 98.500185,57.186234 c 6.833365,0.01066 13.648795,0.691298 20.348835,2.031299 9.20828,4.933813 16.3108,13.044013 19.98611,22.822611 3.67633,9.7772 3.67633,20.557846 0,30.335036 -3.67495,9.77862 -10.77783,17.88881 -19.98611,22.82263 -13.43034,2.70886 -27.267362,2.70886 -40.696987,0 -9.208278,-4.93382 -16.310814,-13.04401 -19.986099,-22.82263 -3.67635,-9.77719 -3.67635,-20.557836 0,-30.335036 3.67493,-9.778598 10.777821,-17.888798 19.986099,-22.822611 6.700032,-1.340001 13.515466,-2.020313 20.34885,-2.031299 z M 34.282882,79.228127 c 8.511285,-6.607855 17.991889,-11.862189 28.107204,-15.576885 -8.474349,9.113285 -13.184385,21.096501 -13.184385,33.541325 0,12.443433 4.710036,24.428063 13.184385,33.541343 C 52.280395,127.08782 42.798394,121.894 34.282882,115.34103 L 11.161912,97.207695 Z"
       id="path40"
       style="stroke-width:0.351838" />
    <path
       d="M 4.2036311,79.413901 8.0819263,84.18551 23.874832,71.34768 C 44.969936,54.221663 71.313027,44.874754 98.485398,44.874754 c 27.171322,0 53.514412,9.346909 74.607042,26.472926 l 15.82457,12.83783 3.87831,-4.771609 L 177.0024,66.57607 C 154.80923,48.552512 127.0908,38.714793 98.500527,38.714793 c -28.590271,0 -56.31152,9.837719 -78.501883,27.861277 z"
       id="path42"
       style="stroke-width:0.351838" />
    <path
       d="m 173.09314,123.03465 c -21.0951,17.11617 -47.42763,26.47293 -74.592955,26.50601 v 6.15715 c 28.564945,0.003 56.269275,-9.77439 78.501875,-27.70718 z"
       id="path44"
       style="stroke-width:0.351838" />
    <path
       d="m 70.793011,97.206291 c 0,7.348829 2.919158,14.396479 8.115469,19.591699 5.195236,5.19663 12.242875,8.11549 19.591705,8.11549 7.348805,0 14.396455,-2.91916 19.591685,-8.11549 5.19663,-5.19522 8.11547,-12.24287 8.11547,-19.591699 0,-7.348812 -2.91916,-14.396464 -8.11547,-19.591687 -5.19523,-5.196632 -12.24288,-8.115481 -19.591685,-8.115481 -7.34883,0 -14.396469,2.919157 -19.591705,8.115481 -5.196632,5.195223 -8.115469,12.242875 -8.115469,19.591687 z M 98.500185,75.656277 c 5.715925,0 11.196835,2.270442 15.237695,6.312302 4.0419,4.040497 6.31231,9.521424 6.31231,15.237712 0,5.716309 -2.27044,11.196869 -6.31231,15.237729 -4.0405,4.04189 -9.52141,6.3123 -15.237695,6.3123 -5.716305,0 -11.196865,-2.27044 -15.237718,-6.3123 -4.041906,-4.0405 -6.312313,-9.52142 -6.312313,-15.237729 0,-5.716288 2.270443,-11.196859 6.312313,-15.237712 4.040498,-4.041895 9.521413,-6.312302 15.237718,-6.312302 z"
       id="path46"
       style="stroke-width:0.351838" />
  </g>
</svg>
