<?xml version="1.0" encoding="UTF-8" standalone="no"?>
<svg
   width="366.90939pt"
   height="366.6868pt"
   version="1.1"
   viewBox="0 0 366.90939 366.6868"
   id="svg38"
   sodipodi:docname="debris_rugosity.svg"
   inkscape:version="1.2 (1:1.2.1+202207142221+cd75a1ee6d)"
   xmlns:inkscape="http://www.inkscape.org/namespaces/inkscape"
   xmlns:sodipodi="http://sodipodi.sourceforge.net/DTD/sodipodi-0.dtd"
   xmlns="http://www.w3.org/2000/svg"
   xmlns:svg="http://www.w3.org/2000/svg">
  <defs
     id="defs42" />
  <sodipodi:namedview
     id="namedview40"
     pagecolor="#ffffff"
     bordercolor="#666666"
     borderopacity="1.0"
     inkscape:showpageshadow="2"
     inkscape:pageopacity="0.0"
     inkscape:pagecheckerboard="0"
     inkscape:deskcolor="#d1d1d1"
     inkscape:document-units="pt"
     showgrid="false"
     inkscape:zoom="0.25285714"
     inkscape:cx="227.40113"
     inkscape:cy="324.29379"
     inkscape:window-width="1920"
     inkscape:window-height="1009"
     inkscape:window-x="0"
     inkscape:window-y="34"
     inkscape:window-maximized="1"
     inkscape:current-layer="svg38" />
  <g
     id="g36"
     transform="translate(-164.4154,-105.957)">
    <path
       d="m 427.5,433.78 c 3.6953,5.0391 6.6094,10.414 8.8477,16.129 2.8008,-1.5664 5.7109,-3.2461 8.3984,-4.9297 -1.2305,-3.3594 -2.6875,-6.9453 -4.4805,-10.305 -9.1797,-18.258 -28.781,-28.223 -44.91,-40.879 -36.176,-28.562 -9.4062,-77.953 -41.664,-107.41 -11.871,-10.863 -30.801,-9.8555 -44.016,-1.9023 -17.137,10.641 -25.762,30.574 -32.816,47.711 -15.23,37.41 -12.32,77.953 -18.254,117.15 1.7891,1.0078 3.6953,1.9023 5.4883,2.9141 10.414,-29.566 14,-60.367 20.273,-91.055 3.9219,-19.266 9.2969,-39.199 21.168,-55.664 5.4883,-7.6172 13.551,-13.777 23.184,-16.352 11.535,-2.9102 20.496,6.832 25.199,14.785 9.0703,15.227 5.2617,33.82 5.9336,50.172 0.67188,17.359 8.5117,31.023 21.953,43.008 14.895,12.992 33.711,20.719 45.695,36.625 z"
       id="path2" />
    <path
       d="m 398.61,452.03 c 2.8008,3.4727 4.8164,7.2812 6.4961,11.535 3.5859,-1.2305 7.0547,-2.4648 10.527,-3.9219 -1.9062,-4.6992 -3.8086,-9.4062 -6.3867,-13.547 -10.863,-17.922 -29.23,-23.297 -47.598,-32.816 -16.016,-8.2891 -8.5117,-31.922 -8.9609,-46.145 -0.33594,-12.098 -0.89453,-24.418 -5.1523,-35.953 -3.3594,-9.1836 -10.527,-18.48 -22.398,-15.68 -13.887,3.2461 -20.383,20.719 -23.52,31.695 -5.1523,17.25 -3.9219,35.617 -3.9219,53.312 0,19.938 -6.6094,40.992 -14.785,60.145 1.793,0.67188 3.5859,1.3438 5.2656,1.9023 8.8477,-11.984 17.695,-24.078 22.848,-37.969 6.0469,-16.238 4.1445,-33.711 4.0312,-50.512 0,-11.199 -3.0234,-39.648 11.426,-45.359 3.8086,-1.5664 8.0625,17.359 8.9609,20.945 5.8242,24.527 -4.9297,52.977 14.449,73.137 12.988,13.664 37.07,14.445 48.719,29.23 z"
       id="path4" />
    <path
       d="m 372.73,470.85 c 4.8164,-0.67188 9.6328,-1.457 14.336,-2.4648 -1.2305,-2.5742 -2.5742,-5.0391 -4.3672,-7.3906 -3.5859,-4.9297 -10.527,-7.8398 -16.238,-10.078 -7.5039,-2.9141 -14,-7.6172 -21.617,-10.082 -10.305,-3.3594 -21.168,2.0156 -26.543,9.7422 -3.8086,5.4883 -5.1523,11.984 -6.9453,18.371 2.4648,0.55859 5.1523,1.0078 7.6172,1.457 5.8242,-11.648 11.199,-24.305 26.434,-15.008 5.4883,3.2461 10.863,5.9375 16.801,8.3984 4.9258,1.9023 8.1719,4.1445 10.523,7.0547 z"
       id="path6" />
    <path
       d="m 327.04,471.3 c 6.832,0.89453 13.891,1.3438 20.832,1.3438 2.8008,0 5.6016,-0.11328 8.2891,-0.22266 -2.6875,-4.707 -6.1602,-8.625 -12.543,-10.531 -8.9609,-2.6875 -13.891,3.0234 -16.578,9.4102 z"
       id="path8" />
    <path
       d="m 453.6,439.04 c -5.8242,-18.48 -15.234,-35.84 -29.121,-50.512 -8.1758,-8.7344 -28.895,-17.582 -25.09,-30.688 1.6797,-5.8242 3.6953,-10.641 4.0312,-16.574 0.44922,-7.7266 -2.1289,-15.793 -4.7031,-23.07 -4.4805,-12.207 -12.434,-20.609 -20.383,-30.91 -10.191,-13.559 7.168,-22.516 17.586,-29.684 21.281,-15.344 39.648,-39.648 43.008,-64.625 2.8008,-21.391 -14.449,-38.078 -38.078,-29.902 -23.742,8.2891 -40.434,33.602 -49.281,54.098 -6.6094,15.117 -10.418,27.547 -28.562,33.371 -13.105,4.2578 -24.191,9.0703 -34.719,17.809 -22.512,18.594 -29.008,48.383 -35.059,74.258 -3.8047,15.902 -7.0547,32.145 -7.6133,48.383 -0.67188,16.465 0.44531,33.152 -1.1211,49.617 0.55859,0.33594 1.1211,0.78516 1.6797,1.1211 7.8398,-29.008 11.535,-58.91 18.031,-88.258 5.9375,-26.879 11.535,-56.559 33.711,-76.609 10.641,-9.6328 24.305,-11.086 37.41,-16.465 13.328,-5.6016 20.047,-15.23 25.312,-27.441 5.375,-12.543 10.641,-23.969 18.93,-35.168 7.2812,-9.9688 24.641,-29.23 39.648,-22.398 13.777,6.2734 1.6797,31.023 -2.6875,39.09 -6.9453,12.543 -17.922,24.754 -30.238,33.375 -18.371,13.105 -33.383,27.328 -16.918,48.047 3.6953,4.707 8.1758,8.7383 11.762,13.555 4.7031,6.1602 7.2773,15.008 9.1836,22.512 3.1367,12.656 -7.168,25.984 -0.78516,37.742 5.0391,8.9609 19.152,14.895 26.543,21.84 11.535,10.977 21.727,24.078 28.223,37.969 1.9023,4.0312 3.4727,8.1758 4.9297,12.543 1.457,-1.0078 2.9141,-2.0156 4.3711,-3.0234 z"
       id="path10" />
    <path
       d="m 372.62,249.2 c 8.9609,-1.457 13.664,-11.762 17.359,-18.367 6.6094,-11.426 17.586,-19.488 21.168,-32.258 1.0078,-3.2461 -1.793,-6.3828 -5.2656,-6.3828 -8.0625,0.11328 -15.789,8.0664 -19.152,15.68 -1.3438,1.2344 -2.4609,2.5781 -3.582,4.0312 -3.6953,4.4805 -4.1445,10.754 -6.832,15.68 -2.8008,5.1523 -6.4961,9.8594 -9.2969,15.121 -1.6797,3.6953 1.457,7.0586 5.6016,6.4961 z"
       id="path12" />
    <path
       d="m 466.93,428.62 c -5.043,-17.586 -11.984,-35.281 -21.73,-50.176 -8.7344,-13.105 -17.473,-24.418 -23.406,-39.09 -5.8242,-14 -10.078,-28.559 -15.23,-42.785 -6.3867,-17.582 -1.0117,-28.781 12.207,-42.109 8.2852,-8.2891 16.125,-16.465 21.949,-26.434 10.305,-17.922 23.742,-38.414 20.383,-59.473 -3.2461,-20.719 -28.332,-35.727 -50.398,-31.582 -27.773,5.2617 -46.254,27.102 -60.254,48.047 -8.0664,12.207 -16.129,24.305 -25.539,35.617 -10.414,12.543 -23.297,21.84 -36.961,31.246 -28.109,19.266 -46.141,42 -53.309,74.035 -8.0664,35.277 -2.1289,70.672 -1.793,105.95 1.3438,1.1211 2.5742,2.1289 3.9219,3.0234 3.8047,-26.879 3.1328,-54.094 4.7031,-81.422 1.9023,-30.688 10.863,-58.801 34.945,-81.09 9.8555,-8.9609 21.281,-16.016 31.922,-23.969 11.758,-8.8477 21.613,-19.375 30.461,-30.688 18.594,-23.742 30.574,-52.754 60.145,-66.863 16.129,-7.6172 34.496,-3.6953 46.93,7.6172 10.641,9.7422 8.7344,25.312 5.1523,37.297 -6.9492,23.293 -30.242,41.887 -46.258,60.145 -7.6172,8.7344 -13.219,17.695 -12.434,29.23 0.89453,13.328 9.1836,27.441 13.777,40.094 4.5938,12.543 9.4062,25.09 15.902,37.07 7.3906,13.555 18.703,25.539 28.223,37.973 7.168,9.4062 11.312,20.047 13.664,30.91 0.89844,-0.67188 2.0195,-1.5664 3.0273,-2.5742 z"
       id="path14" />
    <path
       d="m 476,157.92 c -9.2969,-9.0742 -19.602,-17.027 -30.465,-24.082 2.2383,4.9297 4.5938,9.7422 7.8398,14.336 4.4805,6.6094 12.656,9.6328 15.566,17.246 3.0234,8.1758 1.0078,20.832 -0.55859,29.121 -1.5664,8.4023 -6.832,14.227 -11.871,21.059 -5.1523,7.0547 -7.0547,14.445 -9.5195,22.512 -2.6875,8.6211 -10.082,15.453 -15.23,22.957 -4.1445,6.2734 -6.9453,12.992 -8.7344,20.16 -1.4609,6.832 -4.3711,14.227 -2.9141,21.168 1.793,8.8477 6.9453,16.238 11.984,23.52 6.832,9.5195 9.2969,20.273 12.879,30.91 3.2461,10.078 8.1758,19.938 12.543,29.68 5.0391,11.312 11.426,22.961 17.023,35.055 2.4648,-2.3516 5.0391,-4.9297 7.2812,-7.2812 -1.9023,-4.5859 -4.1445,-9.0664 -6.3828,-13.547 -10.531,-21.391 -18.707,-43.008 -26.434,-65.184 -3.1367,-8.6211 -8.8477,-15.566 -13.551,-23.293 -7.3945,-12.211 -2.3516,-25.203 1.1172,-37.633 2.3516,-7.9531 7.168,-15.121 12.098,-21.84 5.7109,-7.8398 7.2812,-16.574 10.305,-25.648 2.5742,-8.1758 8.9609,-14.559 12.207,-22.398 3.2461,-8.1758 5.0391,-16.574 5.6016,-25.426 0.33594,-6.832 0.78516,-14.559 -0.78516,-21.168 0.11328,-0.11328 0,-0.11328 0,-0.22266 z"
       id="path16" />
    <path
       d="m 474.1,218.73 c -7.2812,15.008 -14,30.355 -20.273,45.586 -5.4883,13.105 -13.551,27.664 -8.1758,41.777 2.0156,5.4883 6.0469,10.191 9.6328,14.895 4.9297,6.6094 7.2812,13.551 9.6328,21.168 4.4805,15.23 10.305,30.016 17.922,44.238 3.0234,5.7109 5.4883,11.871 7.5039,18.258 2.125,-2.5781 4.1406,-5.1523 6.043,-7.7266 0,-0.11328 -0.11328,-0.22266 -0.11328,-0.33594 -2.125,-7.0586 -5.4844,-13.777 -8.6211,-20.609 -3.9219,-8.1758 -5.6016,-17.023 -7.8398,-25.762 -2.2383,-8.625 -4.1445,-17.359 -6.7188,-25.871 -2.2383,-6.6094 -7.0547,-12.32 -11.09,-17.922 -10.191,-14.781 3.8086,-35.727 9.9688,-50.062 7.6172,-17.922 16.129,-35.504 24.078,-53.312 2.3516,-5.4883 3.8086,-10.754 4.5938,-15.68 -3.1367,-4.4805 -6.2734,-8.7344 -9.7461,-12.992 0.33594,15.57 -10.078,30.688 -16.797,44.352 z"
       id="path18" />
    <path
       d="m 477.01,255.81 c -13.777,20.383 -3.6953,45.922 4.9297,66.191 8.2891,19.938 18.258,38.414 25.199,58.352 2.9102,-5.1523 5.7109,-10.414 7.9531,-15.793 -4.3711,-11.984 -9.7461,-23.629 -15.348,-35.504 -5.8203,-12.543 -10.75,-24.977 -14.336,-37.965 -1.7891,-5.8242 -2.3516,-11.762 -2.6875,-17.699 -0.44531,-8.2852 5.043,-15.008 9.6328,-21.727 9.8555,-15.23 14,-33.266 16.016,-51.297 -1.457,-2.5742 -2.9102,-5.2617 -4.4805,-7.7266 -4.9258,22.398 -13.664,43.566 -26.879,63.168 z"
       id="path20" />
    <path
       d="m 516.32,235.65 c -0.22266,-1.1211 -2.0156,-1.0078 -2.2383,0 -2.3516,7.6172 -5.4883,14.559 -9.7422,21.504 -3.8086,6.1602 -10.078,11.648 -11.984,18.703 -3.5859,13.328 4.4805,26.879 10.414,38.754 6.4961,12.992 11.648,26.434 16.352,39.984 1.457,-3.4727 2.5742,-6.9453 3.8086,-10.641 -1.9062,-7.6172 -3.5859,-15.234 -5.6016,-22.848 -2.0156,-7.6172 -3.9219,-14.672 -6.9453,-21.84 -3.582,-8.5117 -7.8398,-15.57 -3.6953,-24.641 5.9375,-12.992 12.543,-24.418 9.6328,-38.977 z"
       id="path22" />
    <path
       d="m 528.86,319.65 c 1.6797,-9.9688 2.4648,-20.16 2.4648,-30.465 0,-14.223 -1.6797,-27.887 -4.7031,-41.105 -0.78516,1.6836 -1.5703,3.4727 -2.2422,5.1523 -4.8164,10.195 -5.8242,20.051 -5.0391,31.027 0.78516,12.207 4.9297,23.855 9.5195,35.391 z"
       id="path24" />
    <path
       d="m 226.57,315.95 c 2.4648,-9.8555 6.0508,-19.379 10.977,-28.449 4.5938,-8.5117 11.871,-13.551 19.375,-19.824 6.8359,-5.7109 11.648,-12.77 17.809,-19.039 6.9453,-7.168 15.457,-12.77 23.633,-18.367 15.121,-10.305 26.992,-22.398 37.742,-36.398 11.648,-15.23 21.953,-30.91 34.609,-45.473 6.0508,-7.1719 12.547,-14.227 20.723,-19.379 8.0625,-5.2656 18.703,-4.4805 26.992,-9.1836 -2.9141,-1.2305 -5.9375,-2.3516 -9.0742,-3.4727 -14.449,0.22656 -29.008,4.7031 -39.871,13.219 -15.566,12.207 -24.305,28.449 -34.719,44.238 -11.762,17.809 -25.09,33.602 -43.121,46.367 -7.0547,5.0391 -14.113,10.078 -20.719,15.793 -7.7266,6.7188 -12.992,15.121 -20.496,21.953 -28.227,25.871 -36.512,62.383 -38.305,98.223 -1.1211,19.266 -2.4648,39.535 2.1289,58.352 4.3672,4.5938 8.8477,8.9609 13.664,13.105 -1.0117,-6.3867 -3.1367,-12.434 -5.3789,-18.707 -3.3594,-9.9688 -2.2383,-22.398 -2.2383,-32.703 0,-20.047 1.5664,-40.43 6.2695,-60.254 z"
       id="path26" />
    <path
       d="m 222.54,264.21 c 4.9297,-8.5117 15.566,-13.777 23.742,-19.152 15.348,-9.8555 22.961,-26.656 38.531,-35.949 16.574,-9.8555 33.266,-19.602 42.336,-36.289 4.5898,-8.2891 7.2812,-17.137 11.648,-25.535 4.1445,-8.0625 10.078,-15.344 15.902,-22.398 5.6016,-6.832 12.098,-12.543 19.824,-17.137 -5.6016,-0.78516 -11.312,-1.457 -17.023,-1.793 -1.0078,0.78516 -2.1289,1.457 -3.0234,2.2383 -8.5117,6.3828 -16.242,13.551 -22.961,21.504 -7.168,8.1758 -10.191,17.023 -14.336,26.434 -4.1445,9.4062 -7.5039,17.246 -14.895,24.977 -7.168,7.5039 -17.809,14.336 -26.992,19.824 -8.0664,4.7031 -14.113,12.207 -20.273,18.926 -7.0547,7.6172 -15.121,13.328 -24.191,18.816 -36.062,21.84 -42.785,69.441 -46.93,105.84 -0.89453,8.1758 -1.1211,16.574 -0.67188,25.199 5.043,10.418 10.867,20.051 17.809,29.234 -1.2305,-14.336 -3.0234,-28.672 -3.0234,-43.008 0,-20.496 4.9297,-43.457 11.535,-62.945 3.1367,-10.082 7.7305,-19.602 12.992,-28.785 z"
       id="path28" />
    <path
       d="m 276.08,166.88 c -9.4062,15.457 -21.727,27.441 -35.727,39.426 -13.105,11.086 -30.801,17.695 -42,30.801 -9.2969,10.637 -12.766,26.766 -18.145,39.309 -6.0469,14 -10.754,27.551 -12.543,42.559 -0.11328,0.67578 -0.22266,1.5703 -0.22266,2.3555 1.9023,10.414 4.4805,20.609 8.0625,30.352 -0.33594,-7.168 -0.44922,-14.113 -0.44922,-21.281 0.22266,-15.68 3.5859,-30.465 10.078,-44.91 2.8008,-6.4961 7.0547,-12.32 10.305,-18.703 3.3633,-6.9453 5.6016,-14.227 9.6328,-20.945 7.8398,-12.656 27.441,-17.473 39.426,-26.434 12.879,-9.6289 21.168,-21.391 30.465,-33.82 9.5195,-12.434 16.352,-26.547 24.414,-39.875 6.0469,-9.8555 15.566,-27.441 27.887,-31.023 0.89844,-0.33594 0.67578,-1.5664 -0.33203,-1.5664 -10.867,-0.89844 -18.707,7.8398 -24.531,15.117 -10.191,12.32 -18.254,25.203 -26.32,38.641 z"
       id="path30" />
    <path
       d="m 165.76,291.98 c 7.3906,-28.336 16.801,-61.602 40.098,-82.77 11.871,-10.863 28.449,-16.688 40.32,-27.551 10.527,-9.6328 14,-24.078 23.855,-34.383 4.8125,-4.9297 10.301,-9.2969 15.23,-14 5.8242,-5.7109 10.078,-12.656 15.23,-18.703 1.1211,-1.3438 2.3516,-2.3516 3.4727,-3.4727 -5.7109,1.4531 -11.426,3.1328 -16.914,5.0391 -0.67188,1.0078 -1.4531,1.9023 -2.2383,2.8008 -5.1523,6.3828 -11.426,11.422 -17.586,16.797 -11.984,10.418 -17.246,22.625 -26.094,34.832 -5.6016,8.1797 -16.465,13.219 -24.863,18.594 -7.2812,4.8164 -14.898,9.1836 -21.617,14.785 -7.9531,6.7188 -14.449,15.121 -19.711,24.305 -6.832,19.039 -10.527,39.648 -10.527,60.93 0,2.3516 0.11328,4.7031 0.22266,7.0547 0.44922,-1.3477 0.78516,-2.8008 1.1211,-4.2578 z"
       id="path32" />
    <path
       d="m 212.13,168.22 c -1.6797,1.457 -3.3594,2.5742 -5.2656,3.8086 -10.305,12.434 -19.039,26.32 -25.758,41.105 3.2461,-4.3672 6.7188,-8.7344 10.191,-12.879 8.3984,-10.195 19.824,-15.684 29.902,-24.082 8.8477,-7.5039 11.648,-21.617 17.023,-31.359 0.78516,-1.5664 1.6797,-2.9102 2.4648,-4.4805 -6.832,5.0391 -13.441,10.641 -19.598,16.465 -2.5781,4.2539 -5.3789,8.1758 -8.9609,11.422 z"
       id="path34" />
  </g>
</svg>
