<?xml version="1.0" encoding="UTF-8" standalone="no"?>
<svg
   width="512.4953pt"
   height="513.32922pt"
   version="1.1"
   viewBox="0 0 512.4953 513.32922"
   id="svg4"
   sodipodi:docname="fish.svg"
   inkscape:version="1.2.1 (1:1.2.1+202210291244+9c6d41e410)"
   xmlns:inkscape="http://www.inkscape.org/namespaces/inkscape"
   xmlns:sodipodi="http://sodipodi.sourceforge.net/DTD/sodipodi-0.dtd"
   xmlns="http://www.w3.org/2000/svg"
   xmlns:svg="http://www.w3.org/2000/svg">
  <defs
     id="defs8" />
  <sodipodi:namedview
     id="namedview6"
     pagecolor="#ffffff"
     bordercolor="#666666"
     borderopacity="1.0"
     inkscape:showpageshadow="2"
     inkscape:pageopacity="0.0"
     inkscape:pagecheckerboard="0"
     inkscape:deskcolor="#d1d1d1"
     inkscape:document-units="pt"
     showgrid="false"
     inkscape:zoom="0.71518799"
     inkscape:cx="311.10701"
     inkscape:cy="278.24852"
     inkscape:window-width="1920"
     inkscape:window-height="1009"
     inkscape:window-x="0"
     inkscape:window-y="34"
     inkscape:window-maximized="1"
     inkscape:current-layer="svg4" />
  <path
     d="m 66.990716,2.4998631 c 79.141004,0.82812 155.710004,32.4019999 212.690004,89.3049999 0.004,0.004 0.004,0.008 0.008,0.0117 66.762,66.854997 98.648,160.679997 86.895,253.989997 11.762,-1.4883 23.574,-2.2812 35.371,-2.3828 34.629,-0.33203 69.176,5.2812 102.14,16.629 2.8516,0.98047 5,3.3633 5.6758,6.3047 0.67969,2.9375 -0.20313,6.0234 -2.3359,8.1562 l -132.78,132.78 v -0.004 c -2.1328,2.1328 -5.2148,3.0156 -8.1523,2.3398 -2.9375,-0.67969 -5.3203,-2.8242 -6.3047,-5.6758 -15.227,-44.191 -20.082,-91.238 -14.27,-137.52 -93.301,11.754 -187.12,-20.129 -253.970004,-86.891 0,0 -0.004,0 -0.008,-0.004 -17.449,-17.453 -32.523,-36.746 -45.062,-57.383 h 0.004 c -0.11719,-0.15234 -0.22656,-0.30469 -0.33203,-0.46484 -0.14453,-0.25391 -0.27734,-0.51953 -0.39844,-0.79297 C 9.2231461,159.43285 -5.3588509,86.137853 6.5791461,13.827849 v 0.0039 c 0.61328,-3.6953 3.5038999,-6.5897999 7.1952999,-7.2030999 15.184,-2.5117 30.414,-3.8828 45.57,-4.1055 2.5469,0 5.1172,0 7.6641,-0.01953 z m -4.4766,17.4879999 c -13.172,0 -26.41,1.0586 -39.625,2.9414 -9.0664,63.57 3.4609,127.599997 34.418,182.359997 29.402,-17.746 57.547004,-39.855 82.910004,-65.223 25.359,-25.355 47.465,-53.483997 65.203,-82.878997 -41.805,-23.602 -89,-36.469 -137.270004,-37.184 -1.8867,-0.03125 -3.7578,0 -5.6367,-0.03125 z m 157.870004,46.281 c -18.508,30.664 -41.469,59.858997 -67.793,86.187997 -26.336,26.336 -55.547004,49.301 -86.219004,67.816 10.871,16.754 23.539,32.5 37.945004,46.902 64.184,64.102 154.7,94.09 244.25,81.27 12.824,-89.555 -17.164,-180.07 -81.266,-244.26 -14.414,-14.390997 -30.164,-27.050997 -46.926,-37.913997 z m 181.73,294.659997 c -12.738,0 -25.484,1.0898 -38.16,2.9102 -5.7734,40.477 -2.8438,81.676 8.5273,120.88 l 112.38,-112.38 c -26.938,-7.8164 -54.809,-11.664 -82.742,-11.418 z"
     id="path2"
     style="stroke:#000000;stroke-width:5;stroke-dasharray:none;stroke-opacity:1" />
</svg>
