<?xml version="1.0" encoding="UTF-8" standalone="no"?>
<!-- Created with Inkscape (http://www.inkscape.org/) -->

<svg
   width="5.0000067in"
   height="2.4985328in"
   viewBox="0 0 127.00017 63.462728"
   version="1.1"
   id="svg1"
   xml:space="preserve"
   sodipodi:docname="DeNIS_logo_black.svg"
   inkscape:version="1.3.2 (1:1.3.2+202311252150+091e20ef0f)"
   xmlns:inkscape="http://www.inkscape.org/namespaces/inkscape"
   xmlns:sodipodi="http://sodipodi.sourceforge.net/DTD/sodipodi-0.dtd"
   xmlns="http://www.w3.org/2000/svg"
   xmlns:svg="http://www.w3.org/2000/svg"><sodipodi:namedview
     id="namedview1"
     pagecolor="#ffffff"
     bordercolor="#000000"
     borderopacity="0.25"
     inkscape:showpageshadow="2"
     inkscape:pageopacity="0.0"
     inkscape:pagecheckerboard="0"
     inkscape:deskcolor="#d1d1d1"
     inkscape:document-units="in"
     inkscape:zoom="0.58972709"
     inkscape:cx="193.30976"
     inkscape:cy="295.05173"
     inkscape:window-width="1920"
     inkscape:window-height="1016"
     inkscape:window-x="0"
     inkscape:window-y="0"
     inkscape:window-maximized="1"
     inkscape:current-layer="svg1" /><defs
     id="defs1"><linearGradient
       id="swatch1"><stop
         style="stop-color:#000000;stop-opacity:1;"
         offset="0"
         id="stop1" /></linearGradient></defs><g
     id="layer1"
     transform="translate(-3.1530762,-42.057461)"><path
       id="rect84"
       style="fill:#93aca7;stroke:#000000;stroke-width:0.0920904;stroke-linecap:round;stroke-linejoin:round;stroke-miterlimit:50"
       transform="skewY(-0.08038073)"
       d="M 8.4177914,55.982117 H 18.63623 V 68.471279 H 8.4177914 Z" /><path
       style="display:inline;fill:#93aca7;fill-opacity:1;stroke:#000000;stroke-width:0.0920903;stroke-linecap:round;stroke-linejoin:round;stroke-miterlimit:50;stroke-dasharray:none;stroke-opacity:1;paint-order:normal"
       d="m 35.596911,46.4365 c 0,0 -13.051264,-0.12143 -14.394506,-0.04743 -3.774652,0.207925 -5.253825,10.050795 -5.253825,10.050795 l 0.03236,12.131388 c 0,0 1.546116,9.549787 4.869462,9.523237 3.449781,-0.02755 15.084381,2e-6 15.084381,2e-6 z"
       id="path80" /><path
       id="rect32"
       style="display:inline;fill:#93aca7;stroke:#000000;stroke-width:0.0920903;stroke-linecap:round;stroke-linejoin:round;stroke-miterlimit:50"
       d="m 115.69165,46.343994 h 1.52222 c 3.00766,0 5.42899,1.503468 5.42899,3.371004 v 24.975821 c 0,1.867536 -2.42133,3.371004 -5.42899,3.371004 h -1.52222 c -3.00766,0 -5.42899,-1.503468 -5.42899,-3.371004 V 49.714998 c 0,-1.867536 2.42133,-3.371004 5.42899,-3.371004 z" /><path
       id="rect33"
       style="display:inline;fill:#93aca7;stroke:#000000;stroke-width:0.092012;stroke-linecap:round;stroke-linejoin:round;stroke-miterlimit:50"
       d="m 65.889307,46.357864 h 14.934152 c 1.944065,0 3.509143,1.083066 3.509143,2.4284 v 26.779439 c 0,1.345333 -1.565078,2.428399 -3.509143,2.428399 H 65.889307 c -1.944064,0 -3.509142,-1.083066 -3.509142,-2.428399 V 48.786264 c 0,-1.345334 1.565078,-2.4284 3.509142,-2.4284 z" /><path
       id="rect34"
       style="display:inline;fill:#93aca7;stroke:#000000;stroke-width:0.0919904;stroke-linecap:round;stroke-linejoin:round;stroke-miterlimit:50"
       d="m 44.15763,46.343018 h 13.642541 c 2.435621,0 4.396427,1.089165 4.396427,2.442074 v 26.766876 c 0,1.352909 -1.960806,2.442073 -4.396427,2.442073 H 44.15763 c -2.43562,0 -4.396426,-1.089164 -4.396426,-2.442073 V 48.785092 c 0,-1.352909 1.960806,-2.442074 4.396426,-2.442074 z" /><path
       id="rect36"
       style="display:inline;fill:#93aca7;stroke:#000000;stroke-width:0.0920903;stroke-linecap:round;stroke-linejoin:round;stroke-miterlimit:50"
       d="m 24.632146,46.365162 h 11.348682 c 2.095087,0 3.781745,1.081654 3.781745,2.425233 v 26.878867 c 0,1.34358 -1.686658,2.425234 -3.781745,2.425234 H 24.632146 c -2.095087,0 -3.781745,-1.081654 -3.781745,-2.425234 V 48.790395 c 0,-1.343579 1.686658,-2.425233 3.781745,-2.425233 z" /><path
       id="rect42"
       style="display:inline;fill:#93aca7;stroke:#000000;stroke-width:0.0926685;stroke-linecap:round;stroke-linejoin:round;stroke-miterlimit:50"
       d="m 88.299013,46.345192 h 18.696677 c 1.76297,0 3.18225,1.088424 3.18225,2.440414 v 26.768082 c 0,1.351989 -1.41928,2.440414 -3.18225,2.440414 H 88.299013 c -1.762964,0 -3.182245,-1.088425 -3.182245,-2.440414 V 48.785606 c 0,-1.35199 1.419281,-2.440414 3.182245,-2.440414 z" /><path
       id="rect37"
       style="fill:#93aca7;stroke-width:0.0920901;stroke-linecap:round;stroke-linejoin:round;stroke-miterlimit:50"
       d="m 22.532877,46.368866 c 1.300491,0 2.347457,0.684813 2.347457,1.535455 v 28.624031 c 0,0.850642 -1.046966,1.535455 -2.347457,1.535455 -1.300492,0 -2.347458,-0.684813 -2.347458,-1.535455 V 47.904321 c 0,-0.850642 1.046966,-1.535455 2.347458,-1.535455 z" /><path
       id="rect40"
       style="display:inline;fill:#93aca7;stroke-width:0.0851887;stroke-linecap:round;stroke-linejoin:round;stroke-miterlimit:50"
       d="m 39.940513,48.790394 c 1.300492,0 2.347458,1.107184 2.347458,2.482475 V 73.43045 c 0,1.375292 -1.046966,2.482476 -2.347458,2.482476 -1.300491,0 -2.347457,-1.107184 -2.347457,-2.482476 V 51.272869 c 0,-1.375291 1.046966,-2.482475 2.347457,-2.482475 z" /><path
       id="rect43"
       style="fill:#93aca7;stroke-width:0.0673038;stroke-linecap:round;stroke-linejoin:round;stroke-miterlimit:50"
       d="m 109.24778,48.779842 c 0.81175,0 1.46525,2e-6 1.46525,5e-6 V 75.90237 c 0,2e-6 -0.6535,4e-6 -1.46525,4e-6 -0.81176,0 -1.46526,-2e-6 -1.46526,-4e-6 V 48.779847 c 0,-3e-6 0.6535,-5e-6 1.46526,-5e-6 z" /><path
       style="font-size:105.333px;font-family:Bodoni;-inkscape-font-specification:Bodoni;letter-spacing:-5px;white-space:pre;display:inline"
       d="m 26.505194,109.2976 h 30.756413 q 13.166626,0 21.292902,5.6061 8.126276,5.58039 11.469365,13.4495 3.368804,7.86912 3.368804,15.17248 0,9.69496 -4.346015,17.66694 -4.320299,7.97198 -11.983686,12.54944 -7.637671,4.55174 -16.946886,4.55174 H 26.505194 v -2.10872 h 8.100561 v -64.88163 h -8.100561 z m 19.904234,66.88748 h 14.220984 q 3.523101,0 7.740535,-1.80012 4.243151,-1.80012 7.997696,-8.84633 3.754546,-7.07191 3.754546,-21.06145 0,-9.84926 -1.414384,-16.25256 -1.388667,-6.42901 -4.166002,-10.13213 -2.777335,-3.70311 -6.891905,-5.24607 -4.114571,-1.54297 -9.977833,-1.54297 H 46.409428 Z m 88.632192,-10.415 1.80012,1.15722 q -3.93455,6.19757 -8.4863,9.36065 -4.52602,3.16307 -10.5693,3.16307 -6.50616,0 -11.70081,-3.06021 -5.16893,-3.06021 -8.074843,-8.43487 -2.8802,-5.40037 -2.8802,-12.08655 0,-6.68617 2.957348,-12.11226 2.957345,-5.45181 7.843395,-8.46059 4.91177,-3.03449 10.36358,-3.03449 4.62889,0 9.02634,1.9287 4.39744,1.90299 7.48337,6.60903 3.11165,4.70604 3.62597,12.52372 h -29.49633 l 0.10287,7.27765 q 0.12858,6.8919 1.95442,11.77796 1.85155,4.86033 8.35772,4.86033 9.66924,0 17.69265,-11.46936 z m -28.10766,-14.11812 h 18.54128 q 0,-0.51432 0.0514,-1.56868 0.0514,-1.05436 0.0514,-1.5944 0,-6.8919 -1.85156,-10.64645 -1.82584,-3.78026 -6.8919,-3.78026 -5.60611,0 -7.71482,3.54882 -2.083,3.5231 -2.083,7.40622 z m 86.21488,6.09471 v -39.39701 q 0,-4.08886 -2.82877,-5.55467 -2.82876,-1.49154 -6.22328,-1.49154 v -2.00585 h 20.31569 v 2.00585 q -4.14029,0.0257 -6.12043,1.4401 -1.98013,1.38867 -2.46874,3.29166 -0.46289,1.90299 -0.46289,4.86034 v 58.55547 h -0.74576 l -44.77167,-59.60983 v 46.85467 q 0,2.93163 2.03157,6.22328 2.05728,3.26594 7.14906,3.26594 v 2.10872 h -20.44427 v -2.10872 q 4.3203,0 6.68618,-2.083 2.36588,-2.083 2.36588,-7.40622 v -49.81202 q 0,-2.93163 -2.49446,-4.19172 -2.49446,-1.2858 -5.40038,-1.38867 v -2.00585 h 16.74116 z m 23.21052,18.43841 v -64.88163 h -8.10056 v -2.00585 h 28.03051 v 2.00585 h -8.12628 v 64.88163 h 8.12628 v 2.10872 H 208.2588 v -2.10872 z m 23.98201,2.10872 -0.20573,-22.01295 h 1.36295 q 4.88606,12.1637 11.59795,16.61258 6.73761,4.44888 13.47522,4.44888 6.0947,0 10.46643,-3.49739 4.39745,-3.49738 4.39745,-9.1292 0,-11.00648 -11.28935,-14.11812 l -12.42086,-3.3688 q -14.96675,-4.11457 -14.96675,-21.19004 0,-4.86034 2.31445,-8.97491 2.31444,-4.11457 6.45473,-6.50616 4.166,-2.41731 9.25778,-2.41731 4.14029,0 6.30044,0.51432 2.18586,0.4886 4.0117,1.49153 1.85156,1.00293 3.0345,1.41438 1.20865,0.38575 4.03742,0.38575 1.15722,0 2.41731,-2.64876 h 1.67155 l 0.43717,16.63829 h -1.49153 q -6.96906,-15.89252 -20.10997,-15.89252 -6.19757,0 -9.79782,3.65168 -3.57453,3.65168 -3.57453,8.76918 0,4.50031 2.16015,7.17478 2.16015,2.67447 4.70604,3.80598 2.54589,1.10579 6.09471,2.083 l 10.74931,2.85448 q 6.60903,1.74869 10.10642,5.40037 3.49738,3.65168 4.52602,7.45766 1.05436,3.80598 1.05436,7.45766 0,5.14321 -2.18586,9.95212 -2.16015,4.78319 -6.58332,7.79197 -4.42316,3.00877 -10.62073,3.00877 -8.4863,0 -15.6868,-3.47166 -3.72883,-1.69726 -4.73176,-1.69726 -1.82584,0 -3.00878,1.08007 -1.18293,1.08008 -1.41438,2.93163 z"
       id="text82"
       transform="matrix(0.4873113,0,0,0.4873113,-9.763038,-7.8628804)"
       aria-label="DeNIS" /><path
       id="rect25"
       style="display:inline;fill:#93aca7;stroke-width:0.0605577;stroke-linecap:round;stroke-linejoin:round;stroke-miterlimit:50"
       d="m 15.948579,56.011894 c 0.52497,0 0.947598,0.380702 0.947598,0.853592 v 10.678883 c 0,0.47289 -0.422628,0.853592 -0.947598,0.853592 -0.524969,0 -0.947598,-0.380702 -0.947598,-0.853592 V 56.865486 c 0,-0.47289 0.422629,-0.853592 0.947598,-0.853592 z" /><path
       id="rect39"
       style="fill:#93aca7;stroke-width:0.213607;stroke-linecap:round;stroke-linejoin:round;stroke-miterlimit:50"
       d="m 15.110919,56.008163 c 0.723324,0 1.30564,1.107184 1.30564,2.482476 v 7.433459 c 0,1.375291 -0.582316,2.482475 -1.30564,2.482475 -0.723324,0 -1.305639,-1.107184 -1.305639,-2.482475 v -7.433459 c 0,-1.375292 0.582315,-2.482476 1.305639,-2.482476 z" /><path
       style="display:inline;fill:none;fill-opacity:1;stroke:#000000;stroke-width:0.709095;stroke-linecap:round;stroke-linejoin:round;stroke-miterlimit:50;stroke-dasharray:none;stroke-opacity:1;paint-order:normal"
       d="m 41.693456,71.335487 c 0,0 0.63444,4.831531 2.42971,6.063785 2.280523,1.565323 7.508673,0.623241 8.297406,0.11095"
       id="path84" /><path
       id="rect82"
       style="fill:#93aca7;stroke:#000000;stroke-width:0.0920903;stroke-linecap:round;stroke-linejoin:round;stroke-miterlimit:50"
       d="m 4.2171493,53.433075 h 7.5891167 c 0.550708,0 0.994057,0.452398 0.994057,1.014344 v 15.520607 c 0,0.561947 -0.443349,1.014344 -0.994057,1.014344 H 4.2171493 c -0.5507079,0 -0.9940575,-0.452397 -0.9940575,-1.014344 V 54.447419 c 0,-0.561946 0.4433496,-1.014344 0.9940575,-1.014344 z" /><path
       id="path3"
       style="fill:#f8e6d2;fill-opacity:1;stroke:#000000;stroke-width:0.366784;stroke-linejoin:round;stroke-dasharray:none;stroke-opacity:1"
       d="m -68.578183,56.873377 c -0.317686,-6.25e-4 -0.824304,0.144841 -1.138705,0.216636 -2.122207,0.48461 -9.375895,2.793945 -8.664738,11.622109 0.458161,5.687531 1.12353,7.903252 1.628967,8.746135 0.242509,0.404415 0.861509,0.903655 1.288983,1.156361 1.782453,1.053719 7.444346,1.744583 12.747386,1.601899 5.242139,-0.14104 8.734295,-2.693212 9.995718,-4.175706 0.334525,-0.393152 0.651324,-1.183101 0.773273,-1.687617 0.38227,-1.581494 0.521124,-4.73793 -3.653238,-9.944416 -4.568867,-5.698533 -10.984258,-7.531477 -12.977646,-7.535401 z"
       transform="matrix(0.26925686,0,0,0.23412164,63.736606,28.785109)" /><path
       style="fill:#dccdbc;fill-opacity:1;stroke:#000000;stroke-width:0.0920904;stroke-linejoin:round;stroke-dasharray:none;stroke-opacity:1"
       d="m 44.115167,42.877264 c -0.309799,0.419069 -0.232933,1.634843 0.216298,1.947915 0.288806,0.20127 2.231458,0.555929 2.672843,0.24181 0.294992,-0.209937 -0.06011,-1.407511 -0.602549,-1.833727 -0.574498,-0.45141 -2.175095,-0.506822 -2.286592,-0.355998 z"
       id="path1" /><path
       style="fill:none;stroke:#000000;stroke-width:0.0920904;stroke-linejoin:round;stroke-dasharray:none;stroke-opacity:1"
       d="m 44.110264,42.924665 c 0,0 2.135791,2.037578 2.900525,2.094573"
       id="path2" /><path
       style="fill:#f8e6d2;fill-opacity:1;fill-rule:nonzero;stroke:#000000;stroke-width:0.0920904;stroke-linecap:round;stroke-linejoin:round;stroke-miterlimit:50;stroke-dasharray:none;stroke-opacity:1;paint-order:normal"
       d="m 99.321616,55.562883 c -0.24135,-0.697199 -2.126156,-1.521636 -1.460654,-2.664855 0.261544,-0.449288 1.116237,-0.783653 1.722008,-0.923309 0.84641,-0.195133 2.13511,-0.150098 2.99539,0.483126 0.86027,0.633224 1.79475,2.152763 1.85475,3.255305 0.06,1.102541 -0.31195,2.192984 -0.79947,2.653803 -0.48751,0.460819 -1.03089,0.478368 -1.5871,0.536268 -0.55622,0.0579 -1.33004,-0.05628 -1.89999,-0.350833 -0.569945,-0.294552 -0.980111,-0.718935 -1.164805,-1.3599 -0.184694,-0.640964 0.551594,-1.017995 0.339871,-1.629605 z"
       id="path90" /><path
       style="fill:#dccdbc;fill-opacity:1;fill-rule:nonzero;stroke:#000000;stroke-width:0.0920904;stroke-linecap:round;stroke-linejoin:round;stroke-miterlimit:50;stroke-dasharray:none;stroke-opacity:1;paint-order:normal"
       d="m 100.90336,55.634511 c 0.0164,-0.399721 1.55638,-1.43577 1.98901,-1.427221 0.5223,0.01032 1.37012,1.302874 1.48795,2.186382 0.0843,0.632162 -1.26042,1.518095 -1.66256,1.434814 -0.70576,-0.146157 -1.8464,-1.414592 -1.8144,-2.193975 z"
       id="path91" /><path
       style="fill:none;fill-opacity:1;fill-rule:nonzero;stroke:#000000;stroke-width:0.0920904;stroke-linecap:round;stroke-linejoin:round;stroke-miterlimit:50;stroke-dasharray:none;stroke-opacity:1;paint-order:normal"
       d="m 100.91855,55.619328 c 0,0 3.02146,-0.258115 3.39345,0.781935"
       id="path92" /><path
       style="fill:#f8e6d2;fill-opacity:1;fill-rule:nonzero;stroke:#000000;stroke-width:0.0920903;stroke-linecap:round;stroke-linejoin:round;stroke-miterlimit:50;stroke-dasharray:none;stroke-opacity:1;paint-order:normal"
       d="m 100.42509,58.724294 c -0.457791,-0.130517 -1.07373,1.439219 -1.108373,2.285074 -0.03753,0.916547 0.667003,2.531214 0.994503,2.565965 0.74592,0.07915 2.18653,0.327939 3.05941,0.0911 0.71867,-0.194996 1.19847,-0.994815 1.45759,-1.692928 0.24833,-0.66901 0.26447,-1.478038 0,-2.140832 -0.22886,-0.573566 -1.07162,-1.453144 -1.27539,-1.343715 -0.88189,0.473609 -2.05941,0.539931 -3.12774,0.235338 z"
       id="path93" /><path
       style="fill:#dccdbc;fill-opacity:1;fill-rule:nonzero;stroke:#000000;stroke-width:0.0920903;stroke-linecap:round;stroke-linejoin:round;stroke-miterlimit:50;stroke-dasharray:none;stroke-opacity:1;paint-order:normal"
       d="m 103.92037,62.673297 c -0.37153,0.188863 -1.98299,-0.166257 -2.42637,-0.907205 -0.24663,-0.412153 -0.16432,-1.107218 0.19325,-1.427908 0.41176,-0.36929 1.21975,-0.379415 1.65874,-0.04295 0.64723,0.496082 0.81115,2.257704 0.57438,2.37806 z"
       id="path94" /><path
       style="fill:none;fill-opacity:1;fill-rule:nonzero;stroke:#000000;stroke-width:0.0920903;stroke-linecap:round;stroke-linejoin:round;stroke-miterlimit:50;stroke-dasharray:none;stroke-opacity:1;paint-order:normal"
       d="m 101.66578,60.391863 c 0,0 2.23312,1.771466 2.23312,2.227753"
       id="path95" /><path
       style="fill:#f8e6d2;fill-opacity:1;fill-rule:nonzero;stroke:#000000;stroke-width:0.0920903;stroke-linecap:round;stroke-linejoin:round;stroke-miterlimit:50;stroke-dasharray:none;stroke-opacity:1;paint-order:normal"
       d="m 99.862106,63.580502 c -0.464541,-0.04989 -0.982935,-0.09005 -1.3957,0.128837 -0.458258,0.24301 -0.588986,0.870694 -0.987725,1.202448 -0.807764,0.672063 -2.333895,1.264554 -2.759192,1.524535 -0.408568,0.249753 0.02709,3.277245 0.987726,3.875751 0.840931,0.523922 1.996574,0.604278 2.952443,0.343557 1.126248,-0.307195 2.093412,-1.179278 2.791402,-2.115023 0.3458,-0.463592 0.65904,-3.824468 0.80521,-4.723907 0.0126,-0.07754 -1.57077,-0.147785 -2.394164,-0.236196 z"
       id="path96" /><path
       style="fill:#dccdbc;fill-opacity:1;fill-rule:nonzero;stroke:#000000;stroke-width:0.0920903;stroke-linecap:round;stroke-linejoin:round;stroke-miterlimit:50;stroke-dasharray:none;stroke-opacity:1;paint-order:normal"
       d="m 97.392791,66.726195 c -0.05957,0.57616 -0.14148,3.106311 0.429447,3.124221 0.794021,0.02492 2.232632,-1.018269 2.641092,-1.792938 0.29893,-0.566923 0.6319,-2.280579 0.42945,-3.092013 -0.0846,-0.338846 -3.41896,0.977058 -3.499989,1.76073 z"
       id="path97" /><path
       style="fill:#dccdbc;fill-opacity:1;fill-rule:nonzero;stroke:#000000;stroke-width:0.0920903;stroke-linecap:round;stroke-linejoin:round;stroke-miterlimit:50;stroke-dasharray:none;stroke-opacity:1;paint-order:normal"
       d="m 97.693403,69.743054 c 0,0 2.855817,-4.83127 3.134957,-4.83127"
       id="path98" /><path
       style="fill:#f8e6d2;fill-opacity:1;stroke:#000000;stroke-width:0.0920903;stroke-linecap:round;stroke-linejoin:round;stroke-miterlimit:50;stroke-dasharray:none"
       d="m 60.931492,71.19659 c -0.363146,1.681367 0.953973,4.027884 2.610414,4.315759 1.294435,0.224962 3.196549,-0.695466 3.058188,-2.486563 -0.165181,-2.138278 -1.149111,-2.892476 -2.705686,-3.020078 -1.056039,-0.08657 -2.739223,0.155184 -2.962916,1.190882 z"
       id="path4" /><path
       style="fill:#dccdbc;fill-opacity:1;stroke:#000000;stroke-width:0.0920903;stroke-linecap:round;stroke-linejoin:round;stroke-miterlimit:50;stroke-dasharray:none"
       d="m 62.522511,71.339496 c -0.161954,0.404468 0.268426,1.945825 0.952706,2.534199 0.521859,0.448716 1.582077,0.780677 2.019737,0.428717 0.392842,-0.315918 0.05876,-1.76879 -0.495407,-2.343656 -0.590679,-0.612742 -2.353269,-0.928354 -2.477036,-0.61926 z"
       id="path5" /><path
       style="fill:none;stroke:#000000;stroke-width:0.0920903;stroke-linecap:round;stroke-linejoin:round;stroke-miterlimit:50;stroke-dasharray:none"
       d="m 62.532038,71.444294 c 0,0 2.943862,2.238859 2.991498,2.667578"
       id="path6" /><path
       style="fill:#f8e6d2;fill-opacity:1;stroke:#000000;stroke-width:0.0920905;stroke-linecap:round;stroke-linejoin:round;stroke-miterlimit:50;stroke-dasharray:none"
       d="m 65.521779,65.708769 c -0.501778,0.214826 -1.049064,0.742449 -1.012372,1.287045 0.05559,0.825071 0.954559,1.71836 1.781461,1.726526 0.679252,0.0067 1.539749,-0.936452 1.49109,-1.389068 -0.0547,-0.508827 -0.50458,-1.197491 -1.028068,-1.506786 -0.355208,-0.209869 -0.852836,-0.280096 -1.232111,-0.117717 z"
       id="path7" /><path
       style="fill:#dccdbc;fill-opacity:1;stroke:#000000;stroke-width:0.0920905;stroke-linecap:round;stroke-linejoin:round;stroke-miterlimit:50;stroke-dasharray:none"
       d="m 65.741519,66.360139 c -0.325956,0.114968 -0.820477,0.750052 -0.737697,1.035915 0.104479,0.360799 1.229493,0.628942 1.302741,0.627828 0.20981,-0.0032 0.661219,-0.807403 0.539284,-1.031795 -0.128197,-0.235914 -0.857874,-0.718874 -1.104328,-0.631948 z"
       id="path8" /><path
       style="fill:none;fill-opacity:1;stroke:#000000;stroke-width:0.0920905;stroke-linecap:round;stroke-linejoin:round;stroke-miterlimit:50;stroke-dasharray:none"
       d="m 65.008614,67.408386 c 0,0 1.484428,-0.446715 1.847904,-0.327407"
       id="path9" /><path
       style="fill:#f8e6d2;fill-opacity:1;stroke:#000000;stroke-width:0.0920903;stroke-linecap:round;stroke-linejoin:round;stroke-miterlimit:50;stroke-dasharray:none"
       d="m 38.662919,59.394629 c -0.789496,-0.129452 -1.823086,0.583207 -1.971089,1.369435 -0.155425,0.825658 0.649669,1.853801 1.405354,2.092317 0.411193,0.129785 1.705197,-1.008057 1.755572,-1.85884 0.03933,-0.664256 -0.533187,-1.495243 -1.189837,-1.602912 z"
       id="path10" /><path
       style="fill:#dccdbc;fill-opacity:1;stroke:#000000;stroke-width:0.0920903;stroke-linecap:round;stroke-linejoin:round;stroke-miterlimit:50;stroke-dasharray:none"
       d="m 38.591079,59.915463 c -0.214042,-0.137082 -1.102473,0.444486 -1.109018,0.767782 -0.0093,0.457106 0.0065,1.234827 0.323277,1.346985 0.230496,0.08161 0.884281,-0.531156 1.023708,-0.983299 0.113571,-0.368294 -0.03901,-1.004048 -0.237967,-1.131468 z"
       id="path11" /><path
       style="fill:none;fill-opacity:1;stroke:#000000;stroke-width:0.0920903;stroke-linecap:round;stroke-linejoin:round;stroke-miterlimit:50;stroke-dasharray:none"
       d="m 37.778398,62.012271 c 0,0 0.686963,-2.096808 0.830641,-2.069868"
       id="path12" /><path
       style="fill:#f8e6d2;fill-opacity:1;stroke:#000000;stroke-width:0.0920903;stroke-linecap:round;stroke-linejoin:round;stroke-miterlimit:50;stroke-dasharray:none"
       d="m 117.12214,48.36709 c -0.9839,0.657923 -2.81868,0.409087 -3.42213,-0.577919 -0.47157,-0.7713 -0.36408,-2.221328 0.81697,-2.586136 1.40998,-0.435521 2.14159,0.0032 2.61721,0.966824 0.32268,0.653792 0.59402,1.79196 -0.0121,2.197231 z"
       id="path13" /><path
       style="fill:#dccdbc;fill-opacity:1;stroke:#000000;stroke-width:0.0920903;stroke-linecap:round;stroke-linejoin:round;stroke-miterlimit:50;stroke-dasharray:none"
       d="m 116.62801,47.385253 c -0.21781,0.205999 -1.31297,0.320749 -1.86263,0.03184 -0.4192,-0.220336 -0.89995,-0.814692 -0.78553,-1.183811 0.10271,-0.331319 1.11689,-0.485292 1.62498,-0.276209 0.54156,0.222855 1.18963,1.270759 1.02318,1.428185 z"
       id="path14" /><path
       style="fill:none;stroke:#000000;stroke-width:0.0920903;stroke-linecap:round;stroke-linejoin:round;stroke-miterlimit:50;stroke-dasharray:none"
       d="m 116.55854,47.405682 c 0,0 -2.17763,-1.316952 -2.464,-1.238919"
       id="path15" /><g
       id="text1"
       style="font-size:9.00096px;line-height:1.8;font-family:Bodoni;-inkscape-font-specification:Bodoni;letter-spacing:-0.35886px;word-spacing:-0.103351px;fill:#000000;fill-opacity:1;stroke:#000000;stroke-width:0.0135632;stroke-linecap:round;stroke-linejoin:round;stroke-miterlimit:50;stroke-opacity:1"
       transform="scale(1.0245351,0.97605245)"
       aria-label="Global Database for Non-Indigenous&#10;Species on Marine Debris"><path
         d="m 7.7188771,93.078051 h -0.197775 q -0.054938,-0.66804 -0.4197225,-1.197638 -0.364785,-0.531795 -1.2437851,-0.531795 -0.6262875,0 -0.9669,0.384563 -0.3406125,0.384562 -0.45708,0.997665 -0.1164675,0.613102 -0.1164675,1.452547 0,0.705398 0.094492,1.340475 0.094493,0.63288 0.408735,1.100948 0.3142425,0.46587 0.909765,0.46587 0.6416701,0 1.0262326,-0.32523 0.38676,-0.327428 0.38676,-1.23939 v -0.648263 h -0.628485 v -0.171405 h 2.26782 v 0.171405 h -0.630682 v 0.349403 q 0,0.621892 -0.355995,1.08117 -0.3537975,0.45708 -0.9119625,0.696607 -0.5559675,0.239528 -1.1361076,0.239528 -0.77352,0 -1.358055,-0.4395 -0.584535,-0.441698 -0.8965801,-1.16907 -0.3098475,-0.72957 -0.3098475,-1.560225 0,-0.66804 0.33402,-1.349265 0.3340201,-0.681225 0.9383326,-1.122923 0.6043125,-0.443895 1.3646475,-0.443895 0.241725,0 0.38676,0.03736 0.1472326,0.03516 0.3230326,0.109875 0.1758,0.07252 0.2834775,0.103283 0.1076775,0.02857 0.312045,0.02857 0.1164675,0 0.2043675,-0.05054 0.0879,-0.05054 0.1648125,-0.22854 h 0.206565 z M 9.3949024,91.438716 H 8.8279473 V 91.28489 h 0.8987776 q 0.3472051,0 0.5493751,-0.05274 v 5.768438 h 0.566955 v 0.153825 H 8.8279473 v -0.153825 h 0.5669551 z m 1.4408926,3.799477 q 0,-0.496635 0.23733,-0.964702 0.239528,-0.470265 0.683423,-0.760335 0.443895,-0.292268 1.024035,-0.292268 0.575745,0 1.01964,0.294465 0.443895,0.292268 0.687817,0.760335 0.24612,0.46587 0.24612,0.962505 0,0.36918 -0.138442,0.72957 -0.138443,0.358193 -0.39555,0.65046 -0.257108,0.29007 -0.62409,0.463673 -0.364785,0.171405 -0.795495,0.171405 -0.575745,0 -1.01964,-0.29007 -0.443895,-0.292268 -0.68562,-0.758138 -0.239528,-0.46587 -0.239528,-0.9669 z m 1.017443,-0.648262 q -0.0088,0.224145 -0.0088,0.674632 0,0.672435 0.07911,1.06359 0.07911,0.391155 0.283477,0.582338 0.204368,0.188985 0.582338,0.188985 0.320835,0 0.523005,-0.15822 0.20217,-0.15822 0.30765,-0.56256 0.10548,-0.406538 0.10548,-1.122923 0,-0.584535 -0.06153,-0.980085 -0.06153,-0.39555 -0.268095,-0.648262 -0.206565,-0.252713 -0.60651,-0.252713 -0.384563,0 -0.652658,0.303255 -0.265897,0.301058 -0.283477,0.911963 z m 4.321814,2.078835 v 0.485647 H 14.7269 v -0.153825 h 0.566955 V 91.438716 H 14.7269 V 91.28489 h 0.889987 q 0.373575,0 0.558165,-0.05274 v 2.412856 q 0.173603,-0.243923 0.406538,-0.33402 0.235132,-0.0901 0.43071,-0.0901 0.402142,0 0.74715,0.16701 0.347205,0.16701 0.599917,0.454883 0.252713,0.287872 0.388958,0.648262 0.136245,0.358193 0.136245,0.736163 0,0.53619 -0.239528,1.004257 -0.239527,0.46587 -0.652657,0.744953 -0.41313,0.276885 -0.916358,0.276885 -0.610905,0 -0.900975,-0.584535 z m 1.700865,-0.74715 v -1.197638 q 0,-0.525202 -0.142837,-0.82626 -0.142838,-0.303255 -0.336218,-0.41313 -0.19338,-0.109875 -0.366982,-0.109875 -0.213158,0 -0.41313,0.101085 -0.197775,0.101085 -0.320835,0.274688 -0.120863,0.171405 -0.120863,0.371377 v 2.006318 q 0,0.276885 0.13185,0.498832 0.134048,0.21975 0.340613,0.34281 0.208762,0.120863 0.419722,0.120863 0.327428,0 0.566955,-0.25491 0.241725,-0.25491 0.241725,-0.91416 z m 4.952498,0.75594 0.125257,0.116467 q -0.329625,0.459278 -0.898777,0.459278 -0.575745,0 -0.74715,-0.584535 -0.672435,0.584535 -1.314105,0.584535 -0.470265,0 -0.758138,-0.268095 -0.287872,-0.268095 -0.287872,-0.722978 0,-0.593325 0.525202,-0.933937 0.5274,-0.34281 1.536053,-0.34281 0.197775,0 0.29886,0.0088 v -1.008653 q 0,-0.276885 -0.112073,-0.4395 -0.109875,-0.162615 -0.49224,-0.162615 -0.221947,0 -0.399945,0.05054 -0.1758,0.05054 -0.1758,0.147232 0,0.147233 0.0901,0.305453 0.116467,0.171405 0.116467,0.296662 0,0.21975 -0.138442,0.388958 -0.138443,0.169207 -0.410933,0.169207 -0.261502,0 -0.410932,-0.171405 -0.147233,-0.173602 -0.147233,-0.44829 0,-0.28128 0.224145,-0.487845 0.226343,-0.206565 0.57135,-0.309847 0.345008,-0.103283 0.690015,-0.103283 0.66804,0 0.99327,0.1758 0.32523,0.173603 0.40434,0.40434 0.07911,0.22854 0.07911,0.5274 v 2.340338 q 0,0.296662 0.206565,0.296662 0.101085,0 0.230738,-0.0901 0.129652,-0.0901 0.20217,-0.197775 z m -1.52067,-0.287873 v -1.252575 q -0.516413,0 -0.802088,0.0879 -0.283477,0.0857 -0.417525,0.32523 -0.13185,0.239528 -0.13185,0.7032 0,0.621893 0.621893,0.621893 0.0901,0 0.270292,-0.07691 0.180195,-0.07911 0.318638,-0.191182 0.14064,-0.112073 0.14064,-0.217553 z m 2.007848,-4.950967 H 22.748638 V 91.28489 h 0.898777 q 0.347205,0 0.549375,-0.05274 v 5.768438 h 0.566955 v 0.153825 h -2.015107 v -0.153825 h 0.566955 z m 4.318882,-0.180196 h 2.62821 q 1.12512,0 1.81953,0.479056 0.69441,0.476857 0.980085,1.149292 0.287872,0.672435 0.287872,1.296525 0,0.828458 -0.371377,1.509683 -0.36918,0.681225 -1.024035,1.07238 -0.652658,0.388957 -1.448153,0.388957 h -2.872132 v -0.180195 h 0.692212 v -5.544292 h -0.692212 z m 1.700865,5.715698 h 1.215217 q 0.301058,0 0.661448,-0.153825 0.362587,-0.153825 0.683422,-0.75594 0.320835,-0.604312 0.320835,-1.799752 0,-0.841643 -0.120862,-1.38882 -0.118665,-0.549375 -0.355995,-0.865815 -0.23733,-0.31644 -0.58893,-0.44829 -0.3516,-0.13185 -0.85263,-0.13185 H 29.33534 Z m 8.138872,-0.296662 0.125258,0.116467 q -0.329625,0.459278 -0.898778,0.459278 -0.575745,0 -0.74715,-0.584535 -0.672435,0.584535 -1.314105,0.584535 -0.470265,0 -0.758137,-0.268095 -0.287873,-0.268095 -0.287873,-0.722978 0,-0.593325 0.525203,-0.933937 0.5274,-0.34281 1.536052,-0.34281 0.197775,0 0.29886,0.0088 v -1.008653 q 0,-0.276885 -0.112072,-0.4395 -0.109875,-0.162615 -0.49224,-0.162615 -0.221948,0 -0.399945,0.05054 -0.1758,0.05054 -0.1758,0.147232 0,0.147233 0.0901,0.305453 0.116468,0.171405 0.116468,0.296662 0,0.21975 -0.138443,0.388958 -0.138442,0.169207 -0.410932,0.169207 -0.261503,0 -0.410933,-0.171405 -0.147232,-0.173602 -0.147232,-0.44829 0,-0.28128 0.224145,-0.487845 0.226342,-0.206565 0.57135,-0.309847 0.345007,-0.103283 0.690015,-0.103283 0.66804,0 0.99327,0.1758 0.32523,0.173603 0.40434,0.40434 0.07911,0.22854 0.07911,0.5274 v 2.340338 q 0,0.296662 0.206565,0.296662 0.101085,0 0.230737,-0.0901 0.129653,-0.0901 0.20217,-0.197775 z m -1.52067,-0.287873 v -1.252575 q -0.516412,0 -0.802087,0.0879 -0.283478,0.0857 -0.417525,0.32523 -0.13185,0.239528 -0.13185,0.7032 0,0.621893 0.621892,0.621893 0.0901,0 0.270293,-0.07691 0.180195,-0.07911 0.318637,-0.191182 0.14064,-0.112073 0.14064,-0.217553 z m 1.467262,-3.069907 h 0.73836 v -1.267958 l 0.881197,-0.31644 v 1.584398 h 0.784508 v 0.153825 h -0.784508 v 2.960032 q 0,0.340613 0.103283,0.432908 0.10548,0.0901 0.274687,0.0901 0.274688,0 0.584535,-0.261502 l 0.0901,0.107677 q -0.21096,0.204368 -0.494438,0.331823 -0.28128,0.127455 -0.540585,0.127455 -0.463672,0 -0.681225,-0.252713 -0.217552,-0.25491 -0.217552,-0.77352 v -2.762257 h -0.73836 z m 6.598426,3.35778 0.125257,0.116467 q -0.329625,0.459278 -0.898777,0.459278 -0.575745,0 -0.74715,-0.584535 -0.672435,0.584535 -1.314105,0.584535 -0.470265,0 -0.758138,-0.268095 -0.287873,-0.268095 -0.287873,-0.722978 0,-0.593325 0.525203,-0.933937 0.5274,-0.34281 1.536053,-0.34281 0.197775,0 0.29886,0.0088 v -1.008653 q 0,-0.276885 -0.112073,-0.4395 -0.109875,-0.162615 -0.49224,-0.162615 -0.221947,0 -0.399945,0.05054 -0.1758,0.05054 -0.1758,0.147232 0,0.147233 0.0901,0.305453 0.116467,0.171405 0.116467,0.296662 0,0.21975 -0.138442,0.388958 -0.138443,0.169207 -0.410933,0.169207 -0.261502,0 -0.410932,-0.171405 -0.147233,-0.173602 -0.147233,-0.44829 0,-0.28128 0.224145,-0.487845 0.226343,-0.206565 0.57135,-0.309847 0.345008,-0.103283 0.690015,-0.103283 0.66804,0 0.99327,0.1758 0.32523,0.173603 0.40434,0.40434 0.07911,0.22854 0.07911,0.5274 v 2.340338 q 0,0.296662 0.206565,0.296662 0.101085,0 0.230738,-0.0901 0.129652,-0.0901 0.20217,-0.197775 z m -1.52067,-0.287873 v -1.252575 q -0.516413,0 -0.802088,0.0879 -0.283477,0.0857 -0.417525,0.32523 -0.13185,0.239528 -0.13185,0.7032 0,0.621893 0.621893,0.621893 0.0901,0 0.270292,-0.07691 0.180195,-0.07911 0.318638,-0.191182 0.14064,-0.112073 0.14064,-0.217553 z m 2.889047,0.279083 v 0.485647 H 43.939455 V 97.000588 H 44.50641 V 91.438716 H 43.939455 V 91.28489 h 0.889987 q 0.373575,0 0.558165,-0.05274 v 2.412856 q 0.173603,-0.243923 0.406538,-0.33402 0.235132,-0.0901 0.43071,-0.0901 0.402142,0 0.74715,0.16701 0.347205,0.16701 0.599917,0.454883 0.252713,0.287872 0.388958,0.648262 0.136245,0.358193 0.136245,0.736163 0,0.53619 -0.239528,1.004257 -0.239527,0.46587 -0.652657,0.744953 -0.41313,0.276885 -0.916358,0.276885 -0.610905,0 -0.900975,-0.584535 z m 1.700865,-0.74715 v -1.197638 q 0,-0.525202 -0.142837,-0.82626 -0.142838,-0.303255 -0.336218,-0.41313 -0.19338,-0.109875 -0.366982,-0.109875 -0.213158,0 -0.41313,0.101085 -0.197775,0.101085 -0.320835,0.274688 -0.120863,0.171405 -0.120863,0.371377 v 2.006318 q 0,0.276885 0.13185,0.498832 0.134048,0.21975 0.340613,0.34281 0.208762,0.120863 0.419722,0.120863 0.327428,0 0.566955,-0.25491 0.241725,-0.25491 0.241725,-0.91416 z m 4.952498,0.75594 0.125257,0.116467 q -0.329625,0.459278 -0.898777,0.459278 -0.575745,0 -0.74715,-0.584535 -0.672435,0.584535 -1.314106,0.584535 -0.470265,0 -0.758137,-0.268095 -0.287873,-0.268095 -0.287873,-0.722978 0,-0.593325 0.525203,-0.933937 0.5274,-0.34281 1.536053,-0.34281 0.197775,0 0.29886,0.0088 v -1.008653 q 0,-0.276885 -0.112073,-0.4395 -0.109875,-0.162615 -0.49224,-0.162615 -0.221947,0 -0.399945,0.05054 -0.1758,0.05054 -0.1758,0.147232 0,0.147233 0.0901,0.305453 0.116467,0.171405 0.116467,0.296662 0,0.21975 -0.138442,0.388958 -0.138443,0.169207 -0.410933,0.169207 -0.261503,0 -0.410933,-0.171405 -0.147232,-0.173602 -0.147232,-0.44829 0,-0.28128 0.224145,-0.487845 0.226342,-0.206565 0.57135,-0.309847 0.345008,-0.103283 0.690015,-0.103283 0.66804,0 0.99327,0.1758 0.32523,0.173603 0.40434,0.40434 0.07911,0.22854 0.07911,0.5274 v 2.340338 q 0,0.296662 0.206565,0.296662 0.101085,0 0.230738,-0.0901 0.129652,-0.0901 0.20217,-0.197775 z M 50.5203,96.389683 v -1.252575 q -0.516413,0 -0.802088,0.0879 -0.283477,0.0857 -0.417525,0.32523 -0.13185,0.239528 -0.13185,0.7032 0,0.621893 0.621893,0.621893 0.0901,0 0.270292,-0.07691 0.180195,-0.07911 0.318638,-0.191182 0.14064,-0.112073 0.14064,-0.217553 z m 1.484841,0.79989 v -1.20423 h 0.125257 q 0.10548,0.285675 0.294465,0.53619 0.191183,0.250515 0.470265,0.410933 0.279083,0.15822 0.621893,0.15822 0.382365,0 0.621892,-0.15822 0.241725,-0.160418 0.241725,-0.399945 0,-0.366983 -0.213157,-0.54498 -0.21096,-0.177998 -0.415328,-0.22854 l -0.72957,-0.206565 q -0.918555,-0.25491 -0.918555,-1.180058 0,-0.432907 0.213158,-0.690015 0.213157,-0.259305 0.490042,-0.36039 0.276885,-0.101085 0.503228,-0.101085 0.371377,0 0.7032,0.153825 0.15822,0.07032 0.241725,0.07032 0.15822,0 0.235132,-0.125257 h 0.116468 v 1.061392 h -0.116468 q -0.40434,-1.015245 -1.153687,-1.015245 -0.38676,0 -0.593325,0.18459 -0.206565,0.182393 -0.206565,0.417525 0,0.479055 0.512017,0.630683 l 1.06359,0.331822 q 0.799891,0.25491 0.799891,1.017443 0,0.687817 -0.452686,0.997665 -0.450487,0.30765 -1.015245,0.30765 -0.29886,0 -0.628485,-0.134048 -0.07471,-0.03516 -0.151627,-0.07471 -0.07472,-0.04175 -0.120863,-0.05933 -0.04395,-0.01978 -0.0879,-0.01978 -0.230737,0 -0.32523,0.224145 z m 6.354505,-1.105342 0.153825,0.09889 q -0.336217,0.529598 -0.725175,0.79989 -0.38676,0.270293 -0.903173,0.270293 -0.555967,0 -0.999862,-0.261503 -0.441698,-0.261502 -0.690015,-0.72078 -0.24612,-0.461475 -0.24612,-1.032825 0,-0.57135 0.252712,-1.035022 0.252713,-0.46587 0.670238,-0.722978 0.419722,-0.259305 0.885592,-0.259305 0.39555,0 0.771323,0.164813 0.375773,0.162615 0.639473,0.564757 0.265897,0.402143 0.309847,1.070183 h -2.520533 l 0.0088,0.621892 q 0.01099,0.58893 0.16701,1.006455 0.15822,0.415328 0.714188,0.415328 0.82626,0 1.51188,-0.980085 z m -2.401868,-1.206428 h 1.584398 q 0,-0.04395 0.0044,-0.134047 0.0044,-0.0901 0.0044,-0.136245 0,-0.58893 -0.15822,-0.909765 -0.156023,-0.323033 -0.58893,-0.323033 -0.479055,0 -0.65925,0.303255 -0.177998,0.301058 -0.177998,0.63288 z m 5.839551,-1.404202 h -0.503227 v -0.153825 h 0.503227 v -0.296663 q 0,-0.573547 0.217553,-0.980085 0.217552,-0.406537 0.542782,-0.608707 0.32523,-0.202171 0.635078,-0.202171 0.397747,0 0.639472,0.250516 0.241725,0.250515 0.241725,0.558165 0,0.134047 -0.0879,0.274687 -0.0879,0.14064 -0.29007,0.14064 -0.180195,0 -0.283477,-0.103282 -0.103283,-0.10548 -0.103283,-0.248318 0,-0.120862 0.04395,-0.182392 0.04615,-0.06153 0.145035,-0.14943 0.0901,-0.0901 0.0901,-0.208763 0,-0.09669 -0.116468,-0.160418 -0.11427,-0.06373 -0.252712,-0.06373 -0.355995,0 -0.44829,0.331823 -0.0923,0.331822 -0.0923,0.938332 v 0.709793 h 0.927345 v 0.153825 h -0.927345 v 3.526987 h 0.566955 v 0.153825 h -2.015108 v -0.153825 h 0.566955 z m 1.737555,1.764592 q 0,-0.496635 0.23733,-0.964702 0.239528,-0.470265 0.683423,-0.760335 0.443895,-0.292268 1.024035,-0.292268 0.575745,0 1.01964,0.294465 0.443895,0.292268 0.687817,0.760335 0.24612,0.46587 0.24612,0.962505 0,0.36918 -0.138442,0.72957 -0.138443,0.358193 -0.39555,0.65046 -0.257108,0.29007 -0.62409,0.463673 -0.364785,0.171405 -0.795495,0.171405 -0.575745,0 -1.01964,-0.29007 -0.443895,-0.292268 -0.68562,-0.758138 -0.239528,-0.46587 -0.239528,-0.9669 z m 1.017443,-0.648262 q -0.0088,0.224145 -0.0088,0.674632 0,0.672435 0.07911,1.06359 0.07911,0.391155 0.283477,0.582338 0.204368,0.188985 0.582338,0.188985 0.320835,0 0.523005,-0.15822 0.20217,-0.15822 0.30765,-0.56256 0.10548,-0.406538 0.10548,-1.122923 0,-0.584535 -0.06153,-0.980085 -0.06153,-0.39555 -0.268095,-0.648262 -0.206565,-0.252713 -0.60651,-0.252713 -0.384563,0 -0.652658,0.303255 -0.265897,0.301058 -0.283477,0.911963 z m 2.900036,2.410657 h 0.566955 v -3.526987 h -0.566955 v -0.153825 h 0.900975 q 0.276885,0 0.547177,-0.04395 v 0.79989 q 0.151628,-0.362588 0.454883,-0.604313 0.305452,-0.241725 0.698805,-0.241725 0.243922,0 0.402142,0.07911 0.15822,0.07691 0.232935,0.195578 0.07471,0.118665 0.07471,0.239527 0,0.261503 -0.138442,0.415328 -0.136245,0.151627 -0.312045,0.151627 -0.204368,0 -0.331823,-0.125257 -0.125257,-0.127455 -0.125257,-0.29886 0,-0.02637 0.0044,-0.07471 0.0044,-0.04834 0.0044,-0.06812 0,-0.107677 -0.05494,-0.138442 -0.05274,-0.03296 -0.171405,-0.03296 -0.182392,0 -0.355995,0.169208 -0.171405,0.169207 -0.276885,0.44829 -0.10548,0.279082 -0.10548,0.58893 v 2.221672 h 0.566955 v 0.153825 h -2.015107 z"
         id="path16"
         style="fill:#000000;fill-opacity:1;stroke:#000000;stroke-opacity:1" /><path
         d="m 78.207718,95.398611 v -3.36657 q 0,-0.349403 -0.241725,-0.47466 -0.241725,-0.127455 -0.531795,-0.127455 V 91.25852 h 1.736025 v 0.171406 q -0.353797,0.0022 -0.523005,0.12306 -0.169207,0.118665 -0.21096,0.28128 -0.03955,0.162615 -0.03955,0.415327 v 5.003708 h -0.06373 L 74.50713,92.159496 v 4.003845 q 0,0.250515 0.173603,0.531795 0.1758,0.279082 0.610905,0.279082 v 0.180195 h -1.747013 v -0.180195 q 0.36918,0 0.57135,-0.177997 0.20217,-0.177998 0.20217,-0.63288 v -4.256558 q 0,-0.250515 -0.213157,-0.358192 -0.213158,-0.109875 -0.461475,-0.118665 V 91.25852 h 1.430572 z m 1.179392,-0.160418 q 0,-0.496635 0.23733,-0.964702 0.239528,-0.470265 0.683423,-0.760335 0.443895,-0.292268 1.024035,-0.292268 0.575745,0 1.01964,0.294465 0.443895,0.292268 0.687817,0.760335 0.246121,0.46587 0.246121,0.962505 0,0.36918 -0.138443,0.72957 -0.138443,0.358193 -0.39555,0.65046 -0.257108,0.29007 -0.62409,0.463673 -0.364785,0.171405 -0.795495,0.171405 -0.575745,0 -1.01964,-0.29007 -0.443895,-0.292268 -0.68562,-0.758138 -0.239528,-0.46587 -0.239528,-0.9669 z m 1.017443,-0.648262 q -0.0088,0.224145 -0.0088,0.674632 0,0.672435 0.07911,1.06359 0.07911,0.391155 0.283477,0.582338 0.204368,0.188985 0.582338,0.188985 0.320835,0 0.523005,-0.15822 0.20217,-0.15822 0.30765,-0.56256 0.10548,-0.406538 0.10548,-1.122923 0,-0.584535 -0.06153,-0.980085 -0.06153,-0.39555 -0.268095,-0.648262 -0.206565,-0.252713 -0.60651,-0.252713 -0.384563,0 -0.652658,0.303255 -0.265897,0.301058 -0.283477,0.911963 z m 3.466983,-1.11633 h -0.566955 v -0.153825 h 0.900975 q 0.250515,0 0.547178,-0.04395 v 0.566955 q 0.349402,-0.36918 0.635077,-0.498833 0.285675,-0.13185 0.635078,-0.13185 0.507622,0 0.837247,0.239528 0.331823,0.239527 0.331823,0.670237 v 2.878725 h 0.566955 v 0.153825 h -1.95138 v -0.153825 h 0.503227 v -2.878725 q 0,-0.657052 -0.584535,-0.657052 -0.24612,0 -0.468067,0.12306 -0.21975,0.12306 -0.505425,0.470265 v 2.942452 h 0.505425 v 0.153825 h -1.953578 v -0.153825 h 0.566955 z m 4.31303,2.043675 v -0.406538 h 1.89864 v 0.406538 z m 3.240639,1.456942 V 91.429926 H 90.732993 V 91.25852 h 2.395275 v 0.171406 h -0.69441 v 5.544292 h 0.69441 v 0.180195 h -2.395275 v -0.180195 z m 2.469326,-3.500617 h -0.566955 v -0.153825 h 0.900975 q 0.250515,0 0.547178,-0.04395 v 0.566955 q 0.349402,-0.36918 0.635077,-0.498833 0.285675,-0.13185 0.635078,-0.13185 0.507622,0 0.837247,0.239528 0.331823,0.239527 0.331823,0.670237 v 2.878725 h 0.566955 v 0.153825 h -1.95138 v -0.153825 h 0.503227 v -2.878725 q 0,-0.657052 -0.584535,-0.657052 -0.24612,0 -0.468067,0.12306 -0.21975,0.12306 -0.505425,0.470265 v 2.942452 h 0.505425 v 0.153825 h -1.953578 v -0.153825 h 0.566955 z m 6.589629,3.680812 v -0.485647 q -0.33621,0.584535 -0.909762,0.584535 -0.426315,0 -0.84384,-0.23733 -0.415328,-0.23733 -0.68562,-0.698805 -0.270293,-0.461475 -0.270293,-1.08996 0,-0.37797 0.138443,-0.740558 0.138442,-0.362587 0.38676,-0.646065 0.250515,-0.283477 0.595522,-0.450487 0.345008,-0.169208 0.742756,-0.169208 0.525204,0 0.846034,0.424118 v -2.20629 H 99.917208 V 91.28489 h 0.900972 q 0.34501,0 0.54718,-0.05274 v 5.768438 h 0.56696 v 0.153825 z m -1.709652,-2.430435 0.0088,1.197638 q 0,0.410932 0.151627,0.7911 0.153826,0.37797 0.659251,0.37797 0.323032,0 0.606514,-0.27249 0.28347,-0.27249 0.28347,-0.690015 v -1.727235 q 0,-1.026233 -0.854824,-1.026233 -0.28128,0 -0.569153,0.285675 -0.285675,0.285675 -0.285675,1.06359 z m 3.132972,2.27661 h 0.56695 v -3.526987 h -0.56695 v -0.153825 h 0.88999 q 0.28787,0 0.55816,-0.04395 v 3.724762 h 0.56696 v 0.153825 h -2.01511 z m 0.48565,-5.137755 q 0,-0.215355 0.15602,-0.36039 0.15602,-0.145035 0.3472,-0.145035 0.19998,0 0.3516,0.142838 0.15383,0.14064 0.15383,0.362587 0,0.21975 -0.15383,0.362588 -0.15382,0.14064 -0.3516,0.14064 -0.18898,0 -0.3472,-0.145035 -0.15602,-0.145035 -0.15602,-0.358193 z m 2.45833,5.893695 q -0.27029,0.24612 -0.27029,0.487845 0,0.279083 0.20217,0.494438 0.20217,0.215355 0.73396,0.215355 0.73616,0 1.18665,-0.382365 0.45269,-0.382365 0.45269,-0.850433 0,-0.28128 -0.21536,-0.362587 -0.21316,-0.07911 -0.60431,-0.07911 -0.20657,0 -0.58673,0.03077 -0.37797,0.03296 -0.57355,0.03296 -0.50982,-0.0066 -0.86801,-0.22854 -0.3582,-0.221947 -0.3582,-0.672435 0,-0.399945 0.22854,-0.62409 0.22854,-0.226342 0.51861,-0.301057 -0.2571,-0.164813 -0.38016,-0.435105 -0.12306,-0.270293 -0.12306,-0.564758 0,-0.639472 0.47026,-0.9669 0.47027,-0.329625 1.00646,-0.329625 0.42851,0 0.82845,0.243923 0.0286,-0.268095 0.21975,-0.476858 0.19119,-0.208762 0.47247,-0.208762 0.22414,0 0.40873,0.13185 0.18459,0.13185 0.18459,0.364785 0,0.197775 -0.10328,0.279082 -0.10109,0.07911 -0.21975,0.07911 -0.34281,0 -0.34281,-0.40434 0,-0.02198 0.004,-0.06153 0.004,-0.03956 0.004,-0.05494 0,-0.116468 -0.11647,-0.116468 -0.10768,0 -0.22634,0.14943 -0.11647,0.147233 -0.14284,0.417525 0.23294,0.14943 0.3538,0.426315 0.12306,0.274688 0.12306,0.55377 0,0.30765 -0.16921,0.60651 -0.16921,0.29886 -0.49883,0.490043 -0.32743,0.191182 -0.77132,0.191182 -0.47686,0 -0.82846,-0.206565 -0.25052,0.02417 -0.39116,0.125258 -0.14064,0.101085 -0.14064,0.215355 0,0.248317 0.10988,0.38676 0.10987,0.136245 0.46807,0.136245 0.29446,-0.0044 0.74715,-0.03296 0.45488,-0.03077 0.74715,-0.03955 h 0.25051 q 0.4395,0.01978 0.69441,0.239528 0.25491,0.21975 0.28787,0.59772 v 0.252712 q -0.0352,0.375773 -0.29007,0.742755 -0.25271,0.36918 -0.72078,0.608708 -0.46587,0.241725 -1.09655,0.241725 -0.58673,0 -0.95591,-0.153825 -0.36698,-0.153825 -0.5296,-0.393353 -0.16042,-0.239527 -0.16042,-0.505425 0,-0.312045 0.1824,-0.481252 0.18239,-0.16701 0.39335,-0.16701 0.12745,0 0.24172,0.09889 0.11647,0.101085 0.16262,0.259305 z m 1.39541,-2.834775 v -0.76473 q -0.0198,-0.329625 -0.16921,-0.529597 -0.14723,-0.199973 -0.39774,-0.199973 -0.23514,0 -0.41753,0.156023 -0.18019,0.156022 -0.19558,0.573547 v 0.7032 q 0.0703,0.78231 0.60432,0.78231 0.53179,0 0.57574,-0.72078 z m 4.78769,1.162478 0.15383,0.09889 q -0.33622,0.529598 -0.72518,0.79989 -0.38676,0.270293 -0.90317,0.270293 -0.55597,0 -0.99986,-0.261503 -0.4417,-0.261502 -0.69002,-0.72078 -0.24612,-0.461475 -0.24612,-1.032825 0,-0.57135 0.25271,-1.035022 0.25272,-0.46587 0.67024,-0.722978 0.41972,-0.259305 0.88559,-0.259305 0.39555,0 0.77133,0.164813 0.37577,0.162615 0.63947,0.564757 0.2659,0.402143 0.30985,1.070183 h -2.52054 l 0.009,0.621892 q 0.011,0.58893 0.16701,1.006455 0.15822,0.415328 0.71419,0.415328 0.82626,0 1.51188,-0.980085 z m -2.40187,-1.206428 h 1.5844 q 0,-0.04395 0.004,-0.134047 0.004,-0.0901 0.004,-0.136245 0,-0.58893 -0.15822,-0.909765 -0.15602,-0.323033 -0.58893,-0.323033 -0.47905,0 -0.65925,0.303255 -0.178,0.301058 -0.178,0.63288 z m 3.14176,-1.404202 h -0.56695 v -0.153825 h 0.90097 q 0.25052,0 0.54718,-0.04395 v 0.566955 q 0.3494,-0.36918 0.63508,-0.498833 0.28567,-0.13185 0.63507,-0.13185 0.50763,0 0.83725,0.239528 0.33182,0.239527 0.33182,0.670237 v 2.878725 h 0.56696 v 0.153825 h -1.95138 v -0.153825 h 0.50323 v -2.878725 q 0,-0.657052 -0.58454,-0.657052 -0.24612,0 -0.46807,0.12306 -0.21975,0.12306 -0.50542,0.470265 v 2.942452 h 0.50542 v 0.153825 h -1.95357 v -0.153825 h 0.56695 z m 3.88012,1.764592 q 0,-0.496635 0.23733,-0.964702 0.23952,-0.470265 0.68342,-0.760335 0.44389,-0.292268 1.02403,-0.292268 0.57575,0 1.01964,0.294465 0.4439,0.292268 0.68782,0.760335 0.24612,0.46587 0.24612,0.962505 0,0.36918 -0.13844,0.72957 -0.13844,0.358193 -0.39555,0.65046 -0.25711,0.29007 -0.62409,0.463673 -0.36479,0.171405 -0.7955,0.171405 -0.57574,0 -1.01964,-0.29007 -0.44389,-0.292268 -0.68562,-0.758138 -0.23952,-0.46587 -0.23952,-0.9669 z m 1.01744,-0.648262 q -0.009,0.224145 -0.009,0.674632 0,0.672435 0.0791,1.06359 0.0791,0.391155 0.28348,0.582338 0.20436,0.188985 0.58233,0.188985 0.32084,0 0.52301,-0.15822 0.20217,-0.15822 0.30765,-0.56256 0.10548,-0.406538 0.10548,-1.122923 0,-0.584535 -0.0615,-0.980085 -0.0615,-0.39555 -0.2681,-0.648262 -0.20656,-0.252713 -0.60651,-0.252713 -0.38456,0 -0.65265,0.303255 -0.2659,0.301058 -0.28348,0.911963 z m 6.76104,2.410657 h 0.56696 v 0.153825 h -1.44815 v -0.512017 q -0.54279,0.628485 -1.26137,0.628485 -0.49004,0 -0.75374,-0.182393 -0.2615,-0.18459 -0.34281,-0.4395 -0.0813,-0.257107 -0.0813,-0.564757 v -2.61063 h -0.56695 v -0.153825 h 0.89877 q 0.25272,0 0.54938,-0.04395 v 3.0765 q 0,0.41313 0.19997,0.53619 0.19997,0.120862 0.39335,0.120862 0.53839,0 0.96471,-0.593325 v -2.942452 h -0.50543 v -0.153825 h 0.83725 q 0.29666,0 0.54937,-0.04395 z m 0.5597,0.188985 v -1.20423 h 0.12525 q 0.10548,0.285675 0.29447,0.53619 0.19118,0.250515 0.47026,0.410933 0.27909,0.15822 0.6219,0.15822 0.38236,0 0.62189,-0.15822 0.24172,-0.160418 0.24172,-0.399945 0,-0.366983 -0.21315,-0.54498 -0.21096,-0.177998 -0.41533,-0.22854 l -0.72957,-0.206565 q -0.91856,-0.25491 -0.91856,-1.180058 0,-0.432907 0.21316,-0.690015 0.21316,-0.259305 0.49004,-0.36039 0.27689,-0.101085 0.50323,-0.101085 0.37138,0 0.7032,0.153825 0.15822,0.07032 0.24173,0.07032 0.15822,0 0.23513,-0.125257 h 0.11647 v 1.061392 h -0.11647 q -0.40434,-1.015245 -1.15369,-1.015245 -0.38676,0 -0.59332,0.18459 -0.20657,0.182393 -0.20657,0.417525 0,0.479055 0.51202,0.630683 l 1.06359,0.331822 q 0.79989,0.25491 0.79989,1.017443 0,0.687817 -0.45269,0.997665 -0.45048,0.30765 -1.01524,0.30765 -0.29886,0 -0.62849,-0.134048 -0.0747,-0.03516 -0.15162,-0.07471 -0.0747,-0.04175 -0.12087,-0.05933 -0.044,-0.01978 -0.0879,-0.01978 -0.23073,0 -0.32523,0.224145 z"
         id="path17"
         style="fill:#000000;fill-opacity:1;stroke:#000000;stroke-opacity:1" /><path
         d="m 3.1019294,106.18614 -0.01758,-1.88106 h 0.1164675 q 0.417525,1.03942 0.9910726,1.41959 0.575745,0.38016 1.15149,0.38016 0.5208075,0 0.8943826,-0.29886 0.3757725,-0.29886 0.3757725,-0.78011 0,-0.94053 -0.9647026,-1.20643 l -1.0613925,-0.28787 q -1.2789451,-0.3516 -1.2789451,-1.81074 0,-0.41533 0.197775,-0.76693 0.1977751,-0.3516 0.5515726,-0.55596 0.355995,-0.20657 0.7911,-0.20657 0.3537975,0 0.5383875,0.0439 0.1867875,0.0418 0.34281,0.12746 0.15822,0.0857 0.259305,0.12086 0.1032825,0.033 0.3450076,0.033 0.098888,0 0.206565,-0.22634 h 0.1428375 l 0.037357,1.42178 h -0.127455 q -0.5955226,-1.35805 -1.7184451,-1.35805 -0.5295975,0 -0.8372475,0.31204 -0.3054525,0.31205 -0.3054525,0.74935 0,0.38456 0.18459,0.6131 0.18459,0.22854 0.4021425,0.32523 0.2175525,0.0945 0.5208075,0.178 l 0.918555,0.24392 q 0.5647576,0.14943 0.8636176,0.46148 0.29886,0.31204 0.38676,0.63727 0.090097,0.32523 0.090097,0.63728 0,0.4395 -0.1867875,0.85043 -0.18459,0.40873 -0.56256,0.66584 -0.3779701,0.25711 -0.9075676,0.25711 -0.725175,0 -1.340475,-0.29666 -0.3186375,-0.14504 -0.40434,-0.14504 -0.1560226,0 -0.2571076,0.0923 -0.101085,0.0923 -0.1208625,0.25051 z m 5.61834,-3.87859 v 0.53839 q 0.127455,-0.26809 0.3625875,-0.43071 0.2351325,-0.16261 0.5383876,-0.16261 0.4197225,0 0.8394445,0.23952 0.419723,0.23953 0.694411,0.7032 0.274687,0.46148 0.274687,1.08337 0,0.37358 -0.136245,0.73177 -0.134047,0.35819 -0.391155,0.65046 -0.25491,0.29007 -0.602115,0.45708 -0.3450075,0.16701 -0.7427551,0.16701 -0.5647575,0 -0.8372475,-0.43291 v 2.09861 h 0.566955 v 0.15163 H 7.2721169 v -0.15163 h 0.566955 v -5.4454 h -0.566955 v -0.15383 h 0.8899875 q 0.2878725,0 0.558165,-0.0439 z m 1.7008646,2.48318 v -1.19764 q 0,-1.16907 -0.8086795,-1.16907 -0.2527126,0 -0.4592776,0.13405 -0.2043675,0.13405 -0.3186375,0.35599 -0.11427,0.21975 -0.11427,0.46368 v 2.00631 q 0,0.30326 0.2637,0.5318 0.2637,0.22634 0.5911276,0.22634 0.329625,0 0.586732,-0.29886 0.259305,-0.29886 0.259305,-1.0526 z m 4.455863,0.32523 0.153825,0.0989 q -0.336217,0.52959 -0.725175,0.79989 -0.38676,0.27029 -0.903172,0.27029 -0.555968,0 -0.999863,-0.2615 -0.441697,-0.26151 -0.690015,-0.72078 -0.24612,-0.46148 -0.24612,-1.03283 0,-0.57135 0.252713,-1.03502 0.252712,-0.46587 0.670237,-0.72298 0.419723,-0.2593 0.885593,-0.2593 0.39555,0 0.771322,0.16481 0.375773,0.16261 0.639473,0.56476 0.265897,0.40214 0.309847,1.07018 H 12.47513 l 0.0088,0.62189 q 0.01099,0.58893 0.16701,1.00646 0.15822,0.41532 0.714187,0.41532 0.82626,0 1.51188,-0.98008 z m -2.401867,-1.20643 h 1.584397 q 0,-0.044 0.0044,-0.13405 0.0044,-0.0901 0.0044,-0.13624 0,-0.58893 -0.15822,-0.90977 -0.156022,-0.32303 -0.58893,-0.32303 -0.479055,0 -0.65925,0.30326 -0.177997,0.30105 -0.177997,0.63288 z m 5.769967,1.27675 0.145035,0.0637 q -0.38676,1.03502 -1.351462,1.03502 -0.582338,0 -1.035023,-0.27689 -0.450487,-0.27688 -0.69441,-0.74055 -0.241725,-0.46587 -0.241725,-0.99767 0,-0.45708 0.221948,-0.92734 0.221947,-0.47027 0.670237,-0.78012 0.44829,-0.30984 1.078973,-0.30984 0.37797,0 0.681225,0.13404 0.305452,0.13185 0.472462,0.34941 0.169208,0.21535 0.169208,0.45268 0,0.2637 -0.14943,0.42412 -0.147233,0.16042 -0.362588,0.16042 -0.248317,0 -0.40434,-0.16042 -0.153825,-0.16262 -0.153825,-0.39775 0,-0.0791 0.05274,-0.20656 0.04395,-0.11208 0.125258,-0.21756 0.0835,-0.10767 0.0835,-0.16041 0,-0.0791 -0.12306,-0.15603 -0.120863,-0.0769 -0.364785,-0.0769 -0.274688,0 -0.48345,0.0747 -0.206565,0.0747 -0.355995,0.36039 -0.14943,0.28567 -0.14943,0.85043 v 1.13391 q 0,0.62848 0.21096,0.9669 0.21096,0.33841 0.777915,0.33841 0.437302,0 0.714187,-0.23073 0.276885,-0.23294 0.46587,-0.7054 z m 0.164145,0.84604 h 0.566955 v -3.52699 h -0.566955 v -0.15383 h 0.889988 q 0.287872,0 0.558165,-0.0439 v 3.72477 h 0.566955 v 0.15382 h -2.015108 z m 0.485648,-5.13776 q 0,-0.21535 0.156022,-0.36039 0.156023,-0.14503 0.347205,-0.14503 0.199973,0 0.3516,0.14283 0.153825,0.14064 0.153825,0.36259 0,0.21975 -0.153825,0.36259 -0.153825,0.14064 -0.3516,0.14064 -0.188985,0 -0.347205,-0.14504 -0.156022,-0.14503 -0.156022,-0.35819 z m 4.93272,4.2214 0.153825,0.0989 q -0.336217,0.52959 -0.725175,0.79989 -0.38676,0.27029 -0.903172,0.27029 -0.555968,0 -0.999863,-0.2615 -0.441697,-0.26151 -0.690015,-0.72078 -0.24612,-0.46148 -0.24612,-1.03283 0,-0.57135 0.252713,-1.03502 0.252712,-0.46587 0.670237,-0.72298 0.419723,-0.2593 0.885593,-0.2593 0.39555,0 0.771322,0.16481 0.375773,0.16261 0.639473,0.56476 0.265897,0.40214 0.309847,1.07018 h -2.520532 l 0.0088,0.62189 q 0.01099,0.58893 0.16701,1.00646 0.15822,0.41532 0.714187,0.41532 0.82626,0 1.51188,-0.98008 z m -2.401867,-1.20643 h 1.584397 q 0,-0.044 0.0044,-0.13405 0.0044,-0.0901 0.0044,-0.13624 0,-0.58893 -0.15822,-0.90977 -0.156022,-0.32303 -0.58893,-0.32303 -0.479055,0 -0.65925,0.30326 -0.177997,0.30105 -0.177997,0.63288 z m 2.592381,2.31177 v -1.20423 h 0.125258 q 0.10548,0.28568 0.294465,0.53619 0.191182,0.25052 0.470265,0.41093 0.279082,0.15822 0.621892,0.15822 0.382365,0 0.621893,-0.15822 0.241725,-0.16041 0.241725,-0.39994 0,-0.36698 -0.213158,-0.54498 -0.21096,-0.178 -0.415327,-0.22854 l -0.72957,-0.20657 q -0.918555,-0.25491 -0.918555,-1.18005 0,-0.43291 0.213157,-0.69002 0.213158,-0.2593 0.490043,-0.36039 0.276885,-0.10108 0.503227,-0.10108 0.371378,0 0.7032,0.15382 0.15822,0.0703 0.241725,0.0703 0.15822,0 0.235133,-0.12526 h 0.116467 v 1.0614 h -0.116467 q -0.40434,-1.01525 -1.153688,-1.01525 -0.38676,0 -0.593325,0.18459 -0.206565,0.18239 -0.206565,0.41753 0,0.47905 0.512018,0.63068 l 1.06359,0.33182 q 0.79989,0.25491 0.79989,1.01744 0,0.68782 -0.452685,0.99767 -0.450488,0.30765 -1.015245,0.30765 -0.29886,0 -0.628485,-0.13405 -0.07471,-0.0352 -0.151628,-0.0747 -0.07472,-0.0418 -0.120862,-0.0593 -0.04395,-0.0198 -0.0879,-0.0198 -0.230738,0 -0.32523,0.22414 z m 5.641777,-1.95138 q 0,-0.49663 0.23733,-0.9647 0.239528,-0.47027 0.683423,-0.76034 0.443895,-0.29226 1.024035,-0.29226 0.575745,0 1.01964,0.29446 0.443895,0.29227 0.687817,0.76034 0.24612,0.46587 0.24612,0.9625 0,0.36918 -0.138442,0.72957 -0.138443,0.35819 -0.39555,0.65046 -0.257108,0.29007 -0.62409,0.46367 -0.364785,0.17141 -0.795495,0.17141 -0.575745,0 -1.01964,-0.29007 -0.443895,-0.29227 -0.68562,-0.75814 -0.239528,-0.46587 -0.239528,-0.9669 z m 1.017443,-0.64826 q -0.0088,0.22414 -0.0088,0.67463 0,0.67244 0.07911,1.06359 0.07911,0.39116 0.283477,0.58234 0.204368,0.18898 0.582338,0.18898 0.320835,0 0.523005,-0.15822 0.20217,-0.15822 0.30765,-0.56256 0.10548,-0.40653 0.10548,-1.12292 0,-0.58453 -0.06153,-0.98008 -0.06153,-0.39555 -0.268095,-0.64827 -0.206565,-0.25271 -0.60651,-0.25271 -0.384563,0 -0.652658,0.30326 -0.265897,0.30105 -0.283477,0.91196 z m 3.466989,-1.11633 h -0.566955 v -0.15383 h 0.900975 q 0.250515,0 0.547178,-0.0439 v 0.56696 q 0.349402,-0.36918 0.635077,-0.49883 0.285675,-0.13185 0.635078,-0.13185 0.507622,0 0.837247,0.23952 0.331823,0.23953 0.331823,0.67024 v 2.87873 h 0.566955 v 0.15382 h -1.95138 v -0.15382 h 0.503227 v -2.87873 q 0,-0.65705 -0.584535,-0.65705 -0.24612,0 -0.468067,0.12306 -0.21975,0.12306 -0.505425,0.47026 v 2.94246 h 0.505425 v 0.15382 h -1.953578 v -0.15382 h 0.566955 z m 10.241143,2.34913 1.683285,-4.56421 h 1.700865 v 0.1714 h -0.692213 v 5.5443 h 0.692213 v 0.18019 h -2.393078 v -0.18019 h 0.692213 v -5.17512 l -1.997528,5.46299 h -0.162615 l -2.087625,-5.41904 v 4.38402 q 0,0.29007 0.118665,0.49443 0.118665,0.20437 0.564758,0.25272 v 0.18019 h -1.601978 v -0.18019 q 0.4395,0 0.584535,-0.25272 0.145035,-0.25271 0.145035,-0.50322 v -4.27634 q 0,-0.51202 -0.549375,-0.51202 h -0.162615 l 0.0088,-0.1714 h 1.700865 z m 7.508189,0.85482 0.125258,0.11647 q -0.329625,0.45928 -0.898778,0.45928 -0.575745,0 -0.74715,-0.58454 -0.672435,0.58454 -1.314105,0.58454 -0.470265,0 -0.758138,-0.2681 -0.287872,-0.26809 -0.287872,-0.72297 0,-0.59333 0.525202,-0.93394 0.5274,-0.34281 1.536053,-0.34281 0.197775,0 0.29886,0.009 v -1.00865 q 0,-0.27689 -0.112072,-0.4395 -0.109875,-0.16262 -0.492241,-0.16262 -0.221947,0 -0.399945,0.0505 -0.1758,0.0505 -0.1758,0.14724 0,0.14723 0.0901,0.30545 0.116467,0.1714 0.116467,0.29666 0,0.21975 -0.138442,0.38896 -0.138443,0.16921 -0.410933,0.16921 -0.261502,0 -0.410932,-0.17141 -0.147233,-0.1736 -0.147233,-0.44829 0,-0.28128 0.224145,-0.48784 0.226343,-0.20657 0.57135,-0.30985 0.345008,-0.10328 0.690015,-0.10328 0.668041,0 0.993271,0.1758 0.32523,0.1736 0.40434,0.40434 0.07911,0.22854 0.07911,0.5274 v 2.34033 q 0,0.29667 0.206565,0.29667 0.101085,0 0.230737,-0.0901 0.129653,-0.0901 0.20217,-0.19778 z m -1.52067,-0.28787 v -1.25257 q -0.516413,0 -0.802088,0.0879 -0.283477,0.0857 -0.417525,0.32523 -0.13185,0.23952 -0.13185,0.7032 0,0.62189 0.621893,0.62189 0.0901,0 0.270292,-0.0769 0.180196,-0.0791 0.318638,-0.19119 0.14064,-0.11207 0.14064,-0.21755 z m 1.467265,0.61091 h 0.566955 v -3.52699 H 51.84026 v -0.15383 h 0.900975 q 0.276885,0 0.547178,-0.0439 v 0.79989 q 0.151627,-0.36258 0.454882,-0.60431 0.305453,-0.24172 0.698805,-0.24172 0.243923,0 0.402143,0.0791 0.15822,0.0769 0.232935,0.19557 0.07471,0.11867 0.07471,0.23953 0,0.2615 -0.138443,0.41533 -0.136245,0.15163 -0.312045,0.15163 -0.204367,0 -0.331822,-0.12526 -0.125258,-0.12746 -0.125258,-0.29886 0,-0.0264 0.0044,-0.0747 0.0044,-0.0483 0.0044,-0.0681 0,-0.10768 -0.05494,-0.13844 -0.05274,-0.033 -0.171405,-0.033 -0.182393,0 -0.355995,0.1692 -0.171405,0.16921 -0.276885,0.44829 -0.10548,0.27909 -0.10548,0.58893 v 2.22168 h 0.566955 v 0.15382 h -2.01511 z m 3.196694,0 h 0.566955 v -3.52699 h -0.566955 v -0.15383 h 0.889987 q 0.287873,0 0.558165,-0.0439 v 3.72477 h 0.566955 v 0.15382 h -2.015107 z m 0.485647,-5.13776 q 0,-0.21535 0.156023,-0.36039 0.156022,-0.14503 0.347205,-0.14503 0.199972,0 0.3516,0.14283 0.153825,0.14064 0.153825,0.36259 0,0.21975 -0.153825,0.36259 -0.153825,0.14064 -0.3516,0.14064 -0.188985,0 -0.347205,-0.14504 -0.156023,-0.14503 -0.156023,-0.35819 z m 2.071576,1.61077 h -0.566955 v -0.15383 h 0.900975 q 0.250515,0 0.547178,-0.0439 v 0.56696 q 0.349402,-0.36918 0.635077,-0.49883 0.285675,-0.13185 0.635078,-0.13185 0.507622,0 0.837247,0.23952 0.331823,0.23953 0.331823,0.67024 v 2.87873 h 0.566955 v 0.15382 h -1.95138 v -0.15382 h 0.503227 v -2.87873 q 0,-0.65705 -0.584535,-0.65705 -0.24612,0 -0.468067,0.12306 -0.21975,0.12306 -0.505425,0.47026 v 2.94246 H 58.9808 v 0.15382 h -1.953578 v -0.15382 h 0.566955 z m 7.290638,2.61063 0.153825,0.0989 q -0.336217,0.52959 -0.725175,0.79989 -0.38676,0.27029 -0.903172,0.27029 -0.555968,0 -0.999863,-0.2615 -0.441697,-0.26151 -0.690015,-0.72078 -0.24612,-0.46148 -0.24612,-1.03283 0,-0.57135 0.252713,-1.03502 0.252712,-0.46587 0.670237,-0.72298 0.419723,-0.2593 0.885593,-0.2593 0.39555,0 0.771322,0.16481 0.375773,0.16261 0.639473,0.56476 0.265897,0.40214 0.309847,1.07018 h -2.520532 l 0.0088,0.62189 q 0.01099,0.58893 0.16701,1.00646 0.15822,0.41532 0.714187,0.41532 0.82626,0 1.51188,-0.98008 z m -2.401867,-1.20643 h 1.584397 q 0,-0.044 0.0044,-0.13405 0.0044,-0.0901 0.0044,-0.13624 0,-0.58893 -0.15822,-0.90977 -0.156022,-0.32303 -0.58893,-0.32303 -0.479055,0 -0.65925,0.30326 -0.177997,0.30105 -0.177997,0.63288 z m 5.470374,-3.61928 h 2.62821 q 1.12512,0 1.81953,0.47905 0.69441,0.47686 0.980085,1.1493 0.287873,0.67243 0.287873,1.29652 0,0.82846 -0.371378,1.50968 -0.36918,0.68123 -1.024035,1.07238 -0.652657,0.38896 -1.448152,0.38896 h -2.872133 v -0.18019 h 0.692213 v -5.5443 h -0.692213 z m 1.700865,5.7157 h 1.215218 q 0.301057,0 0.661447,-0.15383 0.362588,-0.15382 0.683423,-0.75594 0.320835,-0.60431 0.320835,-1.79975 0,-0.84164 -0.120863,-1.38882 -0.118665,-0.54938 -0.355995,-0.86582 -0.23733,-0.31644 -0.58893,-0.44829 -0.3516,-0.13185 -0.85263,-0.13185 h -0.962505 z m 7.642238,-0.88999 0.153825,0.0989 q -0.336217,0.52959 -0.725175,0.79989 -0.38676,0.27029 -0.903173,0.27029 -0.555967,0 -0.999862,-0.2615 -0.441698,-0.26151 -0.690015,-0.72078 -0.24612,-0.46148 -0.24612,-1.03283 0,-0.57135 0.252712,-1.03502 0.252713,-0.46587 0.670238,-0.72298 0.419722,-0.2593 0.885592,-0.2593 0.39555,0 0.771323,0.16481 0.375773,0.16261 0.639473,0.56476 0.265897,0.40214 0.309847,1.07018 h -2.520533 l 0.0088,0.62189 q 0.01099,0.58893 0.16701,1.00646 0.15822,0.41532 0.714188,0.41532 0.82626,0 1.51188,-0.98008 z m -2.401868,-1.20643 h 1.584398 q 0,-0.044 0.0044,-0.13405 0.0044,-0.0901 0.0044,-0.13624 0,-0.58893 -0.15822,-0.90977 -0.156023,-0.32303 -0.58893,-0.32303 -0.479055,0 -0.65925,0.30326 -0.177998,0.30105 -0.177998,0.63288 z m 3.996579,1.79096 v 0.48565 h -1.448153 v -0.15382 h 0.566955 v -5.56188 h -0.566955 v -0.15382 h 0.889988 q 0.373575,0 0.558165,-0.0527 v 2.41285 q 0.173602,-0.24392 0.406537,-0.33402 0.235133,-0.0901 0.43071,-0.0901 0.402143,0 0.74715,0.16701 0.347205,0.16701 0.599918,0.45488 0.252713,0.28787 0.388958,0.64826 0.136245,0.35819 0.136245,0.73616 0,0.53619 -0.239528,1.00426 -0.239528,0.46587 -0.652658,0.74495 -0.41313,0.27689 -0.916357,0.27689 -0.610905,0 -0.900975,-0.58454 z m 1.700865,-0.74715 v -1.19763 q 0,-0.52521 -0.142838,-0.82626 -0.142837,-0.30326 -0.336217,-0.41313 -0.19338,-0.10988 -0.366983,-0.10988 -0.213157,0 -0.41313,0.10109 -0.197775,0.10108 -0.320835,0.27468 -0.120862,0.17141 -0.120862,0.37138 v 2.00632 q 0,0.27688 0.13185,0.49883 0.134047,0.21975 0.340612,0.34281 0.208763,0.12086 0.419723,0.12086 0.327427,0 0.566955,-0.25491 0.241725,-0.25491 0.241725,-0.91416 z m 1.027766,1.07898 h 0.566955 v -3.52699 h -0.566955 v -0.15383 h 0.900975 q 0.276885,0 0.547177,-0.0439 v 0.79989 q 0.151628,-0.36258 0.454883,-0.60431 0.305452,-0.24172 0.698805,-0.24172 0.243922,0 0.402142,0.0791 0.15822,0.0769 0.232935,0.19557 0.07471,0.11867 0.07471,0.23953 0,0.2615 -0.138442,0.41533 -0.136245,0.15163 -0.312045,0.15163 -0.204368,0 -0.331823,-0.12526 -0.125257,-0.12746 -0.125257,-0.29886 0,-0.0264 0.0044,-0.0747 0.0044,-0.0483 0.0044,-0.0681 0,-0.10768 -0.05494,-0.13844 -0.05274,-0.033 -0.171405,-0.033 -0.182392,0 -0.355995,0.1692 -0.171405,0.16921 -0.276885,0.44829 -0.10548,0.27909 -0.10548,0.58893 v 2.22168 h 0.566955 v 0.15382 H 81.61977 Z m 3.196693,0 h 0.566955 v -3.52699 H 84.81646 v -0.15383 h 0.889988 q 0.287872,0 0.558165,-0.0439 v 3.72477 h 0.566955 v 0.15382 H 84.81646 Z m 0.485648,-5.13776 q 0,-0.21535 0.156022,-0.36039 0.156023,-0.14503 0.347205,-0.14503 0.199973,0 0.3516,0.14283 0.153825,0.14064 0.153825,0.36259 0,0.21975 -0.153825,0.36259 -0.153825,0.14064 -0.3516,0.14064 -0.188985,0 -0.347205,-0.14504 -0.156022,-0.14503 -0.156022,-0.35819 z m 1.522205,5.32674 v -1.20423 h 0.125257 q 0.10548,0.28568 0.294465,0.53619 0.191183,0.25052 0.470265,0.41093 0.279083,0.15822 0.621893,0.15822 0.382365,0 0.621892,-0.15822 0.241725,-0.16041 0.241725,-0.39994 0,-0.36698 -0.213157,-0.54498 -0.21096,-0.178 -0.415328,-0.22854 l -0.72957,-0.20657 q -0.918555,-0.25491 -0.918555,-1.18005 0,-0.43291 0.213158,-0.69002 0.213157,-0.2593 0.490042,-0.36039 0.276885,-0.10108 0.503228,-0.10108 0.371377,0 0.7032,0.15382 0.15822,0.0703 0.241725,0.0703 0.15822,0 0.235132,-0.12526 h 0.116468 v 1.0614 h -0.116468 q -0.40434,-1.01525 -1.153687,-1.01525 -0.38676,0 -0.593325,0.18459 -0.206565,0.18239 -0.206565,0.41753 0,0.47905 0.512017,0.63068 l 1.06359,0.33182 q 0.79989,0.25491 0.79989,1.01744 0,0.68782 -0.452685,0.99767 -0.450487,0.30765 -1.015245,0.30765 -0.29886,0 -0.628485,-0.13405 -0.07471,-0.0352 -0.151627,-0.0747 -0.07471,-0.0418 -0.120863,-0.0593 -0.04395,-0.0198 -0.0879,-0.0198 -0.230737,0 -0.32523,0.22414 z"
         id="path18"
         style="fill:#000000;fill-opacity:1;stroke:#000000;stroke-opacity:1" /></g></g></svg>
