<svg width="126" height="38" viewBox="0 0 126 38" fill="none" xmlns="http://www.w3.org/2000/svg">
<path d="M6.18164 14.5615H16.2391V26.7628H6.18164V14.5615Z" fill="#93ACA7" stroke="black" stroke-width="0.348058" stroke-miterlimit="50" stroke-linecap="round" stroke-linejoin="round"/>
<path d="M32.9326 5.2362C32.9326 5.2362 20.0869 5.11756 18.7648 5.18986C15.0496 5.39299 13.5938 15.009 13.5938 15.009L13.6256 26.8608C13.6256 26.8608 15.1474 36.1904 18.4184 36.1645C21.8138 36.1376 33.2652 36.1645 33.2652 36.1645L32.9326 5.2362Z" fill="#93ACA7" stroke="black" stroke-width="0.348058" stroke-miterlimit="50" stroke-linecap="round" stroke-linejoin="round"/>
<path d="M111.766 5.146H113.264C116.224 5.146 118.608 6.61481 118.608 8.4393V32.8395C118.608 34.664 116.224 36.1328 113.264 36.1328H111.766C108.806 36.1328 106.422 34.664 106.422 32.8395V8.4393C106.422 6.61481 108.806 5.146 111.766 5.146Z" fill="#93ACA7" stroke="black" stroke-width="0.348058" stroke-miterlimit="50" stroke-linecap="round" stroke-linejoin="round"/>
<path d="M62.7478 5.15918H77.4468C79.3602 5.15918 80.9006 6.21728 80.9006 7.53161V33.6938C80.9006 35.0081 79.3602 36.0662 77.4468 36.0662H62.7478C60.8344 36.0662 59.2939 35.0081 59.2939 33.6938V7.53161C59.2939 6.21728 60.8344 5.15918 62.7478 5.15918Z" fill="#93ACA7" stroke="black" stroke-width="0.347762" stroke-miterlimit="50" stroke-linecap="round" stroke-linejoin="round"/>
<path d="M41.3584 5.14502H54.7861C57.1834 5.14502 59.1133 6.20908 59.1133 7.53081V33.6807C59.1133 35.0025 57.1834 36.0665 54.7861 36.0665H41.3584C38.9612 36.0665 37.0312 35.0025 37.0312 33.6807V7.53081C37.0312 6.20908 38.9612 5.14502 41.3584 5.14502Z" fill="#93ACA7" stroke="black" stroke-width="0.34768" stroke-miterlimit="50" stroke-linecap="round" stroke-linejoin="round"/>
<path d="M22.1406 5.1665H33.3106C35.3727 5.1665 37.0328 6.22323 37.0328 7.53584V33.7952C37.0328 35.1078 35.3727 36.1645 33.3106 36.1645H22.1406C20.0786 36.1645 18.4185 35.1078 18.4185 33.7952V7.53584C18.4185 6.22323 20.0786 5.1665 22.1406 5.1665Z" fill="#93ACA7" stroke="black" stroke-width="0.348058" stroke-miterlimit="50" stroke-linecap="round" stroke-linejoin="round"/>
<path d="M84.805 5.14697H103.207C104.942 5.14697 106.339 6.21031 106.339 7.53114V33.6823C106.339 35.0031 104.942 36.0664 103.207 36.0664H84.805C83.0698 36.0664 81.6729 35.0031 81.6729 33.6823V7.53114C81.6729 6.21031 83.0698 5.14697 84.805 5.14697Z" fill="#93ACA7" stroke="black" stroke-width="0.350243" stroke-miterlimit="50" stroke-linecap="round" stroke-linejoin="round"/>
<path d="M20.0746 5.16992C21.3547 5.16992 22.3851 5.83895 22.3851 6.66999V34.6343C22.3851 35.4653 21.3547 36.1343 20.0746 36.1343C18.7946 36.1343 17.7642 35.4653 17.7642 34.6343V6.66999C17.7642 5.83895 18.7946 5.16992 20.0746 5.16992Z" fill="#93ACA7"/>
<path d="M37.2079 7.53564C38.488 7.53564 39.5184 8.61731 39.5184 9.9609V31.6078C39.5184 32.9514 38.488 34.033 37.2079 34.033C35.9279 34.033 34.8975 32.9514 34.8975 31.6078V9.9609C34.8975 8.61731 35.9279 7.53564 37.2079 7.53564Z" fill="#93ACA7"/>
<path d="M105.424 7.52539C106.223 7.52539 106.866 7.52539 106.866 7.52539V34.0228C106.866 34.0228 106.223 34.0228 105.424 34.0228C104.625 34.0228 103.981 34.0228 103.981 34.0228V7.52539C103.981 7.52539 104.625 7.52539 105.424 7.52539Z" fill="#93ACA7"/>
<path d="M1 4.2228H15.7519C19.962 4.2228 23.3663 5.11245 25.9647 6.89175C28.5632 8.66289 30.3969 10.7972 31.4659 13.2948C32.5431 15.7923 33.0817 18.2001 33.0817 20.5181C33.0817 23.5951 32.3868 26.3988 30.9972 28.929C29.6157 31.4592 27.6998 33.4507 25.2494 34.9035C22.8072 36.3481 20.0977 37.0705 17.121 37.0705H1V36.0666H4.88532V5.17775H1V4.2228ZM10.5468 36.0666H17.3677C18.4942 36.0666 19.7318 35.7809 21.0803 35.2096C22.4371 34.6382 23.7158 33.2344 24.9163 30.998C26.1169 28.7535 26.7171 25.4112 26.7171 20.9711C26.7171 17.8451 26.491 15.2659 26.0388 13.2336C25.5947 11.1931 24.9287 9.58519 24.0406 8.40987C23.1525 7.23455 22.0506 6.40204 20.735 5.91232C19.4193 5.42261 17.8241 5.17775 15.9492 5.17775H10.5468V36.0666ZM53.058 31.1082L53.9214 31.6591C52.6633 33.6261 51.3065 35.1116 49.8511 36.1155C48.4039 37.1194 46.7141 37.6214 44.7817 37.6214C42.7013 37.6214 40.8306 37.1358 39.1695 36.1645C37.5167 35.1932 36.2257 33.8547 35.2965 32.1488C34.3756 30.4348 33.9151 28.5168 33.9151 26.3947C33.9151 24.2726 34.3879 22.3504 35.3335 20.6283C36.2792 18.8979 37.5332 17.5553 39.0955 16.6004C40.6661 15.6373 42.323 15.1557 44.0663 15.1557C45.5464 15.1557 46.9895 15.4618 48.3956 16.0739C49.8018 16.6779 50.9982 17.7267 51.9849 19.2203C52.9799 20.714 53.5596 22.7014 53.7241 25.1826H39.5766L39.6259 28.6474C39.667 30.8348 39.9795 32.7038 40.5633 34.2546C41.1554 35.7972 42.4916 36.5685 44.572 36.5685C47.6638 36.5685 50.4925 34.7484 53.058 31.1082ZM39.5766 24.3868H48.4696C48.4696 24.2236 48.4779 23.9747 48.4943 23.64C48.5107 23.3054 48.5189 23.0524 48.5189 22.881C48.5189 20.6936 48.2229 19.004 47.6309 17.8124C47.047 16.6126 45.9452 16.0127 44.3253 16.0127C42.5327 16.0127 41.2992 16.5759 40.625 17.7022C39.9589 18.8204 39.6259 19.9957 39.6259 21.2282L39.5766 24.3868ZM80.9284 27.2884V8.5323C80.9284 7.23456 80.4761 6.35307 79.5716 5.88784C78.6671 5.41444 77.6721 5.17775 76.5867 5.17775V4.2228H86.3308V5.17775C85.0069 5.1859 84.0284 5.41444 83.3952 5.86335C82.7621 6.3041 82.3674 6.82646 82.2111 7.43044C82.0631 8.03442 81.9891 8.80573 81.9891 9.74435V37.6214H81.6314L60.1573 9.24239V31.5489C60.1573 32.4794 60.4821 33.467 61.1317 34.5117C61.7895 35.5483 62.9325 36.0666 64.5607 36.0666V37.0705H54.7548V36.0666C56.1363 36.0666 57.2053 35.736 57.9618 35.0749C58.7183 34.4138 59.0965 33.2385 59.0965 31.5489V7.83446C59.0965 6.904 58.6977 6.2388 57.9001 5.83887C57.1025 5.43077 56.2391 5.2104 55.3099 5.17775V4.2228H63.3396L80.9284 27.2884ZM92.061 36.0666V5.17775H88.1757V4.2228H101.62V5.17775H97.7225V36.0666H101.62V37.0705H88.1757V36.0666H92.061ZM103.564 37.0705L103.465 26.5906H104.119C105.681 30.4512 107.535 33.0875 109.681 34.4995C111.836 35.9115 113.99 36.6175 116.145 36.6175C118.094 36.6175 119.767 36.0625 121.165 34.9525C122.571 33.8424 123.274 32.3937 123.274 30.6062C123.274 27.1129 121.469 24.8725 117.859 23.8849L111.902 22.2811C107.116 20.9752 104.723 17.6124 104.723 12.1929C104.723 10.6503 105.093 9.22606 105.833 7.92016C106.573 6.61425 107.605 5.58177 108.929 4.82271C110.261 4.05549 111.741 3.67188 113.369 3.67188C114.693 3.67188 115.701 3.75349 116.391 3.91673C117.09 4.07181 117.732 4.3085 118.316 4.62682C118.908 4.94514 119.393 5.16959 119.771 5.30017C120.157 5.42261 120.803 5.48382 121.707 5.48382C122.078 5.48382 122.464 5.06348 122.867 4.2228H123.669L123.878 12.144H123.163C120.935 7.09988 117.719 4.57785 113.517 4.57785C111.536 4.57785 109.969 5.15735 108.818 6.31634C107.675 7.47533 107.104 8.86694 107.104 10.4912C107.104 11.9195 107.449 13.0581 108.14 13.9069C108.83 14.7558 109.583 15.3598 110.397 15.7189C111.211 16.0698 112.185 16.4004 113.32 16.7106L118.476 18.0695C120.589 18.6245 122.205 19.4815 123.323 20.6405C124.442 21.7995 125.165 22.983 125.494 24.191C125.831 25.3989 126 26.5824 126 27.7414C126 29.3738 125.65 30.9531 124.951 32.4794C124.261 33.9975 123.208 35.234 121.794 36.189C120.379 37.1439 118.681 37.6214 116.7 37.6214C113.986 37.6214 111.478 37.0705 109.176 35.9686C107.983 35.4299 107.227 35.1606 106.906 35.1606C106.322 35.1606 105.841 35.332 105.463 35.6748C105.085 36.0176 104.859 36.4828 104.785 37.0705H103.564Z" fill="black"/>
<path d="M13.5938 14.5908C14.1105 14.5908 14.5265 14.9627 14.5265 15.4247V25.8575C14.5265 26.3195 14.1105 26.6914 13.5938 26.6914C13.0771 26.6914 12.6611 26.3195 12.6611 25.8575V15.4247C12.6611 14.9627 13.0771 14.5908 13.5938 14.5908Z" fill="#93ACA7"/>
<path d="M12.7695 14.5874C13.4814 14.5874 14.0545 15.6691 14.0545 17.0127V24.2748C14.0545 25.6184 13.4814 26.7 12.7695 26.7C12.0575 26.7 11.4844 25.6184 11.4844 24.2748V17.0127C11.4844 15.6691 12.0575 14.5874 12.7695 14.5874Z" fill="#93ACA7"/>
<path d="M38.9331 29.561C38.9331 29.561 39.5576 34.2812 41.3245 35.4851C43.5692 37.0143 48.715 36.0939 49.4913 35.5935" stroke="black" stroke-width="2.68004" stroke-miterlimit="50" stroke-linecap="round" stroke-linejoin="round"/>
<path d="M2.04725 12.0713H9.51684C10.0589 12.0713 10.4952 12.5133 10.4952 13.0623V28.2251C10.4952 28.7741 10.0589 29.2161 9.51684 29.2161H2.04725C1.50521 29.2161 1.06885 28.7741 1.06885 28.2251V13.0623C1.06885 12.5133 1.50521 12.0713 2.04725 12.0713Z" fill="#93ACA7" stroke="black" stroke-width="0.348058" stroke-miterlimit="50" stroke-linecap="round" stroke-linejoin="round"/>
<path d="M42.4548 1C42.3706 0.999858 42.2363 1.03313 42.153 1.04955C41.5906 1.16039 39.6682 1.6886 39.8567 3.70782C39.9781 5.00871 40.1544 5.5155 40.2884 5.70829C40.3527 5.80079 40.5167 5.91497 40.63 5.97278C41.1024 6.21379 42.6029 6.37181 44.0083 6.33917C45.3975 6.30691 46.323 5.72316 46.6573 5.38408C46.7459 5.29416 46.8299 5.11348 46.8622 4.99808C46.9635 4.63635 47.0003 3.91439 45.8941 2.72354C44.6832 1.42014 42.983 1.0009 42.4548 1Z" fill="#F8E6D2" stroke="black" stroke-width="0.348058" stroke-linejoin="round"/>
<path d="M41.317 1.75903C41.012 2.16844 41.0877 3.3562 41.5298 3.66205C41.8141 3.85868 43.7262 4.20517 44.1606 3.89829C44.4509 3.69319 44.1014 2.52322 43.5675 2.10682C43.0021 1.66582 41.4267 1.61168 41.317 1.75903Z" fill="#DCCDBC" stroke="black" stroke-width="0.348058" stroke-linejoin="round"/>
<path d="M41.312 1.80518C41.312 1.80518 43.4142 3.79579 44.1669 3.85147" stroke="black" stroke-width="0.348058" stroke-linejoin="round"/>
<path d="M95.6536 14.1522C95.416 13.4711 93.5609 12.6656 94.2159 11.5488C94.4734 11.1098 95.3146 10.7832 95.9108 10.6467C96.7439 10.4561 98.0123 10.5001 98.859 11.1187C99.7058 11.7374 100.626 13.2219 100.685 14.299C100.744 15.3761 100.378 16.4414 99.8977 16.8916C99.4179 17.3418 98.883 17.359 98.3356 17.4155C97.7881 17.4721 97.0265 17.3606 96.4655 17.0728C95.9046 16.785 95.5008 16.3704 95.3191 15.7442C95.1373 15.1181 95.862 14.7497 95.6536 14.1522Z" fill="#F8E6D2" stroke="black" stroke-width="0.348058" stroke-miterlimit="50" stroke-linecap="round" stroke-linejoin="round"/>
<path d="M97.2106 14.222C97.2268 13.8315 98.7425 12.8193 99.1683 12.8277C99.6824 12.8378 100.517 14.1005 100.633 14.9637C100.716 15.5813 99.3922 16.4468 98.9964 16.3654C98.3018 16.2226 97.1791 14.9834 97.2106 14.222Z" fill="#DCCDBC" stroke="black" stroke-width="0.348058" stroke-miterlimit="50" stroke-linecap="round" stroke-linejoin="round"/>
<path d="M97.2256 14.2074C97.2256 14.2074 100.199 13.9553 100.566 14.9713" stroke="black" stroke-width="0.348058" stroke-miterlimit="50" stroke-linecap="round" stroke-linejoin="round"/>
<path d="M96.7398 17.241C96.2892 17.1135 95.683 18.647 95.6489 19.4734C95.6119 20.3688 96.3054 21.9462 96.6277 21.9802C97.3619 22.0575 98.7798 22.3006 99.6389 22.0692C100.346 21.8787 100.819 21.0973 101.074 20.4153C101.318 19.7617 101.334 18.9713 101.074 18.3238C100.848 17.7635 100.019 16.9041 99.8183 17.0111C98.9503 17.4737 97.7913 17.5385 96.7398 17.241Z" fill="#F8E6D2" stroke="black" stroke-width="0.348058" stroke-miterlimit="50" stroke-linecap="round" stroke-linejoin="round"/>
<path d="M100.18 21.0988C99.8142 21.2833 98.2282 20.9364 97.7918 20.2125C97.549 19.8098 97.63 19.1308 97.982 18.8175C98.3872 18.4567 99.1825 18.4468 99.6146 18.7755C100.252 19.2602 100.413 20.9812 100.18 21.0988Z" fill="#DCCDBC" stroke="black" stroke-width="0.348058" stroke-miterlimit="50" stroke-linecap="round" stroke-linejoin="round"/>
<path d="M97.9609 18.8701C97.9609 18.8701 100.159 20.6008 100.159 21.0465" stroke="black" stroke-width="0.348058" stroke-miterlimit="50" stroke-linecap="round" stroke-linejoin="round"/>
<path d="M96.186 21.9851C95.7288 21.9364 95.2186 21.8972 94.8123 22.111C94.3612 22.3484 94.2326 22.9616 93.8401 23.2857C93.0451 23.9423 91.543 24.5212 91.1244 24.7751C90.7222 25.0191 91.151 27.9769 92.0966 28.5616C92.9242 29.0734 94.0617 29.1519 95.0025 28.8972C96.111 28.5971 97.0629 27.7451 97.7499 26.8309C98.0903 26.378 98.3986 23.0946 98.5425 22.2159C98.5549 22.1401 96.9964 22.0715 96.186 21.9851Z" fill="#F8E6D2" stroke="black" stroke-width="0.348058" stroke-miterlimit="50" stroke-linecap="round" stroke-linejoin="round"/>
<path d="M93.7552 25.0582C93.6966 25.6211 93.616 28.0929 94.1779 28.1104C94.9594 28.1348 96.3754 27.1156 96.7774 26.3588C97.0716 25.805 97.3993 24.1308 97.2001 23.3381C97.1168 23.007 93.835 24.2926 93.7552 25.0582Z" fill="#DCCDBC" stroke="black" stroke-width="0.348058" stroke-miterlimit="50" stroke-linecap="round" stroke-linejoin="round"/>
<path d="M94.0513 28.0056C94.0513 28.0056 96.8621 23.2856 97.1369 23.2856Z" fill="#DCCDBC"/>
<path d="M94.0513 28.0056C94.0513 28.0056 96.8621 23.2856 97.1369 23.2856" stroke="black" stroke-width="0.348058" stroke-miterlimit="50" stroke-linecap="round" stroke-linejoin="round"/>
<path d="M57.8683 29.4253C57.5109 31.0679 58.8073 33.3604 60.4376 33.6416C61.7117 33.8614 63.5838 32.9622 63.4476 31.2124C63.2851 29.1234 62.3166 28.3866 60.7846 28.2619C59.7452 28.1773 58.0885 28.4135 57.8683 29.4253Z" fill="#F8E6D2" stroke="black" stroke-width="0.348058" stroke-miterlimit="50" stroke-linecap="round" stroke-linejoin="round"/>
<path d="M59.4345 29.5652C59.2751 29.9603 59.6987 31.4662 60.3722 32.041C60.8858 32.4794 61.9293 32.8037 62.3601 32.4598C62.7468 32.1512 62.4179 30.7318 61.8725 30.1702C61.2911 29.5716 59.5563 29.2632 59.4345 29.5652Z" fill="#DCCDBC" stroke="black" stroke-width="0.348058" stroke-miterlimit="50" stroke-linecap="round" stroke-linejoin="round"/>
<path d="M59.4438 29.6675C59.4438 29.6675 62.3413 31.8547 62.3882 32.2736" stroke="black" stroke-width="0.348058" stroke-miterlimit="50" stroke-linecap="round" stroke-linejoin="round"/>
<path d="M62.3863 24.0644C61.8925 24.2743 61.3538 24.7898 61.3899 25.3218C61.4446 26.1279 62.3294 27.0006 63.1433 27.0086C63.8119 27.0151 64.6588 26.0937 64.6109 25.6515C64.5571 25.1544 64.1143 24.4816 63.599 24.1794C63.2494 23.9744 62.7596 23.9058 62.3863 24.0644Z" fill="#F8E6D2" stroke="black" stroke-width="0.348059" stroke-miterlimit="50" stroke-linecap="round" stroke-linejoin="round"/>
<path d="M62.6023 24.7005C62.2815 24.8128 61.7948 25.4333 61.8762 25.7126C61.9791 26.0651 63.0864 26.327 63.1585 26.3259C63.365 26.3228 63.8093 25.5371 63.6893 25.3179C63.5631 25.0874 62.8449 24.6156 62.6023 24.7005Z" fill="#DCCDBC" stroke="black" stroke-width="0.348059" stroke-miterlimit="50" stroke-linecap="round" stroke-linejoin="round"/>
<path d="M61.8813 25.7249C61.8813 25.7249 63.3424 25.2885 63.7002 25.405" stroke="black" stroke-width="0.348059" stroke-miterlimit="50" stroke-linecap="round" stroke-linejoin="round"/>
<path d="M35.9504 17.8958C35.1733 17.7693 34.156 18.4656 34.0103 19.2337C33.8574 20.0403 34.6498 21.0447 35.3936 21.2778C35.7983 21.4046 37.0719 20.2929 37.1215 19.4618C37.1602 18.8128 36.5967 18.001 35.9504 17.8958Z" fill="#F8E6D2" stroke="black" stroke-width="0.348058" stroke-miterlimit="50" stroke-linecap="round" stroke-linejoin="round"/>
<path d="M35.8799 18.4044C35.6693 18.2704 34.7948 18.8386 34.7884 19.1544C34.7792 19.601 34.7948 20.3608 35.1066 20.4704C35.3334 20.5501 35.9769 19.9515 36.1142 19.5097C36.2259 19.1499 36.0758 18.5288 35.8799 18.4044Z" fill="#DCCDBC" stroke="black" stroke-width="0.348058" stroke-miterlimit="50" stroke-linecap="round" stroke-linejoin="round"/>
<path d="M35.0796 20.4531C35.0796 20.4531 35.7557 18.4046 35.8972 18.4309" stroke="black" stroke-width="0.348058" stroke-miterlimit="50" stroke-linecap="round" stroke-linejoin="round"/>
<path d="M113.174 7.12202C112.206 7.76478 110.4 7.52168 109.806 6.55742C109.342 5.8039 109.448 4.38729 110.61 4.03089C111.998 3.60541 112.718 4.03402 113.186 4.97544C113.504 5.61416 113.771 6.72609 113.174 7.12202Z" fill="#F8E6D2" stroke="black" stroke-width="0.348058" stroke-miterlimit="50" stroke-linecap="round" stroke-linejoin="round"/>
<path d="M112.688 6.16319C112.473 6.36444 111.395 6.47654 110.854 6.19429C110.442 5.97904 109.969 5.39838 110.081 5.03777C110.182 4.71409 111.181 4.56366 111.681 4.76793C112.214 4.98565 112.852 6.00939 112.688 6.16319Z" fill="#DCCDBC" stroke="black" stroke-width="0.348058" stroke-miterlimit="50" stroke-linecap="round" stroke-linejoin="round"/>
<path d="M112.619 6.18286C112.619 6.18286 110.476 4.89626 110.194 4.9725" stroke="black" stroke-width="0.348058" stroke-miterlimit="50" stroke-linecap="round" stroke-linejoin="round"/>
</svg>
