<?xml version="1.0" encoding="UTF-8" standalone="no"?>
<!-- Created with Inkscape (http://www.inkscape.org/) -->

<svg
   width="5in"
   height="2.1019478in"
   viewBox="0 0 127 53.38947"
   version="1.1"
   id="svg1"
   xml:space="preserve"
   sodipodi:docname="logo.svg"
   inkscape:version="1.3.2 (1:1.3.2+202311252150+091e20ef0f)"
   xmlns:inkscape="http://www.inkscape.org/namespaces/inkscape"
   xmlns:sodipodi="http://sodipodi.sourceforge.net/DTD/sodipodi-0.dtd"
   xmlns="http://www.w3.org/2000/svg"
   xmlns:svg="http://www.w3.org/2000/svg"><sodipodi:namedview
     id="namedview1"
     pagecolor="#ffffff"
     bordercolor="#000000"
     borderopacity="0.25"
     inkscape:showpageshadow="2"
     inkscape:pageopacity="0.0"
     inkscape:pagecheckerboard="0"
     inkscape:deskcolor="#d1d1d1"
     inkscape:document-units="in"
     inkscape:zoom="1.6680001"
     inkscape:cx="238.00958"
     inkscape:cy="91.127093"
     inkscape:window-width="1920"
     inkscape:window-height="1016"
     inkscape:window-x="0"
     inkscape:window-y="0"
     inkscape:window-maximized="1"
     inkscape:current-layer="svg1" /><defs
     id="defs1"><linearGradient
       id="swatch1"><stop
         style="stop-color:#000000;stop-opacity:1;"
         offset="0"
         id="stop1" /></linearGradient></defs><g
     id="layer1"
     transform="translate(-3.1532425,-42.057461)"><g
       id="text100"
       style="font-size:6.49749px;line-height:0;font-family:Bodoni;-inkscape-font-specification:Bodoni;word-spacing:-0.701728px;fill:#93aca7;stroke:#93aca7;stroke-width:0.0920901;stroke-linecap:round;stroke-linejoin:round;stroke-miterlimit:50"
       aria-label="Global database for&#10;Non-Indigenous Species on marine Debris"><path
         style="line-height:0.1;stroke-width:0.0920903"
         d="M 9.185283,84.881813 H 9.0425159 q -0.039658,-0.482236 -0.3029836,-0.864534 -0.263326,-0.383885 -0.8978465,-0.383885 -0.4520958,0 -0.6979725,0.277603 -0.2458767,0.277602 -0.3299507,0.72018 -0.084074,0.442578 -0.084074,1.048546 0,0.509202 0.068211,0.967643 0.068211,0.456855 0.295052,0.794737 0.2268411,0.336296 0.6567287,0.336296 0.4632,0 0.7408027,-0.234772 0.279189,-0.236359 0.279189,-0.894674 V 86.180994 H 8.3159899 v -0.123732 h 1.6370629 v 0.123732 H 9.4977843 v 0.252222 q 0,0.448923 -0.2569808,0.78046 -0.2553945,0.329951 -0.658315,0.502857 -0.4013342,0.172907 -0.8201177,0.172907 -0.5583781,0 -0.9803342,-0.31726 -0.4219562,-0.318847 -0.6472109,-0.843912 -0.2236685,-0.526652 -0.2236685,-1.126274 0,-0.482236 0.2411178,-0.973989 0.2411178,-0.491754 0.6773506,-0.8106 0.4362329,-0.320433 0.9850931,-0.320433 0.1744931,0 0.279189,0.02697 0.1062822,0.02538 0.2331863,0.07932 0.1269041,0.05235 0.2046329,0.07456 0.077729,0.02062 0.2252547,0.02062 0.084074,0 0.1475261,-0.03648 0.063452,-0.03648 0.1189725,-0.164975 h 0.1491124 z m 1.468915,-1.183381 h -0.409266 v -0.111041 h 0.648797 q 0.250636,0 0.396576,-0.03807 v 4.164041 h 0.409265 v 0.111041 h -1.454638 v -0.111041 h 0.409266 z m 1.299181,2.742715 q 0,-0.358504 0.17132,-0.696386 0.172907,-0.339469 0.49334,-0.54886 0.320433,-0.210978 0.739216,-0.210978 0.415611,0 0.736044,0.212564 0.320433,0.210978 0.496513,0.54886 0.177665,0.336296 0.177665,0.6948 0,0.266499 -0.09994,0.526652 -0.09994,0.258567 -0.285534,0.469545 -0.185597,0.209392 -0.45051,0.33471 -0.263326,0.123731 -0.574241,0.123731 -0.41561,0 -0.736043,-0.209391 -0.320433,-0.210978 -0.494926,-0.547274 -0.172907,-0.336296 -0.172907,-0.697973 z m 0.734457,-0.467959 q -0.0063,0.161803 -0.0063,0.486995 0,0.485408 0.05711,0.76777 0.05711,0.282361 0.204633,0.420369 0.147526,0.136422 0.42037,0.136422 0.2316,0 0.377539,-0.114213 0.14594,-0.114214 0.222083,-0.406093 0.07614,-0.293466 0.07614,-0.8106 0,-0.421957 -0.04442,-0.707491 -0.04442,-0.285534 -0.193529,-0.467959 -0.149113,-0.182424 -0.437819,-0.182424 -0.277603,0 -0.471132,0.218909 -0.191942,0.217324 -0.204633,0.658315 z m 3.378822,1.500641 v 0.350573 h -1.045373 v -0.111041 h 0.409266 v -4.014929 h -0.409266 v -0.111041 h 0.642452 q 0.269671,0 0.402921,-0.03807 v 1.741759 q 0.125317,-0.17608 0.293465,-0.241118 0.169735,-0.06504 0.310915,-0.06504 0.290294,0 0.539343,0.120559 0.250635,0.120558 0.43306,0.328364 0.182425,0.207805 0.280775,0.467959 0.09835,0.258567 0.09835,0.531411 0,0.387057 -0.172907,0.724939 -0.172907,0.336296 -0.471131,0.537756 -0.298225,0.199874 -0.661488,0.199874 -0.440992,0 -0.650383,-0.421956 z m 1.227797,-0.539342 v -0.864534 q 0,-0.379126 -0.10311,-0.59645 -0.103109,-0.218909 -0.242704,-0.298224 -0.139594,-0.07932 -0.264912,-0.07932 -0.153871,0 -0.298225,0.07297 -0.142767,0.07297 -0.2316,0.198287 -0.08725,0.123732 -0.08725,0.268085 v 1.448293 q 0,0.199874 0.09518,0.360091 0.09676,0.15863 0.245876,0.247463 0.150699,0.08725 0.302984,0.08725 0.236359,0 0.409266,-0.184011 0.174493,-0.184011 0.174493,-0.659901 z m 3.83409,0.545687 0.09042,0.08407 q -0.237946,0.331537 -0.648798,0.331537 -0.415611,0 -0.539342,-0.421956 -0.485408,0.421956 -0.948608,0.421956 -0.339469,0 -0.547274,-0.193528 -0.207806,-0.193529 -0.207806,-0.521893 0,-0.428302 0.379126,-0.674178 0.380713,-0.247463 1.108825,-0.247463 0.142767,0 0.215737,0.0063 v -0.728113 q 0,-0.199874 -0.0809,-0.31726 -0.07931,-0.117386 -0.355332,-0.117386 -0.160216,0 -0.288707,0.03648 -0.126904,0.03648 -0.126904,0.106282 0,0.106282 0.06504,0.220496 0.08407,0.123731 0.08407,0.214151 0,0.15863 -0.09994,0.280775 -0.09994,0.122145 -0.296639,0.122145 -0.18877,0 -0.296638,-0.123731 -0.106282,-0.125318 -0.106282,-0.323606 0,-0.203046 0.161802,-0.352159 0.163389,-0.149112 0.412439,-0.223668 0.249049,-0.07456 0.498098,-0.07456 0.482236,0 0.717009,0.126904 0.234772,0.125318 0.291879,0.291879 0.05711,0.164975 0.05711,0.380712 v 1.689411 q 0,0.214151 0.149112,0.214151 0.07297,0 0.166562,-0.06504 0.09359,-0.06504 0.145939,-0.142768 z m -1.09772,-0.207805 v -0.904192 q -0.372781,0 -0.579,0.06345 -0.204633,0.06187 -0.301397,0.234773 -0.09518,0.172907 -0.09518,0.507616 0,0.448924 0.448923,0.448924 0.06504,0 0.195115,-0.05552 0.130077,-0.05711 0.230014,-0.138008 0.101523,-0.0809 0.101523,-0.157044 z m 1.708446,-3.573937 h -0.409265 v -0.111041 h 0.648797 q 0.250635,0 0.396575,-0.03807 v 4.164041 h 0.409266 v 0.111041 h -1.454638 v -0.111041 h 0.409265 z m 4.805224,4.12597 v -0.350573 q -0.242704,0.421956 -0.656728,0.421956 -0.307743,0 -0.60914,-0.17132 -0.299811,-0.171321 -0.494926,-0.504444 -0.195115,-0.333123 -0.195115,-0.786805 0,-0.272844 0.09994,-0.534584 0.09994,-0.26174 0.279189,-0.466372 0.180838,-0.204633 0.429888,-0.325192 0.249049,-0.122145 0.536169,-0.122145 0.379126,0 0.610726,0.306156 V 83.698432 H 26.13523 v -0.111041 h 0.650383 q 0.24905,0 0.394989,-0.03807 v 4.164041 h 0.409266 v 0.111041 z m -1.234142,-1.754449 0.0063,0.864534 q 0,0.296638 0.109455,0.571068 0.111041,0.272844 0.47589,0.272844 0.233187,0 0.43782,-0.196701 0.204632,-0.196702 0.204632,-0.498099 v -1.246833 q 0,-0.740802 -0.617071,-0.740802 -0.203046,0 -0.410852,0.206219 -0.206219,0.206219 -0.206219,0.76777 z m 5.353767,1.410221 0.09042,0.08407 q -0.237946,0.331537 -0.648798,0.331537 -0.415611,0 -0.539342,-0.421956 -0.485408,0.421956 -0.948608,0.421956 -0.339469,0 -0.547274,-0.193528 -0.207806,-0.193529 -0.207806,-0.521893 0,-0.428302 0.379126,-0.674178 0.380713,-0.247463 1.108825,-0.247463 0.142767,0 0.215737,0.0063 v -0.728113 q 0,-0.199874 -0.0809,-0.31726 -0.07932,-0.117386 -0.355332,-0.117386 -0.160216,0 -0.288707,0.03648 -0.126904,0.03648 -0.126904,0.106282 0,0.106282 0.06504,0.220496 0.08407,0.123731 0.08407,0.214151 0,0.15863 -0.09994,0.280775 -0.09994,0.122145 -0.296638,0.122145 -0.18877,0 -0.296638,-0.123731 -0.106282,-0.125318 -0.106282,-0.323606 0,-0.203046 0.161802,-0.352159 0.163389,-0.149112 0.412439,-0.223668 0.249049,-0.07456 0.498098,-0.07456 0.482236,0 0.717008,0.126904 0.234773,0.125318 0.29188,0.291879 0.05711,0.164975 0.05711,0.380712 v 1.689411 q 0,0.214151 0.149112,0.214151 0.07297,0 0.166562,-0.06504 0.09359,-0.06504 0.145939,-0.142768 z M 29.5664,87.272369 v -0.904192 q -0.372781,0 -0.579,0.06345 -0.204633,0.06187 -0.301397,0.234773 -0.09518,0.172907 -0.09518,0.507616 0,0.448924 0.448923,0.448924 0.06504,0 0.195115,-0.05552 0.130077,-0.05711 0.230014,-0.138008 0.101523,-0.0809 0.101523,-0.157044 z m 1.318215,-2.216063 h 0.532997 V 84.14101 l 0.636107,-0.228427 v 1.143723 h 0.56631 v 0.111041 h -0.56631 v 2.136748 q 0,0.245877 0.07456,0.312501 0.07614,0.06504 0.198288,0.06504 0.198288,0 0.421956,-0.18877 l 0.06504,0.07773 q -0.152285,0.147526 -0.356918,0.239531 -0.203047,0.09201 -0.39023,0.09201 -0.33471,0 -0.491754,-0.182425 -0.157044,-0.184011 -0.157044,-0.558378 V 85.167353 H 30.88462 Z m 5.022231,2.423868 0.09042,0.08407 q -0.237945,0.331537 -0.648797,0.331537 -0.415611,0 -0.539343,-0.421956 -0.485408,0.421956 -0.948608,0.421956 -0.339468,0 -0.547274,-0.193528 -0.207805,-0.193529 -0.207805,-0.521893 0,-0.428302 0.379126,-0.674178 0.380712,-0.247463 1.108824,-0.247463 0.142767,0 0.215737,0.0063 v -0.728113 q 0,-0.199874 -0.0809,-0.31726 -0.07931,-0.117386 -0.355332,-0.117386 -0.160216,0 -0.288706,0.03648 -0.126905,0.03648 -0.126905,0.106282 0,0.106282 0.06504,0.220496 0.08407,0.123731 0.08407,0.214151 0,0.15863 -0.09994,0.280775 -0.09994,0.122145 -0.296639,0.122145 -0.188769,0 -0.296638,-0.123731 -0.106282,-0.125318 -0.106282,-0.323606 0,-0.203046 0.161803,-0.352159 0.163389,-0.149112 0.412438,-0.223668 0.249049,-0.07456 0.498099,-0.07456 0.482235,0 0.717008,0.126904 0.234772,0.125318 0.291879,0.291879 0.05711,0.164975 0.05711,0.380712 v 1.689411 q 0,0.214151 0.149112,0.214151 0.07297,0 0.166562,-0.06504 0.09359,-0.06504 0.14594,-0.142768 z m -1.097721,-0.207805 v -0.904192 q -0.372781,0 -0.579,0.06345 -0.204633,0.06187 -0.301397,0.234773 -0.09518,0.172907 -0.09518,0.507616 0,0.448924 0.448923,0.448924 0.06504,0 0.195115,-0.05552 0.130077,-0.05711 0.230014,-0.138008 0.101523,-0.0809 0.101523,-0.157044 z m 2.344554,0.20146 v 0.350573 h -1.045372 v -0.111041 h 0.409266 v -4.014929 h -0.409266 v -0.111041 h 0.642452 q 0.269671,0 0.40292,-0.03807 v 1.741759 q 0.125318,-0.17608 0.293466,-0.241118 0.169734,-0.06504 0.310915,-0.06504 0.290293,0 0.539343,0.120559 0.250635,0.120558 0.43306,0.328364 0.182425,0.207805 0.280775,0.467959 0.09835,0.258567 0.09835,0.531411 0,0.387057 -0.172907,0.724939 -0.172907,0.336296 -0.471131,0.537756 -0.298225,0.199874 -0.661488,0.199874 -0.440992,0 -0.650384,-0.421956 z m 1.227798,-0.539342 v -0.864534 q 0,-0.379126 -0.10311,-0.59645 -0.10311,-0.218909 -0.242704,-0.298224 -0.139595,-0.07932 -0.264912,-0.07932 -0.153872,0 -0.298225,0.07297 -0.142767,0.07297 -0.2316,0.198287 -0.08725,0.123732 -0.08725,0.268085 v 1.448293 q 0,0.199874 0.09518,0.360091 0.09676,0.15863 0.245876,0.247463 0.150699,0.08725 0.302984,0.08725 0.236359,0 0.409265,-0.184011 0.174494,-0.184011 0.174494,-0.659901 z m 3.834088,0.545687 0.09042,0.08407 q -0.237946,0.331537 -0.648798,0.331537 -0.415611,0 -0.539342,-0.421956 -0.485408,0.421956 -0.948608,0.421956 -0.339469,0 -0.547274,-0.193528 -0.207806,-0.193529 -0.207806,-0.521893 0,-0.428302 0.379126,-0.674178 0.380713,-0.247463 1.108825,-0.247463 0.142767,0 0.215737,0.0063 v -0.728113 q 0,-0.199874 -0.0809,-0.31726 -0.07932,-0.117386 -0.355332,-0.117386 -0.160216,0 -0.288707,0.03648 -0.126904,0.03648 -0.126904,0.106282 0,0.106282 0.06504,0.220496 0.08407,0.123731 0.08407,0.214151 0,0.15863 -0.09994,0.280775 -0.09994,0.122145 -0.296638,0.122145 -0.18877,0 -0.296638,-0.123731 -0.106282,-0.125318 -0.106282,-0.323606 0,-0.203046 0.161802,-0.352159 0.163389,-0.149112 0.412439,-0.223668 0.249049,-0.07456 0.498098,-0.07456 0.482236,0 0.717008,0.126904 0.234773,0.125318 0.29188,0.291879 0.05711,0.164975 0.05711,0.380712 v 1.689411 q 0,0.214151 0.149112,0.214151 0.07297,0 0.166562,-0.06504 0.09359,-0.06504 0.145939,-0.142768 z m -1.09772,-0.207805 v -0.904192 q -0.372781,0 -0.579,0.06345 -0.204633,0.06187 -0.301397,0.234773 -0.09518,0.172907 -0.09518,0.507616 0,0.448924 0.448923,0.448924 0.06504,0 0.195115,-0.05552 0.130077,-0.05711 0.230014,-0.138008 0.101523,-0.0809 0.101523,-0.157044 z m 1.330908,0.577414 V 86.98049 h 0.09042 q 0.07614,0.206219 0.212564,0.387057 0.138008,0.180838 0.339469,0.296638 0.20146,0.114214 0.448923,0.114214 0.276016,0 0.448923,-0.114214 0.174493,-0.1158 0.174493,-0.288706 0,-0.264913 -0.153871,-0.393403 -0.152285,-0.128491 -0.299811,-0.164975 L 43.18321,86.667988 q -0.663074,-0.184011 -0.663074,-0.851844 0,-0.312501 0.153871,-0.498098 0.153872,-0.187184 0.353746,-0.260154 0.199873,-0.07297 0.363263,-0.07297 0.268084,0 0.507616,0.111041 0.114214,0.05076 0.174493,0.05076 0.114214,0 0.169734,-0.09042 h 0.08407 v 0.766184 h -0.08407 q -0.291879,-0.732872 -0.832808,-0.732872 -0.279189,0 -0.428301,0.13325 -0.149113,0.131663 -0.149113,0.301397 0,0.345814 0.369609,0.455268 l 0.767769,0.239532 q 0.577414,0.184011 0.577414,0.734457 0,0.496513 -0.326778,0.720181 -0.325192,0.222082 -0.732871,0.222082 -0.215737,0 -0.453682,-0.09676 -0.05394,-0.02538 -0.109455,-0.05393 -0.05393,-0.03014 -0.08725,-0.04283 -0.03173,-0.01428 -0.06345,-0.01428 -0.166561,0 -0.234772,0.161803 z m 4.846148,-0.79791 0.111041,0.07138 q -0.242704,0.382298 -0.52348,0.577413 -0.279189,0.195115 -0.651969,0.195115 -0.401335,0 -0.721767,-0.188769 -0.318847,-0.18877 -0.498099,-0.520307 -0.177666,-0.333124 -0.177666,-0.745562 0,-0.412438 0.182425,-0.747148 0.182425,-0.336296 0.483822,-0.521893 0.302983,-0.187183 0.639279,-0.187183 0.285534,0 0.556792,0.118972 0.271257,0.117387 0.461614,0.40768 0.191942,0.290293 0.223668,0.772528 h -1.819487 l 0.0063,0.448924 q 0.0079,0.425128 0.120559,0.726526 0.114213,0.299811 0.515548,0.299811 0.596449,0 1.091375,-0.707491 z m -1.733827,-0.870879 h 1.143723 q 0,-0.03173 0.0032,-0.09677 0.0032,-0.06504 0.0032,-0.09835 0,-0.425129 -0.114214,-0.656729 -0.112627,-0.233186 -0.425129,-0.233186 -0.345813,0 -0.47589,0.218909 -0.12849,0.217324 -0.12849,0.456855 z m 4.106352,-1.013647 h -0.363263 v -0.111041 h 0.363263 v -0.21415 q 0,-0.414025 0.157043,-0.707491 0.157044,-0.293466 0.391817,-0.439405 0.234772,-0.14594 0.458441,-0.14594 0.28712,0 0.461614,0.180838 0.174493,0.180839 0.174493,0.402921 0,0.09676 -0.06345,0.198287 -0.06345,0.101524 -0.209392,0.101524 -0.130077,0 -0.204633,-0.07456 -0.07456,-0.07614 -0.07456,-0.179252 0,-0.08725 0.03173,-0.131663 0.03331,-0.04442 0.104696,-0.107869 0.06504,-0.06504 0.06504,-0.150699 0,-0.0698 -0.08407,-0.1158 -0.08249,-0.046 -0.182424,-0.046 -0.256981,0 -0.323606,0.239531 -0.06663,0.239532 -0.06663,0.677351 v 0.512375 h 0.66942 v 0.111041 h -0.66942 v 2.546014 h 0.409266 V 87.8244 H 49.25816 v -0.111041 h 0.409266 z m 1.513333,1.2738 q 0,-0.358504 0.17132,-0.696386 0.172907,-0.339469 0.49334,-0.54886 0.320433,-0.210978 0.739216,-0.210978 0.415611,0 0.736044,0.212564 0.320433,0.210978 0.496512,0.54886 0.177666,0.336296 0.177666,0.6948 0,0.266499 -0.09994,0.526652 -0.09994,0.258567 -0.285534,0.469545 -0.185597,0.209392 -0.45051,0.33471 -0.263326,0.123731 -0.574241,0.123731 -0.415611,0 -0.736044,-0.209391 -0.320432,-0.210978 -0.494926,-0.547274 -0.172906,-0.336296 -0.172906,-0.697973 z m 0.734457,-0.467959 q -0.0063,0.161803 -0.0063,0.486995 0,0.485408 0.05711,0.76777 0.05711,0.282361 0.204633,0.420369 0.147526,0.136422 0.420369,0.136422 0.2316,0 0.37754,-0.114213 0.14594,-0.114214 0.222082,-0.406093 0.07614,-0.293466 0.07614,-0.8106 0,-0.421957 -0.04442,-0.707491 -0.04442,-0.285534 -0.193528,-0.467959 -0.149113,-0.182424 -0.43782,-0.182424 -0.277602,0 -0.471131,0.218909 -0.191942,0.217324 -0.204633,0.658315 z m 2.352484,1.740173 h 0.409266 V 85.167347 H 54.2677 v -0.111041 h 0.650384 q 0.199874,0 0.394989,-0.03173 v 0.577414 q 0.109455,-0.26174 0.328364,-0.436233 0.220496,-0.174493 0.504444,-0.174493 0.17608,0 0.290293,0.05711 0.114214,0.05552 0.168148,0.14118 0.05393,0.08566 0.05393,0.172907 0,0.18877 -0.09994,0.299811 -0.09835,0.109455 -0.225254,0.109455 -0.147526,0 -0.239532,-0.09042 -0.09042,-0.09201 -0.09042,-0.215737 0,-0.01904 0.0032,-0.05393 0.0032,-0.0349 0.0032,-0.04918 0,-0.07773 -0.03966,-0.09994 -0.03807,-0.02379 -0.123732,-0.02379 -0.131663,0 -0.256981,0.122145 -0.123731,0.122145 -0.199874,0.323605 -0.07614,0.201461 -0.07614,0.425129 v 1.603751 h 0.409266 v 0.111041 H 54.2677 Z"
         id="path16" /><path
         style="line-height:1.8;stroke-width:0.0920903"
         d="m 9.2059049,92.729562 v -2.430213 q 0,-0.252222 -0.1744931,-0.342641 -0.1744932,-0.09201 -0.383885,-0.09201 v -0.123731 h 1.253178 v 0.123731 q -0.2553945,0.0016 -0.3775397,0.08883 -0.1221452,0.08566 -0.1522849,0.203047 -0.028553,0.117386 -0.028553,0.299811 v 3.612008 h -0.046003 l -2.7617505,-3.67704 v 2.890241 q 0,0.180839 0.1253178,0.383885 0.1269041,0.20146 0.4409917,0.20146 v 0.130077 H 5.8397736 V 93.86694 q 0.2664986,0 0.4124384,-0.12849 0.1459397,-0.12849 0.1459397,-0.456855 V 90.20893 q 0,-0.180839 -0.1538712,-0.258567 -0.1538713,-0.07931 -0.3331233,-0.08566 v -0.123731 h 1.0326821 z m 1.1104111,-0.1158 q 0,-0.358504 0.17132,-0.696386 0.172907,-0.339468 0.49334,-0.54886 0.320433,-0.210978 0.739216,-0.210978 0.415611,0 0.736044,0.212564 0.320433,0.210978 0.496512,0.54886 0.177666,0.336296 0.177666,0.6948 0,0.266499 -0.09994,0.526652 -0.09994,0.258568 -0.285534,0.469546 -0.185597,0.209391 -0.45051,0.334709 -0.263326,0.123732 -0.574241,0.123732 -0.415611,0 -0.736043,-0.209392 -0.320433,-0.210978 -0.494926,-0.547274 -0.172907,-0.336296 -0.172907,-0.697973 z m 0.734457,-0.467958 q -0.0063,0.161802 -0.0063,0.486994 0,0.485408 0.05711,0.76777 0.05711,0.282361 0.204633,0.42037 0.147526,0.136422 0.42037,0.136422 0.2316,0 0.377539,-0.114214 0.14594,-0.114214 0.222082,-0.406093 0.07614,-0.293466 0.07614,-0.8106 0,-0.421956 -0.04442,-0.707491 -0.04442,-0.285534 -0.193529,-0.467958 -0.149113,-0.182425 -0.437819,-0.182425 -0.277603,0 -0.471132,0.21891 -0.191942,0.217323 -0.204633,0.658315 z m 2.761751,-0.805841 h -0.409266 v -0.111042 h 0.650384 q 0.180838,0 0.394989,-0.03173 v 0.409266 q 0.252222,-0.266498 0.458441,-0.36009 0.206219,-0.09518 0.458441,-0.09518 0.366435,0 0.604381,0.172907 0.239531,0.172906 0.239531,0.483821 v 2.078055 h 0.409266 v 0.111041 H 15.210055 V 93.88597 h 0.363263 v -2.078055 q 0,-0.474304 -0.421956,-0.474304 -0.177666,0 -0.337882,0.08883 -0.15863,0.08883 -0.364849,0.339469 v 2.124057 h 0.364849 v 0.111041 h -1.410222 v -0.111041 h 0.409266 z m 3.372476,1.47526 v -0.293466 h 1.370564 v 0.293466 z m 2.598361,1.051717 v -4.002238 h -0.499684 v -0.123731 h 1.729068 v 0.123731 h -0.501271 v 4.002238 h 0.501271 v 0.130077 H 19.283677 V 93.86694 Z m 2.041571,-2.526977 h -0.409266 v -0.111042 h 0.650383 q 0.180839,0 0.394989,-0.03173 v 0.409266 q 0.252222,-0.266498 0.458442,-0.36009 0.206219,-0.09518 0.458441,-0.09518 0.366435,0 0.60438,0.172907 0.239532,0.172906 0.239532,0.483821 v 2.078055 h 0.409266 v 0.111041 H 23.222463 V 93.88597 h 0.363263 v -2.078055 q 0,-0.474304 -0.421956,-0.474304 -0.177666,0 -0.337882,0.08883 -0.15863,0.08883 -0.36485,0.339469 v 2.124057 h 0.36485 v 0.111041 h -1.410222 v -0.111041 h 0.409266 z m 5.015883,2.657054 v -0.350572 q -0.242704,0.421956 -0.656728,0.421956 -0.307743,0 -0.60914,-0.171321 -0.299811,-0.17132 -0.494926,-0.504444 -0.195115,-0.333123 -0.195115,-0.786805 0,-0.272844 0.09994,-0.534584 0.09994,-0.261739 0.279189,-0.466372 0.180838,-0.204633 0.429888,-0.325192 0.249049,-0.122145 0.536169,-0.122145 0.379126,0 0.610726,0.306156 V 89.871048 H 26.43155 v -0.111042 h 0.650383 q 0.24905,0 0.394989,-0.03807 v 4.164041 h 0.409266 v 0.111041 z m -1.234142,-1.754449 0.0063,0.864534 q 0,0.296638 0.109455,0.571069 0.111041,0.272843 0.47589,0.272843 0.233187,0 0.43782,-0.196701 0.204632,-0.196701 0.204632,-0.498099 v -1.246832 q 0,-0.740803 -0.617071,-0.740803 -0.203046,0 -0.410852,0.206219 -0.206219,0.206219 -0.206219,0.76777 z m 2.520633,1.643408 h 0.409266 v -2.546013 h -0.409266 v -0.111042 h 0.642452 q 0.207806,0 0.402921,-0.03173 v 2.688781 h 0.409266 v 0.111041 h -1.454639 z m 0.350573,-3.708772 q 0,-0.155458 0.112627,-0.260154 0.112628,-0.104696 0.250636,-0.104696 0.144353,0 0.253808,0.10311 0.111041,0.101523 0.111041,0.26174 0,0.15863 -0.111041,0.261739 -0.111041,0.101524 -0.253808,0.101524 -0.136422,0 -0.250636,-0.104696 -0.112627,-0.104696 -0.112627,-0.258567 z m 2.033639,4.25446 q -0.195115,0.177665 -0.195115,0.352159 0,0.20146 0.14594,0.356917 0.145939,0.155458 0.529824,0.155458 0.531411,0 0.856603,-0.276017 0.326778,-0.276016 0.326778,-0.613898 0,-0.203047 -0.155458,-0.26174 -0.153871,-0.05711 -0.436232,-0.05711 -0.149113,0 -0.423543,0.02221 -0.272844,0.02379 -0.414024,0.02379 -0.368022,-0.0048 -0.626589,-0.164975 -0.258568,-0.160217 -0.258568,-0.485408 0,-0.288707 0.164976,-0.45051 0.164975,-0.163389 0.374367,-0.217323 -0.185597,-0.118973 -0.27443,-0.314088 -0.08883,-0.195115 -0.08883,-0.407679 0,-0.461614 0.339468,-0.697973 0.339469,-0.237945 0.726526,-0.237945 0.309329,0 0.598036,0.176079 0.02062,-0.193528 0.15863,-0.344227 0.138008,-0.150699 0.341055,-0.150699 0.161802,0 0.295052,0.09518 0.133249,0.09518 0.133249,0.263326 0,0.142768 -0.07456,0.201461 -0.07297,0.05711 -0.15863,0.05711 -0.247463,0 -0.247463,-0.29188 0,-0.01586 0.0032,-0.04442 0.0032,-0.02855 0.0032,-0.03966 0,-0.08407 -0.08407,-0.08407 -0.07773,0 -0.163389,0.107869 -0.08407,0.106282 -0.10311,0.301397 0.168148,0.107868 0.255395,0.307742 0.08883,0.198288 0.08883,0.399748 0,0.222082 -0.122145,0.437819 -0.122146,0.215737 -0.360091,0.353746 -0.236359,0.138008 -0.556791,0.138008 -0.344228,0 -0.598036,-0.149113 -0.180838,0.01745 -0.282362,0.09042 -0.101523,0.07297 -0.101523,0.155457 0,0.179252 0.07932,0.279189 0.07932,0.09835 0.337882,0.09835 0.212565,-0.0032 0.539343,-0.0238 0.328364,-0.02221 0.539342,-0.02855 h 0.180838 q 0.317261,0.01428 0.501272,0.172907 0.184011,0.15863 0.207805,0.431474 v 0.182424 q -0.02538,0.271258 -0.209392,0.53617 -0.182424,0.266499 -0.520306,0.439406 -0.336296,0.174493 -0.791565,0.174493 -0.423542,0 -0.690041,-0.111041 -0.264912,-0.111041 -0.382298,-0.283948 -0.1158,-0.172907 -0.1158,-0.36485 0,-0.225254 0.131663,-0.3474 0.131663,-0.120558 0.283948,-0.120558 0.09201,0 0.174493,0.07138 0.08407,0.07297 0.117386,0.187184 z m 1.007301,-2.046329 v -0.552033 q -0.01428,-0.237945 -0.122145,-0.382298 -0.106282,-0.144354 -0.28712,-0.144354 -0.169735,0 -0.301398,0.112628 -0.130076,0.112627 -0.141181,0.414024 v 0.507617 q 0.05076,0.564723 0.436233,0.564723 0.383885,0 0.415611,-0.520307 z m 3.715117,0.839153 0.111041,0.07138 q -0.242704,0.382299 -0.523479,0.577414 -0.279189,0.195115 -0.65197,0.195115 -0.401334,0 -0.721767,-0.18877 -0.318847,-0.18877 -0.498099,-0.520307 -0.177665,-0.333123 -0.177665,-0.745562 0,-0.412438 0.182424,-0.747147 0.182425,-0.336296 0.483822,-0.521894 0.302984,-0.187183 0.63928,-0.187183 0.285534,0 0.556791,0.118972 0.271258,0.117387 0.461614,0.40768 0.191942,0.290293 0.223668,0.772529 h -1.819487 l 0.0063,0.448923 q 0.0079,0.425129 0.120559,0.726526 0.114214,0.299811 0.515548,0.299811 0.596449,0 1.091375,-0.707491 z m -1.733827,-0.870879 h 1.143723 q 0,-0.03173 0.0032,-0.09676 0.0032,-0.06504 0.0032,-0.09835 0,-0.425129 -0.114213,-0.656729 -0.112628,-0.233186 -0.425129,-0.233186 -0.345814,0 -0.47589,0.21891 -0.128491,0.217323 -0.128491,0.456854 z m 2.526978,-1.013646 h -0.409266 v -0.111042 h 0.650384 q 0.180838,0 0.394989,-0.03173 v 0.409266 q 0.252221,-0.266498 0.458441,-0.36009 0.206219,-0.09518 0.458441,-0.09518 0.366435,0 0.60438,0.172907 0.239532,0.172906 0.239532,0.483821 v 2.078055 h 0.409266 v 0.111041 H 37.424618 V 93.88597 h 0.363263 v -2.078055 q 0,-0.474304 -0.421956,-0.474304 -0.177666,0 -0.337882,0.08883 -0.15863,0.08883 -0.364849,0.339469 v 2.124057 h 0.364849 v 0.111041 h -1.410222 v -0.111041 h 0.409266 z m 3.059975,1.273799 q 0,-0.358504 0.171321,-0.696386 0.172906,-0.339468 0.493339,-0.54886 0.320433,-0.210978 0.739217,-0.210978 0.415611,0 0.736043,0.212564 0.320433,0.210978 0.496513,0.54886 0.177665,0.336296 0.177665,0.6948 0,0.266499 -0.09994,0.526652 -0.09994,0.258568 -0.285534,0.469546 -0.185597,0.209391 -0.450509,0.334709 -0.263326,0.123732 -0.574241,0.123732 -0.415611,0 -0.736044,-0.209392 -0.320433,-0.210978 -0.494926,-0.547274 -0.172907,-0.336296 -0.172907,-0.697973 z m 0.734458,-0.467958 q -0.0063,0.161802 -0.0063,0.486994 0,0.485408 0.05711,0.76777 0.05711,0.282361 0.204633,0.42037 0.147526,0.136422 0.42037,0.136422 0.2316,0 0.37754,-0.114214 0.145939,-0.114214 0.222082,-0.406093 0.07614,-0.293466 0.07614,-0.8106 0,-0.421956 -0.04442,-0.707491 -0.04442,-0.285534 -0.193529,-0.467958 -0.149112,-0.182425 -0.437819,-0.182425 -0.277603,0 -0.471132,0.21891 -0.191942,0.217323 -0.204632,0.658315 z m 5.139615,1.740172 h 0.409266 v 0.111041 h -1.045373 v -0.369608 q -0.391816,0.453682 -0.910537,0.453682 -0.353745,0 -0.544101,-0.131663 -0.18877,-0.133249 -0.247463,-0.31726 -0.05869,-0.185597 -0.05869,-0.40768 v -1.884525 h -0.409266 v -0.111042 h 0.648797 q 0.182425,0 0.396576,-0.03173 v 2.220822 q 0,0.298225 0.144353,0.387058 0.144354,0.08725 0.283948,0.08725 0.388644,0 0.696386,-0.428301 v -2.124057 h -0.364849 v -0.111042 h 0.604381 q 0.214151,0 0.396575,-0.03173 z m 0.663075,0.136422 v -0.869293 h 0.09042 q 0.07614,0.206219 0.212564,0.387057 0.138008,0.180839 0.339469,0.296639 0.20146,0.114213 0.448923,0.114213 0.276016,0 0.448923,-0.114213 0.174493,-0.1158 0.174493,-0.288707 0,-0.264912 -0.153871,-0.393403 -0.152285,-0.12849 -0.299811,-0.164975 l -0.526652,-0.149112 q -0.663074,-0.184011 -0.663074,-0.851844 0,-0.312502 0.153871,-0.498099 0.153872,-0.187183 0.353746,-0.260153 0.199873,-0.07297 0.363263,-0.07297 0.268084,0 0.507616,0.111041 0.114214,0.05076 0.174493,0.05076 0.114214,0 0.169734,-0.09042 h 0.08407 v 0.766184 h -0.08407 q -0.291879,-0.732871 -0.832808,-0.732871 -0.279189,0 -0.428301,0.133249 -0.149113,0.131663 -0.149113,0.301397 0,0.345814 0.369609,0.455269 l 0.767769,0.239531 q 0.577414,0.184011 0.577414,0.734458 0,0.496512 -0.326778,0.720181 -0.325192,0.222082 -0.732871,0.222082 -0.215737,0 -0.453682,-0.09676 -0.05394,-0.02538 -0.109455,-0.05393 -0.05393,-0.03014 -0.08725,-0.04283 -0.03173,-0.01428 -0.06345,-0.01428 -0.166561,0 -0.234772,0.161803 z m 4.106352,-0.02538 -0.01269,-1.357874 h 0.08407 q 0.301397,0.750321 0.715422,1.024751 0.415611,0.27443 0.831222,0.27443 0.375953,0 0.645624,-0.215737 0.271258,-0.215737 0.271258,-0.563137 0,-0.678937 -0.696386,-0.870879 l -0.766184,-0.207806 q -0.923227,-0.253808 -0.923227,-1.307112 0,-0.299811 0.142767,-0.553619 0.142767,-0.253808 0.398162,-0.401334 0.25698,-0.149113 0.571068,-0.149113 0.255395,0 0.388644,0.03173 0.134835,0.03014 0.247463,0.09201 0.114214,0.06187 0.187183,0.08725 0.07456,0.02379 0.24905,0.02379 0.07138,0 0.149112,-0.163389 h 0.10311 l 0.02697,1.026337 h -0.09201 q -0.429887,-0.980334 -1.240487,-0.980334 -0.382299,0 -0.604381,0.225254 -0.220496,0.225255 -0.220496,0.540929 0,0.277603 0.133249,0.442578 0.13325,0.164975 0.290293,0.234773 0.157044,0.06821 0.375954,0.12849 l 0.663074,0.17608 q 0.407679,0.107868 0.623416,0.333123 0.215737,0.225255 0.279189,0.460027 0.06504,0.234773 0.06504,0.460028 0,0.31726 -0.134836,0.613898 -0.133249,0.295052 -0.406093,0.480649 -0.272844,0.185598 -0.655143,0.185598 -0.523479,0 -0.967643,-0.214151 -0.230014,-0.104696 -0.29188,-0.104696 -0.112627,0 -0.185597,0.06663 -0.07297,0.06662 -0.08725,0.180838 z M 54.0453,91.197195 v 0.388644 q 0.09201,-0.193529 0.26174,-0.310915 0.169734,-0.117386 0.388644,-0.117386 0.302983,0 0.605967,0.172907 0.302983,0.172907 0.501271,0.507616 0.198288,0.333123 0.198288,0.782047 0,0.269671 -0.09835,0.528238 -0.09676,0.258567 -0.282362,0.469545 -0.184011,0.209392 -0.434646,0.329951 -0.24905,0.120559 -0.53617,0.120559 -0.40768,0 -0.604381,-0.312502 v 1.514918 h 0.409266 v 0.109455 h -1.454638 v -0.109455 h 0.409265 v -3.930854 h -0.409265 v -0.111042 h 0.642452 q 0.207805,0 0.40292,-0.03173 z m 1.227797,1.792521 v -0.864534 q 0,-0.843913 -0.583759,-0.843913 -0.182424,0 -0.331537,0.09677 -0.147526,0.09676 -0.230013,0.256981 -0.08249,0.15863 -0.08249,0.334709 v 1.448293 q 0,0.21891 0.190356,0.383885 0.190356,0.163389 0.426715,0.163389 0.237945,0 0.423543,-0.215737 0.187183,-0.215737 0.187183,-0.759838 z m 3.475585,0.234772 0.111041,0.07138 q -0.242704,0.382299 -0.523479,0.577414 -0.279189,0.195115 -0.65197,0.195115 -0.401334,0 -0.721767,-0.18877 -0.318847,-0.18877 -0.498099,-0.520307 -0.177666,-0.333123 -0.177666,-0.745562 0,-0.412438 0.182425,-0.747147 0.182425,-0.336296 0.483822,-0.521894 0.302983,-0.187183 0.639279,-0.187183 0.285535,0 0.556792,0.118972 0.271258,0.117387 0.461614,0.40768 0.191942,0.290293 0.223668,0.772529 h -1.819487 l 0.0063,0.448923 q 0.0079,0.425129 0.120559,0.726526 0.114213,0.299811 0.515548,0.299811 0.596449,0 1.091375,-0.707491 z m -1.733827,-0.870879 h 1.143723 q 0,-0.03173 0.0032,-0.09676 0.0032,-0.06504 0.0032,-0.09835 0,-0.425129 -0.114214,-0.656729 -0.112627,-0.233186 -0.425128,-0.233186 -0.345814,0 -0.475891,0.21891 -0.12849,0.217323 -0.12849,0.456854 z m 4.424196,0.921641 0.104696,0.046 q -0.279189,0.747148 -0.975576,0.747148 -0.42037,0 -0.747148,-0.199874 -0.325191,-0.199874 -0.501271,-0.534584 -0.174493,-0.336296 -0.174493,-0.720181 0,-0.32995 0.160216,-0.669419 0.160217,-0.339468 0.483822,-0.563137 0.323606,-0.223668 0.778874,-0.223668 0.272844,0 0.491754,0.09676 0.220496,0.09518 0.341054,0.252222 0.122146,0.155458 0.122146,0.326778 0,0.190356 -0.107869,0.306156 -0.106282,0.1158 -0.26174,0.1158 -0.179252,0 -0.291879,-0.1158 -0.111041,-0.117386 -0.111041,-0.28712 0,-0.05711 0.03807,-0.149112 0.03173,-0.0809 0.09042,-0.157044 0.06028,-0.07773 0.06028,-0.1158 0,-0.05711 -0.08883,-0.112628 -0.08725,-0.05552 -0.263326,-0.05552 -0.198288,0 -0.348986,0.05393 -0.149113,0.05393 -0.256981,0.260153 -0.107869,0.20622 -0.107869,0.613899 v 0.818531 q 0,0.453683 0.152285,0.697973 0.152285,0.24429 0.561551,0.24429 0.315674,0 0.515548,-0.166561 0.199874,-0.168148 0.336296,-0.509203 z m 0.377539,0.610726 h 0.409265 V 91.339963 H 61.81659 v -0.111042 h 0.642452 q 0.207805,0 0.40292,-0.03173 v 2.688781 h 0.409266 v 0.111041 H 61.81659 Z m 0.350572,-3.708772 q 0,-0.155458 0.112628,-0.260154 0.112627,-0.104696 0.250635,-0.104696 0.144354,0 0.253808,0.10311 0.111042,0.101523 0.111042,0.26174 0,0.15863 -0.111042,0.261739 -0.111041,0.101524 -0.253808,0.101524 -0.136422,0 -0.250635,-0.104696 -0.112628,-0.104696 -0.112628,-0.258567 z m 3.819813,3.047284 0.111041,0.07138 q -0.242704,0.382299 -0.52348,0.577414 -0.279189,0.195115 -0.65197,0.195115 -0.401334,0 -0.721767,-0.18877 -0.318846,-0.18877 -0.498098,-0.520307 -0.177666,-0.333123 -0.177666,-0.745562 0,-0.412438 0.182425,-0.747147 0.182424,-0.336296 0.483822,-0.521894 0.302983,-0.187183 0.639279,-0.187183 0.285534,0 0.556792,0.118972 0.271257,0.117387 0.461613,0.40768 0.191943,0.290293 0.223669,0.772529 h -1.819488 l 0.0063,0.448923 q 0.0079,0.425129 0.120558,0.726526 0.114214,0.299811 0.515548,0.299811 0.59645,0 1.091376,-0.707491 z m -1.733828,-0.870879 h 1.143724 q 0,-0.03173 0.0032,-0.09676 0.0032,-0.06504 0.0032,-0.09835 0,-0.425129 -0.114214,-0.656729 -0.112627,-0.233186 -0.425129,-0.233186 -0.345813,0 -0.47589,0.21891 -0.12849,0.217323 -0.12849,0.456854 z m 2.130405,1.668789 v -0.869293 h 0.09042 q 0.07614,0.206219 0.212564,0.387057 0.138009,0.180839 0.339469,0.296639 0.20146,0.114213 0.448923,0.114213 0.276016,0 0.448923,-0.114213 0.174493,-0.1158 0.174493,-0.288707 0,-0.264912 -0.153871,-0.393403 -0.152285,-0.12849 -0.299811,-0.164975 L 67.11801,92.840604 q -0.663074,-0.184011 -0.663074,-0.851844 0,-0.312502 0.153872,-0.498099 0.153871,-0.187183 0.353745,-0.260153 0.199874,-0.07297 0.363263,-0.07297 0.268085,0 0.507616,0.111041 0.114214,0.05076 0.174493,0.05076 0.114214,0 0.169734,-0.09042 h 0.08407 v 0.766184 h -0.08407 q -0.291879,-0.732871 -0.832808,-0.732871 -0.279189,0 -0.428301,0.133249 -0.149112,0.131663 -0.149112,0.301397 0,0.345814 0.369608,0.455269 l 0.76777,0.239531 q 0.577413,0.184011 0.577413,0.734458 0,0.496512 -0.326778,0.720181 -0.325192,0.222082 -0.732871,0.222082 -0.215737,0 -0.453682,-0.09676 -0.05393,-0.02538 -0.109455,-0.05393 -0.05393,-0.03014 -0.08725,-0.04283 -0.03173,-0.01428 -0.06345,-0.01428 -0.166562,0 -0.234773,0.161803 z m 3.963581,-1.408636 q 0,-0.358504 0.17132,-0.696386 0.172907,-0.339468 0.49334,-0.54886 0.320433,-0.210978 0.739216,-0.210978 0.415611,0 0.736044,0.212564 0.320433,0.210978 0.496513,0.54886 0.177665,0.336296 0.177665,0.6948 0,0.266499 -0.09994,0.526652 -0.09994,0.258568 -0.285534,0.469546 -0.185597,0.209391 -0.450509,0.334709 -0.263327,0.123732 -0.574242,0.123732 -0.41561,0 -0.736043,-0.209392 Q 70.69453,93.648031 70.520037,93.311735 70.34713,92.975439 70.34713,92.613762 Z m 0.734457,-0.467958 q -0.0063,0.161802 -0.0063,0.486994 0,0.485408 0.05711,0.76777 0.05711,0.282361 0.204633,0.42037 0.147526,0.136422 0.42037,0.136422 0.2316,0 0.377539,-0.114214 0.14594,-0.114214 0.222083,-0.406093 0.07614,-0.293466 0.07614,-0.8106 0,-0.421956 -0.04442,-0.707491 -0.04442,-0.285534 -0.193529,-0.467958 -0.149113,-0.182425 -0.437819,-0.182425 -0.277603,0 -0.471132,0.21891 -0.191942,0.217323 -0.204633,0.658315 z m 2.76175,-0.805841 h -0.409265 v -0.111042 h 0.650383 q 0.180839,0 0.394989,-0.03173 v 0.409266 q 0.252222,-0.266498 0.458441,-0.36009 0.206219,-0.09518 0.458441,-0.09518 0.366436,0 0.604381,0.172907 0.239532,0.172906 0.239532,0.483821 v 2.078055 h 0.409265 v 0.111041 H 75.240872 V 93.88597 h 0.363263 v -2.078055 q 0,-0.474304 -0.421956,-0.474304 -0.177666,0 -0.337882,0.08883 -0.158631,0.08883 -0.36485,0.339469 v 2.124057 h 0.36485 v 0.111041 h -1.410222 v -0.111041 h 0.409265 z m 5.672034,-0.142768 v 0.409266 q 0.223669,-0.250635 0.426715,-0.348986 0.203047,-0.09994 0.425129,-0.09994 0.314087,0 0.512375,0.130077 0.198288,0.12849 0.247463,0.344227 0.404507,-0.474304 0.877225,-0.474304 0.353745,0 0.569482,0.174493 0.217323,0.172907 0.217323,0.47589 v 2.078055 h 0.409266 v 0.111041 H 81.79013 v -0.111041 h 0.363263 v -2.078055 q 0,-0.474304 -0.363263,-0.474304 -0.193529,0 -0.337882,0.112628 -0.142767,0.111041 -0.298225,0.315674 v 2.124057 h 0.363263 v 0.111041 h -1.364219 v -0.111041 h 0.363263 v -2.078055 q 0,-0.474304 -0.363263,-0.474304 -0.320433,0 -0.637693,0.428302 v 2.124057 h 0.364849 v 0.111041 h -1.410221 v -0.111041 h 0.409265 V 91.33996 h -0.409265 v -0.111042 h 0.650383 q 0.180838,0 0.394989,-0.03173 z m 6.757641,2.455595 0.09042,0.08407 q -0.237945,0.331537 -0.648797,0.331537 -0.415611,0 -0.539343,-0.421956 -0.485408,0.421956 -0.948608,0.421956 -0.339468,0 -0.547274,-0.193529 -0.207805,-0.193529 -0.207805,-0.521893 0,-0.428302 0.379126,-0.674178 0.380712,-0.247463 1.108824,-0.247463 0.142767,0 0.215737,0.0063 v -0.728112 q 0,-0.199874 -0.0809,-0.317261 -0.07931,-0.117386 -0.355332,-0.117386 -0.160216,0 -0.288706,0.03648 -0.126905,0.03648 -0.126905,0.106282 0,0.106282 0.06504,0.220496 0.08407,0.123732 0.08407,0.214151 0,0.15863 -0.09994,0.280775 -0.09994,0.122145 -0.296639,0.122145 -0.188769,0 -0.296638,-0.123731 -0.106282,-0.125318 -0.106282,-0.323606 0,-0.203046 0.161803,-0.352158 0.163389,-0.149113 0.412438,-0.223669 0.249049,-0.07456 0.498099,-0.07456 0.482235,0 0.717008,0.126904 0.234772,0.125318 0.291879,0.291879 0.05711,0.164976 0.05711,0.380713 v 1.689411 q 0,0.21415 0.149112,0.21415 0.07297,0 0.166562,-0.06504 0.09359,-0.06504 0.14594,-0.142767 z m -1.097721,-0.207806 v -0.904191 q -0.372781,0 -0.579,0.06345 -0.204633,0.06186 -0.301397,0.234772 -0.09518,0.172907 -0.09518,0.507617 0,0.448923 0.448923,0.448923 0.06504,0 0.195115,-0.05552 0.130077,-0.05711 0.230014,-0.138008 0.101523,-0.0809 0.101523,-0.157044 z m 1.318221,0.440992 h 0.409266 v -2.546013 h -0.409266 v -0.111042 h 0.650384 q 0.199874,0 0.394989,-0.03173 v 0.577414 q 0.109455,-0.26174 0.328364,-0.436233 0.220496,-0.174493 0.504444,-0.174493 0.176079,0 0.290293,0.05711 0.114214,0.05552 0.168148,0.141181 0.05393,0.08566 0.05393,0.172907 0,0.188769 -0.09994,0.299811 -0.09835,0.109454 -0.225254,0.109454 -0.147526,0 -0.239532,-0.09042 -0.09042,-0.09201 -0.09042,-0.215737 0,-0.01904 0.0032,-0.05393 0.0032,-0.0349 0.0032,-0.04918 0,-0.07773 -0.03966,-0.09994 -0.03807,-0.0238 -0.123732,-0.0238 -0.131663,0 -0.256981,0.122145 -0.123731,0.122145 -0.199874,0.323606 -0.07614,0.20146 -0.07614,0.425128 v 1.603751 H 87.9482 v 0.111041 h -1.454639 z m 2.566635,0 h 0.409266 V 91.339963 H 89.06015 v -0.111042 h 0.642452 q 0.207806,0 0.402921,-0.03173 v 2.688781 h 0.409266 v 0.111041 H 89.06015 Z m 0.350573,-3.708772 q 0,-0.155458 0.112627,-0.260154 0.112628,-0.104696 0.250636,-0.104696 0.144353,0 0.253808,0.10311 0.111041,0.101523 0.111041,0.26174 0,0.15863 -0.111041,0.261739 -0.111041,0.101524 -0.253808,0.101524 -0.136422,0 -0.250636,-0.104696 -0.112627,-0.104696 -0.112627,-0.258567 z m 1.754448,1.162759 h -0.409266 v -0.111042 h 0.650384 q 0.180838,0 0.394989,-0.03173 v 0.409266 q 0.252222,-0.266498 0.458441,-0.36009 0.206219,-0.09518 0.458441,-0.09518 0.366436,0 0.604381,0.172907 0.239531,0.172906 0.239531,0.483821 v 2.078055 h 0.409266 v 0.111041 H 92.562703 V 93.88597 h 0.363263 v -2.078055 q 0,-0.474304 -0.421957,-0.474304 -0.177665,0 -0.337882,0.08883 -0.15863,0.08883 -0.364849,0.339469 v 2.124057 h 0.364849 v 0.111041 h -1.410222 v -0.111041 h 0.409266 z m 5.521915,1.884525 0.111041,0.07138 q -0.242704,0.382299 -0.523479,0.577414 -0.279189,0.195115 -0.65197,0.195115 -0.401334,0 -0.721767,-0.18877 -0.318847,-0.18877 -0.498099,-0.520307 -0.177666,-0.333123 -0.177666,-0.745562 0,-0.412438 0.182425,-0.747147 0.182425,-0.336296 0.483822,-0.521894 0.302984,-0.187183 0.639279,-0.187183 0.285535,0 0.556792,0.118972 0.271258,0.117387 0.461614,0.40768 0.191942,0.290293 0.223668,0.772529 h -1.819487 l 0.0063,0.448923 q 0.0079,0.425129 0.120559,0.726526 0.114214,0.299811 0.515548,0.299811 0.596449,0 1.091375,-0.707491 z m -1.733827,-0.870879 h 1.143723 q 0,-0.03173 0.0032,-0.09676 0.0032,-0.06504 0.0032,-0.09835 0,-0.425129 -0.114214,-0.656729 -0.112627,-0.233186 -0.425128,-0.233186 -0.345814,0 -0.475891,0.21891 -0.12849,0.217323 -0.12849,0.456854 z m 3.839853,-2.612638 h 1.897218 q 0.81218,0 1.31346,0.345814 0.50127,0.344227 0.70749,0.829635 0.2078,0.485408 0.2078,0.935918 0,0.598035 -0.26808,1.089789 -0.2665,0.491753 -0.73922,0.774115 -0.47113,0.280775 -1.04537,0.280775 H 98.793112 V 93.86694 h 0.499685 v -4.002238 h -0.499685 z m 1.227798,4.125969 h 0.87722 q 0.21733,0 0.47748,-0.111041 0.26174,-0.111041 0.49334,-0.545687 0.2316,-0.436233 0.2316,-1.299181 0,-0.607553 -0.0872,-1.002542 -0.0857,-0.396576 -0.25698,-0.625003 -0.17132,-0.228427 -0.42513,-0.323606 -0.2538,-0.09518 -0.61548,-0.09518 h -0.6948 z m 5.77572,-0.642452 0.11104,0.07138 q -0.2427,0.382299 -0.52348,0.577414 -0.27919,0.195115 -0.65197,0.195115 -0.40133,0 -0.72177,-0.18877 -0.31884,-0.18877 -0.49809,-0.520307 -0.17767,-0.333123 -0.17767,-0.745562 0,-0.412438 0.18242,-0.747147 0.18243,-0.336296 0.48383,-0.521894 0.30298,-0.187183 0.63928,-0.187183 0.28553,0 0.55679,0.118972 0.27125,0.117387 0.46161,0.40768 0.19194,0.290293 0.22367,0.772529 h -1.81949 l 0.006,0.448923 q 0.008,0.425129 0.12056,0.726526 0.11421,0.299811 0.51554,0.299811 0.59645,0 1.09138,-0.707491 z m -1.73383,-0.870879 h 1.14372 q 0,-0.03173 0.003,-0.09676 0.003,-0.06504 0.003,-0.09835 0,-0.425129 -0.11421,-0.656729 -0.11263,-0.233186 -0.42513,-0.233186 -0.34582,0 -0.47589,0.21891 -0.12849,0.217323 -0.12849,0.456854 z m 3.14405,1.292836 v 0.350572 h -1.04537 v -0.111041 h 0.40926 v -4.014928 h -0.40926 v -0.111042 h 0.64245 q 0.26967,0 0.40292,-0.03807 v 1.741759 q 0.12532,-0.176079 0.29346,-0.241118 0.16974,-0.06504 0.31092,-0.06504 0.29029,0 0.53934,0.120559 0.25064,0.120559 0.43306,0.328364 0.18243,0.207806 0.28078,0.467959 0.0984,0.258567 0.0984,0.531411 0,0.387057 -0.17291,0.72494 -0.17291,0.336295 -0.47113,0.537756 -0.29822,0.199874 -0.66149,0.199874 -0.44099,0 -0.65038,-0.421956 z m 1.2278,-0.539343 v -0.864534 q 0,-0.379126 -0.10311,-0.596449 -0.10311,-0.21891 -0.24271,-0.298225 -0.13959,-0.07931 -0.26491,-0.07931 -0.15387,0 -0.29822,0.07297 -0.14277,0.07297 -0.2316,0.198287 -0.0872,0.123732 -0.0872,0.268085 v 1.448293 q 0,0.199874 0.0952,0.360091 0.0968,0.15863 0.24587,0.247463 0.1507,0.08725 0.30299,0.08725 0.23636,0 0.40926,-0.184011 0.1745,-0.18401 0.1745,-0.659901 z m 1.00096,0.778874 h 0.40926 v -2.546013 h -0.40926 v -0.111042 h 0.65038 q 0.19988,0 0.39499,-0.03173 v 0.577414 q 0.10946,-0.26174 0.32837,-0.436233 0.22049,-0.174493 0.50444,-0.174493 0.17608,0 0.29029,0.05711 0.11422,0.05552 0.16815,0.141181 0.0539,0.08566 0.0539,0.172907 0,0.188769 -0.0999,0.299811 -0.0983,0.109454 -0.22526,0.109454 -0.14752,0 -0.23953,-0.09042 -0.0904,-0.09201 -0.0904,-0.215737 0,-0.01904 0.003,-0.05393 0.003,-0.0349 0.003,-0.04918 0,-0.07773 -0.0397,-0.09994 -0.0381,-0.0238 -0.12373,-0.0238 -0.13167,0 -0.25698,0.122145 -0.12373,0.122145 -0.19988,0.323606 -0.0761,0.20146 -0.0761,0.425128 v 1.603751 h 0.40927 v 0.111041 h -1.45464 z m 2.56663,0 h 0.40927 v -2.546013 h -0.40927 v -0.111042 h 0.64246 q 0.2078,0 0.40292,-0.03173 v 2.688781 h 0.40926 v 0.111041 h -1.45464 z m 0.35058,-3.708772 q 0,-0.155458 0.11262,-0.260154 0.11263,-0.104696 0.25064,-0.104696 0.14435,0 0.25381,0.10311 0.11104,0.101523 0.11104,0.26174 0,0.15863 -0.11104,0.261739 -0.11104,0.101524 -0.25381,0.101524 -0.13642,0 -0.25064,-0.104696 -0.11262,-0.104696 -0.11262,-0.258567 z m 1.35787,3.845194 v -0.869293 h 0.0904 q 0.0761,0.206219 0.21256,0.387057 0.13801,0.180839 0.33947,0.296639 0.20146,0.114213 0.44892,0.114213 0.27602,0 0.44893,-0.114213 0.17449,-0.1158 0.17449,-0.288707 0,-0.264912 -0.15387,-0.393403 -0.15229,-0.12849 -0.29981,-0.164975 l -0.52665,-0.149112 q -0.66308,-0.184011 -0.66308,-0.851844 0,-0.312502 0.15387,-0.498099 0.15387,-0.187183 0.35375,-0.260153 0.19987,-0.07297 0.36326,-0.07297 0.26809,0 0.50762,0.111041 0.11421,0.05076 0.17449,0.05076 0.11421,0 0.16974,-0.09042 h 0.0841 v 0.766184 h -0.0841 q -0.29188,-0.732871 -0.83281,-0.732871 -0.27919,0 -0.4283,0.133249 -0.14912,0.131663 -0.14912,0.301397 0,0.345814 0.36961,0.455269 l 0.76777,0.239531 q 0.57742,0.184011 0.57742,0.734458 0,0.496512 -0.32678,0.720181 -0.32519,0.222082 -0.73287,0.222082 -0.21574,0 -0.45369,-0.09676 -0.0539,-0.02538 -0.10945,-0.05393 -0.0539,-0.03014 -0.0873,-0.04283 -0.0317,-0.01428 -0.0634,-0.01428 -0.16656,0 -0.23477,0.161803 z"
         id="path17" /></g><path
       id="rect84"
       style="fill:#93aca7;stroke:#000000;stroke-width:0.0920904;stroke-linecap:round;stroke-linejoin:round;stroke-miterlimit:50"
       transform="skewY(-0.08038073)"
       d="M 8.4177914,55.982117 H 18.63623 V 68.471279 H 8.4177914 Z" /><path
       style="display:inline;fill:#93aca7;fill-opacity:1;stroke:#000000;stroke-width:0.0920903;stroke-linecap:round;stroke-linejoin:round;stroke-miterlimit:50;stroke-dasharray:none;stroke-opacity:1;paint-order:normal"
       d="m 35.596911,46.4365 c 0,0 -13.051264,-0.12143 -14.394506,-0.04743 -3.774652,0.207925 -5.253825,10.050795 -5.253825,10.050795 l 0.03236,12.131388 c 0,0 1.546116,9.549787 4.869462,9.523237 3.449781,-0.02755 15.084381,2e-6 15.084381,2e-6 z"
       id="path80" /><path
       id="rect32"
       style="display:inline;fill:#93aca7;stroke:#000000;stroke-width:0.0920903;stroke-linecap:round;stroke-linejoin:round;stroke-miterlimit:50"
       d="m 115.69165,46.343994 h 1.52222 c 3.00766,0 5.42899,1.503468 5.42899,3.371004 v 24.975821 c 0,1.867536 -2.42133,3.371004 -5.42899,3.371004 h -1.52222 c -3.00766,0 -5.42899,-1.503468 -5.42899,-3.371004 V 49.714998 c 0,-1.867536 2.42133,-3.371004 5.42899,-3.371004 z" /><path
       id="rect33"
       style="display:inline;fill:#93aca7;stroke:#000000;stroke-width:0.092012;stroke-linecap:round;stroke-linejoin:round;stroke-miterlimit:50"
       d="m 65.889307,46.357864 h 14.934152 c 1.944065,0 3.509143,1.083066 3.509143,2.4284 v 26.779439 c 0,1.345333 -1.565078,2.428399 -3.509143,2.428399 H 65.889307 c -1.944064,0 -3.509142,-1.083066 -3.509142,-2.428399 V 48.786264 c 0,-1.345334 1.565078,-2.4284 3.509142,-2.4284 z" /><path
       id="rect34"
       style="display:inline;fill:#93aca7;stroke:#000000;stroke-width:0.0919904;stroke-linecap:round;stroke-linejoin:round;stroke-miterlimit:50"
       d="m 44.15763,46.343018 h 13.642541 c 2.435621,0 4.396427,1.089165 4.396427,2.442074 v 26.766876 c 0,1.352909 -1.960806,2.442073 -4.396427,2.442073 H 44.15763 c -2.43562,0 -4.396426,-1.089164 -4.396426,-2.442073 V 48.785092 c 0,-1.352909 1.960806,-2.442074 4.396426,-2.442074 z" /><path
       id="rect36"
       style="display:inline;fill:#93aca7;stroke:#000000;stroke-width:0.0920903;stroke-linecap:round;stroke-linejoin:round;stroke-miterlimit:50"
       d="m 24.632146,46.365162 h 11.348682 c 2.095087,0 3.781745,1.081654 3.781745,2.425233 v 26.878867 c 0,1.34358 -1.686658,2.425234 -3.781745,2.425234 H 24.632146 c -2.095087,0 -3.781745,-1.081654 -3.781745,-2.425234 V 48.790395 c 0,-1.343579 1.686658,-2.425233 3.781745,-2.425233 z" /><path
       id="rect42"
       style="display:inline;fill:#93aca7;stroke:#000000;stroke-width:0.0926685;stroke-linecap:round;stroke-linejoin:round;stroke-miterlimit:50"
       d="m 88.299013,46.345192 h 18.696677 c 1.76297,0 3.18225,1.088424 3.18225,2.440414 v 26.768082 c 0,1.351989 -1.41928,2.440414 -3.18225,2.440414 H 88.299013 c -1.762964,0 -3.182245,-1.088425 -3.182245,-2.440414 V 48.785606 c 0,-1.35199 1.419281,-2.440414 3.182245,-2.440414 z" /><path
       id="rect37"
       style="fill:#93aca7;stroke-width:0.0920901;stroke-linecap:round;stroke-linejoin:round;stroke-miterlimit:50"
       d="m 22.532877,46.368866 c 1.300491,0 2.347457,0.684813 2.347457,1.535455 v 28.624031 c 0,0.850642 -1.046966,1.535455 -2.347457,1.535455 -1.300492,0 -2.347458,-0.684813 -2.347458,-1.535455 V 47.904321 c 0,-0.850642 1.046966,-1.535455 2.347458,-1.535455 z" /><path
       id="rect40"
       style="display:inline;fill:#93aca7;stroke-width:0.0851887;stroke-linecap:round;stroke-linejoin:round;stroke-miterlimit:50"
       d="m 39.940513,48.790394 c 1.300492,0 2.347458,1.107184 2.347458,2.482475 V 73.43045 c 0,1.375292 -1.046966,2.482476 -2.347458,2.482476 -1.300491,0 -2.347457,-1.107184 -2.347457,-2.482476 V 51.272869 c 0,-1.375291 1.046966,-2.482475 2.347457,-2.482475 z" /><path
       id="rect43"
       style="fill:#93aca7;stroke-width:0.0673038;stroke-linecap:round;stroke-linejoin:round;stroke-miterlimit:50"
       d="m 109.24778,48.779842 c 0.81175,0 1.46525,2e-6 1.46525,5e-6 V 75.90237 c 0,2e-6 -0.6535,4e-6 -1.46525,4e-6 -0.81176,0 -1.46526,-2e-6 -1.46526,-4e-6 V 48.779847 c 0,-3e-6 0.6535,-5e-6 1.46526,-5e-6 z" /><path
       style="font-size:105.333px;font-family:Bodoni;-inkscape-font-specification:Bodoni;letter-spacing:-5px;white-space:pre;display:inline"
       d="m 26.505194,109.2976 h 30.756413 q 13.166626,0 21.292902,5.6061 8.126276,5.58039 11.469365,13.4495 3.368804,7.86912 3.368804,15.17248 0,9.69496 -4.346015,17.66694 -4.320299,7.97198 -11.983686,12.54944 -7.637671,4.55174 -16.946886,4.55174 H 26.505194 v -2.10872 h 8.100561 v -64.88163 h -8.100561 z m 19.904234,66.88748 h 14.220984 q 3.523101,0 7.740535,-1.80012 4.243151,-1.80012 7.997696,-8.84633 3.754546,-7.07191 3.754546,-21.06145 0,-9.84926 -1.414384,-16.25256 -1.388667,-6.42901 -4.166002,-10.13213 -2.777335,-3.70311 -6.891905,-5.24607 -4.114571,-1.54297 -9.977833,-1.54297 H 46.409428 Z m 88.632192,-10.415 1.80012,1.15722 q -3.93455,6.19757 -8.4863,9.36065 -4.52602,3.16307 -10.5693,3.16307 -6.50616,0 -11.70081,-3.06021 -5.16893,-3.06021 -8.074843,-8.43487 -2.8802,-5.40037 -2.8802,-12.08655 0,-6.68617 2.957348,-12.11226 2.957345,-5.45181 7.843395,-8.46059 4.91177,-3.03449 10.36358,-3.03449 4.62889,0 9.02634,1.9287 4.39744,1.90299 7.48337,6.60903 3.11165,4.70604 3.62597,12.52372 h -29.49633 l 0.10287,7.27765 q 0.12858,6.8919 1.95442,11.77796 1.85155,4.86033 8.35772,4.86033 9.66924,0 17.69265,-11.46936 z m -28.10766,-14.11812 h 18.54128 q 0,-0.51432 0.0514,-1.56868 0.0514,-1.05436 0.0514,-1.5944 0,-6.8919 -1.85156,-10.64645 -1.82584,-3.78026 -6.8919,-3.78026 -5.60611,0 -7.71482,3.54882 -2.083,3.5231 -2.083,7.40622 z m 86.21488,6.09471 v -39.39701 q 0,-4.08886 -2.82877,-5.55467 -2.82876,-1.49154 -6.22328,-1.49154 v -2.00585 h 20.31569 v 2.00585 q -4.14029,0.0257 -6.12043,1.4401 -1.98013,1.38867 -2.46874,3.29166 -0.46289,1.90299 -0.46289,4.86034 v 58.55547 h -0.74576 l -44.77167,-59.60983 v 46.85467 q 0,2.93163 2.03157,6.22328 2.05728,3.26594 7.14906,3.26594 v 2.10872 h -20.44427 v -2.10872 q 4.3203,0 6.68618,-2.083 2.36588,-2.083 2.36588,-7.40622 v -49.81202 q 0,-2.93163 -2.49446,-4.19172 -2.49446,-1.2858 -5.40038,-1.38867 v -2.00585 h 16.74116 z m 23.21052,18.43841 v -64.88163 h -8.10056 v -2.00585 h 28.03051 v 2.00585 h -8.12628 v 64.88163 h 8.12628 v 2.10872 H 208.2588 v -2.10872 z m 23.98201,2.10872 -0.20573,-22.01295 h 1.36295 q 4.88606,12.1637 11.59795,16.61258 6.73761,4.44888 13.47522,4.44888 6.0947,0 10.46643,-3.49739 4.39745,-3.49738 4.39745,-9.1292 0,-11.00648 -11.28935,-14.11812 l -12.42086,-3.3688 q -14.96675,-4.11457 -14.96675,-21.19004 0,-4.86034 2.31445,-8.97491 2.31444,-4.11457 6.45473,-6.50616 4.166,-2.41731 9.25778,-2.41731 4.14029,0 6.30044,0.51432 2.18586,0.4886 4.0117,1.49153 1.85156,1.00293 3.0345,1.41438 1.20865,0.38575 4.03742,0.38575 1.15722,0 2.41731,-2.64876 h 1.67155 l 0.43717,16.63829 h -1.49153 q -6.96906,-15.89252 -20.10997,-15.89252 -6.19757,0 -9.79782,3.65168 -3.57453,3.65168 -3.57453,8.76918 0,4.50031 2.16015,7.17478 2.16015,2.67447 4.70604,3.80598 2.54589,1.10579 6.09471,2.083 l 10.74931,2.85448 q 6.60903,1.74869 10.10642,5.40037 3.49738,3.65168 4.52602,7.45766 1.05436,3.80598 1.05436,7.45766 0,5.14321 -2.18586,9.95212 -2.16015,4.78319 -6.58332,7.79197 -4.42316,3.00877 -10.62073,3.00877 -8.4863,0 -15.6868,-3.47166 -3.72883,-1.69726 -4.73176,-1.69726 -1.82584,0 -3.00878,1.08007 -1.18293,1.08008 -1.41438,2.93163 z"
       id="text82"
       transform="matrix(0.4873113,0,0,0.4873113,-9.763038,-7.8628804)"
       aria-label="DeNIS" /><path
       id="rect25"
       style="display:inline;fill:#93aca7;stroke-width:0.0605577;stroke-linecap:round;stroke-linejoin:round;stroke-miterlimit:50"
       d="m 15.948579,56.011894 c 0.52497,0 0.947598,0.380702 0.947598,0.853592 v 10.678883 c 0,0.47289 -0.422628,0.853592 -0.947598,0.853592 -0.524969,0 -0.947598,-0.380702 -0.947598,-0.853592 V 56.865486 c 0,-0.47289 0.422629,-0.853592 0.947598,-0.853592 z" /><path
       id="rect39"
       style="fill:#93aca7;stroke-width:0.213607;stroke-linecap:round;stroke-linejoin:round;stroke-miterlimit:50"
       d="m 15.110919,56.008163 c 0.723324,0 1.30564,1.107184 1.30564,2.482476 v 7.433459 c 0,1.375291 -0.582316,2.482475 -1.30564,2.482475 -0.723324,0 -1.305639,-1.107184 -1.305639,-2.482475 v -7.433459 c 0,-1.375292 0.582315,-2.482476 1.305639,-2.482476 z" /><path
       style="display:inline;fill:none;fill-opacity:1;stroke:#000000;stroke-width:0.709095;stroke-linecap:round;stroke-linejoin:round;stroke-miterlimit:50;stroke-dasharray:none;stroke-opacity:1;paint-order:normal"
       d="m 41.693456,71.335487 c 0,0 0.63444,4.831531 2.42971,6.063785 2.280523,1.565323 7.508673,0.623241 8.297406,0.11095"
       id="path84" /><path
       id="rect82"
       style="fill:#93aca7;stroke:#000000;stroke-width:0.0920903;stroke-linecap:round;stroke-linejoin:round;stroke-miterlimit:50"
       d="m 4.2171493,53.433075 h 7.5891167 c 0.550708,0 0.994057,0.452398 0.994057,1.014344 v 15.520607 c 0,0.561947 -0.443349,1.014344 -0.994057,1.014344 H 4.2171493 c -0.5507079,0 -0.9940575,-0.452397 -0.9940575,-1.014344 V 54.447419 c 0,-0.561946 0.4433496,-1.014344 0.9940575,-1.014344 z" /><path
       id="path3"
       style="fill:#f8e6d2;fill-opacity:1;stroke:#000000;stroke-width:0.366784;stroke-linejoin:round;stroke-dasharray:none;stroke-opacity:1"
       d="m -68.578183,56.873377 c -0.317686,-6.25e-4 -0.824304,0.144841 -1.138705,0.216636 -2.122207,0.48461 -9.375895,2.793945 -8.664738,11.622109 0.458161,5.687531 1.12353,7.903252 1.628967,8.746135 0.242509,0.404415 0.861509,0.903655 1.288983,1.156361 1.782453,1.053719 7.444346,1.744583 12.747386,1.601899 5.242139,-0.14104 8.734295,-2.693212 9.995718,-4.175706 0.334525,-0.393152 0.651324,-1.183101 0.773273,-1.687617 0.38227,-1.581494 0.521124,-4.73793 -3.653238,-9.944416 -4.568867,-5.698533 -10.984258,-7.531477 -12.977646,-7.535401 z"
       transform="matrix(0.26925686,0,0,0.23412164,63.736606,28.785109)" /><path
       style="fill:#dccdbc;fill-opacity:1;stroke:#000000;stroke-width:0.0920904;stroke-linejoin:round;stroke-dasharray:none;stroke-opacity:1"
       d="m 44.115167,42.877264 c -0.309799,0.419069 -0.232933,1.634843 0.216298,1.947915 0.288806,0.20127 2.231458,0.555929 2.672843,0.24181 0.294992,-0.209937 -0.06011,-1.407511 -0.602549,-1.833727 -0.574498,-0.45141 -2.175095,-0.506822 -2.286592,-0.355998 z"
       id="path1" /><path
       style="fill:none;stroke:#000000;stroke-width:0.0920904;stroke-linejoin:round;stroke-dasharray:none;stroke-opacity:1"
       d="m 44.110264,42.924665 c 0,0 2.135791,2.037578 2.900525,2.094573"
       id="path2" /><path
       style="fill:#f8e6d2;fill-opacity:1;fill-rule:nonzero;stroke:#000000;stroke-width:0.0920904;stroke-linecap:round;stroke-linejoin:round;stroke-miterlimit:50;stroke-dasharray:none;stroke-opacity:1;paint-order:normal"
       d="m 99.321616,55.562883 c -0.24135,-0.697199 -2.126156,-1.521636 -1.460654,-2.664855 0.261544,-0.449288 1.116237,-0.783653 1.722008,-0.923309 0.84641,-0.195133 2.13511,-0.150098 2.99539,0.483126 0.86027,0.633224 1.79475,2.152763 1.85475,3.255305 0.06,1.102541 -0.31195,2.192984 -0.79947,2.653803 -0.48751,0.460819 -1.03089,0.478368 -1.5871,0.536268 -0.55622,0.0579 -1.33004,-0.05628 -1.89999,-0.350833 -0.569945,-0.294552 -0.980111,-0.718935 -1.164805,-1.3599 -0.184694,-0.640964 0.551594,-1.017995 0.339871,-1.629605 z"
       id="path90" /><path
       style="fill:#dccdbc;fill-opacity:1;fill-rule:nonzero;stroke:#000000;stroke-width:0.0920904;stroke-linecap:round;stroke-linejoin:round;stroke-miterlimit:50;stroke-dasharray:none;stroke-opacity:1;paint-order:normal"
       d="m 100.90336,55.634511 c 0.0164,-0.399721 1.55638,-1.43577 1.98901,-1.427221 0.5223,0.01032 1.37012,1.302874 1.48795,2.186382 0.0843,0.632162 -1.26042,1.518095 -1.66256,1.434814 -0.70576,-0.146157 -1.8464,-1.414592 -1.8144,-2.193975 z"
       id="path91" /><path
       style="fill:none;fill-opacity:1;fill-rule:nonzero;stroke:#000000;stroke-width:0.0920904;stroke-linecap:round;stroke-linejoin:round;stroke-miterlimit:50;stroke-dasharray:none;stroke-opacity:1;paint-order:normal"
       d="m 100.91855,55.619328 c 0,0 3.02146,-0.258115 3.39345,0.781935"
       id="path92" /><path
       style="fill:#f8e6d2;fill-opacity:1;fill-rule:nonzero;stroke:#000000;stroke-width:0.0920903;stroke-linecap:round;stroke-linejoin:round;stroke-miterlimit:50;stroke-dasharray:none;stroke-opacity:1;paint-order:normal"
       d="m 100.42509,58.724294 c -0.457791,-0.130517 -1.07373,1.439219 -1.108373,2.285074 -0.03753,0.916547 0.667003,2.531214 0.994503,2.565965 0.74592,0.07915 2.18653,0.327939 3.05941,0.0911 0.71867,-0.194996 1.19847,-0.994815 1.45759,-1.692928 0.24833,-0.66901 0.26447,-1.478038 0,-2.140832 -0.22886,-0.573566 -1.07162,-1.453144 -1.27539,-1.343715 -0.88189,0.473609 -2.05941,0.539931 -3.12774,0.235338 z"
       id="path93" /><path
       style="fill:#dccdbc;fill-opacity:1;fill-rule:nonzero;stroke:#000000;stroke-width:0.0920903;stroke-linecap:round;stroke-linejoin:round;stroke-miterlimit:50;stroke-dasharray:none;stroke-opacity:1;paint-order:normal"
       d="m 103.92037,62.673297 c -0.37153,0.188863 -1.98299,-0.166257 -2.42637,-0.907205 -0.24663,-0.412153 -0.16432,-1.107218 0.19325,-1.427908 0.41176,-0.36929 1.21975,-0.379415 1.65874,-0.04295 0.64723,0.496082 0.81115,2.257704 0.57438,2.37806 z"
       id="path94" /><path
       style="fill:none;fill-opacity:1;fill-rule:nonzero;stroke:#000000;stroke-width:0.0920903;stroke-linecap:round;stroke-linejoin:round;stroke-miterlimit:50;stroke-dasharray:none;stroke-opacity:1;paint-order:normal"
       d="m 101.66578,60.391863 c 0,0 2.23312,1.771466 2.23312,2.227753"
       id="path95" /><path
       style="fill:#f8e6d2;fill-opacity:1;fill-rule:nonzero;stroke:#000000;stroke-width:0.0920903;stroke-linecap:round;stroke-linejoin:round;stroke-miterlimit:50;stroke-dasharray:none;stroke-opacity:1;paint-order:normal"
       d="m 99.862106,63.580502 c -0.464541,-0.04989 -0.982935,-0.09005 -1.3957,0.128837 -0.458258,0.24301 -0.588986,0.870694 -0.987725,1.202448 -0.807764,0.672063 -2.333895,1.264554 -2.759192,1.524535 -0.408568,0.249753 0.02709,3.277245 0.987726,3.875751 0.840931,0.523922 1.996574,0.604278 2.952443,0.343557 1.126248,-0.307195 2.093412,-1.179278 2.791402,-2.115023 0.3458,-0.463592 0.65904,-3.824468 0.80521,-4.723907 0.0126,-0.07754 -1.57077,-0.147785 -2.394164,-0.236196 z"
       id="path96" /><path
       style="fill:#dccdbc;fill-opacity:1;fill-rule:nonzero;stroke:#000000;stroke-width:0.0920903;stroke-linecap:round;stroke-linejoin:round;stroke-miterlimit:50;stroke-dasharray:none;stroke-opacity:1;paint-order:normal"
       d="m 97.392791,66.726195 c -0.05957,0.57616 -0.14148,3.106311 0.429447,3.124221 0.794021,0.02492 2.232632,-1.018269 2.641092,-1.792938 0.29893,-0.566923 0.6319,-2.280579 0.42945,-3.092013 -0.0846,-0.338846 -3.41896,0.977058 -3.499989,1.76073 z"
       id="path97" /><path
       style="fill:#dccdbc;fill-opacity:1;fill-rule:nonzero;stroke:#000000;stroke-width:0.0920903;stroke-linecap:round;stroke-linejoin:round;stroke-miterlimit:50;stroke-dasharray:none;stroke-opacity:1;paint-order:normal"
       d="m 97.693403,69.743054 c 0,0 2.855817,-4.83127 3.134957,-4.83127"
       id="path98" /><path
       style="fill:#f8e6d2;fill-opacity:1;stroke:#000000;stroke-width:0.0920903;stroke-linecap:round;stroke-linejoin:round;stroke-miterlimit:50;stroke-dasharray:none"
       d="m 60.931492,71.19659 c -0.363146,1.681367 0.953973,4.027884 2.610414,4.315759 1.294435,0.224962 3.196549,-0.695466 3.058188,-2.486563 -0.165181,-2.138278 -1.149111,-2.892476 -2.705686,-3.020078 -1.056039,-0.08657 -2.739223,0.155184 -2.962916,1.190882 z"
       id="path4" /><path
       style="fill:#dccdbc;fill-opacity:1;stroke:#000000;stroke-width:0.0920903;stroke-linecap:round;stroke-linejoin:round;stroke-miterlimit:50;stroke-dasharray:none"
       d="m 62.522511,71.339496 c -0.161954,0.404468 0.268426,1.945825 0.952706,2.534199 0.521859,0.448716 1.582077,0.780677 2.019737,0.428717 0.392842,-0.315918 0.05876,-1.76879 -0.495407,-2.343656 -0.590679,-0.612742 -2.353269,-0.928354 -2.477036,-0.61926 z"
       id="path5" /><path
       style="fill:none;stroke:#000000;stroke-width:0.0920903;stroke-linecap:round;stroke-linejoin:round;stroke-miterlimit:50;stroke-dasharray:none"
       d="m 62.532038,71.444294 c 0,0 2.943862,2.238859 2.991498,2.667578"
       id="path6" /><path
       style="fill:#f8e6d2;fill-opacity:1;stroke:#000000;stroke-width:0.0920905;stroke-linecap:round;stroke-linejoin:round;stroke-miterlimit:50;stroke-dasharray:none"
       d="m 65.521779,65.708769 c -0.501778,0.214826 -1.049064,0.742449 -1.012372,1.287045 0.05559,0.825071 0.954559,1.71836 1.781461,1.726526 0.679252,0.0067 1.539749,-0.936452 1.49109,-1.389068 -0.0547,-0.508827 -0.50458,-1.197491 -1.028068,-1.506786 -0.355208,-0.209869 -0.852836,-0.280096 -1.232111,-0.117717 z"
       id="path7" /><path
       style="fill:#dccdbc;fill-opacity:1;stroke:#000000;stroke-width:0.0920905;stroke-linecap:round;stroke-linejoin:round;stroke-miterlimit:50;stroke-dasharray:none"
       d="m 65.741519,66.360139 c -0.325956,0.114968 -0.820477,0.750052 -0.737697,1.035915 0.104479,0.360799 1.229493,0.628942 1.302741,0.627828 0.20981,-0.0032 0.661219,-0.807403 0.539284,-1.031795 -0.128197,-0.235914 -0.857874,-0.718874 -1.104328,-0.631948 z"
       id="path8" /><path
       style="fill:none;fill-opacity:1;stroke:#000000;stroke-width:0.0920905;stroke-linecap:round;stroke-linejoin:round;stroke-miterlimit:50;stroke-dasharray:none"
       d="m 65.008614,67.408386 c 0,0 1.484428,-0.446715 1.847904,-0.327407"
       id="path9" /><path
       style="fill:#f8e6d2;fill-opacity:1;stroke:#000000;stroke-width:0.0920903;stroke-linecap:round;stroke-linejoin:round;stroke-miterlimit:50;stroke-dasharray:none"
       d="m 38.662919,59.394629 c -0.789496,-0.129452 -1.823086,0.583207 -1.971089,1.369435 -0.155425,0.825658 0.649669,1.853801 1.405354,2.092317 0.411193,0.129785 1.705197,-1.008057 1.755572,-1.85884 0.03933,-0.664256 -0.533187,-1.495243 -1.189837,-1.602912 z"
       id="path10" /><path
       style="fill:#dccdbc;fill-opacity:1;stroke:#000000;stroke-width:0.0920903;stroke-linecap:round;stroke-linejoin:round;stroke-miterlimit:50;stroke-dasharray:none"
       d="m 38.591079,59.915463 c -0.214042,-0.137082 -1.102473,0.444486 -1.109018,0.767782 -0.0093,0.457106 0.0065,1.234827 0.323277,1.346985 0.230496,0.08161 0.884281,-0.531156 1.023708,-0.983299 0.113571,-0.368294 -0.03901,-1.004048 -0.237967,-1.131468 z"
       id="path11" /><path
       style="fill:none;fill-opacity:1;stroke:#000000;stroke-width:0.0920903;stroke-linecap:round;stroke-linejoin:round;stroke-miterlimit:50;stroke-dasharray:none"
       d="m 37.778398,62.012271 c 0,0 0.686963,-2.096808 0.830641,-2.069868"
       id="path12" /><path
       style="fill:#f8e6d2;fill-opacity:1;stroke:#000000;stroke-width:0.0920903;stroke-linecap:round;stroke-linejoin:round;stroke-miterlimit:50;stroke-dasharray:none"
       d="m 117.12214,48.36709 c -0.9839,0.657923 -2.81868,0.409087 -3.42213,-0.577919 -0.47157,-0.7713 -0.36408,-2.221328 0.81697,-2.586136 1.40998,-0.435521 2.14159,0.0032 2.61721,0.966824 0.32268,0.653792 0.59402,1.79196 -0.0121,2.197231 z"
       id="path13" /><path
       style="fill:#dccdbc;fill-opacity:1;stroke:#000000;stroke-width:0.0920903;stroke-linecap:round;stroke-linejoin:round;stroke-miterlimit:50;stroke-dasharray:none"
       d="m 116.62801,47.385253 c -0.21781,0.205999 -1.31297,0.320749 -1.86263,0.03184 -0.4192,-0.220336 -0.89995,-0.814692 -0.78553,-1.183811 0.10271,-0.331319 1.11689,-0.485292 1.62498,-0.276209 0.54156,0.222855 1.18963,1.270759 1.02318,1.428185 z"
       id="path14" /><path
       style="fill:none;stroke:#000000;stroke-width:0.0920903;stroke-linecap:round;stroke-linejoin:round;stroke-miterlimit:50;stroke-dasharray:none"
       d="m 116.55854,47.405682 c 0,0 -2.17763,-1.316952 -2.464,-1.238919"
       id="path15" /></g></svg>
