<?xml version="1.0" standalone="no"?>
<!DOCTYPE svg PUBLIC "-//W3C//DTD SVG 20010904//EN"
 "http://www.w3.org/TR/2001/REC-SVG-20010904/DTD/svg10.dtd">
<svg version="1.0" xmlns="http://www.w3.org/2000/svg"
 width="401.000000pt" height="401.000000pt" viewBox="0 0 401.000000 401.000000"
 preserveAspectRatio="xMidYMid meet">
<metadata>
Created by potrace 1.14, written by Peter Selinger 2001-2017
</metadata>
<g transform="translate(0.000000,401.000000) scale(0.100000,-0.100000)"
fill="#000000" stroke="none">
<path d="M920 3315 c0 -29 4 -35 23 -36 38 -2 117 -14 201 -30 27 -5 49 -9 50
-9 1 0 1 -490 2 -1090 l0 -1090 -31 -5 c-16 -3 -77 -14 -135 -23 l-105 -18 -3
-32 -3 -33 638 2 c634 1 651 1 818 34 48 10 165 54 230 87 197 100 360 265
459 465 97 194 130 346 130 598 1 211 -6 269 -50 425 -119 417 -453 711 -881
775 -78 12 -222 15 -720 15 l-623 0 0 -35z m1270 -49 c74 -10 193 -51 259 -89
69 -39 178 -145 223 -217 71 -114 119 -255 136 -400 9 -76 9 -761 0 -833 -42
-325 -215 -567 -476 -660 -105 -38 -177 -44 -506 -43 l-300 1 0 1120 c-1 616
2 1122 6 1125 11 8 596 4 658 -4z"/>
</g>
</svg>
