<?xml version="1.0" encoding="UTF-8" standalone="no"?>
<!-- Created with Inkscape (http://www.inkscape.org/) -->

<svg
   version="1.1"
   id="svg2"
   xml:space="preserve"
   width="216.22667"
   height="97.373337"
   viewBox="0 0 216.22667 97.373337"
   sodipodi:docname="ICES.svg"
   inkscape:version="1.1.2 (1:1.1+202202050950+0a00cf5339)"
   xmlns:inkscape="http://www.inkscape.org/namespaces/inkscape"
   xmlns:sodipodi="http://sodipodi.sourceforge.net/DTD/sodipodi-0.dtd"
   xmlns="http://www.w3.org/2000/svg"
   xmlns:svg="http://www.w3.org/2000/svg"><defs
     id="defs6" /><sodipodi:namedview
     id="namedview4"
     pagecolor="#ffffff"
     bordercolor="#666666"
     borderopacity="1.0"
     inkscape:pageshadow="2"
     inkscape:pageopacity="0.0"
     inkscape:pagecheckerboard="0"
     showgrid="false"
     inkscape:zoom="4.7875886"
     inkscape:cx="94.097476"
     inkscape:cy="41.774684"
     inkscape:window-width="1920"
     inkscape:window-height="1009"
     inkscape:window-x="0"
     inkscape:window-y="34"
     inkscape:window-maximized="1"
     inkscape:current-layer="g8" /><g
     id="g8"
     inkscape:groupmode="layer"
     inkscape:label="ink_ext_XXXXXX"
     transform="matrix(1.3333333,0,0,-1.3333333,0,97.373333)"><g
       id="g10"
       transform="scale(0.1)"><path
         d="m 371.816,274.805 c 0,0 -22.578,-212.7152 342.266,-60.508 21.406,45.976 33.418,97.031 33.418,150.82 0,201.68 -167.344,365.176 -373.75,365.176 C 167.344,730.293 0,566.797 0,365.117 0,294.98 20.2813,229.473 55.3906,173.867 c 32.9688,5.02 69.6874,19.199 108.6324,45.703 109.649,74.688 207.793,55.235 207.793,55.235"
         style="fill:#0e2954;fill-opacity:1;fill-rule:nonzero;stroke:none"
         id="path12" /><path
         d="m 370.652,274.805 c 0,0 -246.179,-16.121 -203.289,-214.0745 C 226.523,22.4023 297.441,0 373.75,0 498.605,0 609.063,59.8438 676.934,151.77 342.344,36.6328 370.652,274.805 370.652,274.805"
         style="fill:#6fa58d;fill-opacity:1;fill-rule:nonzero;stroke:none"
         id="path14" /><path
         d="m 104.16,503.516 0.195,11.66 10.176,-5.645 10.176,5.672 0.293,-11.64 9.902,-5.965 -9.922,-6.114 -0.222,-11.543 -10.149,5.547 -10.222,-5.605 -0.254,11.601 -9.9533,6.036 9.9803,5.996"
         style="fill:#ffffff;fill-opacity:1;fill-rule:nonzero;stroke:none"
         id="path16" /><path
         d="m 182.949,498.301 -5.508,10.254 11.641,0.039 6.113,9.922 5.91,-10 11.59,-0.379 -5.683,-10.188 5.429,-10.176 -11.562,-0.117 -6.191,-9.863 -5.879,9.98 -11.621,0.43 5.761,10.098"
         style="fill:#ffffff;fill-opacity:1;fill-rule:nonzero;stroke:none"
         id="path18" /><path
         d="m 250.645,474.238 6.152,9.864 5.84,-10.059 11.633,-0.41 -5.754,-10.098 5.41,-10.262 -11.641,-0.089 -6.152,-9.766 -5.84,9.973 -11.641,0.496 5.762,10.039 -5.43,10.312 h 11.661"
         style="fill:#ffffff;fill-opacity:1;fill-rule:nonzero;stroke:none"
         id="path20" /><path
         d="m 309.641,440.078 5.711,10.137 6.281,-9.777 11.629,0.109 -5.274,-10.332 5.879,-9.961 -11.621,-0.684 -5.664,-10.058 -6.309,9.687 -11.66,-0.058 5.274,10.332 -5.879,10.019 11.633,0.586"
         style="fill:#ffffff;fill-opacity:1;fill-rule:nonzero;stroke:none"
         id="path22" /><path
         d="m 310.469,358.281 6.152,9.903 5.84,-10.047 11.641,-0.383 -5.723,-10.117 5.41,-10.235 -11.641,-0.117 -6.113,-9.797 -5.879,9.973 -11.621,0.449 5.711,10.098 -5.437,10.254 11.66,0.019"
         style="fill:#ffffff;fill-opacity:1;fill-rule:nonzero;stroke:none"
         id="path24" /><path
         d="m 381.465,330.391 1.836,11.504 9.297,-7.051 10.859,4.16 -1.387,-11.531 8.965,-7.356 -10.703,-4.609 -1.855,-11.387 -9.258,6.914 -10.918,-4.062 1.406,11.523 -8.992,7.383 10.75,4.512"
         style="fill:#ffffff;fill-opacity:1;fill-rule:nonzero;stroke:none"
         id="path26" /><path
         d="m 431.699,413.066 0.215,11.614 10.176,-5.61 10.176,5.637 0.293,-11.602 9.902,-5.996 -9.934,-6.074 -0.203,-11.562 -10.176,5.527 -10.214,-5.574 -0.254,11.57 -9.942,6.035 9.961,6.035"
         style="fill:#ffffff;fill-opacity:1;fill-rule:nonzero;stroke:none"
         id="path28" /><path
         d="m 542.461,613.301 0.215,11.64 10.176,-5.664 10.175,5.684 0.274,-11.621 9.922,-5.996 -9.922,-6.114 -0.235,-11.523 -10.156,5.559 -10.215,-5.598 -0.254,11.562 -9.941,6.036 9.961,6.035"
         style="fill:#ffffff;fill-opacity:1;fill-rule:nonzero;stroke:none"
         id="path30" /><path
         d="M 1621.67,366.699 H 888.691"
         style="fill:none;stroke:#0e2954;stroke-width:5.8925;stroke-linecap:butt;stroke-linejoin:miter;stroke-miterlimit:4;stroke-dasharray:none;stroke-opacity:1"
         id="path32" /><path
         d="m 889.16,439.109 v 252.594 h 47.598 V 439.109 H 889.16"
         style="fill:#0e2954;fill-opacity:1;fill-rule:nonzero;stroke:none"
         id="path34" /><path
         d="m 1089.07,433.672 c -64.93,0 -107.769,24.476 -107.769,114.906 v 33.656 c 0,90.43 42.839,114.575 107.769,114.575 22.1,0 52.01,-4.086 63.58,-6.805 V 652.27 c -16.66,1.359 -40.8,3.062 -60.52,3.062 -42.5,0 -63.23,-14.961 -63.23,-73.098 v -33.656 c 0,-58.133 20.73,-73.43 63.23,-73.43 19.72,0 43.86,1.7 60.52,3.059 v -38.074 c -11.57,-2.723 -41.48,-6.461 -63.58,-6.461"
         style="fill:#0e2954;fill-opacity:1;fill-rule:nonzero;stroke:none"
         id="path36" /><path
         d="m 1190.05,439.109 v 252.594 h 160.81 V 652.27 h -113.21 v -64.25 h 106.07 v -38.079 h -106.07 v -71.734 h 113.21 v -39.098 h -160.81"
         style="fill:#0e2954;fill-opacity:1;fill-rule:nonzero;stroke:none"
         id="path38" /><path
         d="m 1471.56,433.672 c -32.97,0 -66.97,4.418 -79.55,7.816 v 36.379 c 20.74,-2.039 44.2,-4.078 75.81,-4.078 30.6,0 45.22,8.496 45.22,31.274 0,16.32 -6.46,25.5 -31.61,36.042 l -38.08,15.633 c -37.4,15.297 -57.46,36.719 -57.46,73.434 0,48.953 30.6,66.637 90.43,66.637 31.96,0 61.88,-5.106 73.78,-8.161 v -36.039 c -19.38,1.704 -45.22,4.422 -71.74,4.422 -29.57,0 -45.55,-5.101 -45.55,-25.5 0,-15.297 7.14,-23.117 32.3,-33.316 l 34.33,-13.938 c 44.2,-18.015 61.87,-36.035 61.87,-78.871 0,-45.894 -32.97,-71.734 -89.75,-71.734"
         style="fill:#0e2954;fill-opacity:1;fill-rule:nonzero;stroke:none"
         id="path40" /><path
         d="m 977.055,36.1719 c -64.93,0 -107.774,24.4765 -107.774,114.9061 v 33.656 c 0,90.43 42.844,114.575 107.774,114.575 22.101,0 52.015,-4.082 63.575,-6.805 V 254.77 c -16.66,1.359 -40.802,3.062 -60.517,3.062 -42.492,0 -63.234,-14.961 -63.234,-73.098 v -33.656 c 0,-58.1327 20.742,-73.4296 63.234,-73.4296 19.715,0 43.857,1.6993 60.517,3.0586 V 42.6328 c -11.56,-2.7226 -41.474,-6.4609 -63.575,-6.4609"
         style="fill:#858cb5;fill-opacity:1;fill-rule:nonzero;stroke:none"
         id="path42" /><path
         d="M 1078.04,41.6094 V 294.203 h 47.6 V 41.6094 h -47.6"
         style="fill:#858cb5;fill-opacity:1;fill-rule:nonzero;stroke:none"
         id="path44" /><path
         d="M 1179.36,41.6094 V 294.203 h 160.8 V 254.77 h -113.2 v -64.25 h 106.06 V 152.441 H 1226.96 V 80.707 h 113.2 V 41.6094 h -160.8"
         style="fill:#858cb5;fill-opacity:1;fill-rule:nonzero;stroke:none"
         id="path46" /><path
         d="M 1575.43,41.6094 V 181.68 c 0,15.976 0.69,27.535 1.7,43.515 h -0.68 c -5.44,-12.582 -11.55,-23.797 -17.33,-35.019 l -37.4,-71.055 h -37.74 l -36.71,71.055 c -5.78,10.879 -10.88,23.121 -17,35.019 h -0.69 c 0.69,-15.98 1.37,-27.199 1.37,-43.515 V 41.6094 h -46.24 V 294.203 h 51.68 l 50.66,-98.93 c 5.09,-9.859 10.53,-21.418 15.29,-31.953 h 0.68 c 4.76,10.879 10.2,22.438 15.64,32.637 l 51.34,98.246 h 51.67 V 41.6094 h -46.24"
         style="fill:#858cb5;fill-opacity:1;fill-rule:nonzero;stroke:none"
         id="path48" /></g></g></svg>
