<?xml version="1.0" encoding="UTF-8" standalone="no"?>
<svg
   width="557.29846pt"
   height="498.00949pt"
   version="1.1"
   viewBox="0 0 557.29846 498.00949"
   id="svg174"
   sodipodi:docname="debris_thickness.svg"
   inkscape:version="1.2 (1:1.2.1+202207142221+cd75a1ee6d)"
   xmlns:inkscape="http://www.inkscape.org/namespaces/inkscape"
   xmlns:sodipodi="http://sodipodi.sourceforge.net/DTD/sodipodi-0.dtd"
   xmlns:xlink="http://www.w3.org/1999/xlink"
   xmlns="http://www.w3.org/2000/svg"
   xmlns:svg="http://www.w3.org/2000/svg">
  <sodipodi:namedview
     id="namedview176"
     pagecolor="#ffffff"
     bordercolor="#666666"
     borderopacity="1.0"
     inkscape:showpageshadow="2"
     inkscape:pageopacity="0.0"
     inkscape:pagecheckerboard="0"
     inkscape:deskcolor="#d1d1d1"
     inkscape:document-units="pt"
     showgrid="false"
     inkscape:zoom="0.25285714"
     inkscape:cx="350"
     inkscape:cy="383.61582"
     inkscape:window-width="1920"
     inkscape:window-height="1009"
     inkscape:window-x="0"
     inkscape:window-y="34"
     inkscape:window-maximized="1"
     inkscape:current-layer="svg174" />
  <defs
     id="defs74">
    <symbol
       id="x"
       overflow="visible">
      <path
         d="M 0.03125,0 H 0 V -0.015625 -0.03125 C 0.0078125,-0.0390625 0.019531,-0.046875 0.03125,-0.046875 V -0.03125 H 0.015625 V -0.015625 0 H 0.03125 v -0.015625 z"
         id="path2" />
    </symbol>
    <symbol
       id="c"
       overflow="visible">
      <path
         d="m 0.03125,-0.015625 c 0,-0.0078125 -0.0078125,-0.015625 -0.015625,-0.015625 V -0.015625 0 H 0 V -0.03125 H 0.015625 0.03125 Z"
         id="path5" />
    </symbol>
    <symbol
       id="a"
       overflow="visible">
      <path
         d="M 0.03125,-0.015625 H 0.015625 V 0 H 0.03125 V -0.015625 0 H 0.015625 0 V -0.015625 L 0.015625,-0.03125 c 0.0078125,0 0.015625,0.0078125 0.015625,0.015625 z m 0,0 H 0.015625 v -0.015625 0.015625 z"
         id="path8" />
    </symbol>
    <symbol
       id="b"
       overflow="visible">
      <path
         d="M 0.015625,-0.015625 V 0 L 0.03125,-0.015625 Z m 0.015625,0 V 0 H 0.015625 0 V -0.015625 H 0.015625 0.03125 0.015625 V -0.03125 H 0 V -0.015625 -0.03125 H 0.015625 0.03125 Z"
         id="path11" />
    </symbol>
    <symbol
       id="e"
       overflow="visible">
      <path
         d="M 0.015625,-0.046875 V -0.03125 H 0.03125 0.015625 V -0.015625 0 H 0.03125 0.015625 0 v -0.015625 -0.03125 z"
         id="path14" />
    </symbol>
    <symbol
       id="i"
       overflow="visible">
      <path
         d="M 0.03125,-0.03125 V -0.046875 0 H 0.015625 0 V -0.015625 L 0.015625,-0.03125 Z M 0.015625,0 0.03125,-0.015625 H 0.015625 v -0.015625 0.015625 z"
         id="path17" />
    </symbol>
    <symbol
       id="m"
       overflow="visible">
      <path
         d="M 0.015625,0 H 0.03125 v -0.015625 c 0,-0.0078125 -0.0078125,-0.015625 -0.015625,-0.015625 v 0.015625 z m 0,-0.03125 H 0.03125 V -0.015625 0 H 0.015625 0 v -0.046875 h 0.015625 z"
         id="path20" />
    </symbol>
    <symbol
       id="h"
       overflow="visible">
      <path
         d="m 0,-0.03125 h 0.015625 v 0.015625 L 0.03125,-0.03125 0.015625,0 V 0.015625 H 0 V 0 h 0.015625 z"
         id="path23" />
    </symbol>
    <symbol
       id="l"
       overflow="visible">
      <path
         d="M 0.03125,-0.03125 H 0.015625 V -0.015625 0 H 0.03125 v -0.015625 z m 0,-0.015625 v 0.015625 c 0.0078125,0 0.015625,0.0078125 0.015625,0.015625 L 0.03125,0 H 0 V -0.015625 -0.03125 c 0.0078125,-0.0078125 0.019531,-0.015625 0.03125,-0.015625 z"
         id="path26" />
    </symbol>
    <symbol
       id="w"
       overflow="visible">
      <path
         d="M 0,-0.046875 H 0.015625 V 0 H 0 Z"
         id="path29" />
    </symbol>
    <symbol
       id="k"
       overflow="visible">
      <path
         d="m 0,-0.046875 h 0.015625 v 0.03125 L 0.03125,-0.03125 0.015625,-0.015625 0.03125,0 0.015625,-0.015625 V 0 H 0 Z"
         id="path32" />
    </symbol>
    <symbol
       id="g"
       overflow="visible">
      <path
         d="m 0.03125,-0.03125 v 0.015625 c 0,-0.0078125 -0.0078125,-0.015625 -0.015625,-0.015625 v 0.015625 H 0.03125 V 0 H 0.015625 0 V -0.015625 0 H 0.015625 V -0.015625 H 0 V -0.03125 h 0.015625 z"
         id="path35" />
    </symbol>
    <symbol
       id="f"
       overflow="visible">
      <path
         d="M 0.03125,-0.015625 V 0 -0.015625 H 0.015625 V -0.03125 -0.015625 0 H 0 V -0.03125 H 0.015625 0.03125 Z"
         id="path38" />
    </symbol>
    <symbol
       id="j"
       overflow="visible">
      <path
         d="m 0,-0.046875 h 0.015625 c 0.0078125,0 0.015625,0.0078125 0.015625,0.015625 v 0.015625 H 0.015625 V 0 H 0 Z m 0.015625,0.015625 v 0.015625 H 0.03125 V -0.03125 Z"
         id="path41" />
    </symbol>
    <symbol
       id="d"
       overflow="visible">
      <path
         d="M 0.015625,-0.03125 V -0.015625 0 L 0.03125,-0.015625 H 0.015625 Z m 0,0 c 0.0078125,0 0.015625,0.0078125 0.015625,0.015625 V 0 H 0.015625 0 v -0.015625 z"
         id="path44" />
    </symbol>
    <symbol
       id="v"
       overflow="visible">
      <path
         d="m 0,-0.03125 h 0.015625 v 0.015625 L 0.03125,-0.03125 V 0 H 0.015625 Z"
         id="path47" />
    </symbol>
    <symbol
       id="u"
       overflow="visible">
      <path
         d="M 0,-0.03125 H 0.015625 V 0 H 0 Z M 0,-0.046875 H 0.015625 V -0.03125 H 0 Z"
         id="path50" />
    </symbol>
    <symbol
       id="t"
       overflow="visible">
      <path
         d="M 0.03125,-0.046875 V -0.03125 H 0.015625 0.03125 0.015625 V 0 H 0 v -0.03125 l 0.015625,-0.015625 z"
         id="path53" />
    </symbol>
    <symbol
       id="s"
       overflow="visible">
      <path
         d="M 0.03125,-0.03125 H 0.046875 V -0.015625 0 -0.015625 -0.03125 c -0.011719,0 -0.015625,0.0078125 -0.015625,0.015625 V 0 -0.015625 H 0.015625 V -0.03125 -0.015625 0 H 0 v -0.03125 h 0.015625 z"
         id="path56" />
    </symbol>
    <symbol
       id="r"
       overflow="visible">
      <path
         d="M 0.03125,-0.015625 V 0 -0.015625 H 0.015625 V -0.03125 -0.015625 0 H 0 V -0.046875 H 0.015625 V -0.03125 H 0.03125 Z"
         id="path59" />
    </symbol>
    <symbol
       id="q"
       overflow="visible">
      <path
         d="m 0,-0.046875 h 0.015625 l 0.015625,0.03125 v -0.03125 H 0.046875 V 0 H 0.03125 L 0.015625,-0.03125 V 0 H 0 Z"
         id="path62" />
    </symbol>
    <symbol
       id="p"
       overflow="visible">
      <path
         d="M 0,-0.015625 V -0.03125 H 0.015625 V -0.015625 0 L 0.03125,-0.015625 V -0.03125 0 H 0.015625 0 Z"
         id="path65" />
    </symbol>
    <symbol
       id="o"
       overflow="visible">
      <path
         d="M 0,-0.03125 H 0.015625 V 0 C 0.015625,0.0078125 0.0078125,0.015625 0,0.015625 Z M 0,-0.046875 H 0.015625 V -0.03125 H 0 Z"
         id="path68" />
    </symbol>
    <symbol
       id="n"
       overflow="visible">
      <path
         d="m 0.03125,-0.03125 v 0.015625 c 0,-0.0078125 -0.0078125,-0.015625 -0.015625,-0.015625 V -0.015625 0 H 0.03125 V -0.015625 0 H 0.015625 0 V -0.015625 L 0.015625,-0.03125 Z"
         id="path71" />
    </symbol>
  </defs>
  <g
     id="g172"
     transform="translate(-70,-62.2288)">
    <path
       d="m 377.23,126.99 c -2.1406,-0.41016 -3.543,-2.4766 -3.1328,-4.6133 0.41016,-2.1406 2.4766,-3.543 4.6133,-3.1328 l 243.83,47.227 c 1.0859,0.21094 1.9844,0.64062 2.6914,1.2539 0.12891,0.11328 0.25391,0.23047 0.36719,0.34766 1.0352,0.71484 1.7109,1.9141 1.6992,3.2695 l -0.44141,52.613 c -0.0352,1.3359 -0.61719,2.625 -1.707,3.7617 -0.62891,0.65234 -1.4766,1.3086 -2.5195,1.9141 l -133.14,77.359 c -0.47266,0.61328 -1.1719,1.0156 -1.9375,1.125 l -57.562,33.445 c -1.5742,0.91406 -3.457,1.6445 -5.2188,2.0859 -1.957,0.48828 -3.9258,0.64844 -5.4219,0.35547 l -337.56,-65.379 c -3.3711,-0.65234 -5.5508,-1.6055 -7.0938,-3.2891 -1.7031,-1.8594 -2.2227,-4.0078 -2.2227,-6.9922 h 0.01563 l -0.04297,-47.746 c -0.0078,-0.11719 -0.01172,-0.23438 -0.0078,-0.35547 0.0078,-1.0078 0.32812,-1.9844 0.94922,-2.8984 0.67188,-0.98828 1.7852,-1.9844 3.2812,-2.8555 l 192.64,-111.93 c 1.582,-0.91797 3.4766,-1.6602 5.25,-2.1016 1.9531,-0.48828 3.9219,-0.64062 5.4375,-0.32422 l 40.77,8.4531 c 2.1328,0.43359 3.5078,2.5156 3.0703,4.6445 -0.43359,2.1328 -2.5156,3.5078 -4.6445,3.0703 l -40.77,-8.4531 c -0.32812,-0.0664 -1.0508,0.0391 -1.9492,0.26172 -1.1172,0.28125 -2.2812,0.72656 -3.2109,1.2695 l -188.08,109.28 335.66,65.012 c 0.36328,0.0703 1.1133,-0.0352 2.0273,-0.26562 1.1094,-0.27734 2.2617,-0.71875 3.1797,-1.2539 l 188.08,-109.28 -236.89,-45.883 z m -2.7344,246.72 c 1.543,1.543 1.543,4.043 0,5.5859 -1.543,1.543 -4.043,1.543 -5.5859,0 l -16.258,-16.258 v 158.46 c 0,2.1836 -1.7695,3.9492 -3.9492,3.9492 -2.1836,0 -3.9492,-1.7695 -3.9492,-3.9492 v -158.46 l -16.258,16.258 c -1.543,1.543 -4.043,1.543 -5.5859,0 -1.5429,-1.543 -1.543,-4.043 0,-5.5859 l 23,-23 c 0.0234,-0.0234 0.0469,-0.0469 0.0703,-0.0703 l 0.004,-0.004 c 0.0234,-0.0234 0.0469,-0.043 0.0703,-0.0625 l 0.004,-0.004 c 0.0234,-0.0195 0.0469,-0.043 0.0703,-0.0625 l 0.004,-0.004 0.0625,-0.0508 0.008,-0.008 0.0547,-0.043 0.0195,-0.0117 0.0547,-0.043 0.0312,-0.0234 0.043,-0.0312 0.11719,-0.082 0.043,-0.0273 0.0312,-0.0195 0.0547,-0.0351 0.0234,-0.0156 0.0547,-0.0312 h 0.004 l 0.0234,-0.0117 h 0.004 l 0.0508,-0.0273 h 0.004 l 0.0274,-0.0156 0.0859,-0.043 0.0664,-0.0312 0.004,-0.004 c 0.50391,-0.23438 1.0703,-0.36719 1.6641,-0.36719 0.5938,0 1.1562,0.13281 1.6641,0.36719 l 0.004,0.004 0.0664,0.0312 0.0859,0.043 0.0273,0.0156 h 0.004 l 0.0508,0.0273 h 0.004 l 0.0234,0.0117 h 0.004 l 0.0547,0.0312 0.0234,0.0156 0.0547,0.0351 0.0312,0.0195 0.043,0.0273 0.11719,0.082 0.043,0.0312 0.0312,0.0234 0.0547,0.043 0.0195,0.0117 c 0.0195,0.0156 0.0391,0.0312 0.0586,0.0469 l 0.008,0.008 c 0.0234,0.0195 0.043,0.0352 0.0664,0.0547 0.0234,0.0234 0.0508,0.043 0.0742,0.0664 0.0234,0.0234 0.0508,0.043 0.0742,0.0664 l 23.074,23.074 z m -5.5859,-162.54 c 1.543,-1.543 4.043,-1.543 5.5859,0 1.543,1.543 1.543,4.043 0,5.5859 l -23,23 c -1.543,1.543 -4.043,1.543 -5.5859,0 l -23,-23 c -1.543,-1.543 -1.543,-4.043 0,-5.5859 1.543,-1.5429 4.043,-1.543 5.5859,0 l 16.258,16.258 V 66.178 c 0,-2.1836 1.7695,-3.9492 3.9492,-3.9492 2.1836,0 3.9492,1.7695 3.9492,3.9492 v 161.25 z m -270.98,17.992 -11.348,42.348 17.25,3.3398 11.348,-42.348 z m -17.129,41.059 11.305,-42.184 -11.777,-2.2812 0.03516,42.586 h 0.01563 c 0,1.0117 0.02734,1.5781 0.12109,1.6797 0.0625,0.0664 0.16016,0.13281 0.29687,0.19922 z m 40.207,-36.586 -11.348,42.348 17.25,3.3398 11.348,-42.348 z m 23.078,4.4688 -11.348,42.348 17.25,3.3398 11.348,-42.348 z m 23.078,4.4688 -11.348,42.348 17.25,3.3398 11.348,-42.348 z m 23.078,4.4688 -11.348,42.348 17.25,3.3398 11.348,-42.348 z m 23.078,4.4688 -11.348,42.348 17.25,3.3398 11.348,-42.348 z m 23.078,4.4688 -11.348,42.348 17.25,3.3398 11.348,-42.348 z m 23.078,4.4688 -11.348,42.348 17.25,3.3398 11.348,-42.348 z m 23.078,4.4688 -11.348,42.348 17.25,3.3398 11.348,-42.348 z m 23.078,4.4688 -11.348,42.348 17.25,3.3398 11.348,-42.348 z m 23.078,4.4688 -11.348,42.348 17.25,3.3398 11.348,-42.348 z m 23.078,4.4688 -11.348,42.348 17.25,3.3398 11.348,-42.348 z m 23.078,4.4688 -11.348,42.348 17.25,3.3398 11.348,-42.348 z m 23.078,4.4688 -11.348,42.348 17.25,3.3398 11.348,-42.348 z m 23.121,4.2969 -11.395,42.52 11.188,2.168 c 0.36328,0.0703 1.1133,-0.0352 2.0273,-0.26562 1.1094,-0.27734 2.2617,-0.71875 3.1797,-1.2539 l 1.8633,-1.082 13.793,-51.477 -11.707,6.8008 c -1.5742,0.91406 -3.457,1.6445 -5.2188,2.0859 -1.2852,0.32031 -2.5781,0.5 -3.7383,0.50391 z m 27.922,-13.609 -13.793,51.477 21.492,-12.488 13.793,-51.477 z m 28.75,-16.703 -13.793,51.477 21.492,-12.488 13.793,-51.477 z m 28.75,-16.703 -13.793,51.477 21.492,-12.488 13.793,-51.477 z m 28.75,-16.703 -13.793,51.477 21.492,-12.488 13.793,-51.477 z m 28.75,-16.703 -13.793,51.477 21.492,-12.488 13.793,-51.477 z m 28.75,-16.703 -13.793,51.477 21.492,-12.488 13.793,-51.477 z m 26.602,-8.6797 -11.645,43.453 11.016,-6.3984 c 0.11719,-0.0703 0.22266,-0.13281 0.32031,-0.19531 z"
       id="path76" />
    <use
       x="70"
       y="560.16797"
       xlink:href="#x"
       id="use78" />
    <use
       x="70.042969"
       y="560.16797"
       xlink:href="#c"
       id="use80" />
    <use
       x="70.070312"
       y="560.16797"
       xlink:href="#a"
       id="use82" />
    <use
       x="70.105469"
       y="560.16797"
       xlink:href="#b"
       id="use84" />
    <use
       x="70.144531"
       y="560.16797"
       xlink:href="#e"
       id="use86" />
    <use
       x="70.171875"
       y="560.16797"
       xlink:href="#a"
       id="use88" />
    <use
       x="70.210938"
       y="560.16797"
       xlink:href="#i"
       id="use90" />
    <use
       x="70.269531"
       y="560.16797"
       xlink:href="#m"
       id="use92" />
    <use
       x="70.308594"
       y="560.16797"
       xlink:href="#h"
       id="use94" />
    <use
       x="70.363281"
       y="560.16797"
       xlink:href="#l"
       id="use96" />
    <use
       x="70.414062"
       y="560.16797"
       xlink:href="#w"
       id="use98" />
    <use
       x="70.433594"
       y="560.16797"
       xlink:href="#a"
       id="use100" />
    <use
       x="70.46875"
       y="560.16797"
       xlink:href="#k"
       id="use102" />
    <use
       x="70.507812"
       y="560.16797"
       xlink:href="#g"
       id="use104" />
    <use
       x="70.539062"
       y="560.16797"
       xlink:href="#b"
       id="use106" />
    <use
       x="70.578125"
       y="560.16797"
       xlink:href="#f"
       id="use108" />
    <use
       x="70.617188"
       y="560.16797"
       xlink:href="#i"
       id="use110" />
    <use
       x="70.65625"
       y="560.16797"
       xlink:href="#c"
       id="use112" />
    <use
       x="70.707031"
       y="560.16797"
       xlink:href="#j"
       id="use114" />
    <use
       x="70.746094"
       y="560.16797"
       xlink:href="#b"
       id="use116" />
    <use
       x="70.785156"
       y="560.16797"
       xlink:href="#f"
       id="use118" />
    <use
       x="70.824219"
       y="560.16797"
       xlink:href="#b"
       id="use120" />
    <use
       x="70.863281"
       y="560.16797"
       xlink:href="#g"
       id="use122" />
    <use
       x="70.894531"
       y="560.16797"
       xlink:href="#d"
       id="use124" />
    <use
       x="70.933594"
       y="560.16797"
       xlink:href="#v"
       id="use126" />
    <use
       x="70.96875"
       y="560.16797"
       xlink:href="#g"
       id="use128" />
    <use
       x="71.003906"
       y="560.16797"
       xlink:href="#k"
       id="use130" />
    <use
       x="71.039062"
       y="560.16797"
       xlink:href="#h"
       id="use132" />
    <use
       x="71.078125"
       y="560.16797"
       xlink:href="#u"
       id="use134" />
    <use
       x="70"
       y="560.22266"
       xlink:href="#t"
       id="use136" />
    <use
       x="70.023438"
       y="560.22266"
       xlink:href="#c"
       id="use138" />
    <use
       x="70.050781"
       y="560.22266"
       xlink:href="#d"
       id="use140" />
    <use
       x="70.089844"
       y="560.22266"
       xlink:href="#s"
       id="use142" />
    <use
       x="70.167969"
       y="560.22266"
       xlink:href="#e"
       id="use144" />
    <use
       x="70.195312"
       y="560.22266"
       xlink:href="#r"
       id="use146" />
    <use
       x="70.234375"
       y="560.22266"
       xlink:href="#a"
       id="use148" />
    <use
       x="70.292969"
       y="560.22266"
       xlink:href="#q"
       id="use150" />
    <use
       x="70.339844"
       y="560.22266"
       xlink:href="#d"
       id="use152" />
    <use
       x="70.378906"
       y="560.22266"
       xlink:href="#p"
       id="use154" />
    <use
       x="70.417969"
       y="560.22266"
       xlink:href="#f"
       id="use156" />
    <use
       x="70.476562"
       y="560.22266"
       xlink:href="#j"
       id="use158" />
    <use
       x="70.519531"
       y="560.22266"
       xlink:href="#c"
       id="use160" />
    <use
       x="70.546875"
       y="560.22266"
       xlink:href="#d"
       id="use162" />
    <use
       x="70.585938"
       y="560.22266"
       xlink:href="#o"
       id="use164" />
    <use
       x="70.601562"
       y="560.22266"
       xlink:href="#a"
       id="use166" />
    <use
       x="70.640625"
       y="560.22266"
       xlink:href="#n"
       id="use168" />
    <use
       x="70.675781"
       y="560.22266"
       xlink:href="#e"
       id="use170" />
  </g>
</svg>
