<?xml version="1.0" encoding="UTF-8" standalone="no"?>
<svg
   width="560.00598pt"
   height="559.99902pt"
   version="1.1"
   viewBox="0 0 560.00598 559.99902"
   id="svg100"
   sodipodi:docname="delete.svg"
   inkscape:version="1.2 (1:1.2.1+202207142221+cd75a1ee6d)"
   xmlns:inkscape="http://www.inkscape.org/namespaces/inkscape"
   xmlns:sodipodi="http://sodipodi.sourceforge.net/DTD/sodipodi-0.dtd"
   xmlns="http://www.w3.org/2000/svg"
   xmlns:svg="http://www.w3.org/2000/svg">
  <sodipodi:namedview
     id="namedview102"
     pagecolor="#ffffff"
     bordercolor="#666666"
     borderopacity="1.0"
     inkscape:showpageshadow="2"
     inkscape:pageopacity="0.0"
     inkscape:pagecheckerboard="0"
     inkscape:deskcolor="#d1d1d1"
     inkscape:document-units="pt"
     showgrid="false"
     inkscape:zoom="0.357594"
     inkscape:cx="352.3549"
     inkscape:cy="606.83345"
     inkscape:window-width="1920"
     inkscape:window-height="1009"
     inkscape:window-x="0"
     inkscape:window-y="34"
     inkscape:window-maximized="1"
     inkscape:current-layer="g98" />
  <defs
     id="defs50">
    <symbol
       id="p"
       overflow="visible">
      <path
         d="m 29.312,-1.75 c -1.5117,0.78125 -3.0898,1.3711 -4.7344,1.7656 -1.6367,0.40625 -3.3398,0.60938 -5.1094,0.60938 -5.3125,0 -9.5273,-1.4844 -12.641,-4.4531 -3.1055,-2.9688 -4.6562,-7 -4.6562,-12.094 0,-5.094 1.5508,-9.125 4.6562,-12.094 3.1133,-2.9688 7.3281,-4.4531 12.641,-4.4531 1.7695,0 3.4727,0.19922 5.1094,0.59375 1.6445,0.39844 3.2227,0.99219 4.7344,1.7812 v 6.5938 c -1.5312,-1.0391 -3.0391,-1.8008 -4.5156,-2.2812 -1.4805,-0.48828 -3.0391,-0.73438 -4.6719,-0.73438 -2.9375,0 -5.2461,0.94531 -6.9219,2.8281 -1.6797,1.875 -2.5156,4.4648 -2.5156,7.7656 0,3.293 0.83594,5.8828 2.5156,7.7656 1.6758,1.875 3.9844,2.8125 6.9219,2.8125 1.6328,0 3.1914,-0.23828 4.6719,-0.71875 1.4766,-0.48828 2.9844,-1.2539 4.5156,-2.2969 z"
         id="path2" />
    </symbol>
    <symbol
       id="c"
       overflow="visible">
      <path
         d="m 21.453,-17.406 c -0.67969,-0.3125 -1.3516,-0.53906 -2.0156,-0.6875 -0.65625,-0.15625 -1.3203,-0.23438 -1.9844,-0.23438 -1.9688,0 -3.4844,0.63281 -4.5469,1.8906 -1.0547,1.2617 -1.5781,3.0703 -1.5781,5.4219 V 6.2e-4 H 3.6718 v -23.922 h 7.6562 v 3.9219 c 0.97656,-1.5625 2.1016,-2.7031 3.375,-3.4219 1.2812,-0.71875 2.8125,-1.0781 4.5938,-1.0781 0.25,0 0.52344,0.01172 0.82812,0.03125 0.30078,0.02344 0.73438,0.07031 1.2969,0.14062 z"
         id="path5" />
    </symbol>
    <symbol
       id="a"
       overflow="visible">
      <path
         d="m 27.562,-12.031 v 2.1875 H 9.671 c 0.1875,1.793 0.83203,3.1367 1.9375,4.0312 1.1133,0.89844 2.6719,1.3438 4.6719,1.3438 1.6016,0 3.25,-0.23438 4.9375,-0.70312 1.6875,-0.47656 3.4219,-1.2031 5.2031,-2.1719 v 5.8906 c -1.8047,0.6875 -3.6094,1.2031 -5.4219,1.5469 -1.8125,0.35156 -3.6211,0.53125 -5.4219,0.53125 -4.3359,0 -7.7031,-1.0977 -10.109,-3.2969 -2.3984,-2.207 -3.5938,-5.2969 -3.5938,-9.2656 0,-3.9062 1.1758,-6.9727 3.5312,-9.2031 2.3633,-2.2383 5.6094,-3.3594 9.7344,-3.3594 3.7578,0 6.7695,1.1367 9.0312,3.4062 2.2578,2.2617 3.3906,5.2812 3.3906,9.0625 z m -7.8594,-2.5312 c 0,-1.457 -0.42969,-2.6289 -1.2812,-3.5156 -0.84375,-0.89453 -1.9492,-1.3438 -3.3125,-1.3438 -1.4922,0 -2.6992,0.41797 -3.625,1.25 -0.91797,0.83594 -1.4922,2.0391 -1.7188,3.6094 z"
         id="path8" />
    </symbol>
    <symbol
       id="b"
       overflow="visible">
      <path
         d="m 14.391,-10.766 c -1.5938,0 -2.793,0.27344 -3.5938,0.8125 -0.80469,0.54297 -1.2031,1.3398 -1.2031,2.3906 0,0.96875 0.32031,1.7305 0.96875,2.2812 0.64453,0.54297 1.5469,0.8125 2.7031,0.8125 1.4375,0 2.6445,-0.51562 3.625,-1.5469 0.98828,-1.0312 1.4844,-2.3203 1.4844,-3.875 v -0.875 z m 11.688,-2.8906 V -6e-4 h -7.7031 v -3.5469 c -1.0312,1.4492 -2.1875,2.5078 -3.4688,3.1719 -1.2813,0.6641 -2.8398,1 -4.6719,1 -2.4805,0 -4.4961,-0.72266 -6.0469,-2.1719 -1.543,-1.4453 -2.3125,-3.3203 -2.3125,-5.625 0,-2.8125 0.96094,-4.8672 2.8906,-6.1719 1.9375,-1.3125 4.9688,-1.9688 9.0938,-1.9688 h 4.5156 v -0.60938 c 0,-1.207 -0.48047,-2.0938 -1.4375,-2.6562 -0.94922,-0.5625 -2.4375,-0.84375 -4.4688,-0.84375 -1.6367,0 -3.1562,0.16797 -4.5625,0.5 -1.4062,0.32422 -2.7188,0.8125 -3.9375,1.4688 v -5.8281 c 1.6445,-0.40625 3.2891,-0.70703 4.9375,-0.90625 1.6562,-0.20703 3.3047,-0.3125 4.9531,-0.3125 4.3203,0 7.4375,0.85547 9.3438,2.5625 1.9141,1.6992 2.875,4.4609 2.875,8.2812 z"
         id="path11" />
    </symbol>
    <symbol
       id="i"
       overflow="visible">
      <path
         d="m 12.031,-30.719 v 6.7969 h 7.875 v 5.4688 h -7.875 v 10.141 c 0,1.1172 0.21875,1.8711 0.65625,2.2656 0.4375,0.38672 1.3125,0.57812 2.625,0.57812 h 3.9375 v 5.4688 h -6.5625 c -3.0234,0 -5.1641,-0.62891 -6.4219,-1.8906 -1.2617,-1.2578 -1.8906,-3.3984 -1.8906,-6.4219 v -10.141 h -3.7969 v -5.4688 h 3.7969 v -6.7969 z"
         id="path14" />
    </symbol>
    <symbol
       id="h"
       overflow="visible">
      <path
         d="m 19.953,-20.422 v -12.812 h 7.6875 V 0 H 19.953 v -3.4531 c -1.0547,1.4062 -2.2148,2.4375 -3.4844,3.0938 -1.2734,0.65625 -2.7422,0.98438 -4.4062,0.98438 -2.9492,0 -5.3711,-1.1719 -7.2656,-3.5156 -1.8867,-2.3438 -2.8281,-5.3594 -2.8281,-9.0469 0,-3.6875 0.94141,-6.7031 2.8281,-9.0469 1.8945,-2.3438 4.3164,-3.5156 7.2656,-3.5156 1.6562,0 3.1172,0.33594 4.3906,1 1.2812,0.65625 2.4453,1.6836 3.5,3.0781 z m -5.0469,15.484 c 1.6445,0 2.8945,-0.59766 3.75,-1.7969 0.86328,-1.1953 1.2969,-2.9297 1.2969,-5.2031 0,-2.2812 -0.43359,-4.0195 -1.2969,-5.2188 -0.85547,-1.1953 -2.1055,-1.7969 -3.75,-1.7969 -1.625,0 -2.8711,0.60156 -3.7344,1.7969 -0.85547,1.1992 -1.2812,2.9375 -1.2812,5.2188 0,2.2734 0.42578,4.0078 1.2812,5.2031 0.86328,1.1992 2.1094,1.7969 3.7344,1.7969 z"
         id="path17" />
    </symbol>
    <symbol
       id="g"
       overflow="visible">
      <path
         d="m 16.406,-4.9375 c 1.6328,0 2.8828,-0.59766 3.75,-1.7969 0.86328,-1.1953 1.2969,-2.9297 1.2969,-5.2031 0,-2.2812 -0.43359,-4.0195 -1.2969,-5.2188 -0.86719,-1.1953 -2.1172,-1.7969 -3.75,-1.7969 -1.6367,0 -2.8906,0.60547 -3.7656,1.8125 -0.875,1.1992 -1.3125,2.9336 -1.3125,5.2031 0,2.2617 0.4375,3.9961 1.3125,5.2031 0.875,1.1992 2.1289,1.7969 3.7656,1.7969 z m -5.0781,-15.484 c 1.0508,-1.3945 2.2188,-2.4219 3.5,-3.0781 1.2812,-0.66406 2.7539,-1 4.4219,-1 2.9453,0 5.3672,1.1719 7.2656,3.5156 1.8945,2.3438 2.8438,5.3594 2.8438,9.0469 0,3.6875 -0.94922,6.7031 -2.8438,9.0469 -1.8984,2.3438 -4.3203,3.5156 -7.2656,3.5156 -1.668,0 -3.1406,-0.33594 -4.4219,-1 -1.2813,-0.66406 -2.4492,-1.6914 -3.5,-3.0781 V 4e-4 H 3.6717 v -33.234 h 7.6562 z"
         id="path20" />
    </symbol>
    <symbol
       id="f"
       overflow="visible">
      <path
         d="m 0.53125,-23.922 h 7.6562 l 6.4219,16.234 5.4688,-16.234 h 7.6562 l -10.062,26.188 c -1.0117,2.6641 -2.1953,4.5234 -3.5469,5.5781 -1.3438,1.0625 -3.1211,1.5938 -5.3281,1.5938 H 4.37545 V 4.4223 h 2.3906 c 1.3008,0 2.2422,-0.21094 2.8281,-0.625 0.59375,-0.40625 1.0547,-1.1484 1.3906,-2.2188 l 0.20312,-0.65625 z"
         id="path23" />
    </symbol>
    <symbol
       id="e"
       overflow="visible">
      <path
         d="m 32.688,-2.375 c -2.0547,1 -4.1836,1.75 -6.3906,2.25 -2.2109,0.5 -4.4844,0.75 -6.8281,0.75 -5.3125,0 -9.5273,-1.4844 -12.641,-4.4531 -3.1055,-2.9688 -4.6562,-7 -4.6562,-12.094 0,-5.1328 1.5781,-9.1758 4.7344,-12.125 3.1641,-2.9453 7.5,-4.4219 13,-4.4219 2.125,0 4.1562,0.19922 6.0938,0.59375 1.9453,0.39844 3.7852,0.99219 5.5156,1.7812 v 6.5938 c -1.7812,-1.0078 -3.5547,-1.7656 -5.3125,-2.2656 -1.7617,-0.5 -3.5273,-0.75 -5.2969,-0.75 -3.2734,0 -5.793,0.91797 -7.5625,2.75 -1.7734,1.8359 -2.6562,4.4492 -2.6562,7.8438 0,3.375 0.85156,5.9844 2.5625,7.8281 1.707,1.8359 4.1328,2.75 7.2812,2.75 0.85156,0 1.6445,-0.050781 2.375,-0.15625 0.73828,-0.10156 1.3984,-0.26953 1.9844,-0.5 v -6.2031 h -5.0312 v -5.5 h 12.828 z"
         id="path26" />
    </symbol>
    <symbol
       id="o"
       overflow="visible">
      <path
         d="M 11.328,-3.4531 V 9.0939 H 3.6718 v -33.016 h 7.6562 v 3.5 c 1.0508,-1.3945 2.2188,-2.4219 3.5,-3.0781 1.2812,-0.66406 2.7539,-1 4.4219,-1 2.9453,0 5.3672,1.1719 7.2656,3.5156 1.8945,2.3438 2.8438,5.3594 2.8438,9.0469 0,3.6875 -0.94922,6.7031 -2.8438,9.0469 -1.8984,2.3438 -4.3203,3.5156 -7.2656,3.5156 -1.668,0 -3.1406,-0.33594 -4.4219,-1 -1.2813,-0.66406 -2.4492,-1.6914 -3.5,-3.0781 z m 5.0781,-15.5 c -1.6367,0 -2.8906,0.60547 -3.7656,1.8125 -0.875,1.1992 -1.3125,2.9336 -1.3125,5.2031 0,2.2617 0.4375,3.9961 1.3125,5.2031 0.875,1.1992 2.1289,1.7969 3.7656,1.7969 1.6328,0 2.8828,-0.59766 3.75,-1.7969 0.86328,-1.1953 1.2969,-2.9297 1.2969,-5.2031 0,-2.2812 -0.43359,-4.0195 -1.2969,-5.2188 -0.86719,-1.1953 -2.1172,-1.7969 -3.75,-1.7969 z"
         id="path29" />
    </symbol>
    <symbol
       id="n"
       overflow="visible">
      <path
         d="M 27.734,-14.562 V 0 h -7.7031 v -11.109 c 0,-2.0938 -0.04687,-3.5312 -0.14062,-4.3125 -0.08594,-0.78125 -0.24219,-1.3594 -0.46875,-1.7344 -0.30469,-0.5 -0.71094,-0.88281 -1.2188,-1.1562 -0.51172,-0.28125 -1.0938,-0.42188 -1.75,-0.42188 -1.5938,0 -2.8516,0.61719 -3.7656,1.8438 -0.90625,1.2305 -1.3594,2.9375 -1.3594,5.125 v 11.766 h -7.6562 v -33.234 h 7.6562 v 12.812 c 1.1445,-1.3945 2.3633,-2.4219 3.6562,-3.0781 1.3008,-0.66406 2.7383,-1 4.3125,-1 2.7578,0 4.8516,0.85156 6.2812,2.5469 1.4375,1.6875 2.1562,4.1523 2.1562,7.3906 z"
         id="path32" />
    </symbol>
    <symbol
       id="d"
       overflow="visible">
      <path
         d="m 3.6719,-23.922 h 7.6562 V 0 H 3.6719 Z m 0,-9.3125 h 7.6562 v 6.2344 H 3.6719 Z"
         id="path35" />
    </symbol>
    <symbol
       id="m"
       overflow="visible">
      <path
         d="m 3.6719,-33.234 h 7.6562 v 18.094 l 8.7969,-8.7812 h 8.8906 l -11.688,10.969 12.594,12.953 H 20.656 L 11.3279,-9.968 V 8e-4 H 3.6717 Z"
         id="path38" />
    </symbol>
    <symbol
       id="l"
       overflow="visible">
      <path
         d="m 12.234,-25.672 v 19.453 h 2.9531 c 3.3633,0 5.9297,-0.83203 7.7031,-2.5 1.7695,-1.6641 2.6562,-4.0859 2.6562,-7.2656 0,-3.1562 -0.88672,-5.5547 -2.6562,-7.2031 -1.7617,-1.6562 -4.3281,-2.4844 -7.7031,-2.4844 z m -8.2188,-6.2188 h 8.6719 c 4.8438,0 8.4453,0.34375 10.812,1.0312 2.375,0.6875 4.4102,1.8594 6.1094,3.5156 1.4883,1.4375 2.5977,3.1016 3.3281,4.9844 0.72656,1.875 1.0938,4 1.0938,6.375 0,2.4062 -0.36719,4.5586 -1.0938,6.4531 -0.73047,1.8867 -1.8398,3.5469 -3.3281,4.9844 -1.7109,1.6484 -3.7617,2.8203 -6.1562,3.5156 C 21.0539,-0.344 17.4679,-3e-4 12.6863,-3e-4 H 4.0144 Z"
         id="path41" />
    </symbol>
    <symbol
       id="k"
       overflow="visible">
      <path
         d="m 22.359,-23.172 v 5.7969 c -1.6367,-0.67578 -3.2148,-1.1875 -4.7344,-1.5312 -1.5234,-0.34375 -2.9609,-0.51562 -4.3125,-0.51562 -1.4609,0 -2.543,0.18359 -3.25,0.54688 -0.69922,0.36719 -1.0469,0.92188 -1.0469,1.6719 0,0.61719 0.26562,1.0898 0.79688,1.4219 0.53125,0.32422 1.4883,0.5625 2.875,0.71875 l 1.3438,0.1875 c 3.9141,0.5 6.5508,1.3242 7.9062,2.4688 1.3516,1.1367 2.0312,2.9219 2.0312,5.3594 0,2.5547 -0.94531,4.4688 -2.8281,5.75 -1.875,1.2812 -4.6797,1.9219 -8.4062,1.9219 -1.5859,0 -3.2188,-0.125 -4.9062,-0.375 -1.6874,-0.25 -3.4219,-0.625 -5.2031,-1.125 v -5.8125 c 1.5195,0.74219 3.082,1.2969 4.6875,1.6719 1.6016,0.36719 3.2344,0.54688 4.8906,0.54688 1.4883,0 2.6094,-0.20312 3.3594,-0.60938 0.75781,-0.41406 1.1406,-1.0312 1.1406,-1.8438 0,-0.6875 -0.26172,-1.1953 -0.78125,-1.5312 -0.52344,-0.33203 -1.5586,-0.59375 -3.1094,-0.78125 l -1.3438,-0.17188 c -3.4062,-0.42578 -5.793,-1.2109 -7.1562,-2.3594 -1.3672,-1.1562 -2.0469,-2.9102 -2.0469,-5.2656 0,-2.5312 0.86719,-4.4062 2.6094,-5.625 1.7383,-1.2266 4.3984,-1.8438 7.9844,-1.8438 1.4062,0 2.8828,0.10938 4.4375,0.32812 1.5508,0.21094 3.2383,0.54297 5.0625,1 z"
         id="path44" />
    </symbol>
    <symbol
       id="j"
       overflow="visible">
      <path
         d="m 19.953,-4.0625 c -1.0547,1.3984 -2.2148,2.4219 -3.4844,3.0781 -1.2734,0.65625 -2.7422,0.98438 -4.4062,0.98438 -2.918,0 -5.3281,-1.1484 -7.2344,-3.4531 -1.9062,-2.3008 -2.8594,-5.2266 -2.8594,-8.7812 0,-3.582 0.95312,-6.5156 2.8594,-8.7969 1.90628,-2.2813 4.3164,-3.4219 7.2344,-3.4219 1.6641,0 3.1328,0.32812 4.4062,0.98438 1.2695,0.64844 2.4297,1.6797 3.4844,3.0938 v -3.5469 h 7.6875 v 21.516 c 0,3.8438 -1.2148,6.7734 -3.6406,8.7969 -2.4297,2.0312 -5.9492,3.0469 -10.562,3.0469 -1.5,0 -2.9492,-0.11719 -4.3438,-0.34375 C 7.6957,8.87546 6.2972,8.5239 4.891,8.04731 v -5.9531 c 1.3438,0.76953 2.6562,1.3438 3.9375,1.7188 1.2813,0.375 2.5664,0.5625 3.8594,0.5625 2.5078,0 4.3477,-0.54688 5.5156,-1.6406 1.1641,-1.0938 1.75,-2.8047 1.75,-5.1406 z m -5.0469,-14.891 c -1.5742,0 -2.8047,0.58984 -3.6875,1.7656 -0.88672,1.168 -1.3281,2.8203 -1.3281,4.9531 0,2.1875 0.42578,3.8516 1.2812,4.9844 0.85156,1.1367 2.0977,1.7031 3.7344,1.7031 1.5938,0 2.832,-0.58203 3.7188,-1.75 0.88281,-1.1758 1.3281,-2.8203 1.3281,-4.9375 0,-2.1328 -0.44531,-3.7852 -1.3281,-4.9531 -0.88672,-1.1758 -2.125,-1.7656 -3.7188,-1.7656 z"
         id="path47" />
    </symbol>
  </defs>
  <g
     id="g98"
     transform="translate(-69.997)">
    <path
       d="m 350,0 c -74.797,0 -145.11,29.129 -197.98,82.016 -52.895,52.883 -82.023,123.2 -82.023,197.98 0,74.78 29.129,145.1 82.023,197.98 52.875,52.895 123.19,82.023 197.98,82.023 74.79,0 145.11,-29.129 197.98,-82.016 52.895,-52.887 82.023,-123.2 82.023,-197.98 0,-74.78 -29.129,-145.1 -82.023,-197.98 C 495.105,29.128 424.79,0 350,0 Z M 523.24,453.23 C 476.97,499.507 415.44,524.996 350,524.996 284.56,524.996 223.03,499.508 176.76,453.23 130.483,406.957 104.994,345.44 104.994,280 c 0,-65.44 25.488,-126.96 71.766,-173.23 46.27,-46.277 107.8,-71.766 173.24,-71.766 65.44,0 126.97,25.488 173.24,71.766 46.277,46.273 71.766,107.79 71.766,173.23 0,65.44 -25.488,126.96 -71.766,173.23 z"
       id="path52"
       style="fill:#777777;fill-opacity:1" />
    <path
       d="m 507.5,262.5 h -315 c -9.6602,0 -17.5,7.8398 -17.5,17.5 0,9.6602 7.8398,17.5 17.5,17.5 h 315 c 9.6602,0 17.5,-7.8398 17.5,-17.5 0,-9.6602 -7.8398,-17.5 -17.5,-17.5 z"
       id="path54"
       style="fill:#777777;fill-opacity:1" />
  </g>
</svg>
