<?xml version="1.0" encoding="UTF-8" standalone="no"?>
<!-- Created with Inkscape (http://www.inkscape.org/) -->

<svg
   width="251.35416mm"
   height="251.35416mm"
   viewBox="0 0 251.35416 251.35416"
   version="1.1"
   id="svg5"
   xml:space="preserve"
   inkscape:version="1.2.2 (1:1.2.2+202212051550+b0a8486541)"
   sodipodi:docname="denis_qr.svg"
   xmlns:inkscape="http://www.inkscape.org/namespaces/inkscape"
   xmlns:sodipodi="http://sodipodi.sourceforge.net/DTD/sodipodi-0.dtd"
   xmlns="http://www.w3.org/2000/svg"
   xmlns:svg="http://www.w3.org/2000/svg"><sodipodi:namedview
     id="namedview7"
     pagecolor="#ffffff"
     bordercolor="#666666"
     borderopacity="1.0"
     inkscape:showpageshadow="2"
     inkscape:pageopacity="0.0"
     inkscape:pagecheckerboard="0"
     inkscape:deskcolor="#d1d1d1"
     inkscape:document-units="mm"
     showgrid="false"
     inkscape:zoom="0.2102413"
     inkscape:cx="1415.0407"
     inkscape:cy="632.60643"
     inkscape:window-width="1920"
     inkscape:window-height="1009"
     inkscape:window-x="0"
     inkscape:window-y="34"
     inkscape:window-maximized="1"
     inkscape:current-layer="layer1" /><defs
     id="defs2" /><g
     inkscape:label="Layer 1"
     inkscape:groupmode="layer"
     id="layer1"
     transform="translate(412.19158,18.708048)"><path
       style="fill:#000000;stroke-width:0.264583"
       d="m -412.19158,197.45652 v -35.18958 h 35.18958 35.18958 v 35.18958 35.18959 h -35.18958 -35.18958 z m 60.32499,0 v -25.13541 h -25.13541 -25.13542 v 25.13541 25.13542 h 25.13542 25.13541 z m -40.21666,0 v -15.08124 h 15.08125 15.08125 v 15.08124 15.08125 h -15.08125 -15.08125 z m 60.325,15.08125 v -20.10833 h 5.02708 5.02708 v -10.05416 -10.05417 h 5.02709 5.02708 v -5.02708 -5.02709 h -10.05417 -10.05416 v -5.02708 -5.02708 h 5.02708 5.02708 v -5.02709 -5.02708 h -10.05416 -10.05417 v 5.02708 5.02709 h -10.05417 -10.05416 v -5.02709 -5.02708 h -5.02709 -5.02708 v 5.02708 5.02709 h -5.02708 -5.02709 v -10.05417 -10.05417 h 10.05417 10.05417 v -5.02708 -5.02708 h -15.08125 -15.08125 v 5.02708 5.02708 h -5.02709 -5.02708 v 5.02709 5.02708 h -5.02708 -5.02708 v -5.02708 -5.02709 h 5.02708 5.02708 v -10.05416 -10.05417 h 5.02708 5.02709 v -5.02708 -5.02709 h -5.02709 -5.02708 v -5.027077 -5.02708 h 5.02708 5.02709 v 5.02708 5.027077 h 5.02708 5.02708 v -5.027077 -5.02708 h 10.05417 10.05417 v 15.081247 15.08125 h 10.05416 10.05417 v -5.02709 -5.02708 h -5.02708 -5.02709 v -5.02708 -5.02709 h 5.02709 5.02708 v -5.027077 -5.02708 h -5.02708 -5.02709 v -5.02708 -5.02709 h -10.05416 -10.05417 v -5.02708 -5.02708 h -10.05417 -10.05416 v 5.02708 5.02708 h -10.05417 -10.05416 v -10.05416 -10.05417 h 20.10833 20.10833 v 5.02708 5.02709 h 10.05417 10.05416 v -5.02709 -5.02708 h 5.02709 5.02708 v 5.02708 5.02709 h 5.02708 5.02709 v -5.02709 -5.02708 h 5.02708 5.02708 V 56.6982 51.671116 h -5.02708 -5.02708 V 46.644033 41.61695 h 5.02708 5.02708 v -5.027083 -5.027083 h -5.02708 -5.02708 V 16.481534 1.4002852 h 5.02708 5.02708 v 5.027083 5.0270828 h 5.02709 5.02708 v 5.027083 5.027083 h 5.02708 5.02709 V 11.454451 1.4002852 h 10.05417 10.05416 v -5.027083 -5.027083 h 10.05417 10.05416 v 5.027083 5.027083 h 5.02709 5.02708 v 5.027083 5.0270828 h -5.02708 -5.02709 v 5.027083 5.027083 h 5.02709 5.02708 v 5.027084 5.027083 h 5.02708 5.02709 V 41.61695 51.671116 h -5.02709 -5.02708 v 5.027084 5.027083 h 10.05417 10.05416 v 5.02708 5.02709 h -5.02708 -5.02708 v 5.02708 5.02708 h -5.02709 -5.02708 v -10.05416 -10.05417 h -5.02708 -5.02709 v 5.02708 5.02709 h -5.02708 -5.02708 v 5.02708 5.02708 h -5.02708 -5.02709 v -5.02708 -5.02708 h 5.02709 5.02708 v -5.02709 -5.02708 h 5.02708 5.02708 V 56.6982 51.671116 h -5.02708 -5.02708 V 41.61695 31.562784 h -5.02708 -5.02709 V 41.61695 51.671116 h -5.02708 -5.02708 v 5.027084 5.027083 h -5.02709 -5.02708 V 56.6982 51.671116 h -5.02709 -5.02708 v 5.027084 5.027083 h -5.02708 -5.02709 v 5.02708 5.02709 h 5.02709 5.02708 v 5.02708 5.02708 h -10.05417 -10.05416 v 10.05417 10.054157 h 10.05416 10.05417 v 5.02709 5.02708 h 5.02708 5.02709 V 101.94194 91.887783 h 20.10833 20.10833 v 5.02708 5.027077 h 5.02709 5.02708 v 5.02709 5.02708 h 5.02708 5.02709 V 101.94194 91.887783 h 5.02708 5.02708 v 5.02708 5.027077 h 5.02709 5.02708 v 5.02709 5.02708 h 5.02708 5.02709 v -5.02708 -5.02709 h 5.02708 5.02708 v -5.027077 -5.02708 h -5.02708 -5.02708 v -5.02708 -5.02709 h -5.02709 -5.02708 v -5.02708 -5.02708 h 5.02708 5.02709 v -5.02709 -5.02708 h 15.08125 15.08125 v 5.02708 5.02709 h 5.02708 5.02708 v -5.02709 -5.02708 h 5.02708 5.02709 v 5.02708 5.02709 h -5.02709 -5.02708 v 5.02708 5.02708 h -5.02708 -5.02708 v -5.02708 -5.02708 h -15.08125 -15.08125 v 5.02708 5.02708 h 5.02708 5.02708 v 5.02709 5.02708 h 10.05417 10.05417 v 5.02708 5.027077 h 10.05416 10.05417 v 10.05417 10.05417 h -5.02709 -5.02708 v 5.02708 5.02708 h 5.02708 5.02709 v 20.10834 20.10833 h -5.02709 -5.02708 v 10.05417 10.05416 h 5.02708 5.02709 v 5.02708 5.02709 h -5.02709 -5.02708 v 5.02708 5.02708 h -5.02708 -5.02708 v 5.02709 5.02708 h 10.05416 10.05417 v 5.02708 5.02709 h -40.21667 -40.21666 v -5.02709 -5.02708 h 5.02708 5.02708 v -5.02708 -5.02709 h -5.02708 -5.02708 v -5.02708 -5.02708 h -5.02709 -5.02708 v -25.13542 -25.13541 h -5.02708 -5.02709 v -10.05417 -10.05417 h -5.02708 -5.02708 v 5.02709 5.02708 h -10.05417 -10.05416 v 5.02708 5.02709 h 10.05416 10.05417 v 5.02708 5.02708 h -5.02708 -5.02709 v 10.05417 10.05417 h 5.02709 5.02708 v 5.02708 5.02708 h 5.02708 5.02708 v 5.02708 5.02709 h -5.02708 -5.02708 v 5.02708 5.02708 h -15.08125 -15.08125 v 10.05417 10.05417 h -15.08125 -15.08125 z m 20.10833,5.02709 v -5.02709 h 5.02708 5.02709 v -5.02708 -5.02708 h 5.02708 5.02709 v -5.02709 -5.02708 h -5.02709 -5.02708 v -5.02708 -5.02708 h 5.02708 5.02709 v -5.02709 -5.02708 h -10.05417 -10.05417 v 10.05417 10.05416 h -5.02708 -5.02709 v 15.08125 15.08125 h 5.02709 5.02708 z m 0,-20.10834 v -5.02708 h 5.02708 5.02709 v 5.02708 5.02709 h -5.02709 -5.02708 z m 100.54167,10.05417 v -15.08125 h -5.02709 -5.02708 v 15.08125 15.08125 h 5.02708 5.02709 z m 20.10833,5.02708 v -10.05416 h -5.02708 -5.02709 v 10.05416 10.05417 h 5.02709 5.02708 z m 10.05417,-30.16249 v -10.05417 h -5.02709 -5.02708 v -10.05417 -10.05416 h -5.02708 -5.02709 v 15.08125 15.08125 h 5.02709 5.02708 v 5.02708 5.02708 h 5.02708 5.02709 z m -30.1625,-15.08125 v -15.08125 h -15.08125 -15.08125 v 15.08125 15.08125 h 15.08125 15.08125 z m -20.10834,0 v -5.02709 h 5.02709 5.02708 v 5.02709 5.02708 h -5.02708 -5.02709 z m -60.32499,-10.05417 v -5.02708 h -10.05417 -10.05417 v 5.02708 5.02708 h 10.05417 10.05417 z m 120.64999,0 v -5.02708 h -5.02708 -5.02708 v 5.02708 5.02708 h 5.02708 5.02708 z m -170.92083,-20.10833 v -5.02709 h -10.05417 -10.05416 v 5.02709 5.02708 h 10.05416 10.05417 z m 50.27084,-5.02709 v -10.05416 h 5.02708 5.02708 v 5.02708 5.02708 h 5.02709 5.02708 v -5.02708 -5.02708 h -5.02708 -5.02709 v -5.02709 -5.02708 h 10.05417 10.05416 v -5.02708 -5.02709 h -15.08124 -15.08125 v 10.05417 10.05417 h -10.05417 -10.05417 v -5.02709 -5.02708 h -10.05417 -10.05416 v -5.02708 -5.02709 h -5.02709 -5.02708 v 5.02709 5.02708 h 5.02708 5.02709 v 5.02708 5.02709 h 10.05416 10.05417 v 10.05416 10.05417 h 10.05417 10.05417 z m 70.37916,5.02709 v -5.02709 h 5.02708 5.02709 v -5.02708 -5.02708 h -5.02709 -5.02708 v 5.02708 5.02708 h -10.05417 -10.05416 v -5.02708 -5.02708 h -10.05417 -10.05417 v 5.02708 5.02708 h 10.05417 10.05417 v 5.02709 5.02708 h 10.05416 10.05417 z m 50.27083,0 v -5.02709 h -10.05416 -10.05417 v -5.02708 -5.02708 h 10.05417 10.05416 v -5.02709 -5.02708 h -10.05416 -10.05417 v -5.02708 -5.02709 h -5.02708 -5.02709 v 20.10834 20.10833 h 15.08125 15.08125 z M -341.81242,76.806533 v -5.02708 h -5.02708 -5.02709 v 5.02708 5.02708 h 5.02709 5.02708 z m 30.1625,-30.1625 V 41.61695 h 5.02708 5.02709 v 5.027083 5.027083 h 5.02708 5.02709 V 41.61695 31.562784 h 5.02708 5.02708 V 21.508617 11.454451 h -5.02708 -5.02708 v 10.054166 10.054167 h -10.05417 -10.05417 v 5.027083 5.027083 h -5.02708 -5.02709 v 5.027083 5.027083 h 5.02709 5.02708 z m 60.325,-5.027083 V 31.562784 h -5.02708 -5.02709 V 41.61695 51.671116 h 5.02709 5.02708 z m -40.21666,186.00207 v -5.02708 h 5.02708 5.02708 v 5.02708 5.02709 h -5.02708 -5.02708 z m 20.10833,0 v -5.02708 h 5.02708 5.02708 v -5.02708 -5.02709 h 5.02709 5.02708 v 5.02709 5.02708 h -5.02708 -5.02709 v 5.02708 5.02709 h -5.02708 -5.02708 z M -412.19158,16.481534 v -35.189582 h 35.18958 35.18958 v 35.189582 35.189582 h -35.18958 -35.18958 z m 60.32499,0 V -8.6538808 H -377.002 -402.13742 V 16.481534 41.61695 h 25.13542 25.13541 z m -40.21666,0 V 1.4002852 h 15.08125 15.08125 v 15.0812488 15.08125 h -15.08125 -15.08125 z m 160.86666,0 v -35.189582 h 35.18959 35.18958 v 35.189582 35.189582 h -35.18958 -35.18959 z m 60.325,0 V -8.6538808 H -196.027 -221.16242 V 16.481534 41.61695 h 25.13542 25.13541 z m -40.21666,0 V 1.4002852 h 15.08125 15.08125 v 15.0812488 15.08125 h -15.08125 -15.08125 z m -120.65,-30.162499 v -5.027083 h 10.05416 10.05417 v 5.027083 5.0270842 h -10.05417 -10.05416 z m 80.43333,0 v -5.027083 h 5.02708 5.02709 v 5.027083 5.0270842 h -5.02709 -5.02708 z"
       id="path302" /></g></svg>
