<?xml version="1.0" encoding="UTF-8" standalone="no"?>
<svg
   width="32.260029pt"
   height="48.390045pt"
   version="1.1"
   viewBox="0 0 32.260029 48.390045"
   id="svg8"
   sodipodi:docname="scroll.svg"
   inkscape:version="1.2.1 (1:1.2.1+202210291244+9c6d41e410)"
   xmlns:inkscape="http://www.inkscape.org/namespaces/inkscape"
   xmlns:sodipodi="http://sodipodi.sourceforge.net/DTD/sodipodi-0.dtd"
   xmlns="http://www.w3.org/2000/svg"
   xmlns:svg="http://www.w3.org/2000/svg">
  <defs
     id="defs12" />
  <sodipodi:namedview
     id="namedview10"
     pagecolor="#ffffff"
     bordercolor="#666666"
     borderopacity="1.0"
     inkscape:showpageshadow="2"
     inkscape:pageopacity="0.0"
     inkscape:pagecheckerboard="0"
     inkscape:deskcolor="#d1d1d1"
     inkscape:document-units="pt"
     showgrid="false"
     inkscape:zoom="0.25285714"
     inkscape:cx="-611.01696"
     inkscape:cy="126.55367"
     inkscape:window-width="1920"
     inkscape:window-height="1009"
     inkscape:window-x="0"
     inkscape:window-y="34"
     inkscape:window-maximized="1"
     inkscape:current-layer="svg8" />
  <g
     id="g6"
     transform="matrix(0.08640925,0,0,0.08640925,-14.113223,0)"
     style="fill:#ffffff">
    <path
       d="m 350,128.33 c -14,0 -23.332,9.332 -23.332,23.332 v 70 c 0,14 9.332,23.332 23.332,23.332 14,0 23.332,-9.332 23.332,-23.332 v -70 C 373.332,137.666 364,128.33 350,128.33 Z"
       id="path2"
       style="fill:#ffffff" />
    <path
       d="M 350,0 C 247.33,0 163.33,84 163.33,186.67 v 186.67 c 0,102.67 84,186.67 186.67,186.67 102.67,0 186.67,-84 186.67,-186.67 V 186.67 C 536.67,84 452.67,0 350,0 Z m 140,373.33 c 0,77 -63,140 -140,140 -77,0 -140,-63 -140,-140 V 186.67 c 0,-77 63,-140 140,-140 77,0 140,63 140,140 z"
       id="path4"
       style="fill:#ffffff" />
  </g>
</svg>
