<?xml version="1.0" encoding="UTF-8" standalone="no"?>
<svg
   width="296.80219pt"
   height="389.76099pt"
   version="1.1"
   viewBox="0 0 296.80219 389.76099"
   id="svg190"
   sodipodi:docname="taxa_native_region.svg"
   inkscape:version="1.2 (1:1.2.1+202207142221+cd75a1ee6d)"
   xmlns:inkscape="http://www.inkscape.org/namespaces/inkscape"
   xmlns:sodipodi="http://sodipodi.sourceforge.net/DTD/sodipodi-0.dtd"
   xmlns="http://www.w3.org/2000/svg"
   xmlns:svg="http://www.w3.org/2000/svg">
  <sodipodi:namedview
     id="namedview192"
     pagecolor="#ffffff"
     bordercolor="#666666"
     borderopacity="1.0"
     inkscape:showpageshadow="2"
     inkscape:pageopacity="0.0"
     inkscape:pagecheckerboard="0"
     inkscape:deskcolor="#d1d1d1"
     inkscape:document-units="pt"
     showgrid="false"
     inkscape:zoom="0.25285714"
     inkscape:cx="168.0791"
     inkscape:cy="351.9774"
     inkscape:window-width="1920"
     inkscape:window-height="1009"
     inkscape:window-x="0"
     inkscape:window-y="34"
     inkscape:window-maximized="1"
     inkscape:current-layer="g188" />
  <defs
     id="defs62">
    <symbol
       id="t"
       overflow="visible">
      <path
         d="m 18.766,-1.125 c -0.96875,0.5 -1.9805,0.875 -3.0312,1.125 -1.043,0.25781 -2.1367,0.39062 -3.2812,0.39062 -3.3984,0 -6.0898,-0.94531 -8.0781,-2.8438 -1.9922,-1.9062 -2.9844,-4.4844 -2.9844,-7.7344 0,-3.2578 0.99219,-5.8359 2.9844,-7.7344 1.9883,-1.9062 4.6797,-2.8594 8.0781,-2.8594 1.1445,0 2.2383,0.13281 3.2812,0.39062 1.0508,0.25 2.0625,0.625 3.0312,1.125 v 4.2188 c -0.98047,-0.65625 -1.9453,-1.1406 -2.8906,-1.4531 -0.94922,-0.3125 -1.9492,-0.46875 -3,-0.46875 -1.875,0 -3.3516,0.60547 -4.4219,1.8125 -1.0742,1.1992 -1.6094,2.8555 -1.6094,4.9688 0,2.1055 0.53516,3.7617 1.6094,4.9688 1.0703,1.1992 2.5469,1.7969 4.4219,1.7969 1.0508,0 2.0508,-0.14844 3,-0.45312 0.94531,-0.3125 1.9102,-0.80078 2.8906,-1.4688 z"
         id="path2" />
    </symbol>
    <symbol
       id="a"
       overflow="visible">
      <path
         d="m 13.734,-11.141 c -0.4375,-0.19531 -0.87109,-0.34375 -1.2969,-0.4375 -0.41797,-0.10156 -0.83984,-0.15625 -1.2656,-0.15625 -1.2617,0 -2.2305,0.40625 -2.9062,1.2188 -0.67969,0.80469 -1.0156,1.9531 -1.0156,3.4531 v 7.0625 H 2.3591 v -15.312 h 4.8906 v 2.5156 c 0.625,-1 1.3438,-1.7266 2.1562,-2.1875 0.82031,-0.46875 1.8008,-0.70312 2.9375,-0.70312 0.16406,0 0.34375,0.01172 0.53125,0.03125 0.19531,0.01172 0.47656,0.03906 0.84375,0.07813 z"
         id="path5" />
    </symbol>
    <symbol
       id="c"
       overflow="visible">
      <path
         d="m 17.641,-7.7031 v 1.4062 H 6.188 c 0.125,1.1484 0.53906,2.0078 1.25,2.5781 0.70703,0.57422 1.7031,0.85938 2.9844,0.85938 1.0312,0 2.082,-0.14844 3.1562,-0.45312 1.082,-0.3125 2.1914,-0.77344 3.3281,-1.3906 v 3.7656 c -1.1562,0.4375 -2.3125,0.76562 -3.4688,0.98438 -1.1562,0.22656 -2.3125,0.34375 -3.4688,0.34375 -2.7734,0 -4.9297,-0.70312 -6.4688,-2.1094 -1.5312,-1.4062 -2.2969,-3.3789 -2.2969,-5.9219 0,-2.5 0.75391,-4.4609 2.2656,-5.8906 1.5078,-1.4375 3.582,-2.1562 6.2188,-2.1562 2.4062,0 4.332,0.73047 5.7812,2.1875 1.4453,1.4492 2.1719,3.3828 2.1719,5.7969 z m -5.0312,-1.625 c 0,-0.92578 -0.27344,-1.6719 -0.8125,-2.2344 -0.54297,-0.57031 -1.25,-0.85938 -2.125,-0.85938 -0.94922,0 -1.7188,0.26562 -2.3125,0.79688 -0.5937,0.53126 -0.96484,1.2969 -1.1094,2.2969 z"
         id="path8" />
    </symbol>
    <symbol
       id="b"
       overflow="visible">
      <path
         d="m 9.2188,-6.8906 c -1.0234,0 -1.793,0.17188 -2.3125,0.51562 -0.51172,0.34375 -0.76562,0.85547 -0.76562,1.5312 0,0.625 0.20703,1.1172 0.625,1.4688 0.41406,0.34375 0.98828,0.51562 1.7188,0.51562 0.92578,0 1.7031,-0.32812 2.3281,-0.98438 0.63281,-0.66406 0.95312,-1.4922 0.95312,-2.4844 v -0.5625 z m 7.4688,-1.8438 V 0 h -4.9219 v -2.2656 c -0.65625,0.92969 -1.3984,1.6055 -2.2188,2.0312 -0.82422,0.41406 -1.8242,0.625 -3,0.625 -1.5859,0 -2.8711,-0.45703 -3.8594,-1.375 -0.99219,-0.92578 -1.4844,-2.1289 -1.4844,-3.6094 0,-1.7891 0.61328,-3.1016 1.8438,-3.9375 1.2383,-0.84375 3.1797,-1.2656 5.8281,-1.2656 h 2.8906 v -0.39062 c 0,-0.76953 -0.30859,-1.332 -0.92188,-1.6875 -0.61719,-0.36328 -1.5703,-0.54688 -2.8594,-0.54688 -1.0547,0 -2.0312,0.10547 -2.9375,0.3125 -0.89844,0.21094 -1.7305,0.52344 -2.5,0.9375 v -3.7344 c 1.0391,-0.25 2.0859,-0.44141 3.1406,-0.57812 1.0625,-0.13281 2.125,-0.20312 3.1875,-0.20312 2.7578,0 4.75,0.54688 5.9688,1.6406 1.2266,1.0859 1.8438,2.8555 1.8438,5.3125 z"
         id="path11" />
    </symbol>
    <symbol
       id="e"
       overflow="visible">
      <path
         d="m 7.7031,-19.656 v 4.3438 H 12.75 v 3.5 H 7.7031 v 6.5 c 0,0.71094 0.14062,1.1875 0.42188,1.4375 0.28126,0.25 0.83594,0.375 1.6719,0.375 h 2.5156 v 3.5 h -4.1875 c -1.9375,0 -3.3125,-0.39844 -4.125,-1.2031 -0.80469,-0.8125 -1.2031,-2.1797 -1.2031,-4.1094 v -6.5 h -2.4219 v -3.5 h 2.4219 v -4.3438 z"
         id="path14" />
    </symbol>
    <symbol
       id="f"
       overflow="visible">
      <path
         d="m 12.766,-13.078 v -8.2031 h 4.9219 V -10e-5 H 12.766 v -2.2188 c -0.66797,0.90625 -1.4062,1.5703 -2.2188,1.9844 -0.8126,0.4141 -1.7578,0.625 -2.8281,0.625 -1.8867,0 -3.4336,-0.75 -4.6406,-2.25 -1.2109,-1.5 -1.8125,-3.4258 -1.8125,-5.7812 0,-2.3633 0.60156,-4.2969 1.8125,-5.7969 1.207,-1.5 2.7539,-2.25 4.6406,-2.25 1.0625,0 2,0.21484 2.8125,0.64062 0.82031,0.42969 1.5664,1.0859 2.2344,1.9688 z m -3.2188,9.9219 c 1.0391,0 1.8359,-0.37891 2.3906,-1.1406 0.55078,-0.76953 0.82812,-1.8828 0.82812,-3.3438 0,-1.457 -0.27734,-2.5664 -0.82812,-3.3281 -0.55469,-0.76953 -1.3516,-1.1562 -2.3906,-1.1562 -1.043,0 -1.8398,0.38672 -2.3906,1.1562 -0.55469,0.76172 -0.82812,1.8711 -0.82812,3.3281 0,1.4609 0.27344,2.5742 0.82812,3.3438 0.55078,0.76172 1.3477,1.1406 2.3906,1.1406 z"
         id="path17" />
    </symbol>
    <symbol
       id="j"
       overflow="visible">
      <path
         d="m 10.5,-3.1562 c 1.0508,0 1.8516,-0.37891 2.4062,-1.1406 0.55078,-0.76953 0.82812,-1.8828 0.82812,-3.3438 0,-1.457 -0.27734,-2.5664 -0.82812,-3.3281 -0.55469,-0.76953 -1.3555,-1.1562 -2.4062,-1.1562 -1.0547,0 -1.8594,0.38672 -2.4219,1.1562 -0.55469,0.77344 -0.82812,1.8828 -0.82812,3.3281 0,1.4492 0.27344,2.5586 0.82812,3.3281 0.5625,0.77344 1.3672,1.1562 2.4219,1.1562 z m -3.25,-9.9219 c 0.67578,-0.88281 1.4219,-1.5391 2.2344,-1.9688 0.82031,-0.42578 1.7656,-0.64062 2.8281,-0.64062 1.8945,0 3.4453,0.75 4.6562,2.25 1.207,1.5 1.8125,3.4336 1.8125,5.7969 0,2.3555 -0.60547,4.2812 -1.8125,5.7812 -1.2109,1.5 -2.7617,2.25 -4.6562,2.25 -1.0625,0 -2.0078,-0.21094 -2.8281,-0.625 C 8.6719,-0.6602 7.9258,-1.32032 7.25,-2.21882 V -2e-5 H 2.3594 v -21.281 H 7.25 Z"
         id="path20" />
    </symbol>
    <symbol
       id="i"
       overflow="visible">
      <path
         d="m 0.34375,-15.312 h 4.8906 l 4.125,10.391 3.5,-10.391 h 4.8906 l -6.4375,16.766 c -0.64844,1.6953 -1.4023,2.8828 -2.2656,3.5625 -0.86719,0.6875 -2,1.0312 -3.4062,1.0312 H 2.79685 V 2.8289 h 1.5312 c 0.83203,0 1.4375,-0.13672 1.8125,-0.40625 C 6.52336,2.16093 6.82024,1.69218 7.03117,1.01645 L 7.17179,0.59457 Z"
         id="path23" />
    </symbol>
    <symbol
       id="h"
       overflow="visible">
      <path
         d="m 2.5781,-20.406 h 6.6875 l 4.6562,10.922 4.6719,-10.922 h 6.6875 V 0 H 20.2968 V -14.938 L 15.5937,-3.922 H 12.2656 L 7.5625,-14.938 V 0 H 2.5781 Z"
         id="path26" />
    </symbol>
    <symbol
       id="g"
       overflow="visible">
      <path
         d="m 14.719,-14.828 v 3.9844 c -0.65625,-0.45703 -1.3242,-0.79688 -2,-1.0156 -0.66797,-0.21875 -1.3594,-0.32812 -2.0781,-0.32812 -1.3672,0 -2.4336,0.40234 -3.2031,1.2031 -0.76172,0.79297 -1.1406,1.9062 -1.1406,3.3438 0,1.4297 0.37891,2.543 1.1406,3.3438 0.76953,0.79297 1.8359,1.1875 3.2031,1.1875 0.75781,0 1.4844,-0.10938 2.1719,-0.32812 0.6875,-0.22656 1.3203,-0.56641 1.9062,-1.0156 v 4 c -0.76172,0.28125 -1.5391,0.48828 -2.3281,0.625 -0.78125,0.14453 -1.5742,0.21875 -2.375,0.21875 -2.7617,0 -4.9219,-0.70703 -6.4844,-2.125 -1.5547,-1.4141 -2.3281,-3.3828 -2.3281,-5.9062 0,-2.5312 0.77344,-4.5039 2.3281,-5.9219 1.5625,-1.4141 3.7227,-2.125 6.4844,-2.125 0.80078,0 1.5938,0.07422 2.375,0.21875 0.78125,0.13672 1.5547,0.35156 2.3281,0.64062 z"
         id="path29" />
    </symbol>
    <symbol
       id="s"
       overflow="visible">
      <path
         d="m 0.14062,-20.406 h 18.812 v 3.9688 h -6.7656 V 8e-4 h -5.2656 v -16.438 h -6.7812 z"
         id="path32" />
    </symbol>
    <symbol
       id="d"
       overflow="visible">
      <path
         d="m 9.6406,-12.188 c -1.0859,0 -1.9141,0.39062 -2.4844,1.1719 -0.57422,0.78125 -0.85938,1.9062 -0.85938,3.375 0,1.4688 0.28516,2.5938 0.85938,3.375 0.57031,0.77344 1.3984,1.1562 2.4844,1.1562 1.0625,0 1.875,-0.38281 2.4375,-1.1562 0.57031,-0.78125 0.85938,-1.9062 0.85938,-3.375 0,-1.4688 -0.28906,-2.5938 -0.85938,-3.375 -0.5625,-0.78125 -1.375,-1.1719 -2.4375,-1.1719 z m 0,-3.5 c 2.6328,0 4.6914,0.71484 6.1719,2.1406 1.4766,1.418 2.2188,3.3867 2.2188,5.9062 0,2.5117 -0.74219,4.4805 -2.2188,5.9062 C 14.332,-0.317 12.2734,0.39 9.6406,0.39 6.9922,0.39 4.9258,-0.31703 3.4375,-1.735 1.9453,-3.1608 1.2031,-5.1295 1.2031,-7.6412 c 0,-2.5195 0.74219,-4.4883 2.2344,-5.9062 1.4883,-1.4258 3.5547,-2.1406 6.2031,-2.1406 z"
         id="path35" />
    </symbol>
    <symbol
       id="r"
       overflow="visible">
      <path
         d="m 12.422,-21.281 v 3.2188 H 9.7189 c -0.6875,0 -1.1719,0.125 -1.4531,0.375 -0.27344,0.25 -0.40625,0.6875 -0.40625,1.3125 v 1.0625 h 4.1875 v 3.5 H 7.85955 V -2e-4 h -4.8906 v -11.812 h -2.4375 v -3.5 h 2.4375 v -1.0625 c 0,-1.6641 0.46094,-2.8984 1.3906,-3.7031 0.92578,-0.80078 2.3672,-1.2031 4.3281,-1.2031 z"
         id="path38" />
    </symbol>
    <symbol
       id="q"
       overflow="visible">
      <path
         d="m 16.547,-12.766 c 0.61328,-0.94531 1.3477,-1.6719 2.2031,-2.1719 0.85156,-0.5 1.7891,-0.75 2.8125,-0.75 1.7578,0 3.0977,0.54688 4.0156,1.6406 0.92578,1.0859 1.3906,2.6562 1.3906,4.7188 V -4e-4 h -4.9219 v -7.9844 -0.35938 c 0.0078,-0.13281 0.01563,-0.32031 0.01563,-0.5625 0,-1.082 -0.16406,-1.8633 -0.48438,-2.3438 -0.3125,-0.48828 -0.82422,-0.73438 -1.5312,-0.73438 -0.92969,0 -1.6484,0.38672 -2.1562,1.1562 -0.51172,0.76172 -0.77344,1.8672 -0.78125,3.3125 v 7.5156 h -4.9219 v -7.9844 c 0,-1.6953 -0.14844,-2.7852 -0.4375,-3.2656 -0.29297,-0.48828 -0.8125,-0.73438 -1.5625,-0.73438 -0.9375,0 -1.6641,0.38672 -2.1719,1.1562 -0.51172,0.76172 -0.76562,1.8594 -0.76562,3.2969 v 7.5312 h -4.9219 v -15.312 h 4.9219 v 2.2344 c 0.60156,-0.86328 1.2891,-1.5156 2.0625,-1.9531 0.78125,-0.4375 1.6406,-0.65625 2.5781,-0.65625 1.0625,0 2,0.25781 2.8125,0.76562 0.8125,0.51172 1.4258,1.2305 1.8438,2.1562 z"
         id="path41" />
    </symbol>
    <symbol
       id="p"
       overflow="visible">
      <path
         d="M 17.75,-9.3281 V 0 h -4.9219 v -7.1094 c 0,-1.3438 -0.03125,-2.2656 -0.09375,-2.7656 -0.0625,-0.5 -0.16797,-0.86719 -0.3125,-1.1094 -0.1875,-0.3125 -0.44922,-0.55469 -0.78125,-0.73438 -0.32422,-0.17578 -0.69531,-0.26562 -1.1094,-0.26562 -1.0234,0 -1.8242,0.39844 -2.4062,1.1875 -0.58594,0.78125 -0.875,1.8711 -0.875,3.2656 V -1e-4 H 2.3594 v -21.281 H 7.25 v 8.2031 c 0.73828,-0.88281 1.5195,-1.5391 2.3438,-1.9688 0.83203,-0.42578 1.75,-0.64062 2.75,-0.64062 1.7695,0 3.1133,0.54688 4.0312,1.6406 0.91406,1.0859 1.375,2.6562 1.375,4.7188 z"
         id="path44" />
    </symbol>
    <symbol
       id="o"
       overflow="visible">
      <path
         d="m 2.5781,-20.406 h 5.875 l 7.4219,14 v -14 h 4.9844 V 0 h -5.875 L 7.5625,-14 V 0 H 2.5781 Z"
         id="path47" />
    </symbol>
    <symbol
       id="n"
       overflow="visible">
      <path
         d="m 2.1875,-5.9688 v -9.3438 h 4.9219 v 1.5312 c 0,0.83594 -0.00781,1.875 -0.015625,3.125 -0.011719,1.25 -0.015625,2.0859 -0.015625,2.5 0,1.2422 0.03125,2.1328 0.09375,2.6719 0.070313,0.54297 0.17969,0.93359 0.32812,1.1719 0.20703,0.32422 0.47266,0.57422 0.79688,0.75 0.32031,0.16797 0.69141,0.25 1.1094,0.25 1.0195,0 1.8203,-0.39062 2.4062,-1.1719 0.58203,-0.78125 0.875,-1.8672 0.875,-3.2656 v -7.5625 h 4.8906 V -6e-4 H 12.6875 V -2.2194 C 11.94531,-1.32096 11.1641,-0.6608 10.3437,-0.235 9.51948,0.17906 8.6093,0.39 7.6093,0.39 5.8476,0.39 4.5038,-0.14906 3.5781,-1.235 2.64841,-2.317 2.1875,-3.8952 2.1875,-5.9694 Z"
         id="path50" />
    </symbol>
    <symbol
       id="m"
       overflow="visible">
      <path
         d="M 17.75,-9.3281 V 0 h -4.9219 v -7.1406 c 0,-1.3203 -0.03125,-2.2344 -0.09375,-2.7344 -0.0625,-0.5 -0.16797,-0.86719 -0.3125,-1.1094 -0.1875,-0.3125 -0.44922,-0.55469 -0.78125,-0.73438 -0.32422,-0.17578 -0.69531,-0.26562 -1.1094,-0.26562 -1.0234,0 -1.8242,0.39844 -2.4062,1.1875 -0.58594,0.78125 -0.875,1.8711 -0.875,3.2656 V -1e-4 H 2.3594 v -15.312 H 7.25 v 2.2344 c 0.73828,-0.88281 1.5195,-1.5391 2.3438,-1.9688 0.83203,-0.42578 1.75,-0.64062 2.75,-0.64062 1.7695,0 3.1133,0.54688 4.0312,1.6406 0.91406,1.0859 1.375,2.6562 1.375,4.7188 z"
         id="path53" />
    </symbol>
    <symbol
       id="l"
       overflow="visible">
      <path
         d="m 2.5781,-20.406 h 8.7344 c 2.5938,0 4.582,0.57812 5.9688,1.7344 1.3945,1.1484 2.0938,2.7891 2.0938,4.9219 0,2.1367 -0.69922,3.7812 -2.0938,4.9375 -1.3867,1.1562 -3.375,1.7344 -5.9688,1.7344 H 7.8281 V 3e-4 h -5.25 z m 5.25,3.8125 v 5.7031 H 10.75 c 1.0195,0 1.8047,-0.25 2.3594,-0.75 0.5625,-0.5 0.84375,-1.2031 0.84375,-2.1094 0,-0.91406 -0.28125,-1.6172 -0.84375,-2.1094 -0.55469,-0.48828 -1.3398,-0.73438 -2.3594,-0.73438 z"
         id="path56" />
    </symbol>
    <symbol
       id="k"
       overflow="visible">
      <path
         d="M 2.3594,-15.312 H 7.25 v 15.031 c 0,2.0508 -0.49609,3.6172 -1.4844,4.7031 -0.98047,1.082 -2.4062,1.625 -4.2812,1.625 H -0.9375 V 2.8283 h 0.85938 c 0.92578,0 1.5625,-0.21094 1.9062,-0.625 0.35156,-0.41797 0.53125,-1.2461 0.53125,-2.4844 z m 0,-5.9688 H 7.25 v 4 H 2.3594 Z"
         id="path59" />
    </symbol>
  </defs>
  <g
     id="g188"
     transform="translate(-207.1988,-84.559)">
    <path
       d="m 404.88,84.559 c -54.32,0 -98,44.238 -98,98 0,28.559 24.078,71.68 44.801,103.04 13.441,20.16 25.199,35.84 31.359,43.68 16.238,21.281 17.922,21.281 21.84,21.281 3.9219,0 5.0391,0 22.961,-21.84 5.6016,-7.8398 17.922,-23.52 31.359,-43.68 20.719,-31.359 44.801,-74.48 44.801,-102.48 -1.1211,-53.758 -45.359,-98 -99.121,-98 z m -0.55859,248.08 c -19.039,-21.84 -82.879,-109.76 -82.879,-149.52 0,-45.922 37.52,-82.879 82.879,-82.879 45.922,0 82.879,36.961 82.879,83.441 0,39.758 -64.398,127.68 -82.879,148.96 z"
       id="path64" />
    <path
       d="m 404.32,132.16 c -24.078,0 -43.121,19.039 -43.121,43.121 0,24.078 19.039,43.121 43.121,43.121 24.078,0 43.121,-19.039 43.121,-43.121 0,-24.082 -19.043,-43.121 -43.121,-43.121 z m 0,71.121 c -15.68,0 -28,-12.32 -28,-28 0,-15.68 12.32,-28 28,-28 15.68,0 28,12.32 28,28 0,16.238 -12.32,28 -28,28 z"
       id="path66" />
    <path
       d="m 487.2,299.04 c -3.9219,0 -6.7188,-3.3594 -7.2812,-6.7188 0,-0.55859 -0.55859,-2.2383 -0.55859,-3.3594 0,-4.4805 3.3594,-7.2812 7.2812,-7.2812 3.9218,0 6.7188,3.3594 7.2812,6.7188 0,0.55859 0.55859,2.2383 0.55859,3.3594 0,3.3633 -3.3594,7.2812 -7.2812,7.2812 z"
       id="path68" />
    <path
       d="m 490,357.28 h -1.1211 c -4.4805,-0.55859 -6.7188,-4.4805 -6.1602,-8.3984 0,-1.6797 0.55859,-3.3594 0.55859,-4.4805 0.55859,-4.4805 4.4805,-6.7188 8.3984,-6.7188 4.4805,0.55859 7.2812,4.4805 6.7188,8.3984 0,1.6797 -0.55859,3.3594 -0.55859,5.0391 -0.55469,3.3594 -3.9141,6.1602 -7.8359,6.1602 z"
       id="path70" />
    <path
       d="m 491.68,327.6 c -4.4805,0 -7.2812,-3.3594 -7.2812,-7.2812 0,-1.6797 0,-3.3594 -0.55859,-4.4805 -0.55859,-4.4805 2.8008,-7.8398 6.7188,-8.3984 4.4805,-0.55859 7.8398,2.8008 8.3984,6.7188 0,1.6797 0.55859,3.9219 0.55859,5.0391 0.004,4.4805 -2.7969,8.4023 -7.8359,8.4023 0.55859,0 0,0 0,0 z"
       id="path72" />
    <path
       d="m 349.44,474.32 h -5.0391 c -4.4805,-0.55859 -7.2812,-3.9219 -6.7188,-7.8398 0.55859,-4.4805 3.9219,-7.2812 7.8398,-6.7188 h 4.4805 c 4.4805,0 7.2812,3.9219 7.2812,7.8398 -0.56641,3.3594 -3.9258,6.7188 -7.8438,6.7188 z"
       id="path74" />
    <path
       d="m 373.52,472.64 c -3.9219,0 -6.7188,-2.8008 -7.2812,-6.1602 -0.55859,-4.4805 2.2383,-7.8398 6.1602,-8.3984 1.6797,0 3.3594,-0.55859 4.4805,-0.55859 4.4805,-0.55859 7.8398,2.2383 8.9609,6.1602 0.55859,4.4805 -2.2383,7.8398 -6.1602,8.9609 -1.6797,0.55469 -5.6016,-0.004 -6.1602,-0.004 z"
       id="path76" />
    <path
       d="m 320.32,469.84 h -1.6797 c -1.6797,-0.55859 -3.3594,-1.1211 -5.0391,-1.6797 -4.4805,-1.1211 -6.1602,-5.0391 -5.0391,-9.5195 1.1211,-4.4804 5.0391,-6.1602 9.5195,-5.0391 1.6797,0.55859 3.3594,1.1211 4.4805,1.1211 4.4805,1.1211 6.1602,5.0391 5.6016,8.9609 -1.6836,4.4766 -5.043,6.1562 -7.8438,6.1562 z"
       id="path78" />
    <path
       d="m 402.08,465.92 c -3.3594,0 -5.6016,-2.2383 -7.2812,-4.4805 -1.6797,-3.9219 0.55859,-8.3984 4.4805,-10.078 1.6797,-0.55859 2.8008,-1.1211 4.4805,-1.6797 3.9219,-1.6797 8.3984,0 10.078,4.4805 1.6797,3.9219 0,8.3984 -4.4805,10.078 -1.6797,0.55859 -3.3594,1.1211 -4.4805,2.2383 -0.55469,-1.1211 -1.6758,-0.55859 -2.7969,-0.55859 z"
       id="path80" />
    <path
       d="m 292.88,459.76 c -1.1211,0 -2.2383,0 -3.3594,-0.55859 -1.6797,-0.55859 -3.3594,-1.6797 -4.4805,-2.2383 -3.9219,-2.2383 -5.0391,-6.1602 -3.3594,-10.078 2.2383,-3.9219 6.1602,-5.0391 10.078,-3.3594 1.6797,0.55859 2.8008,1.6797 4.4805,2.2383 3.9219,2.2383 5.0391,6.1602 3.9219,10.078 -2.2383,2.7969 -5.0391,3.918 -7.2812,3.918 z"
       id="path82" />
    <path
       d="m 428.4,452.48 c -2.8008,0 -4.4805,-1.1211 -6.1602,-3.9219 -2.2383,-3.9219 -1.1211,-8.3984 2.2383,-10.641 1.1211,-1.1211 2.8008,-1.6797 3.9219,-2.8008 3.9219,-2.8008 8.3984,-1.6797 10.641,2.2383 2.8008,3.9219 1.6797,8.3984 -2.2383,10.641 -1.6797,1.1211 -2.8008,2.2383 -4.4805,2.8008 -1.1211,1.125 -2.2422,1.6836 -3.9219,1.6836 z"
       id="path84" />
    <path
       d="m 267.68,444.64 c -1.6797,0 -3.3594,-0.55859 -4.4805,-1.6797 -1.6797,-1.1211 -2.8008,-2.2383 -4.4805,-3.3594 -3.3594,-2.8008 -3.9219,-7.2812 -1.1211,-10.641 2.8008,-3.3594 7.2812,-3.9219 10.641,-1.1211 1.1211,1.1211 2.8008,2.2383 3.9219,3.3594 3.3594,2.8008 3.9219,7.2812 1.1211,10.641 -1.1211,1.6797 -3.3594,2.8008 -5.6016,2.8008 z"
       id="path86" />
    <path
       d="m 451.36,434 c -2.2383,0 -3.9219,-0.55859 -5.0391,-2.2383 -3.3594,-3.3594 -3.3594,-7.8398 0,-10.641 1.1211,-1.1211 2.2383,-2.2383 3.3594,-3.3594 2.8008,-3.3594 7.8398,-3.3594 10.641,-0.55859 3.3594,2.8008 3.3594,7.8398 0.55859,10.641 l -3.9219,3.9219 c -1.6758,1.1133 -3.918,2.2344 -5.5977,2.2344 z"
       id="path88" />
    <path
       d="m 246.96,423.92 c -2.2383,0 -4.4805,-1.1211 -5.6016,-2.8008 -1.1211,-1.6797 -2.2383,-2.8008 -3.3594,-4.4805 -2.8008,-3.3594 -2.2383,-7.8398 1.6797,-10.641 3.3594,-2.8008 7.8398,-2.2383 10.641,1.6797 1.1211,1.1211 2.2383,2.8008 2.8008,3.9219 2.8008,3.3594 2.2383,7.8398 -1.1211,10.641 -2.2383,1.1172 -3.3594,1.6797 -5.0391,1.6797 z"
       id="path90" />
    <path
       d="m 470.4,411.6 c -1.6797,0 -2.8008,-0.55859 -4.4805,-1.1211 -3.9219,-2.2383 -4.4805,-6.7188 -2.2383,-10.641 1.1211,-1.1211 1.6797,-2.8008 2.8008,-3.9219 2.2383,-3.9219 6.7188,-4.4805 10.641,-2.8008 3.9219,1.6797 4.4805,6.7188 2.8008,10.641 -1.1211,1.6797 -1.6797,3.3594 -2.8008,4.4805 -2.2422,1.6836 -5.043,3.3633 -6.7227,3.3633 z"
       id="path92" />
    <path
       d="m 230.16,399.84 c -2.8008,0 -5.0391,-1.6797 -6.7188,-4.4805 -1.1211,-1.6797 -1.6797,-3.3594 -2.2383,-4.4805 -1.6797,-3.9219 0,-8.3984 3.9219,-10.078 3.9219,-1.6797 8.3984,0 10.078,3.9219 0.55859,1.6797 1.6797,2.8008 2.2383,4.4805 2.2383,3.9219 0.55859,8.3984 -3.3594,10.078 -1.6836,0 -2.8008,0.55859 -3.9219,0.55859 z"
       id="path94" />
    <path
       d="m 483.28,385.28 c -1.1211,0 -1.6797,0 -2.8008,-0.55859 -3.9219,-1.6797 -5.6016,-5.6016 -4.4805,-10.078 0.55859,-1.6797 1.1211,-2.8008 1.6797,-4.4805 1.6797,-4.4805 5.6016,-6.1602 9.5195,-4.4805 4.4805,1.6797 6.1602,5.6016 4.4805,9.5195 -0.55859,1.6797 -1.1211,3.3594 -1.6797,4.4805 -1.1211,3.918 -3.3594,5.5977 -6.7188,5.5977 z"
       id="path96" />
    <path
       d="m 219.52,372.4 c -3.3594,0 -6.1602,-2.2383 -7.2812,-5.6016 -0.55859,-1.6797 -1.1211,-3.3594 -1.1211,-5.0391 -1.1211,-4.4805 1.6797,-8.3984 5.6016,-8.9609 4.4805,-1.1211 8.3984,1.6797 8.9609,5.6016 0.55859,1.6797 0.55859,3.3594 1.1211,4.4805 1.1211,4.4805 -1.1211,8.3984 -5.0391,9.5195 z"
       id="path98" />
    <path
       d="m 214.48,343.28 c -4.4805,0 -7.2812,-3.3594 -7.2812,-7.2812 v -5.0391 c 0,-4.4805 3.3594,-7.8398 7.2812,-7.8398 3.9218,0 7.8398,3.3594 7.8398,7.2812 v 4.4805 c 0,4.4766 -2.8008,8.3984 -7.8398,8.3984 0.55859,0 0,0 0,0 z"
       id="path100" />
    <path
       d="m 216.16,313.6 h -1.1211 c -4.4805,-0.55859 -6.7188,-4.4805 -6.1602,-8.3984 0,-1.6797 0.55859,-3.3594 1.1211,-5.0391 0.55859,-4.4805 4.4805,-6.7188 8.9609,-5.6016 4.4805,0.55859 6.7188,4.4805 6.1602,8.9609 -0.55859,1.6797 -0.55859,3.3594 -0.55859,4.4805 -1.6836,3.3555 -4.4844,5.5977 -8.4023,5.5977 z"
       id="path102" />
    <path
       d="m 223.44,285.6 c -1.1211,0 -1.6797,0 -2.8008,-0.55859 -3.9219,-1.6797 -5.6016,-5.6016 -4.4805,-10.078 0.55859,-1.6797 1.1211,-3.3594 2.2383,-4.4805 1.6797,-3.9219 6.1602,-5.6016 10.078,-4.4805 3.9219,1.1211 5.6016,6.1602 4.4805,10.078 -0.55859,1.6797 -1.1211,2.8008 -1.6797,4.4805 -1.6758,3.3594 -4.4766,5.0391 -7.8359,5.0391 z"
       id="path104" />
    <path
       d="m 236.88,259.28 c -1.6797,0 -2.8008,-0.55859 -4.4805,-1.1211 -3.9219,-2.2383 -4.4805,-6.7188 -2.2383,-10.641 1.1211,-1.6797 2.2383,-2.8008 3.3594,-4.4805 2.8008,-3.9219 7.2812,-4.4805 10.641,-1.6797 3.9219,2.8008 4.4805,7.2812 1.6797,10.641 -1.1211,1.1211 -1.6797,2.8008 -2.8008,3.9219 -1.1172,2.2383 -3.3594,3.3594 -6.1602,3.3594 z"
       id="path106" />
    <path
       d="m 255.92,236.88 c -2.2383,0 -3.9219,-0.55859 -5.0391,-2.2383 -3.3594,-3.3594 -3.3594,-7.8398 0,-10.641 1.1211,-1.1211 2.8008,-2.8008 3.9219,-3.9219 3.3594,-2.8008 7.8398,-2.8008 10.641,0.55859 2.8008,3.3594 2.8008,7.8398 -0.55859,10.641 l -3.3594,3.3594 c -2.2461,1.6836 -3.9258,2.2422 -5.6055,2.2422 z"
       id="path108" />
    <path
       d="m 277.76,218.96 c -2.2383,0 -3.9219,-0.55859 -5.0391,-2.2383 -3.3594,-3.3594 -3.3594,-7.8398 0,-10.641 0.55859,-0.55859 1.6797,-1.1211 2.2383,-1.6797 3.3594,-3.3594 7.8398,-3.3594 10.641,0 3.3594,3.3594 3.3594,7.8398 0,10.641 -0.55859,0.55859 -1.6797,1.1211 -2.2383,1.6797 -1.6836,1.1172 -3.3633,2.2383 -5.6016,2.2383 z"
       id="path110" />
  </g>
</svg>
