<?xml version="1.0" encoding="UTF-8" standalone="no"?>
<svg
   width="472.90948pt"
   height="412.91092pt"
   version="1.1"
   viewBox="0 0 472.90949 412.91092"
   id="svg150"
   sodipodi:docname="taxa_population.svg"
   inkscape:version="1.2 (1:1.2.1+202207142221+cd75a1ee6d)"
   xmlns:inkscape="http://www.inkscape.org/namespaces/inkscape"
   xmlns:sodipodi="http://sodipodi.sourceforge.net/DTD/sodipodi-0.dtd"
   xmlns="http://www.w3.org/2000/svg"
   xmlns:svg="http://www.w3.org/2000/svg">
  <sodipodi:namedview
     id="namedview152"
     pagecolor="#ffffff"
     bordercolor="#666666"
     borderopacity="1.0"
     inkscape:showpageshadow="2"
     inkscape:pageopacity="0.0"
     inkscape:pagecheckerboard="0"
     inkscape:deskcolor="#d1d1d1"
     inkscape:document-units="pt"
     showgrid="false"
     inkscape:zoom="1.0114286"
     inkscape:cx="371.25707"
     inkscape:cy="200.70622"
     inkscape:window-width="1920"
     inkscape:window-height="1009"
     inkscape:window-x="0"
     inkscape:window-y="34"
     inkscape:window-maximized="1"
     inkscape:current-layer="g148" />
  <defs
     id="defs68">
    <symbol
       id="v"
       overflow="visible">
      <path
         d="m 18.766,-1.125 c -0.96875,0.5 -1.9805,0.875 -3.0312,1.125 -1.043,0.25781 -2.1367,0.39062 -3.2812,0.39062 -3.3984,0 -6.0898,-0.94531 -8.0781,-2.8438 -1.9922,-1.9062 -2.9844,-4.4844 -2.9844,-7.7344 0,-3.2578 0.99219,-5.8359 2.9844,-7.7344 1.9883,-1.9062 4.6797,-2.8594 8.0781,-2.8594 1.1445,0 2.2383,0.13281 3.2812,0.39062 1.0508,0.25 2.0625,0.625 3.0312,1.125 v 4.2188 c -0.98047,-0.65625 -1.9453,-1.1406 -2.8906,-1.4531 -0.94922,-0.3125 -1.9492,-0.46875 -3,-0.46875 -1.875,0 -3.3516,0.60547 -4.4219,1.8125 -1.0742,1.1992 -1.6094,2.8555 -1.6094,4.9688 0,2.1055 0.53516,3.7617 1.6094,4.9688 1.0703,1.1992 2.5469,1.7969 4.4219,1.7969 1.0508,0 2.0508,-0.14844 3,-0.45312 0.94531,-0.3125 1.9102,-0.80078 2.8906,-1.4688 z"
         id="path2" />
    </symbol>
    <symbol
       id="c"
       overflow="visible">
      <path
         d="m 13.734,-11.141 c -0.4375,-0.19531 -0.87109,-0.34375 -1.2969,-0.4375 -0.41797,-0.10156 -0.83984,-0.15625 -1.2656,-0.15625 -1.2617,0 -2.2305,0.40625 -2.9062,1.2188 -0.67969,0.80469 -1.0156,1.9531 -1.0156,3.4531 v 7.0625 H 2.3591 v -15.312 h 4.8906 v 2.5156 c 0.625,-1 1.3438,-1.7266 2.1562,-2.1875 0.82031,-0.46875 1.8008,-0.70312 2.9375,-0.70312 0.16406,0 0.34375,0.01172 0.53125,0.03125 0.19531,0.01172 0.47656,0.03906 0.84375,0.07813 z"
         id="path5" />
    </symbol>
    <symbol
       id="a"
       overflow="visible">
      <path
         d="m 17.641,-7.7031 v 1.4062 H 6.188 c 0.125,1.1484 0.53906,2.0078 1.25,2.5781 0.70703,0.57422 1.7031,0.85938 2.9844,0.85938 1.0312,0 2.082,-0.14844 3.1562,-0.45312 1.082,-0.3125 2.1914,-0.77344 3.3281,-1.3906 v 3.7656 c -1.1562,0.4375 -2.3125,0.76562 -3.4688,0.98438 -1.1562,0.22656 -2.3125,0.34375 -3.4688,0.34375 -2.7734,0 -4.9297,-0.70312 -6.4688,-2.1094 -1.5312,-1.4062 -2.2969,-3.3789 -2.2969,-5.9219 0,-2.5 0.75391,-4.4609 2.2656,-5.8906 1.5078,-1.4375 3.582,-2.1562 6.2188,-2.1562 2.4062,0 4.332,0.73047 5.7812,2.1875 1.4453,1.4492 2.1719,3.3828 2.1719,5.7969 z m -5.0312,-1.625 c 0,-0.92578 -0.27344,-1.6719 -0.8125,-2.2344 -0.54297,-0.57031 -1.25,-0.85938 -2.125,-0.85938 -0.94922,0 -1.7188,0.26562 -2.3125,0.79688 -0.5937,0.53126 -0.96484,1.2969 -1.1094,2.2969 z"
         id="path8" />
    </symbol>
    <symbol
       id="e"
       overflow="visible">
      <path
         d="m 9.2188,-6.8906 c -1.0234,0 -1.793,0.17188 -2.3125,0.51562 -0.51172,0.34375 -0.76562,0.85547 -0.76562,1.5312 0,0.625 0.20703,1.1172 0.625,1.4688 0.41406,0.34375 0.98828,0.51562 1.7188,0.51562 0.92578,0 1.7031,-0.32812 2.3281,-0.98438 0.63281,-0.66406 0.95312,-1.4922 0.95312,-2.4844 v -0.5625 z m 7.4688,-1.8438 V 0 h -4.9219 v -2.2656 c -0.65625,0.92969 -1.3984,1.6055 -2.2188,2.0312 -0.82422,0.41406 -1.8242,0.625 -3,0.625 -1.5859,0 -2.8711,-0.45703 -3.8594,-1.375 -0.99219,-0.92578 -1.4844,-2.1289 -1.4844,-3.6094 0,-1.7891 0.61328,-3.1016 1.8438,-3.9375 1.2383,-0.84375 3.1797,-1.2656 5.8281,-1.2656 h 2.8906 v -0.39062 c 0,-0.76953 -0.30859,-1.332 -0.92188,-1.6875 -0.61719,-0.36328 -1.5703,-0.54688 -2.8594,-0.54688 -1.0547,0 -2.0312,0.10547 -2.9375,0.3125 -0.89844,0.21094 -1.7305,0.52344 -2.5,0.9375 v -3.7344 c 1.0391,-0.25 2.0859,-0.44141 3.1406,-0.57812 1.0625,-0.13281 2.125,-0.20312 3.1875,-0.20312 2.7578,0 4.75,0.54688 5.9688,1.6406 1.2266,1.0859 1.8438,2.8555 1.8438,5.3125 z"
         id="path11" />
    </symbol>
    <symbol
       id="d"
       overflow="visible">
      <path
         d="m 7.7031,-19.656 v 4.3438 H 12.75 v 3.5 H 7.7031 v 6.5 c 0,0.71094 0.14062,1.1875 0.42188,1.4375 0.28126,0.25 0.83594,0.375 1.6719,0.375 h 2.5156 v 3.5 h -4.1875 c -1.9375,0 -3.3125,-0.39844 -4.125,-1.2031 -0.80469,-0.8125 -1.2031,-2.1797 -1.2031,-4.1094 v -6.5 h -2.4219 v -3.5 h 2.4219 v -4.3438 z"
         id="path14" />
    </symbol>
    <symbol
       id="k"
       overflow="visible">
      <path
         d="m 12.766,-13.078 v -8.2031 h 4.9219 V -1e-4 H 12.766 v -2.2188 c -0.66797,0.90625 -1.4062,1.5703 -2.2188,1.9844 -0.8126,0.4141 -1.7578,0.625 -2.8281,0.625 -1.8867,0 -3.4336,-0.75 -4.6406,-2.25 -1.2109,-1.5 -1.8125,-3.4258 -1.8125,-5.7812 0,-2.3633 0.60156,-4.2969 1.8125,-5.7969 1.207,-1.5 2.7539,-2.25 4.6406,-2.25 1.0625,0 2,0.21484 2.8125,0.64062 0.82031,0.42969 1.5664,1.0859 2.2344,1.9688 z m -3.2188,9.9219 c 1.0391,0 1.8359,-0.37891 2.3906,-1.1406 0.55078,-0.76953 0.82812,-1.8828 0.82812,-3.3438 0,-1.457 -0.27734,-2.5664 -0.82812,-3.3281 -0.55469,-0.76953 -1.3516,-1.1562 -2.3906,-1.1562 -1.043,0 -1.8398,0.38672 -2.3906,1.1562 -0.55469,0.76172 -0.82812,1.8711 -0.82812,3.3281 0,1.4609 0.27344,2.5742 0.82812,3.3438 0.55078,0.76172 1.3477,1.1406 2.3906,1.1406 z"
         id="path17" />
    </symbol>
    <symbol
       id="j"
       overflow="visible">
      <path
         d="m 10.5,-3.1562 c 1.0508,0 1.8516,-0.37891 2.4062,-1.1406 0.55078,-0.76953 0.82812,-1.8828 0.82812,-3.3438 0,-1.457 -0.27734,-2.5664 -0.82812,-3.3281 -0.55469,-0.76953 -1.3555,-1.1562 -2.4062,-1.1562 -1.0547,0 -1.8594,0.38672 -2.4219,1.1562 -0.55469,0.77344 -0.82812,1.8828 -0.82812,3.3281 0,1.4492 0.27344,2.5586 0.82812,3.3281 0.5625,0.77344 1.3672,1.1562 2.4219,1.1562 z m -3.25,-9.9219 c 0.67578,-0.88281 1.4219,-1.5391 2.2344,-1.9688 0.82031,-0.42578 1.7656,-0.64062 2.8281,-0.64062 1.8945,0 3.4453,0.75 4.6562,2.25 1.207,1.5 1.8125,3.4336 1.8125,5.7969 0,2.3555 -0.60547,4.2812 -1.8125,5.7812 -1.2109,1.5 -2.7617,2.25 -4.6562,2.25 -1.0625,0 -2.0078,-0.21094 -2.8281,-0.625 C 8.6719,-0.6602 7.9258,-1.32032 7.25,-2.21882 V -2e-5 H 2.3594 v -21.281 H 7.25 Z"
         id="path20" />
    </symbol>
    <symbol
       id="i"
       overflow="visible">
      <path
         d="m 0.34375,-15.312 h 4.8906 l 4.125,10.391 3.5,-10.391 h 4.8906 l -6.4375,16.766 c -0.64844,1.6953 -1.4023,2.8828 -2.2656,3.5625 -0.86719,0.6875 -2,1.0312 -3.4062,1.0312 H 2.79685 V 2.8289 h 1.5312 c 0.83203,0 1.4375,-0.13672 1.8125,-0.40625 C 6.52336,2.16093 6.82024,1.69218 7.03117,1.01645 L 7.17179,0.59457 Z"
         id="path23" />
    </symbol>
    <symbol
       id="h"
       overflow="visible">
      <path
         d="M 14.953,-3.7188 H 6.7342 L 5.4217,0 H 0.1405 L 7.703,-20.406 h 6.2656 L 21.5311,0 H 16.2499 Z M 8.0468,-7.5 h 5.5781 l -2.7812,-8.125 z m 3.6562,-18.359 h 3.8594 l -3.8906,3.6094 H 8.9843 Z"
         id="path26" />
    </symbol>
    <symbol
       id="u"
       overflow="visible">
      <path
         d="M 2.3594,-21.281 H 7.25 V 0 H 2.3594 Z"
         id="path29" />
    </symbol>
    <symbol
       id="t"
       overflow="visible">
      <path
         d="m 0.42188,-15.312 h 4.8906 l 3.8281,10.578 3.7969,-10.578 h 4.9062 L 11.81248,0 h -5.375 z"
         id="path32" />
    </symbol>
    <symbol
       id="b"
       overflow="visible">
      <path
         d="m 9.6406,-12.188 c -1.0859,0 -1.9141,0.39062 -2.4844,1.1719 -0.57422,0.78125 -0.85938,1.9062 -0.85938,3.375 0,1.4688 0.28516,2.5938 0.85938,3.375 0.57031,0.77344 1.3984,1.1562 2.4844,1.1562 1.0625,0 1.875,-0.38281 2.4375,-1.1562 0.57031,-0.78125 0.85938,-1.9062 0.85938,-3.375 0,-1.4688 -0.28906,-2.5938 -0.85938,-3.375 -0.5625,-0.78125 -1.375,-1.1719 -2.4375,-1.1719 z m 0,-3.5 c 2.6328,0 4.6914,0.71484 6.1719,2.1406 1.4766,1.418 2.2188,3.3867 2.2188,5.9062 0,2.5117 -0.74219,4.4805 -2.2188,5.9062 C 14.332,-0.317 12.2734,0.39 9.6406,0.39 6.9922,0.39 4.9258,-0.31703 3.4375,-1.735 1.9453,-3.1608 1.2031,-5.1295 1.2031,-7.6412 c 0,-2.5195 0.74219,-4.4883 2.2344,-5.9062 1.4883,-1.4258 3.5547,-2.1406 6.2031,-2.1406 z"
         id="path35" />
    </symbol>
    <symbol
       id="s"
       overflow="visible">
      <path
         d="m 10.75,-12.516 c 0.82031,0 1.4453,-0.17969 1.875,-0.54688 0.4375,-0.36328 0.65625,-0.89844 0.65625,-1.6094 0,-0.69531 -0.21875,-1.2266 -0.65625,-1.5938 -0.42969,-0.375 -1.0547,-0.5625 -1.875,-0.5625 H 7.8281 v 4.3125 z m 0.17188,8.9375 c 1.0625,0 1.8594,-0.22266 2.3906,-0.67188 0.53125,-0.44531 0.79688,-1.125 0.79688,-2.0312 0,-0.88281 -0.26562,-1.5469 -0.79688,-1.9844 -0.52344,-0.4375 -1.3203,-0.65625 -2.3906,-0.65625 h -3.0938 v 5.3438 z m 4.8906,-7.3438 c 1.1328,0.32422 2.0078,0.92969 2.625,1.8125 0.625,0.88672 0.9375,1.9688 0.9375,3.25 0,1.9688 -0.66797,3.4375 -2,4.4062 -1.3359,0.96875 -3.3555,1.4531 -6.0625,1.4531 h -8.7344 v -20.406 h 7.8906 c 2.832,0 4.8828,0.42969 6.1562,1.2812 1.2812,0.85547 1.9219,2.2266 1.9219,4.1094 0,1 -0.23438,1.8516 -0.70312,2.5469 -0.46875,0.6875 -1.1484,1.2031 -2.0312,1.5469 z"
         id="path38" />
    </symbol>
    <symbol
       id="g"
       overflow="visible">
      <path
         d="m 2.1875,-5.9688 v -9.3438 h 4.9219 v 1.5312 c 0,0.83594 -0.00781,1.875 -0.015625,3.125 -0.011719,1.25 -0.015625,2.0859 -0.015625,2.5 0,1.2422 0.03125,2.1328 0.09375,2.6719 0.070313,0.54297 0.17969,0.93359 0.32812,1.1719 0.20703,0.32422 0.47266,0.57422 0.79688,0.75 0.32031,0.16797 0.69141,0.25 1.1094,0.25 1.0195,0 1.8203,-0.39062 2.4062,-1.1719 0.58203,-0.78125 0.875,-1.8672 0.875,-3.2656 v -7.5625 h 4.8906 V -6e-4 H 12.6875 V -2.2194 C 11.94531,-1.32096 11.1641,-0.6608 10.3437,-0.235 9.51948,0.17906 8.6093,0.39 7.6093,0.39 5.8476,0.39 4.5038,-0.14906 3.5781,-1.235 2.64841,-2.317 2.1875,-3.8952 2.1875,-5.9694 Z"
         id="path41" />
    </symbol>
    <symbol
       id="f"
       overflow="visible">
      <path
         d="M 17.75,-9.3281 V 0 h -4.9219 v -7.1406 c 0,-1.3203 -0.03125,-2.2344 -0.09375,-2.7344 -0.0625,-0.5 -0.16797,-0.86719 -0.3125,-1.1094 -0.1875,-0.3125 -0.44922,-0.55469 -0.78125,-0.73438 -0.32422,-0.17578 -0.69531,-0.26562 -1.1094,-0.26562 -1.0234,0 -1.8242,0.39844 -2.4062,1.1875 -0.58594,0.78125 -0.875,1.8711 -0.875,3.2656 V -1e-4 H 2.3594 v -15.312 H 7.25 v 2.2344 c 0.73828,-0.88281 1.5195,-1.5391 2.3438,-1.9688 0.83203,-0.42578 1.75,-0.64062 2.75,-0.64062 1.7695,0 3.1133,0.54688 4.0312,1.6406 0.91406,1.0859 1.375,2.6562 1.375,4.7188 z"
         id="path44" />
    </symbol>
    <symbol
       id="r"
       overflow="visible">
      <path
         d="m 12.422,-21.281 v 3.2188 H 9.7189 c -0.6875,0 -1.1719,0.125 -1.4531,0.375 -0.27344,0.25 -0.40625,0.6875 -0.40625,1.3125 v 1.0625 h 4.1875 v 3.5 H 7.85955 V -2e-4 h -4.8906 v -11.812 h -2.4375 v -3.5 h 2.4375 v -1.0625 c 0,-1.6641 0.46094,-2.8984 1.3906,-3.7031 0.92578,-0.80078 2.3672,-1.2031 4.3281,-1.2031 z"
         id="path47" />
    </symbol>
    <symbol
       id="q"
       overflow="visible">
      <path
         d="m 16.547,-12.766 c 0.61328,-0.94531 1.3477,-1.6719 2.2031,-2.1719 0.85156,-0.5 1.7891,-0.75 2.8125,-0.75 1.7578,0 3.0977,0.54688 4.0156,1.6406 0.92578,1.0859 1.3906,2.6562 1.3906,4.7188 V -4e-4 h -4.9219 v -7.9844 -0.35938 c 0.0078,-0.13281 0.01563,-0.32031 0.01563,-0.5625 0,-1.082 -0.16406,-1.8633 -0.48438,-2.3438 -0.3125,-0.48828 -0.82422,-0.73438 -1.5312,-0.73438 -0.92969,0 -1.6484,0.38672 -2.1562,1.1562 -0.51172,0.76172 -0.77344,1.8672 -0.78125,3.3125 v 7.5156 h -4.9219 v -7.9844 c 0,-1.6953 -0.14844,-2.7852 -0.4375,-3.2656 -0.29297,-0.48828 -0.8125,-0.73438 -1.5625,-0.73438 -0.9375,0 -1.6641,0.38672 -2.1719,1.1562 -0.51172,0.76172 -0.76562,1.8594 -0.76562,3.2969 v 7.5312 h -4.9219 v -15.312 h 4.9219 v 2.2344 c 0.60156,-0.86328 1.2891,-1.5156 2.0625,-1.9531 0.78125,-0.4375 1.6406,-0.65625 2.5781,-0.65625 1.0625,0 2,0.25781 2.8125,0.76562 0.8125,0.51172 1.4258,1.2305 1.8438,2.1562 z"
         id="path50" />
    </symbol>
    <symbol
       id="p"
       overflow="visible">
      <path
         d="M 17.75,-9.3281 V 0 h -4.9219 v -7.1094 c 0,-1.3438 -0.03125,-2.2656 -0.09375,-2.7656 -0.0625,-0.5 -0.16797,-0.86719 -0.3125,-1.1094 -0.1875,-0.3125 -0.44922,-0.55469 -0.78125,-0.73438 -0.32422,-0.17578 -0.69531,-0.26562 -1.1094,-0.26562 -1.0234,0 -1.8242,0.39844 -2.4062,1.1875 -0.58594,0.78125 -0.875,1.8711 -0.875,3.2656 V -1e-4 H 2.3594 v -21.281 H 7.25 v 8.2031 c 0.73828,-0.88281 1.5195,-1.5391 2.3438,-1.9688 0.83203,-0.42578 1.75,-0.64062 2.75,-0.64062 1.7695,0 3.1133,0.54688 4.0312,1.6406 0.91406,1.0859 1.375,2.6562 1.375,4.7188 z"
         id="path53" />
    </symbol>
    <symbol
       id="o"
       overflow="visible">
      <path
         d="m 2.5781,-20.406 h 5.875 l 7.4219,14 v -14 h 4.9844 V 0 h -5.875 L 7.5625,-14 V 0 H 2.5781 Z"
         id="path56" />
    </symbol>
    <symbol
       id="n"
       overflow="visible">
      <path
         d="m 2.5781,-20.406 h 8.7344 c 2.5938,0 4.582,0.57812 5.9688,1.7344 1.3945,1.1484 2.0938,2.7891 2.0938,4.9219 0,2.1367 -0.69922,3.7812 -2.0938,4.9375 -1.3867,1.1562 -3.375,1.7344 -5.9688,1.7344 H 7.8281 V 3e-4 h -5.25 z m 5.25,3.8125 v 5.7031 H 10.75 c 1.0195,0 1.8047,-0.25 2.3594,-0.75 0.5625,-0.5 0.84375,-1.2031 0.84375,-2.1094 0,-0.91406 -0.28125,-1.6172 -0.84375,-2.1094 -0.55469,-0.48828 -1.3398,-0.73438 -2.3594,-0.73438 z"
         id="path59" />
    </symbol>
    <symbol
       id="m"
       overflow="visible">
      <path
         d="M 2.3594,-15.312 H 7.25 v 15.031 c 0,2.0508 -0.49609,3.6172 -1.4844,4.7031 -0.98047,1.082 -2.4062,1.625 -4.2812,1.625 H -0.9375 V 2.8283 h 0.85938 c 0.92578,0 1.5625,-0.21094 1.9062,-0.625 0.35156,-0.41797 0.53125,-1.2461 0.53125,-2.4844 z m 0,-5.9688 H 7.25 v 4 H 2.3594 Z"
         id="path62" />
    </symbol>
    <symbol
       id="l"
       overflow="visible">
      <path
         d="m 14.719,-14.828 v 3.9844 c -0.65625,-0.45703 -1.3242,-0.79688 -2,-1.0156 -0.66797,-0.21875 -1.3594,-0.32812 -2.0781,-0.32812 -1.3672,0 -2.4336,0.40234 -3.2031,1.2031 -0.76172,0.79297 -1.1406,1.9062 -1.1406,3.3438 0,1.4297 0.37891,2.543 1.1406,3.3438 0.76953,0.79297 1.8359,1.1875 3.2031,1.1875 0.75781,0 1.4844,-0.10938 2.1719,-0.32812 0.6875,-0.22656 1.3203,-0.56641 1.9062,-1.0156 v 4 c -0.76172,0.28125 -1.5391,0.48828 -2.3281,0.625 -0.78125,0.14453 -1.5742,0.21875 -2.375,0.21875 -2.7617,0 -4.9219,-0.70703 -6.4844,-2.125 -1.5547,-1.4141 -2.3281,-3.3828 -2.3281,-5.9062 0,-2.5312 0.77344,-4.5039 2.3281,-5.9219 1.5625,-1.4141 3.7227,-2.125 6.4844,-2.125 0.80078,0 1.5938,0.07422 2.375,0.21875 0.78125,0.13672 1.5547,0.35156 2.3281,0.64062 z"
         id="path65" />
    </symbol>
  </defs>
  <g
     id="g148"
     transform="translate(-114.48373,-79.557483)">
    <path
       d="m 580.34,148.094 6.4961,-11.352 c 0.74609,-1.3008 0.74219,-2.8984 -0.008,-4.1953 -0.75391,-1.2969 -2.1367,-2.0938 -3.6367,-2.0938 -11.914,-0.0312 -23.441,4.2227 -32.48,11.984 -11.742,-10.297 -26.961,-15.746 -42.57,-15.246 -15.613,0.5 -30.449,6.9102 -41.512,17.934 -0.78906,0.78516 -1.2305,1.8555 -1.2305,2.9688 0,1.1133 0.44141,2.1797 1.2305,2.9648 11.051,11.047 25.891,17.477 41.508,17.973 15.621,0.5 30.84,-4.9648 42.574,-15.281 9.0391,7.7578 20.566,12.012 32.48,11.98 1.5,0.004 2.8828,-0.79688 3.6367,-2.0938 0.75,-1.293 0.75391,-2.8945 0.008,-4.1914 z m -104.52,0 c 9.6133,-8.1211 21.785,-12.578 34.367,-12.578 12.582,0 24.758,4.457 34.367,12.578 -9.6094,8.1172 -21.785,12.574 -34.367,12.574 -12.582,0 -24.754,-4.457 -34.367,-12.574 z m 96.039,2.0898 3.6953,6.457 0.004,-0.004 c -6.8008,-1.2461 -13.176,-4.1875 -18.543,-8.543 5.3672,-4.3594 11.742,-7.2969 18.543,-8.5469 l -3.6953,6.457 h -0.004 c -0.73828,1.293 -0.73828,2.8828 0,4.1758 z m -359.86888,-28.719 c -14.4577,0 -28.41587,-5.4453 -39.26157,-15.316 -8.75459,7.7617 -19.91396,12.012 -31.44411,11.984 -1.45216,0 -2.79463,-0.79688 -3.52071,-2.0938 -0.72608,-1.29692 -0.72987,-2.8945 -0.0113,-4.1953 l 6.30025,-11.352 -6.28892,-11.352 c -0.7223,-1.3008 -0.71852,-2.8984 0.0113,-4.1953 0.72608,-1.2969 2.06856,-2.0938 3.51694,-2.0938 11.53403,-0.02734 22.69339,4.2227 31.44411,11.984 11.37138,-10.293 26.105,-15.742 41.21618,-15.246 15.11118,0.5 29.47789,6.9102 40.18805,17.934 0.7639,0.78906 1.19126,1.8555 1.19126,2.9688 0,1.1133 -0.42733,2.1797 -1.19126,2.9688 -11.17098,11.555 -26.34315,18.035 -42.1504,18.004 z m -63.28224,-29.52 3.57745,6.457 h -0.004 c 0.71852,1.2969 0.71852,2.8828 0,4.1797 l -3.57745,6.457 c 6.57635,-1.2539 12.74416,-4.1914 17.93612,-8.5469 -5.19603,-4.3594 -11.36751,-7.2969 -17.95161,-8.5469 z m 29.99195,8.5469 c 9.3067,8.1211 21.09021,12.574 33.27093,12.574 12.18072,0 23.96839,-4.4531 33.27093,-12.574 -9.30293,-8.1211 -21.09021,-12.574 -33.27093,-12.574 -12.18072,0 -23.96452,4.4531 -33.27093,12.574 z M 301.062,208.5937 c 27.617,0.0391 54.207,-10.453 74.355,-29.34 16.211,14.93 37.449,23.207 59.484,23.18 1.4961,0 2.8789,-0.80078 3.6328,-2.0938 0.75,-1.293 0.75391,-2.8906 0.0117,-4.1914 l -12.895,-22.555 12.879,-22.559 c 0.74219,-1.3008 0.73828,-2.8945 -0.0156,-4.1914 -0.75,-1.293 -2.1328,-2.0898 -3.6289,-2.0898 -22.039,-0.0273 -43.277,8.2461 -59.484,23.176 -20.695,-19.309 -48.086,-29.824 -76.387,-29.32 -28.305,0.50391 -55.305,11.98 -75.301,32.016 -0.78906,0.78516 -1.2305,1.8555 -1.2305,2.9688 0,1.1133 0.44141,2.1797 1.2305,2.9648 20.469,20.582 48.32,32.117 77.348,32.035 z m 126.41,-55.098 -10.305,18.016 v -0.004 c -0.74219,1.293 -0.74219,2.8789 0,4.168 l 10.305,18.016 c -17.094,-1.5469 -33.219,-8.6016 -45.957,-20.098 12.738,-11.5 28.863,-18.555 45.957,-20.102 z m -126.41,-6.5039 c 25.305,-0.0703 49.703,9.4297 68.293,26.602 -18.633,17.105 -43.004,26.598 -68.297,26.598 -25.293,0 -49.664,-9.4922 -68.293,-26.598 18.59,-17.172 42.988,-26.676 68.297,-26.602 z m 162.78387,229.4565 c 0.74189,-1.293 2.10648,-2.0898 3.57873,-2.0938 11.72409,-0.0273 23.06734,4.2227 31.96225,11.984 11.55483,-10.293 26.53123,-15.742 41.89142,-15.246 15.36412,0.5 29.96362,6.9102 40.85027,17.934 0.77649,0.78906 1.21089,1.8555 1.21089,2.9688 0,1.1133 -0.43438,2.1797 -1.21089,2.9688 -10.87484,11.047 -25.47828,17.473 -40.84634,17.973 -15.37199,0.5 -30.34839,-4.9648 -41.89535,-15.285 -8.89501,7.7617 -20.23816,12.012 -31.96225,11.984 -1.47609,0 -2.83685,-0.79688 -3.57873,-2.0938 -0.73804,-1.2969 -0.74189,-2.8945 -0.008,-4.1953 l 6.39255,-11.352 -6.39255,-11.352 c -0.73036,-1.3008 -0.72267,-2.8945 0.008,-4.1953 z m 109.24045,15.547 c -9.46006,-8.1211 -21.43774,-12.574 -33.81918,-12.574 -12.38143,0 -24.36334,4.4531 -33.81917,12.574 9.45622,8.1211 21.43774,12.574 33.81917,12.574 12.38144,0 24.35941,-4.4531 33.81918,-12.574 z m -94.50809,2.0898 -3.6364,6.457 h -0.004 c 6.69239,-1.25 12.96596,-4.1875 18.24741,-8.5469 -5.28164,-4.3594 -11.55483,-7.2969 -18.24741,-8.5469 l 3.63639,6.457 h 0.004 c 0.72651,1.2969 0,2.69479 0,4.1797 z m -6.84823,61.863 c -0.75391,-1.293 -2.1367,-2.0898 -3.6328,-2.0938 -11.914,-0.0273 -23.441,4.2227 -32.48,11.984 -11.746,-10.293 -26.965,-15.742 -42.574,-15.246 -15.609,0.5 -30.449,6.9102 -41.512,17.934 -0.78906,0.78906 -1.2305,1.8555 -1.2305,2.9688 0,1.1133 0.44141,2.1797 1.2305,2.9688 11.051,11.047 25.895,17.473 41.512,17.973 15.617,0.5 30.84,-4.9648 42.574,-15.285 9.0391,7.7617 20.566,12.012 32.48,11.984 1.4961,0 2.8828,-0.79688 3.6328,-2.0938 0.75391,-1.2969 0.75781,-2.8945 0.0117,-4.1953 l -6.4961,-11.352 6.4961,-11.352 c 0.73828,-1.3008 0.73438,-2.8945 -0.0117,-4.1953 z m -111.01,15.547 c 9.6094,-8.1211 21.785,-12.574 34.367,-12.574 12.582,0 24.754,4.4531 34.367,12.574 -9.6133,8.1211 -21.785,12.574 -34.367,12.574 -12.582,0 -24.758,-4.4531 -34.367,-12.574 z m 96.039,2.0898 3.6953,6.457 c -6.8008,-1.25 -13.176,-4.1875 -18.543,-8.5469 5.3672,-4.3594 11.742,-7.2969 18.543,-8.5469 l -3.6953,6.457 c -0.73828,1.2969 0,2.68738 0,4.1797 z m -87.227,-60.059 v -0.004 c 0.75,-1.293 0.75,-2.8906 0,-4.1875 l -12.883,-22.539 12.879,-22.559 c 0.74219,-1.2969 0.73828,-2.8945 -0.0156,-4.1914 -0.75,-1.293 -2.1328,-2.0898 -3.6289,-2.0898 -22.039,-0.0273 -43.277,8.2461 -59.484,23.176 -20.695,-19.309 -48.086,-29.824 -76.387,-29.32 -28.305,0.50391 -55.305,11.98 -75.301,32.016 -0.78906,0.78516 -1.2305,1.8555 -1.2305,2.9688 0,1.1133 0.44141,2.1797 1.2305,2.9688 19.99601,20.031 46.996,31.512 75.301,32.016 28.301,0.5 55.69101,-10.012 76.387,-29.324 16.211,14.934 37.457,23.211 59.5,23.18 1.5,0 2.8828,-0.79688 3.6328,-2.0938 z m -137.47,-0.13281 c -25.309,0.0742 -49.707,-9.4297 -68.297,-26.598 18.629,-17.109 43,-26.602 68.293,-26.602 25.293,0 49.664,9.4922 68.297,26.602 -18.59,17.168 -42.988,26.672 -68.293,26.598 z m 80.453,-26.598 c 0,-17.1612 28.863,-18.551 45.957,-20.098 l -10.305,18.016 c -0.74219,1.2891 -0.74219,2.875 0,4.1641 l 10.305,18.016 c -17.094,-1.5469 -45.957,-2.9366 -45.957,-20.098 z m -193.75425,-91.059 v -0.004 c -1.5262,0.004 -2.93711,-0.79688 -3.70021,-2.0938 -0.76708,-1.293 -0.76708,-2.8945 -0.0119,-4.1914 l 13.13545,-22.555 -13.1039,-22.551 h -0.004 c -0.75516,-1.3008 -0.75118,-2.8984 0.0119,-4.1953 0.7631,-1.2969 2.17401,-2.0938 3.70021,-2.0938 22.4198,-0.0234 44.02563,8.2539 60.51565,23.184 19.26058,-17.453 44.6412,-26.922 70.83274,-26.422 26.1956,0.50391 51.18348,10.934 69.7359,29.113 0.80284,0.78516 1.25199,1.8516 1.25199,2.9648 0,1.1133 -0.44912,2.1836 -1.25199,2.9688 -18.53716,18.215 -43.52809,28.668 -69.73183,29.168 -26.20782,0.50391 -51.59251,-8.9883 -70.83681,-26.48 -16.49409,14.938 -38.11111,23.215 -60.53905,23.184 z m 7.55547,-48.941 10.47682,18.008 v 0.004 c 0.75912,1.293 0.75912,2.8828 0,4.1758 l -10.47682,18.012 c 17.39252,-1.543 33.80318,-8.5977 46.7677,-20.102 -12.96452,-11.5 -29.37518,-18.555 -46.7677,-20.098 z m 184.34398,20.098 c -17.13815,-15.285 -39.4501,-23.754 -62.59434,-23.754 -23.13914,0 -45.45618,8.4688 -62.59026,23.754 17.13408,15.289 39.44705,23.762 62.59026,23.762 23.14322,0 45.46026,-8.4727 62.59434,-23.762 z m 239.879,5.453 -0.004,0.004 c -0.75,-1.2969 -2.1328,-2.0938 -3.6328,-2.0938 -22.035,-0.0273 -43.273,8.2461 -59.484,23.176 -20.695,-19.309 -48.086,-29.824 -76.387,-29.32 -28.301,0.50391 -55.301,11.98 -75.301,32.016 -0.78516,0.78516 -1.2305,1.8555 -1.2305,2.9688 0,1.1133 0.44531,2.1797 1.2305,2.9648 20,20.035 47,31.516 75.301,32.016 28.301,0.50391 55.691,-10.012 76.387,-29.32 16.211,14.93 37.449,23.207 59.484,23.18 1.4961,0 2.8789,-0.80078 3.6328,-2.0938 0.75,-1.293 0.75391,-2.8906 0.0117,-4.1914 l -12.895,-22.555 12.879,-22.559 c 0.75,-1.2969 0.75,-2.8906 0.004,-4.1875 z m -137.48,53.348 c -25.309,0.0742 -49.707,-9.4297 -68.297,-26.598 18.629,-17.109 43,-26.602 68.293,-26.602 25.293,0 49.664,9.4922 68.297,26.602 -18.59,17.168 -42.988,26.668 -68.293,26.598 z m 116.11,-28.684 c -0.74219,1.293 -0.74219,2.8789 0,4.168 l 10.305,18.016 c -17.094,-1.5469 -33.219,-8.6016 -45.957,-20.098 12.738,-11.5 28.863,-18.555 45.957,-20.102 z"
       id="path70"
       sodipodi:nodetypes="cccccccsccccccccscscccccccccccccsccccccccsccccccccccccscscccccccccccccscccccccccccccscccccccscccccccccccscsccccccccsccccccscscccccccccscsccccccscccccccccccsccccccccsccsccccsscccccccsccccsccccccccccccccscscccccccsccccccccccccscccccccc" />
  </g>
</svg>
