<?xml version="1.0" encoding="UTF-8" standalone="no"?>
<svg
   width="490pt"
   height="348.25pt"
   version="1.1"
   viewBox="0 0 490 348.25"
   id="svg16"
   sodipodi:docname="users.svg"
   inkscape:version="1.1.2 (1:1.1+202202050950+0a00cf5339)"
   xmlns:inkscape="http://www.inkscape.org/namespaces/inkscape"
   xmlns:sodipodi="http://sodipodi.sourceforge.net/DTD/sodipodi-0.dtd"
   xmlns="http://www.w3.org/2000/svg"
   xmlns:svg="http://www.w3.org/2000/svg">
  <defs
     id="defs20" />
  <sodipodi:namedview
     id="namedview18"
     pagecolor="#ffffff"
     bordercolor="#666666"
     borderopacity="1.0"
     inkscape:pageshadow="2"
     inkscape:pageopacity="0.0"
     inkscape:pagecheckerboard="0"
     inkscape:document-units="pt"
     showgrid="false"
     fit-margin-top="0"
     fit-margin-left="0"
     fit-margin-right="0"
     fit-margin-bottom="0"
     inkscape:zoom="0.54472476"
     inkscape:cx="215.70527"
     inkscape:cy="328.60632"
     inkscape:window-width="1920"
     inkscape:window-height="1009"
     inkscape:window-x="0"
     inkscape:window-y="34"
     inkscape:window-maximized="1"
     inkscape:current-layer="svg16" />
  <g
     id="g14"
     transform="translate(-105,-105)">
    <path
       d="M 547.75,325.5 H 504 c 1.75,8.75 3.5,17.5 3.5,26.25 V 434 c 0,7 -1.75,12.25 -3.5,17.5 h 73.5 c 8.75,0 17.5,-8.75 17.5,-17.5 v -61.25 c 0,-24.5 -21,-47.25 -47.25,-47.25 z"
       id="path2" />
    <path
       d="m 558.25,239.75 c 0,-35 -28,-63 -61.25,-63 -33.25,0 -61.25,28 -61.25,63 0,35 28,63 61.25,63 33.25,0 61.25,-29.75 61.25,-63 z"
       id="path4" />
    <path
       d="M 196,325.5 H 152.25 C 126,325.5 105,346.5 105,372.75 V 434 c 0,8.75 8.75,17.5 17.5,17.5 h 71.75 C 192.5,448 192.5,441 192.5,435.75 V 353.5 c -1.75,-10.5 0,-19.25 3.5,-28 z"
       id="path6" />
    <path
       d="m 262.5,239.75 c 0,-35 -28,-63 -61.25,-63 -33.25,0 -61.25,28 -61.25,63 0,35 28,63 61.25,63 33.25,0 61.25,-29.75 61.25,-63 z"
       id="path8" />
    <path
       d="M 416.5,295.75 H 285.25 c -31.5,0 -57.75,26.25 -57.75,57.75 v 82.25 c 0,10.5 7,17.5 17.5,17.5 h 210 c 10.5,0 17.5,-7 17.5,-17.5 V 353.5 c 0,-31.5 -24.5,-57.75 -56,-57.75 z"
       id="path10" />
    <path
       d="m 348.25,262.5 c 42,0 77,-35 77,-78.75 0,-43.75 -35,-78.75 -77,-78.75 -42,0 -77,35 -77,78.75 0,43.75 33.25,78.75 77,78.75 z"
       id="path12" />
  </g>
</svg>
