<?xml version="1.0" encoding="UTF-8" standalone="no"?>
<svg
   width="401.74161pt"
   height="548.55121pt"
   version="1.1"
   viewBox="0 0 401.74161 548.55121"
   id="svg40"
   sodipodi:docname="noun-bottle-3975783.svg"
   inkscape:version="1.2.1 (1:1.2.1+202210291244+9c6d41e410)"
   xmlns:inkscape="http://www.inkscape.org/namespaces/inkscape"
   xmlns:sodipodi="http://sodipodi.sourceforge.net/DTD/sodipodi-0.dtd"
   xmlns="http://www.w3.org/2000/svg"
   xmlns:svg="http://www.w3.org/2000/svg">
  <sodipodi:namedview
     id="namedview42"
     pagecolor="#ffffff"
     bordercolor="#666666"
     borderopacity="1.0"
     inkscape:showpageshadow="2"
     inkscape:pageopacity="0.0"
     inkscape:pagecheckerboard="0"
     inkscape:deskcolor="#d1d1d1"
     inkscape:document-units="pt"
     showgrid="false"
     inkscape:zoom="0.50571429"
     inkscape:cx="74.152542"
     inkscape:cy="261.01695"
     inkscape:window-width="1920"
     inkscape:window-height="1009"
     inkscape:window-x="0"
     inkscape:window-y="34"
     inkscape:window-maximized="1"
     inkscape:current-layer="g38" />
  <defs
     id="defs20">
    <symbol
       id="f"
       overflow="visible">
      <path
         d="m 39.078,-2.3281 c -2.0117,1.043 -4.1094,1.8281 -6.2969,2.3594 -2.1875,0.5313 -4.4648,0.79688 -6.8281,0.79688 -7.0859,0 -12.699,-1.9766 -16.844,-5.9375 -4.1367,-3.957 -6.2031,-9.3281 -6.2031,-16.109 0,-6.7891 2.0664,-12.164 6.2031,-16.125 4.1445,-3.9688 9.7578,-5.9531 16.844,-5.9531 2.3633,0 4.6406,0.26562 6.8281,0.79688 2.1875,0.53126 4.2852,1.3242 6.2969,2.375 v 8.7969 c -2.0312,-1.3828 -4.0391,-2.3984 -6.0156,-3.0469 -1.9688,-0.64453 -4.0469,-0.96875 -6.2344,-0.96875 -3.9062,0 -6.9844,1.2578 -9.2344,3.7656 -2.2422,2.5 -3.3594,5.9531 -3.3594,10.359 0,4.3867 1.1172,7.8359 3.3594,10.344 2.25,2.5 5.3281,3.75 9.2344,3.75 2.1875,0 4.2656,-0.32031 6.2344,-0.96875 1.9766,-0.64453 3.9844,-1.6602 6.0156,-3.0469 z"
         id="path2" />
    </symbol>
    <symbol
       id="a"
       overflow="visible">
      <path
         d="m 16.031,-40.953 v 9.0625 h 10.516 v 7.2812 H 16.031 v 13.531 c 0,1.4805 0.28906,2.4805 0.875,3 0.59375,0.52344 1.7656,0.78125 3.5156,0.78125 h 5.2344 v 7.2969 h -8.7344 c -4.0312,0 -6.8867,-0.83594 -8.5625,-2.5156 -1.6797,-1.6875 -2.5156,-4.5391 -2.5156,-8.5625 v -13.531 H 0.7654 v -7.2812 h 5.0781 v -9.0625 z"
         id="path5" />
    </symbol>
    <symbol
       id="e"
       overflow="visible">
      <path
         d="M 26.594,-27.234 V -44.312 H 36.86 V 0 H 26.594 v -4.6094 c -1.3984,1.875 -2.9453,3.25 -4.6406,4.125 -1.6875,0.875 -3.6406,1.3125 -5.8594,1.3125 -3.9297,0 -7.1562,-1.5625 -9.6875,-4.6875 -2.5234,-3.125 -3.7812,-7.1445 -3.7812,-12.062 0,-4.9141 1.2578,-8.9375 3.7812,-12.062 2.5312,-3.125 5.7578,-4.6875 9.6875,-4.6875 2.1953,0 4.1445,0.44531 5.8438,1.3281 1.707,0.88672 3.2578,2.2578 4.6562,4.1094 z m -6.7188,20.656 c 2.1875,0 3.8516,-0.79688 5,-2.3906 1.1445,-1.5938 1.7188,-3.9102 1.7188,-6.9531 0,-3.0391 -0.57422,-5.3594 -1.7188,-6.9531 -1.1484,-1.5938 -2.8125,-2.3906 -5,-2.3906 -2.168,0 -3.8242,0.79688 -4.9688,2.3906 -1.1484,1.5938 -1.7188,3.9141 -1.7188,6.9531 0,3.043 0.57031,5.3594 1.7188,6.9531 1.1445,1.5938 2.8008,2.3906 4.9688,2.3906 z"
         id="path8" />
    </symbol>
    <symbol
       id="d"
       overflow="visible">
      <path
         d="m 21.875,-6.5781 c 2.1758,0 3.8359,-0.79688 4.9844,-2.3906 1.1562,-1.5938 1.7344,-3.9102 1.7344,-6.9531 0,-3.0391 -0.57812,-5.3594 -1.7344,-6.9531 -1.1484,-1.5938 -2.8086,-2.3906 -4.9844,-2.3906 -2.1875,0 -3.8672,0.80469 -5.0312,2.4062 -1.168,1.6055 -1.75,3.918 -1.75,6.9375 0,3.0234 0.58203,5.3359 1.75,6.9375 1.1641,1.6055 2.8438,2.4062 5.0312,2.4062 z m -6.7812,-20.656 c 1.4062,-1.8516 2.9609,-3.2227 4.6719,-4.1094 1.707,-0.88281 3.6719,-1.3281 5.8906,-1.3281 3.9375,0 7.1641,1.5625 9.6875,4.6875 2.5195,3.125 3.7812,7.1484 3.7812,12.062 0,4.918 -1.2617,8.9375 -3.7812,12.062 -2.5234,3.125 -5.75,4.6875 -9.6875,4.6875 -2.2188,0 -4.1836,-0.44531 -5.8906,-1.3281 -1.7109,-0.88281 -3.2656,-2.2539 -4.6719,-4.1094 V -7e-4 H 4.9058 v -44.312 h 10.188 z"
         id="path11" />
    </symbol>
    <symbol
       id="c"
       overflow="visible">
      <path
         d="m 5.3594,-42.516 h 10.953 v 34.234 h 19.266 V -8e-4 H 5.3594 Z"
         id="path14" />
    </symbol>
    <symbol
       id="b"
       overflow="visible">
      <path
         d="m 16.312,-34.234 v 25.953 h 3.9375 c 4.4766,0 7.8984,-1.1094 10.266,-3.3281 2.3633,-2.2266 3.5469,-5.457 3.5469,-9.6875 0,-4.2188 -1.1797,-7.4258 -3.5312,-9.625 -2.3555,-2.207 -5.7812,-3.3125 -10.281,-3.3125 z M 5.359,-42.5152 h 11.562 c 6.4453,0 11.25,0.46094 14.406,1.375 3.1641,0.91797 5.8789,2.4805 8.1406,4.6875 2,1.918 3.4844,4.1328 4.4531,6.6406 0.96875,2.5 1.4531,5.3398 1.4531,8.5156 0,3.2109 -0.48438,6.0742 -1.4531,8.5938 -0.96875,2.5117 -2.4531,4.7266 -4.4531,6.6406 -2.2734,2.1992 -5.0078,3.7617 -8.2031,4.6875 C 28.077,-0.45663 23.2957,4e-4 16.9205,4e-4 H 5.3585 Z"
         id="path17" />
    </symbol>
  </defs>
  <g
     id="g38"
     transform="translate(-126.14067,-17.293313)">
    <path
       d="m 498.14152,501.15868 -101.67828,57.19338 c -13.48593,7.58576 -29.42905,9.50379 -44.32913,5.33132 -14.89575,-4.17088 -27.52913,-14.09013 -35.11292,-27.57257 L 162.59025,261.56375 c -1.10522,-2.0047 -1.59945,-4.28573 -1.41694,-6.56664 l 9.2358,-122.316 -4.00441,-7.11904 c -2.69648,1.51676 -5.8838,1.89779 -8.86622,1.06553 -2.97902,-0.83415 -5.50352,-2.82024 -7.02028,-5.51674 L 127.64086,80.439591 c -1.51676,-2.696487 -1.90311,-5.885289 -1.06893,-8.864307 0.83753,-2.980927 2.81831,-5.506914 5.51481,-7.023674 l 81.34961,-45.75863 c 5.61418,-3.157939 12.72655,-1.166365 15.8864,4.451217 l 22.87734,40.671314 c 1.51676,2.696489 1.90312,5.885288 1.06894,8.864308 -0.83754,2.980924 -2.81833,5.506915 -5.51482,7.023672 l 4.00441,7.11905 109.32669,55.625369 c 2.04396,1.02839 3.73669,2.63538 4.87602,4.62091 l 154.43099,274.54705 c 7.58379,13.48243 9.50038,29.43096 5.32935,44.32563 -4.17203,14.89984 -14.09013,27.52914 -27.57606,35.11488 z M 214.69965,44.847626 153.6892,79.165613 165.12984,99.504757 226.1403,65.186768 Z m 132.63537,116.816404 -109.32668,-55.62537 -0.001,-0.004 c -2.04396,-1.0284 -3.73669,-2.6354 -4.87412,-4.61752 l -5.72032,-10.169569 -40.67479,22.879309 5.72372,10.16766 c 1.10332,2.0013 1.59761,4.28231 1.41498,6.56326 l -9.23092,122.3247 152.71506,271.49654 c 4.55017,8.08928 12.12877,14.04095 21.06557,16.54293 8.93896,2.50583 18.50605,1.35534 26.59864,-3.1967 l 10.16608,-5.71835 c -11.58787,-5.03121 -21.19306,-13.74185 -27.32545,-24.78682 l 20.33565,-11.43866 c 6.13016,10.89821 17.61017,17.69834 30.11182,17.83716 12.50345,0.14225 24.1338,-6.39974 30.50522,-17.15901 6.37334,-10.75586 6.5236,-24.09794 0.39342,-34.99615 l 20.33566,-11.43867 c 6.25469,10.97618 8.71056,23.70826 6.99291,36.22359 L 486.70655,480.83 c 8.09277,-4.55214 14.04444,-12.13073 16.54447,-21.07101 2.50242,-8.93705 1.35184,-18.50409 -3.19823,-26.59321 z"
       id="path22" />
  </g>
</svg>
