<?xml version="1.0" encoding="UTF-8" standalone="no"?>
<svg
   width="394.53699pt"
   height="394.53955pt"
   version="1.1"
   viewBox="0 0 394.53699 394.53955"
   id="svg16"
   sodipodi:docname="code.svg"
   inkscape:version="1.2.1 (1:1.2.1+202210291244+9c6d41e410)"
   xmlns:inkscape="http://www.inkscape.org/namespaces/inkscape"
   xmlns:sodipodi="http://sodipodi.sourceforge.net/DTD/sodipodi-0.dtd"
   xmlns="http://www.w3.org/2000/svg"
   xmlns:svg="http://www.w3.org/2000/svg">
  <defs
     id="defs20" />
  <sodipodi:namedview
     id="namedview18"
     pagecolor="#ffffff"
     bordercolor="#666666"
     borderopacity="1.0"
     inkscape:showpageshadow="2"
     inkscape:pageopacity="0.0"
     inkscape:pagecheckerboard="0"
     inkscape:deskcolor="#d1d1d1"
     inkscape:document-units="pt"
     showgrid="false"
     inkscape:zoom="0.25285714"
     inkscape:cx="-175.9887"
     inkscape:cy="355.9322"
     inkscape:window-width="1920"
     inkscape:window-height="1009"
     inkscape:window-x="0"
     inkscape:window-y="34"
     inkscape:window-maximized="1"
     inkscape:current-layer="svg16" />
  <g
     fill="none"
     stroke="#000000"
     stroke-linecap="round"
     stroke-linejoin="round"
     stroke-miterlimit="10"
     stroke-width="3"
     id="g14"
     transform="translate(-152.7255,-82.724227)">
    <path
       transform="matrix(12.727,0,0,12.727,70,0)"
       d="m 26.9,11.5 v 4.7002"
       id="path2" />
    <path
       transform="matrix(12.727,0,0,12.727,70,0)"
       d="M 33.4,8.8 V 18.9"
       id="path4" />
    <path
       transform="matrix(12.727,0,0,12.727,70,0)"
       d="M 17.1,32.5 V 27.7998"
       id="path6" />
    <path
       transform="matrix(12.727,0,0,12.727,70,0)"
       d="M 10.6,35.2 V 25.1"
       id="path8" />
    <path
       transform="matrix(12.727,0,0,12.727,70,0)"
       d="M 17.9,19.8 H 9.9001 C 8.90016,19.8 8,18.99986 8,17.8999 V 9.9 C 8,8.8 8.80014,7.9999 9.9001,7.9999 H 17.9 c 0.99994,0 1.9001,0.80014 1.9001,1.9001 v 7.9999 c 0,1.0003 -0.89989,1.9001 -1.9001,1.9001 z"
       id="path10" />
    <path
       transform="matrix(12.727,0,0,12.727,70,0)"
       d="m 26.1,24.2 h 7.9999 C 35.09984,24.2 36,25.00014 36,26.1001 V 34.1 c 0,0.99994 -0.80014,1.9001 -1.9001,1.9001 H 26.1 c -0.99994,0 -1.9001,-0.80014 -1.9001,-1.9001 V 26.1001 C 24.1999,25.0998 25.09979,24.2 26.1,24.2 Z"
       id="path12" />
  </g>
</svg>
